<svg xmlns="http://www.w3.org/2000/svg" viewBox="0 0 1200 495.91"><defs><style>.cls-1{fill:#262425;}</style></defs><g id="Layer_2" data-name="Layer 2"><g id="Layer_1-2" data-name="Layer 1"><path class="cls-1" d="M0,361.68H112.19V189.11C97,208.94,71.27,218.2,40.92,218.2h-6.6V88.6h3.3c63.35,0,79.2-47.6,79.2-82h134V361.68H359.22V489.29H0Z"/><path class="cls-1" d="M840.78,361.68H953V189.11c-15.18,19.83-40.92,29.09-71.27,29.09h-6.6V88.6h3.3c63.35,0,79.19-47.6,79.19-82h134V361.68H1200V489.29H840.78Z"/><path class="cls-1" d="M422.47,326.64V169.27C422.47,70.75,493.09,0,600.66,0,706.91,0,777.53,72.07,777.53,169.27V326.64c0,98.52-70.62,169.27-178.19,169.27C493.09,495.91,422.47,423.84,422.47,326.64Z"/></g></g></svg>