<svg xmlns="http://www.w3.org/2000/svg" viewBox="0 0 128 128"><defs><style>.cls-1{fill:#e5b223;}</style></defs><g id="Layer_2" data-name="Layer 2"><g id="Layer_1-2" data-name="Layer 1"><path class="cls-1" d="M64,0a64,64,0,1,0,64,64A64,64,0,0,0,64,0ZM85.33,86h0v12.1H42.67a33,33,0,0,1,4.15-13Q50.29,79,60.51,68.82q8.24-8.2,10.09-11.13a15,15,0,0,0,2.52-8q0-4.36-2.19-6.71a7.86,7.86,0,0,0-6-2.34,7.83,7.83,0,0,0-6.07,2.46c-1.5,1.63-2.37,4.36-2.6,8.16L44.09,50q1.08-10.76,6.8-15.44t14.3-4.68q9.41,0,14.77,5.42a18.43,18.43,0,0,1,5.37,13.5,25.08,25.08,0,0,1-1.53,8.74,36.11,36.11,0,0,1-4.88,8.7,80.9,80.9,0,0,1-8,8.66q-5.76,5.67-7.3,7.52A22.61,22.61,0,0,0,61.16,86Z"/></g></g></svg>