<svg xmlns="http://www.w3.org/2000/svg" viewBox="0 0 128 128"><defs><style>.cls-1{fill:#13b277;}</style></defs><g id="Layer_2" data-name="Layer 2"><g id="Layer_1-2" data-name="Layer 1"><path class="cls-1" d="M64,0a64,64,0,1,0,64,64A64,64,0,0,0,64,0ZM79.16,91.93a20.86,20.86,0,0,1-15.38,6.2A20.31,20.31,0,0,1,42.67,79.25l11.91-1.5A11.94,11.94,0,0,0,57.65,85a8.43,8.43,0,0,0,12.46-.5,12,12,0,0,0,2.61-8.12,11.13,11.13,0,0,0-2.5-7.66,7.8,7.8,0,0,0-6.09-2.83,20.69,20.69,0,0,0-5.65,1l1.36-10.44c3.33.09,5.87-.67,7.62-2.26a8.21,8.21,0,0,0,2.63-6.37,7.38,7.38,0,0,0-1.93-5.37,6.76,6.76,0,0,0-5.12-2,7.28,7.28,0,0,0-5.39,2.28,10.89,10.89,0,0,0-2.71,6.66l-11.35-2a27.15,27.15,0,0,1,3.57-9.69,16.21,16.21,0,0,1,6.66-5.7,21.61,21.61,0,0,1,9.57-2.07q9.06,0,14.54,6A16,16,0,0,1,82.44,47q0,8.81-9.24,14.05A14.91,14.91,0,0,1,82,66.57a16.48,16.48,0,0,1,3.3,10.36A20.49,20.49,0,0,1,79.16,91.93Z"/></g></g></svg>