<svg xmlns="http://www.w3.org/2000/svg" version="1.1" id="Layer_1" x="0" y="0" viewBox="0 0 1610 1610" xml:space="preserve" width="100%" height="100%" class="logo"><style type="text/css" id="style2"></style><path style="fill:#f9f9f9;stroke:#f9f9f9;stroke-width:5;stroke-miterlimit:4;stroke-opacity:1;paint-order:fill markers" d="M5 5v1600h1600V5H5zm359.4 280h129.1l158.7 481.6H514.5l-17.8-57.4h-137L342 766.6H205L364.4 285zm307.6 0h174.5c120.6 0 185.1 78.5 185.1 170.2 0 62.7-26.3 118.8-80.3 149.1l91.5 162.3H888l-67.1-135.5h-11.3v135.5H672V285zm379.4 0H1405v127.3h-109.3v354.3H1164V412.3h-112.6V285zM809.6 410.4v95.7h30.3c26.3 0 50.7-15.9 50.7-48.2 0-31-24.4-47.5-50.7-47.5h-30.3zm-380.7 77.8-31.6 99.6h61.9l-30.3-99.6zm376.7 330.9c110.821 0 186.9 77.258 186.9 179.3v157.3c0 51.638-18.687 96.82-51.807 128.782-33.12 31.962-80.399 50.518-136.392 50.518-110.822 0-186.9-77.258-186.9-179.3V998.4c0-51.639 18.684-96.82 51.804-128.783 33.12-31.962 80.401-50.517 136.395-50.517zm-493.8 6.6h154v355.1h108.4v147.6H195v-147.6h112.2v-139.982c-16.8 11.24-38.182 16.483-61.3 16.483h-16.6V907.699h13.3c29.197 0 45.188-10.203 55.31-24.011 10.122-13.809 13.89-32.32 13.89-47.989v-10zm840.8 0h154v355.1H1415v147.6h-379.2v-147.6H1148v-139.984c-16.8 11.241-38.183 16.485-61.3 16.485h-16.6V907.699h13.3c29.198 0 45.187-10.203 55.309-24.011 10.122-13.809 13.89-32.32 13.89-47.989v-10z" id="rect4" class="svg-elem-1"></path><path style="fill:#231f20;stroke:#231f20;stroke-width:5;stroke-miterlimit:4;stroke-opacity:1" id="path8" d="M364.4 285h129.1l158.7 481.6H514.5l-17.8-57.4h-137L342 766.6H205Zm64.5 203.2-31.6 99.6h61.9z" class="svg-elem-2"></path><path style="fill:#231f20;stroke:#231f20;stroke-width:5;stroke-miterlimit:4;stroke-opacity:1" id="path10" d="M1164 412.3h-112.6V285H1405v127.3h-109.3v354.3H1164Z" class="svg-elem-3"></path><path class="svg-elem-4" d="M888 766.6h154.8l-91.5-162.3c54-30.3 80.3-86.4 80.3-149.1 0-91.7-64.5-170.2-185.1-170.2H672v481.6h137.6V631.1h11.3zm-78.4-356.2h30.3c26.3 0 50.7 16.5 50.7 47.5 0 32.3-24.4 48.2-50.7 48.2h-30.3z" id="path14" style="fill:#231f20;stroke:#231f20;stroke-width:5;stroke-miterlimit:4;stroke-opacity:1;stroke-linecap:square;"></path></svg>