<svg xmlns="http://www.w3.org/2000/svg" viewBox="0 0 1600 1600"><defs><style>.cls-1{fill:#f6f6f6;}.cls-2{fill:#262425;}.cls-3{fill:#f15e4c;}.cls-4{fill:#12b276;}.cls-5{fill:#e5b223;}</style></defs><g id="Layer_2" data-name="Layer 2"><g id="Layer_1-2" data-name="Layer 1"><rect class="cls-1" width="1600" height="1600"/><path class="cls-2" d="M200,1185.77H312.19V1013.2c-15.18,19.84-40.92,29.09-71.27,29.09h-6.6V912.69h3.3c63.35,0,79.2-47.6,79.2-82h134v355.06H559.22v127.62H200Z"/><path class="cls-2" d="M1040.78,1185.77H1153V1013.2c-15.18,19.84-40.92,29.09-71.27,29.09h-6.6V912.69h3.3c63.35,0,79.19-47.6,79.19-82h134v355.06H1400v127.62H1040.78Z"/><path class="cls-3" d="M359.37,280H488.45L647.16,761.65H509.52l-17.78-57.4h-137L337,761.65H200Zm64.54,203.22L392.3,582.85h61.9Z"/><path class="cls-4" d="M1159,407.34H1046.35V280H1400V407.34H1290.68V761.65H1159Z"/><path class="cls-5" d="M883,761.65h154.76L946.2,599.34c54-30.35,80.34-86.43,80.34-149.11C1026.54,358.51,962,280,841.48,280H667V761.65H804.61V626.07h11.26ZM804.61,405.36H834.9c26.34,0,50.71,16.5,50.71,47.51,0,32.32-24.37,48.16-50.71,48.16H804.61Z"/><path class="cls-2" d="M622.47,1150.73V993.36c0-98.52,70.62-169.27,178.19-169.27,106.25,0,176.87,72.07,176.87,169.27v157.37c0,98.52-70.62,169.27-178.19,169.27C693.09,1320,622.47,1247.93,622.47,1150.73Z"/></g></g></svg>