<?xml version="1.0" encoding="utf-8"?>
<!-- Generator: Adobe Illustrator 25.4.1, SVG Export Plug-In . SVG Version: 6.00 Build 0)  -->
<svg version="1.1" id="Layer_1" xmlns="http://www.w3.org/2000/svg" xmlns:xlink="http://www.w3.org/1999/xlink" x="0px" y="0px"
	 viewBox="0 0 1600 1600" style="enable-background:new 0 0 1600 1600;" xml:space="preserve">
<style type="text/css">
	.st0{fill:#F6F6F6;}
	.st1{fill:#231F20;}
	.st2{fill:#F15E4C;}
	.st3{fill:#12B276;}
	.st4{fill:#E5B223;}
	.st5{fill:#0083DF;}
</style>
<rect class="st0" width="1600" height="1600"/>
<path class="st1" d="M559.2,1313.4H200v-127.6h112.2v-172.6c-15.2,19.8-40.9,29.1-71.3,29.1h-6.6V912.7h3.3
	c63.4,0,79.2-47.6,79.2-82h134v355.1h108.4V1313.4z M977.5,1150.7c0,98.5-70.6,169.3-178.2,169.3c-106.3,0-176.9-72.1-176.9-169.3
	V993.4c0-98.5,70.6-169.3,178.2-169.3c106.3,0,176.9,72.1,176.9,169.3V1150.7z M1400,1313.4h-359.2v-127.6H1153v-172.6
	c-15.2,19.8-40.9,29.1-71.3,29.1h-6.6V912.7h3.3c63.4,0,79.2-47.6,79.2-82h134v355.1H1400V1313.4z"/>
<g>
	<path class="st2" d="M359.4,280h129.1l158.7,481.6H509.5l-17.8-57.4h-137L337,761.6H200L359.4,280z M423.9,483.2l-31.6,99.6h61.9
		L423.9,483.2z"/>
	<path class="st3" d="M1159,407.3h-112.6V280H1400v127.3h-109.3v354.3H1159V407.3z"/>
</g>
<path class="st4" d="M883,761.6h154.8l-91.5-162.3c54-30.3,80.3-86.4,80.3-149.1c0-91.7-64.5-170.2-185.1-170.2H667v481.6h137.6
	V626.1h11.3L883,761.6z M804.6,405.4h30.3c26.3,0,50.7,16.5,50.7,47.5c0,32.3-24.4,48.2-50.7,48.2h-30.3V405.4z"/>
<rect x="722.1" y="1001.1" class="st0" width="162.3" height="162.3"/>
<g>
	<path class="st5" d="M867.2,1189.9c-3.1-0.7-7.8-1.8-12.5-3.1c-12.9-3.7-22.7-0.1-31.6,10.4c-18.1,21.4-28.3,21.7-45.6,0.6
		c-10.4-12.7-21.8-13.9-36.2-10.3c-21.9,5.6-32.4-1.9-33-24.3c-0.3-15.7-7.2-25-21.3-31.1c-24.4-10.6-27.7-20.5-13.8-42.5
		c7.7-12.1,7.8-22.6,0.1-34.7c-14-22.1-10.8-32.2,13.5-42.5c15.2-6.4,21.1-16.8,21.5-32.7c0.5-20.2,11.9-28.8,31.2-23.3
		c16.6,4.7,28.7,1.9,40-12.2c14.6-18.2,26.4-18,41,0.4c10.8,13.6,22.6,16.6,38.6,12.2c20.6-5.7,32,2.4,32.2,23.4
		c0.2,17.2,8.2,26.7,23.5,33c21.3,8.8,25.1,20.4,12.9,39.3c-8.8,13.6-9.1,25.3-0.1,39c12.5,19.1,8.7,31-12.4,39.5
		c-16.2,6.5-23.9,16.7-23.8,34.5C891.5,1181.2,882.3,1190,867.2,1189.9z M758.2,1066.3c-7.9,5.9-14,10.5-17.1,12.9
		c15.6,16.1,29.8,30.7,43.1,44.5c28.4-28.4,57.5-57.5,86.8-86.9c-4.2-4.3-9.4-9.5-16.9-17.1c-24.2,24.5-46.1,46.8-72,73.1
		C773.8,1082.3,764.5,1074.1,758.2,1066.3z"/>
</g>
</svg>
