<?xml version="1.0" encoding="UTF-8" standalone="no"?>
<svg
   xmlns:dc="http://purl.org/dc/elements/1.1/"
   xmlns:cc="http://creativecommons.org/ns#"
   xmlns:rdf="http://www.w3.org/1999/02/22-rdf-syntax-ns#"
   xmlns:svg="http://www.w3.org/2000/svg"
   xmlns="http://www.w3.org/2000/svg"
   xmlns:sodipodi="http://sodipodi.sourceforge.net/DTD/sodipodi-0.dtd"
   xmlns:inkscape="http://www.inkscape.org/namespaces/inkscape"
   viewBox="0 0 2450 520"
   version="1.1"
   id="svg20"
   sodipodi:docname="Art101_Logo.svg"
   width="2450"
   height="520"
   inkscape:version="0.92.5 (2060ec1f9f, 2020-04-08)">
  <metadata
     id="metadata24">
    <rdf:RDF>
      <cc:Work
         rdf:about="">
        <dc:format>image/svg+xml</dc:format>
        <dc:type
           rdf:resource="http://purl.org/dc/dcmitype/StillImage" />
        <dc:title />
      </cc:Work>
    </rdf:RDF>
  </metadata>
  <sodipodi:namedview
     pagecolor="#ffffff"
     bordercolor="#666666"
     borderopacity="1"
     objecttolerance="10"
     gridtolerance="10"
     guidetolerance="10"
     inkscape:pageopacity="0"
     inkscape:pageshadow="2"
     inkscape:window-width="1848"
     inkscape:window-height="1016"
     id="namedview22"
     showgrid="false"
     inkscape:zoom="0.26548775"
     inkscape:cx="1738.1032"
     inkscape:cy="58.825234"
     inkscape:window-x="72"
     inkscape:window-y="27"
     inkscape:window-maximized="1"
     inkscape:current-layer="svg20" />
  <defs
     id="defs4">
    <style
       id="style2">.cls-1{fill:#f15e4c;}.cls-2{fill:#12b276;}.cls-3{fill:#e5b223;}.cls-4{fill:#262425;}</style>
  </defs>
  <g
     id="Layer_2"
     data-name="Layer 2"
     style="stroke:#000000;stroke-width:7;stroke-miterlimit:4;stroke-dasharray:none;stroke-opacity:1"
     transform="translate(21.480255,12.045)">
    <g
       id="Layer_1-2"
       data-name="Layer 1"
       style="stroke:#000000;stroke-width:7;stroke-miterlimit:4;stroke-dasharray:none;stroke-opacity:1">
      <path
         class="cls-1"
         d="M 159.37,7.13 H 288.45 L 447.16,488.78 H 309.52 l -17.78,-57.4 h -137 L 137,488.78 H 0 Z M 223.91,210.34 192.3,310 h 61.9 z"
         id="path6"
         style="fill:#f15e4c;stroke:#f15e4c;stroke-width:7;stroke-miterlimit:4;stroke-dasharray:none;stroke-opacity:1"
         inkscape:connector-curvature="0" />
      <path
         class="cls-2"
         d="M 959,134.47 H 846.35 V 7.13 H 1200 V 134.47 H 1090.68 V 488.78 H 959 Z"
         id="path8"
         style="fill:#12b276;stroke:#12b276;stroke-width:7;stroke-miterlimit:4;stroke-dasharray:none;stroke-opacity:1"
         inkscape:connector-curvature="0" />
      <path
         class="cls-3"
         d="M 683,488.78 H 837.73 L 746.2,326.47 c 54,-30.35 80.34,-86.43 80.34,-149.12 C 826.54,85.64 762,7.13 641.48,7.13 H 467 V 488.78 H 604.61 V 353.19 h 11.26 z M 604.61,132.49 h 30.29 c 26.34,0 50.71,16.49 50.71,47.5 0,32.33 -24.37,48.17 -50.71,48.17 h -30.29 z"
         id="path10"
         style="fill:#e5b223;stroke:#e5b223;stroke-width:7;stroke-miterlimit:4;stroke-dasharray:none;stroke-opacity:1"
         inkscape:connector-curvature="0" />
      <path
         class="cls-4"
         d="m 1208,361.68 h 112.19 V 189.11 c -15.18,19.83 -40.92,29.09 -71.27,29.09 h -6.6 V 88.6 h 3.3 c 63.35,0 79.2,-47.6 79.2,-82 h 134 v 355.08 h 108.43 V 489.29 H 1208 Z"
         id="path12"
         style="fill:#231f20;stroke:#231f20;stroke-width:7;stroke-miterlimit:4;stroke-dasharray:none;stroke-opacity:1;fill-opacity:1"
         inkscape:connector-curvature="0" />
      <path
         class="cls-4"
         d="M 2048.78,361.68 H 2161 V 189.11 c -15.18,19.83 -40.92,29.09 -71.27,29.09 h -6.6 V 88.6 h 3.3 c 63.35,0 79.19,-47.6 79.19,-82 h 134 V 361.68 H 2408 v 127.61 h -359.22 z"
         id="path14"
         style="fill:#231f20;stroke:#231f20;stroke-width:7;stroke-miterlimit:4;stroke-dasharray:none;stroke-opacity:1;fill-opacity:1"
         inkscape:connector-curvature="0" />
      <path
         class="cls-4"
         d="M 1630.47,326.64 V 169.27 C 1630.47,70.75 1701.09,0 1808.66,0 c 106.25,0 176.87,72.07 176.87,169.27 v 157.37 c 0,98.52 -70.62,169.27 -178.19,169.27 -106.25,0 -176.87,-72.07 -176.87,-169.27 z"
         id="path16"
         style="fill:#231f20;stroke:#231f20;stroke-width:7;stroke-miterlimit:4;stroke-dasharray:none;stroke-opacity:1;fill-opacity:1"
         inkscape:connector-curvature="0" />
    </g>
  </g>
</svg>
