<?xml version="1.0" encoding="utf-8"?>
<!-- Generator: Adobe Illustrator 25.4.1, SVG Export Plug-In . SVG Version: 6.00 Build 0)  -->
<svg version="1.1" id="Layer_1" xmlns="http://www.w3.org/2000/svg" xmlns:xlink="http://www.w3.org/1999/xlink" x="0px" y="0px"
	 viewBox="0 0 1600 1600" style="enable-background:new 0 0 1600 1600;" xml:space="preserve">
<style type="text/css">
	.st0{fill:#231F20;}
	.st1{fill:#F6F6F6;}
	.st2{fill:#F15E4C;}
	.st3{fill:#12B276;}
	.st4{fill:#E5B223;}
</style>
<rect class="st0" width="1600" height="1600"/>
<path class="st1" d="M559.2,1313.4H200v-127.6h112.2v-172.6c-15.2,19.8-40.9,29.1-71.3,29.1h-6.6V912.7h3.3
	c63.4,0,79.2-47.6,79.2-82h134v355.1h108.4V1313.4z M977.5,1150.7c0,98.5-70.6,169.3-178.2,169.3c-106.3,0-176.9-72.1-176.9-169.3
	V993.4c0-98.5,70.6-169.3,178.2-169.3c106.3,0,176.9,72.1,176.9,169.3V1150.7z M1400,1313.4h-359.2v-127.6H1153v-172.6
	c-15.2,19.8-40.9,29.1-71.3,29.1h-6.6V912.7h3.3c63.4,0,79.2-47.6,79.2-82h134v355.1H1400V1313.4z"/>
<g>
	<path class="st2" d="M359.4,280h129.1l158.7,481.6H509.5l-17.8-57.4h-137L337,761.6H200L359.4,280z M423.9,483.2l-31.6,99.6h61.9
		L423.9,483.2z"/>
	<path class="st3" d="M1159,407.3h-112.6V280H1400v127.3h-109.3v354.3H1159V407.3z"/>
</g>
<path class="st4" d="M883,761.6h154.8l-91.5-162.3c54-30.3,80.3-86.4,80.3-149.1c0-91.7-64.5-170.2-185.1-170.2H667v481.6h137.6
	V626.1h11.3L883,761.6z M804.6,405.4h30.3c26.3,0,50.7,16.5,50.7,47.5c0,32.3-24.4,48.2-50.7,48.2h-30.3V405.4z"/>
</svg>
