<?xml version="1.0" encoding="utf-8"?>
<!-- Generator: Adobe Illustrator 25.4.1, SVG Export Plug-In . SVG Version: 6.00 Build 0)  -->
<svg version="1.1" id="Layer_1" xmlns="http://www.w3.org/2000/svg" xmlns:xlink="http://www.w3.org/1999/xlink" x="0px" y="0px"
	 viewBox="0 0 1100 450" style="enable-background:new 0 0 1100 450;" xml:space="preserve">
<style type="text/css">
	.st0{fill:#F15E4D;}
	.st1{fill:#3799B2;}
	.st2{fill:#18B277;}
	.st3{fill:#E5B223;}
	.st4{fill:#231F20;}
</style>
<g>
	<g>
		<path class="st0" d="M15,27.8h61.5c43.9,0,63.6,15.7,63.6,48.5c0,15-5.5,25.6-14.6,32.5c12,7.2,18.5,18.5,18.5,35.1
			c0,36.9-25.2,52.4-68.7,52.4H15V27.8z"/>
		<path class="st1" d="M156.3,196.2l56-168.5h45.3l55.7,168.5H156.3z"/>
		<path class="st2" d="M454.3,27.8v105.5c0,40.8-23.8,65.3-65.4,65.3s-65.2-24.5-65.2-65.3V27.8H454.3z"/>
		<path class="st3" d="M611.7,27.8v168.5h-48.6h-33.5H481V27.8H611.7z"/>
		<path class="st0" d="M634.4,196.2l56-168.5h45.3l55.7,168.5H634.4z"/>
		<path class="st1" d="M932.4,27.8v105.5c0,40.8-23.8,65.3-65.4,65.3s-65.2-24.5-65.2-65.3V27.8H932.4z"/>
	</g>
	<path class="st2" d="M1036,90.7l29.9-23.4l17.1-13.2c-12-14.8-31.2-29.1-63.3-29.1c-36.8,0-61.3,23.3-61.3,54.9
		c0,31.2,21.7,42.4,42,48.7L960.8,160l-9.9,7.8c14.1,15.7,32.1,30.9,68.9,30.9c41.6,0,65.2-26.5,65.2-57.2
		C1085,107.6,1058.2,97.2,1036,90.7z"/>
	<g>
		<path class="st4" d="M15,231.3h69.7c49.8,0,72,17.8,72,54.9c0,17-6.3,29-16.5,36.9c13.6,8.1,21,20.9,21,39.7
			c0,41.8-28.5,59.3-77.8,59.3H15V231.3z"/>
		<path class="st4" d="M191,231.3h55v138.3h55.5v52.5H191V231.3z"/>
		<path class="st4" d="M320.1,326.7c0-54.1,42.7-98,97.7-98c54.5,0,97.9,43.9,97.9,98c0,54.4-42.7,98-97.9,98
			C362.8,424.7,320.1,381.1,320.1,326.7z"/>
		<path class="st4" d="M758.2,422.1V231.3H918l-54.2,75.8l57.9,115H758.2z"/>
	</g>
	<path class="st4" d="M1028.3,302.6l53.4-41.4c-13.6-16.7-35.4-32.9-71.8-32.9c-41.6,0-69.4,26.4-69.4,62.2
		c0,35.5,24.8,48.2,47.9,55.3L932.1,390c16,17.8,36.4,35,78,35c47.1,0,73.8-30.1,73.8-64.8C1084,321.7,1053.4,309.9,1028.3,302.6z"
		/>
</g>
<path class="st4" d="M711,360l-61.5-33.3l79.4-51.2c-17.3-27.7-48.2-46.8-86.2-46.8c-57.4,0-97.7,43.9-97.7,98
	c0,54.4,38.8,98,97.7,98c43.5,0,73.9-22.5,89.6-53.3L711,360z"/>
</svg>
