<?xml version="1.0" encoding="UTF-8" standalone="no"?>
<!-- Generator: Adobe Illustrator 25.4.1, SVG Export Plug-In . SVG Version: 6.00 Build 0)  -->

<svg
   xmlns:dc="http://purl.org/dc/elements/1.1/"
   xmlns:cc="http://creativecommons.org/ns#"
   xmlns:rdf="http://www.w3.org/1999/02/22-rdf-syntax-ns#"
   xmlns:svg="http://www.w3.org/2000/svg"
   xmlns="http://www.w3.org/2000/svg"
   xmlns:sodipodi="http://sodipodi.sourceforge.net/DTD/sodipodi-0.dtd"
   xmlns:inkscape="http://www.inkscape.org/namespaces/inkscape"
   version="1.1"
   id="Layer_1"
   x="0px"
   y="0px"
   viewBox="0 0 1728 1128"
   style="enable-background:new 0 0 1728 1128;"
   xml:space="preserve"
   sodipodi:docname="bb.svg"
   inkscape:version="0.92.5 (2060ec1f9f, 2020-04-08)"><metadata
   id="metadata13"><rdf:RDF><cc:Work
       rdf:about=""><dc:format>image/svg+xml</dc:format><dc:type
         rdf:resource="http://purl.org/dc/dcmitype/StillImage" /></cc:Work></rdf:RDF></metadata><defs
   id="defs11" /><sodipodi:namedview
   pagecolor="#ffffff"
   bordercolor="#666666"
   borderopacity="1"
   objecttolerance="10"
   gridtolerance="10"
   guidetolerance="10"
   inkscape:pageopacity="0"
   inkscape:pageshadow="2"
   inkscape:window-width="1848"
   inkscape:window-height="1016"
   id="namedview9"
   showgrid="false"
   inkscape:zoom="0.42327144"
   inkscape:cx="517.81274"
   inkscape:cy="426.33744"
   inkscape:window-x="72"
   inkscape:window-y="27"
   inkscape:window-maximized="1"
   inkscape:current-layer="Layer_1" />

<path
   style="fill:#F15F4E;"
   d="M32,64h381.395c272.248,0,394.419,93.175,394.419,287.834c0,89.021-34.109,151.929-90.543,192.878  C791.69,587.442,832,654.505,832,753.021C832,972.012,675.721,1064,405.954,1064H32V64z"
   id="path4" />
<path
   style="fill:#231f20;fill-opacity:1"
   d="M896,64h381.395c272.248,0,394.419,93.175,394.419,287.834c0,89.021-34.109,151.929-90.543,192.878  C1655.69,587.442,1696,654.505,1696,753.021C1696,972.012,1539.721,1064,1269.953,1064H896V64z"
   id="path6" />
</svg>