<svg xmlns="http://www.w3.org/2000/svg" width="6400" height="6400"><path style="fill:#3772ff;stroke:#3772ff;stroke-width:0;" d="M-.002.001h800v800h-800z" transform="translate(.002 -.001)"/><path style="fill:#ff7f11;stroke:#ff7f11;stroke-width:0;" d="M399.998 400.001c-220.914 0-400-179.086-400-400 220.914 0 400 179.086 400 400z" transform="translate(.002 -.001)"/><path style="fill:#2ec4b6;stroke:#2ec4b6;stroke-width:0;" d="M-.001 800.001c0-220.914 179.086-400 399.999-400 0 220.914-179.086 400-399.999 400z" transform="translate(.002 -.001)"/><path style="fill:#f55178" d="M799.998 800.001c-220.914 0-400-179.086-400-400 220.914 0 400 179.086 400 400z" transform="translate(.002 -.001)"/><path style="fill:#011627;stroke:#011627;stroke-width:0;" d="M399.999 400.001c0-220.914 179.086-400 399.999-400 0 220.914-179.086 400-399.999 400z" transform="translate(.002 -.001)"/><path style="fill:#ff7f11;stroke:#ff7f11;stroke-width:0;" transform="rotate(-180 799.999 400)" d="M-.002.001h800v800h-800z"/><path d="M319.998.001v400c0 44.183 35.817 80 80 80s80-35.817 80-80v-400zM639.998.001v400c0 44.183 35.817 80 80 80s80-35.817 80-80v-400zM-.002.001v400c0 44.183 35.817 80 80 80s80-35.817 80-80v-400z" style="fill:#3772ff;stroke:#3772ff;stroke-width:0;" transform="translate(800.002)"/><path d="M639.998 400.001c0-44.183-35.817-80-80-80s-80 35.817-80 80v400h160zM319.998 400.001c0-44.183-35.817-80-80-80s-80 35.817-80 80v400h160z" style="fill:#fdfffc;stroke:#fdfffc;stroke-width:0;" transform="translate(800.002)"/><path style="fill:#f55178" d="M-.002.001h800v800h-800z" transform="translate(800.002 799.999)"/><path style="fill:#fdfffc;stroke:#fdfffc;stroke-width:0;" d="m299.998 100.001-200 200v400l482.843-482.843z" transform="translate(800.002 799.999)"/><path style="fill:#ff7f11;stroke:#ff7f11;stroke-width:0;" d="m699.998 500.001-200 200h-400l482.843-482.843z" transform="translate(800.002 799.999)"/><path transform="rotate(-90 1299.999 300)" style="fill:#2ec4b6;stroke:#2ec4b6;stroke-width:0;" d="M299.998 100.001h400v400h-400z"/><g transform="translate(.002 799.999)"><path transform="rotate(90 399.998 400)" style="fill:#2ec4b6;stroke:#2ec4b6;stroke-width:0;" d="M-.002.001h800v800h-800z"/><path style="fill:#011627;stroke:#011627;stroke-width:0;" d="M799.998 800.001v-800h-800z"/><circle style="fill:#ff7f11;stroke:#ff7f11;stroke-width:0;" cx="399.998" cy="400.001" r="200"/></g><path transform="rotate(-180 400 1200)" style="fill:#2ec4b6;stroke:#2ec4b6;stroke-width:0;" d="M-.002.001h800v800h-800z"/><path style="fill:#011627;stroke:#011627;stroke-width:0;" d="M799.997 800.001c.001-441.828-358.171-800-799.998-800h-.001v.001c0 441.827 358.172 799.999 799.999 799.999z" transform="translate(.002 1600)"/><path style="fill:#f55178" d="M399.998 400.001c0-220.914-179.086-400-399.999-400-.001 220.914 179.085 400 399.999 400z" transform="translate(.002 1600)"/><path style="fill:#3772ff;stroke:#3772ff;stroke-width:0;;" transform="matrix(0 -1 .99782 0 1.744 2400.001)" d="M.001 799.998h800.002v801.746H.001z"/><path style="fill:#ff7f11;stroke:#ff7f11;stroke-width:0;;" d="M25.547 774.738c6.784 6.338 14.446 12.081 22.392 17.633 9.116 4.791 19.546 7.63 31.888 7.63 79.825 0 79.825-118.518 159.65-118.518s79.825 118.518 159.648 118.518v-400h-.001v-400c-79.823 0-79.823 118.518-159.646 118.518-79.826 0-79.826-118.518-159.65-118.518-12.343 0-22.773 2.839-31.89 7.63-7.946 5.551-15.607 11.295-22.391 17.633-6.507 6.943-12.381 14.826-18.06 23.001C3.738 55.498 1.213 63.56.338 72.738 9.487 225.944 199.56 229.815 199.56 390.571 199.56 555.295-.006 555.295-.006 720.019c0 12.262 2.788 22.639 7.493 31.718 5.679 8.174 11.553 16.058 18.06 23.001z" transform="translate(801.748 1600.001)"/><path style="fill:#011627;stroke:#011627;stroke-width:0;;" d="M558.768 681.482c79.825 0 79.825 118.518 159.65 118.518 12.342 0 22.773-2.839 31.889-7.63 7.947-5.551 15.608-11.295 22.392-17.633 6.507-6.944 12.381-14.827 18.06-23.001 4.705-9.079 7.492-19.456 7.492-31.718 0-164.724-199.565-164.724-199.565-329.448 0-160.757 190.073-164.628 199.221-317.833-.874-9.179-3.4-17.24-7.148-24.474-5.679-8.174-11.552-16.057-18.06-23.001-6.784-6.338-14.446-12.081-22.392-17.633-9.116-4.791-19.547-7.63-31.889-7.63-79.825 0-79.825 118.518-159.65 118.518-79.824 0-79.824-118.518-159.647-118.518v400.002h.003-.003v400c79.824 0 79.824-118.519 159.647-118.519z" transform="translate(801.748 1600.001)"/><path style="fill:#011627;stroke:#011627;stroke-width:0;" d="m399.998 200.001.305.305c.006-.2-.092-.305-.305-.305zM399.998 600.001c.213 0 .311-.106.305-.305z" transform="matrix(.99783 0 0 1 801.744 1600.001)"/><path style="fill:#011627;stroke:#011627;stroke-width:0;;" d="M-.006 200.001v400" transform="translate(801.748 1600.001)"/><path style="fill:#011627;stroke:#011627;stroke-width:0;" d="M-1.748 600.001c.213 0 .311-.106.305-.305z" transform="matrix(.99783 0 0 1 801.744 1600.001)"/><g transform="translate(800.002 2399.999)"><path style="fill:#011627;stroke:#011627;stroke-width:0;" d="M-.002.001h800v800h-800z"/><path style="fill:#2ec4b6;stroke:#2ec4b6;stroke-width:0;" d="M399.998 800.001c220.914 0 400-179.086 400-400s-179.086-400-400-400-400 179.086-400 400h400z"/><circle style="fill:#fdfffc;stroke:#fdfffc;stroke-width:0;" cx="199.998" cy="600.001" r="200"/></g><path style="fill:#f55178" d="M-.002.001h800v800h-800z" transform="translate(.002 2399.999)"/><path style="fill:#011627;stroke:#011627;stroke-width:0;" d="M99.998 100.001h600v600h-600z" transform="translate(.002 2399.999)"/><path style="fill:#ff7f11;stroke:#ff7f11;stroke-width:0;" d="M199.998 200.001h400v400h-400z" transform="translate(.002 2399.999)"/><path d="M399.998 500.001c-55.229 0-100-44.771-100-100 0-55.228 44.771-100 100-100 55.228 0 100 44.771 100 100 0 55.228-44.771 100-100 100z" style="fill:#3772ff;stroke:#3772ff;stroke-width:0;" transform="translate(.002 2399.999)"/><path transform="rotate(90 1200 1200.002)" style="fill:#ff7f11;stroke:#ff7f11;stroke-width:0;" d="M-.002.001h800v800h-800z"/><path style="fill:#3772ff;stroke:#3772ff;stroke-width:0;" d="M699.998 300.001c0 165.685-134.315 300-300 300s-300-134.315-300-300z" transform="translate(1600.002)"/><path style="fill:#fdfffc;stroke:#fdfffc;stroke-width:0;" d="M99.998 300.001c0-165.685 134.315-300 300-300s300 134.315 300 300z" transform="translate(1600.002)"/><path transform="rotate(90 1200 1500.002)" style="fill:#f55178" d="M299.998 300.001h200v800h-200z"/><path style="fill:#3772ff;stroke:#3772ff;stroke-width:0;" d="M-.002.001h800v800h-800z" transform="translate(2400.002 -.001)"/><path d="M633.08 166.949c-72.385-72.384-155.617 10.847-228.001-61.537a125.848 125.848 0 0 1-5.08-5.411 127.039 127.039 0 0 1-5.08 5.411c-72.385 72.384-155.616-10.847-228.001 61.537-72.384 72.383 10.848 155.614-61.536 227.997a126.432 126.432 0 0 1-5.382 5.055c1.8 1.602 3.595 3.268 5.382 5.055 72.384 72.383-10.848 155.614 61.536 227.997 72.385 72.384 155.617-10.847 228.001 61.537a125.848 125.848 0 0 1 5.08 5.411 127.039 127.039 0 0 1 5.08-5.411c72.385-72.384 155.616 10.847 228.001-61.537 72.384-72.383-10.848-155.614 61.536-227.997a127.037 127.037 0 0 1 5.382-5.055 126.432 126.432 0 0 1-5.382-5.055c-72.384-72.383 10.848-155.614-61.536-227.997z" style="fill:#ff7f11;stroke:#ff7f11;stroke-width:0;" transform="translate(2400.002 -.001)"/><path style="fill:#fdfffc;stroke:#fdfffc;stroke-width:0;" transform="rotate(-45.001 1600.034 -2497.052)" d="M199.998 200.001h400v400h-400z"/><path d="M799.998 800.001v-300a127.039 127.039 0 0 1-5.08 5.411c-72.385 72.384-155.616-10.847-228.001 61.537-72.384 72.383 10.848 155.614-61.536 227.997a127.037 127.037 0 0 1-5.382 5.055z" style="fill:#011627;stroke:#011627;stroke-width:0;" transform="translate(2400.002 -.001)"/><path d="M799.998.001v300a127.039 127.039 0 0 0-5.08-5.411c-72.385-72.384-155.616 10.847-228.001-61.537-72.384-72.383 10.847-155.614-61.536-227.997a127.037 127.037 0 0 0-5.382-5.055z" style="fill:#2ec4b6;stroke:#2ec4b6;stroke-width:0;" transform="translate(2400.002 -.001)"/><path d="M-.002.001v300a127.039 127.039 0 0 1 5.08-5.411c72.385-72.384 155.616 10.847 228.001-61.537 72.384-72.383-10.848-155.614 61.536-227.997a127.037 127.037 0 0 1 5.382-5.055z" style="fill:#fdfffc;stroke:#fdfffc;stroke-width:0;" transform="translate(2400.002 -.001)"/><path d="M-.002 800.001v-300a127.039 127.039 0 0 0 5.08 5.411c72.385 72.384 155.616-10.847 228.001 61.537 72.384 72.383-10.848 155.614 61.536 227.997a127.037 127.037 0 0 0 5.382 5.055z" style="fill:#f55178" transform="translate(2400.002 -.001)"/><path transform="rotate(90 1200.004 2000.004)" style="fill:#f55178" d="M-.002.001h800v800h-800z"/><path transform="rotate(90 1000.004 1800.004)" style="fill:#3772ff;stroke:#3772ff;stroke-width:0;" d="M-.002.001h400v400h-400z"/><path style="fill:#fdfffc;stroke:#fdfffc;stroke-width:0;" d="M322.734 203.711 199.961.001l-2.681 9.115v208.547l2.681 33.493z" transform="translate(2400.002 800.002)"/><path style="fill:#ff7f11;stroke:#ff7f11;stroke-width:0;" d="M77.189 203.711 199.962 252.9V.001z" transform="translate(2400.002 800.002)"/><path style="fill:#011627;stroke:#011627;stroke-width:0;" d="m322.807 226.993-122.846 72.535-1.511 1.842v94.216l1.511 4.415z" transform="translate(2400.002 800.002)"/><path style="fill:#fdfffc;stroke:#fdfffc;stroke-width:0;" d="M199.962 400V299.526L77.189 226.992z" transform="translate(2400.002 800.002)"/><path style="fill:#f55178" d="m199.961 276.281 122.771-72.57-122.771-55.803z" transform="translate(2400.002 800.002)"/><path style="fill:#011627;stroke:#011627;stroke-width:0;" d="m77.19 203.712 122.771 72.569V147.908z" transform="translate(2400.002 800.002)"/><path transform="rotate(90 1400.005 2200.004)" style="fill:#ff7f11;stroke:#ff7f11;stroke-width:0;" d="M399.998 400.001h400v400h-400z"/><path style="fill:#fdfffc;stroke:#fdfffc;stroke-width:0;" d="m722.734 603.711-122.773-203.71-2.681 9.115v208.547l2.681 33.493z" transform="translate(2400.002 800.002)"/><path style="fill:#3772ff;stroke:#3772ff;stroke-width:0;" d="M477.189 603.711 599.962 652.9V400.001z" transform="translate(2400.002 800.002)"/><path style="fill:#011627;stroke:#011627;stroke-width:0;" d="m722.807 626.993-122.846 72.535-1.511 1.842v94.216l1.511 4.415z" transform="translate(2400.002 800.002)"/><path style="fill:#fdfffc;stroke:#fdfffc;stroke-width:0;" d="M599.962 800V699.526l-122.773-72.534z" transform="translate(2400.002 800.002)"/><path style="fill:#f55178" d="m599.961 676.281 122.771-72.57-122.771-55.803z" transform="translate(2400.002 800.002)"/><path style="fill:#011627;stroke:#011627;stroke-width:0;" d="m477.19 603.712 122.771 72.569V547.908z" transform="translate(2400.002 800.002)"/><path transform="matrix(.7071 .7071 -.7071 .7071 2717.16 434.32)" style="fill:#fdfffc;stroke:#fdfffc;stroke-width:0;" d="M458.577 58.58H741.42v282.843H458.577z"/><path transform="matrix(.7071 .7071 -.7071 .7071 2882.845 834.318)" style="fill:#011627;stroke:#011627;stroke-width:0;" d="M58.577 458.58H341.42v282.843H58.577z"/><path style="fill:#3772ff;stroke:#3772ff;stroke-width:0;" d="M-.002.001h800v800h-800z" transform="translate(1600.002 799.999)"/><path style="fill:#ff7f11;stroke:#ff7f11;stroke-width:0;" d="m79.998 400.001 120-120 120 120 80-80-120-120 120-120-80-80-120 120-120-120-80 80 120 120-120 120z" transform="translate(1600.002 799.999)"/><path style="fill:#011627;stroke:#011627;stroke-width:0;" d="m79.998 800.001 120-120 120 120 80-80-120-120 120-120-80-80-120 120-120-120-80 80 120 120-120 120z" transform="translate(1600.002 799.999)"/><path style="fill:#fdfffc;stroke:#fdfffc;stroke-width:0;" d="m479.998 400.001 120-120 120 120 80-80-120-120 120-120-80-80-120 120-120-120-80 80 120 120-120 120z" transform="translate(1600.002 799.999)"/><path style="fill:#f55178" d="m479.998 800.001 120-120 120 120 80-80-120-120 120-120-80-80-120 120-120-120-80 80 120 120-120 120z" transform="translate(1600.002 799.999)"/><path style="fill:#f55178" d="M-.002.001h800v800h-800z" transform="translate(1600.002 1599.999)"/><path style="fill:#ff7f11;stroke:#ff7f11;stroke-width:0;" d="m480.005 100.001-79.999-100-79.999 100 79.999 100zM160.007 100.001 80.003.001l-80.005 100 80.005 100z" transform="translate(1600.002 1599.999)"/><path style="fill:#ff7f11;stroke:#ff7f11;stroke-width:0;" d="m320.007 100.001-79.999-100-80.001 100 80.001 100zM799.998 100.001l-79.997-100-79.999 100 79.999 100zM640.002 100.001l-79.997-100-80 100 80 100z" transform="translate(1600.002 1599.999)"/><path style="fill:#3772ff;stroke:#3772ff;stroke-width:0;" d="m480.005 300.001-79.999-100-79.999 100 79.999 100zM160.007 300.001l-80.004-100-80.005 100 80.005 100z" transform="translate(1600.002 1599.999)"/><path style="fill:#3772ff;stroke:#3772ff;stroke-width:0;" d="m320.007 300.001-79.999-100-80.001 100 80.001 100zM799.998 300.001l-79.997-100-79.999 100 79.999 100zM640.002 300.001l-79.997-100-80 100 80 100z" transform="translate(1600.002 1599.999)"/><path style="fill:#2ec4b6;stroke:#2ec4b6;stroke-width:0;" d="m480.005 500.001-79.999-100-79.999 100 79.999 100zM160.007 500.001l-80.004-100-80.005 100 80.005 100z" transform="translate(1600.002 1599.999)"/><path style="fill:#2ec4b6;stroke:#2ec4b6;stroke-width:0;" d="m320.007 500.001-79.999-100-80.001 100 80.001 100zM799.998 500.001l-79.997-100-79.999 100 79.999 100zM640.002 500.001l-79.997-100-80 100 80 100z" transform="translate(1600.002 1599.999)"/><path style="fill:#011627;stroke:#011627;stroke-width:0;" d="m480.005 700.001-79.999-100-79.999 100 79.999 100zM160.007 700.001l-80.004-100-80.005 100 80.005 100z" transform="translate(1600.002 1599.999)"/><path style="fill:#011627;stroke:#011627;stroke-width:0;" d="m320.007 700.001-79.999-100-80.001 100 80.001 100zM799.998 700.001l-79.997-100-79.999 100 79.999 100zM640.002 700.001l-79.997-100-80 100 80 100z" transform="translate(1600.002 1599.999)"/><path d="M-.002.001v800h800v-800z" style="fill:#ff7f11;stroke:#ff7f11;stroke-width:0;" transform="translate(2400.002 1599.999)"/><path style="fill:#2ec4b6;stroke:#2ec4b6;stroke-width:0;" d="M-.002 600.001h200v200h-200zM399.998 200.001v200h-200v200h200v-200h200v-200zM599.998.001h200v200h-200z" transform="translate(2400.002 1599.999)"/><path style="fill:#fdfffc;stroke:#fdfffc;stroke-width:0;" d="M799.998.001h-800v800z" transform="translate(2400.002 1599.999)"/><path style="fill:#3772ff;stroke:#3772ff;stroke-width:0;" d="m599.998 200.001 200-200h-200zM399.998 200.001v200h-200v200l400-400zM-.002 600.001v200l200-200z" transform="translate(2400.002 1599.999)"/><path style="fill:#ff7f11;stroke:#ff7f11;stroke-width:0;" d="M-.002.001v800h800v-800z" transform="translate(2400.002 2399.999)"/><path style="fill:#3772ff;stroke:#3772ff;stroke-width:0;" d="M-.002 600.001h200v200h-200z" transform="translate(2400.002 2399.999)"/><path style="fill:#fdfffc;stroke:#fdfffc;stroke-width:0;" d="M199.998 400.001h200v200h-200z" transform="translate(2400.002 2399.999)"/><path style="fill:#011627;stroke:#011627;stroke-width:0;" d="M399.998 200.001h200v200h-200z" transform="translate(2400.002 2399.999)"/><path style="fill:#3772ff;stroke:#3772ff;stroke-width:0;" d="M599.998.001h200v200h-200zM-.002 200.001h200v200h-200zM599.998 400.001h200v200h-200z" transform="translate(2400.002 2399.999)"/><path style="fill:#f55178" d="M-.002.001h800v800h-800z" transform="translate(1600.002 2399.999)"/><path style="fill:#2ec4b6;stroke:#2ec4b6;stroke-width:0;" d="M799.998 600.001v200h-200z" transform="translate(1600.002 2399.999)"/><path style="fill:#3772ff;stroke:#3772ff;stroke-width:0;" d="M599.998 600.001v200h-200z" transform="translate(1600.002 2399.999)"/><path style="fill:#fdfffc;stroke:#fdfffc;stroke-width:0;" d="M399.998 600.001v200h200z" transform="translate(1600.002 2399.999)"/><path style="fill:#2ec4b6;stroke:#2ec4b6;stroke-width:0;" d="M399.998 600.001v200h-200z" transform="translate(1600.002 2399.999)"/><path style="fill:#ff7f11;stroke:#ff7f11;stroke-width:0;" d="M199.998 600.001v200h200z" transform="translate(1600.002 2399.999)"/><path style="fill:#f55178" d="M-.002 600.001v200h200z" transform="translate(1600.002 2399.999)"/><path style="fill:#2ec4b6;stroke:#2ec4b6;stroke-width:0;" d="M799.998 200.001v-200h-200z" transform="translate(1600.002 2399.999)"/><path style="fill:#011627;stroke:#011627;stroke-width:0;" d="M599.998 200.001v-200h200z" transform="translate(1600.002 2399.999)"/><path style="fill:#3772ff;stroke:#3772ff;stroke-width:0;" d="M599.998 200.001v-200h-200z" transform="translate(1600.002 2399.999)"/><path style="fill:#fdfffc;stroke:#fdfffc;stroke-width:0;" d="M399.998 200.001v-200h200z" transform="translate(1600.002 2399.999)"/><path style="fill:#2ec4b6;stroke:#2ec4b6;stroke-width:0;" d="M399.998 200.001v-200h-200z" transform="translate(1600.002 2399.999)"/><path style="fill:#ff7f11;stroke:#ff7f11;stroke-width:0;" d="M199.998 200.001v-200h200z" transform="translate(1600.002 2399.999)"/><path style="fill:#011627;stroke:#011627;stroke-width:0;" d="M199.998 200.001v-200h-200z" transform="translate(1600.002 2399.999)"/><path style="fill:#f55178" d="M-.002 200.001v-200h200z" transform="translate(1600.002 2399.999)"/><path style="fill:#2ec4b6;stroke:#2ec4b6;stroke-width:0;" d="M599.998.001h200v200z" transform="translate(1600.002 2399.999)"/><path style="fill:#3772ff;stroke:#3772ff;stroke-width:0;" d="M599.998 200.001h200v200z" transform="translate(1600.002 2399.999)"/><path style="fill:#fdfffc;stroke:#fdfffc;stroke-width:0;" d="M599.998 400.001h200v-200z" transform="translate(1600.002 2399.999)"/><path style="fill:#2ec4b6;stroke:#2ec4b6;stroke-width:0;" d="M599.998 400.001h200v200z" transform="translate(1600.002 2399.999)"/><path style="fill:#ff7f11;stroke:#ff7f11;stroke-width:0;" d="M599.998 600.001h200v-200z" transform="translate(1600.002 2399.999)"/><path style="fill:#011627;stroke:#011627;stroke-width:0;" d="M599.998 600.001h200v200z" transform="translate(1600.002 2399.999)"/><path style="fill:#3772ff;stroke:#3772ff;stroke-width:0;" d="M599.998 800.001h200v-200z" transform="translate(1600.002 2399.999)"/><path style="fill:#2ec4b6;stroke:#2ec4b6;stroke-width:0;" d="M199.998.001h-200v200z" transform="translate(1600.002 2399.999)"/><path style="fill:#3772ff;stroke:#3772ff;stroke-width:0;" d="M199.998 200.001h-200v200z" transform="translate(1600.002 2399.999)"/><path style="fill:#fdfffc;stroke:#fdfffc;stroke-width:0;" d="M199.998 400.001h-200v-200z" transform="translate(1600.002 2399.999)"/><path style="fill:#2ec4b6;stroke:#2ec4b6;stroke-width:0;" d="M199.998 400.001h-200v200z" transform="translate(1600.002 2399.999)"/><path style="fill:#ff7f11;stroke:#ff7f11;stroke-width:0;" d="M199.998 600.001h-200v-200z" transform="translate(1600.002 2399.999)"/><path style="fill:#011627;stroke:#011627;stroke-width:0;" d="m-.002 800.001 200-200h-200z" transform="translate(1600.002 2399.999)"/><path style="fill:#3772ff;stroke:#3772ff;stroke-width:0;" d="M199.998 800.001h-200v-200z" transform="translate(1600.002 2399.999)"/><path transform="rotate(180 400 2000)" style="fill:#f55178" d="M-.002.001h800v800h-800z"/><path style="fill:#2ec4b6;stroke:#2ec4b6;stroke-width:0;" d="M240.003 681.482C160.004 681.482 160.004 800 80.005 800c-12.369 0-22.822-2.839-31.958-7.63-7.964-5.551-15.642-11.295-22.441-17.633-6.521-6.944-12.408-14.827-18.099-23.001-4.715-9.079-7.509-19.456-7.509-31.718 0-80.005 118.519-80.005 118.519-160.009C118.517 480.004-.002 480.004-.002 400h400v400c-79.997.001-79.997-118.518-159.995-118.518Z" transform="translate(.002 3200)"/><path style="fill:#3772ff;stroke:#3772ff;stroke-width:0;" d="M240.003 118.519C160.004 118.519 160.004.001 80.005.001c-12.369 0-22.822 2.839-31.958 7.63-7.964 5.551-15.642 11.295-22.441 17.633-6.521 6.943-12.408 14.826-18.099 23.001C2.792 57.344-.002 67.72-.002 79.982c0 80.005 118.519 80.005 118.519 160.009C118.517 319.996-.002 319.996-.002 400h400V.001c-79.997 0-79.997 118.518-159.995 118.518z" transform="translate(.002 3200)"/><path style="fill:#fdfffc;stroke:#fdfffc;stroke-width:0;" d="M559.993 681.482c79.999 0 79.999 118.518 159.998 118.518 12.369 0 22.822-2.839 31.958-7.63 7.964-5.551 15.642-11.295 22.441-17.633 6.521-6.944 12.408-14.827 18.099-23.001 4.715-9.079 7.509-19.456 7.509-31.718 0-80.005-118.519-80.005-118.519-160.009 0-80.005 118.519-80.005 118.519-160.009h-400v400c79.998.001 79.998-118.518 159.995-118.518z" transform="translate(.002 3200)"/><path style="fill:#011627;stroke:#011627;stroke-width:0;" d="M559.993 118.519c79.999 0 79.999-118.518 159.998-118.518 12.369 0 22.822 2.839 31.958 7.63 7.964 5.551 15.642 11.295 22.441 17.633 6.521 6.944 12.408 14.827 18.099 23.001 4.715 9.079 7.509 19.456 7.509 31.718 0 80.005-118.519 80.005-118.519 160.009 0 80.005 118.519 80.005 118.519 160.009h-400v-400c79.998 0 79.998 118.518 159.995 118.518z" transform="translate(.002 3200)"/><path style="fill:#f55178" d="M-.002.001h800v800h-800z" transform="translate(800.002 3199.999)"/><path style="fill:#2ec4b6;stroke:#2ec4b6;stroke-width:0;" d="M-.002 400.001h800v400h-800z" transform="translate(800.002 3199.999)"/><path style="fill:#011627;stroke:#011627;stroke-width:0;" d="M799.998 800.001c-220.914 0-400-179.086-400-400h-400v400z" transform="translate(800.002 3199.999)"/><path style="fill:#ff7f11;stroke:#ff7f11;stroke-width:0;" d="M799.998 400.001c-220.914 0-400-179.086-400-400h-400v400z" transform="translate(800.002 3199.999)"/><path style="fill:#ff7f11;stroke:#ff7f11;stroke-width:0;" d="M-.002.001h800v800h-800z" transform="translate(800.002 3999.999)"/><path style="fill:#f55178" d="M-.002 400.001h800v400h-800z" transform="translate(800.002 3999.999)"/><path style="fill:#2ec4b6;stroke:#2ec4b6;stroke-width:0;" d="M-.002 800.001v-400l400-400 400 400v400l-400-400z" transform="translate(800.002 3999.999)"/><path style="fill:#ff7f11;stroke:#ff7f11;stroke-width:0;" transform="rotate(-180 400 2400)" d="M-.002.001h800v800h-800z"/><path style="fill:#2ec4b6;stroke:#2ec4b6;stroke-width:0;" d="M799.998 800.001h-800v-400z" transform="translate(.002 3999.999)"/><path style="fill:#f55178" d="M-.002 400.001h800v400z" transform="translate(.002 3999.999)"/><path style="fill:#3772ff;stroke:#3772ff;stroke-width:0;" d="M799.998 400.001h-800v-400z" transform="translate(.002 3999.999)"/><path style="fill:#ff7f11;stroke:#ff7f11;stroke-width:0;" d="M-.002.001h800v800h-800z" transform="translate(.002 4799.999)"/><path style="fill:#2ec4b6;stroke:#2ec4b6;stroke-width:0;" d="M-.002 400.001h400v400h-400z" transform="translate(.002 4799.999)"/><path style="fill:#f55178" d="M399.998 400.001v400l-400-400 200-200z" transform="translate(.002 4799.999)"/><path style="fill:#3772ff;stroke:#3772ff;stroke-width:0;" d="M399.998 400.001h400v400h-400z" transform="translate(.002 4799.999)"/><path style="fill:#011627;stroke:#011627;stroke-width:0;" d="M799.998 400.001v400l-400-400 200-200z" transform="translate(.002 4799.999)"/><path style="fill:#f55178" transform="rotate(180 799.999 2800)" d="M-.002.001h800v800h-800z"/><path d="M740.739 400.001h59.259c0-80.004-118.519-80.004-118.519-160.009 0-80.004 118.519-80.004 118.519-160.009 0-12.262-2.794-22.639-7.509-31.718-5.691-8.174-11.577-16.057-18.099-23.001-6.799-6.338-14.478-12.081-22.441-17.633-9.136-4.791-19.589-7.63-31.958-7.63-79.999 0-79.999 118.518-159.998 118.518-79.998 0-79.998-118.518-159.995-118.518S320 118.519 240.003 118.519C160.004 118.519 160.004.001 80.005.001c-12.369 0-22.822 2.839-31.958 7.63-7.964 5.551-15.642 11.295-22.441 17.633-6.521 6.943-12.408 14.826-18.099 23.001C2.792 57.344-.002 67.72-.002 79.982c0 80.005 118.519 80.005 118.519 160.009C118.517 319.996-.002 319.996-.002 400h59.259M-.002 400.001c0 80.004 118.519 80.004 118.519 160.009 0 80.004-118.519 80.004-118.519 160.009 0 12.262 2.794 22.638 7.509 31.718 5.691 8.174 11.577 16.057 18.099 23.001 6.799 6.338 14.478 12.081 22.441 17.633 9.136 4.791 19.589 7.63 31.958 7.63 79.999 0 79.999-118.518 159.998-118.518 79.998 0 79.998 118.518 159.995 118.518s79.998-118.518 159.995-118.518c79.999 0 79.999 118.518 159.998 118.518 12.369 0 22.822-2.839 31.958-7.63 7.964-5.551 15.642-11.295 22.441-17.633 6.521-6.944 12.408-14.827 18.099-23.001 4.715-9.079 7.509-19.456 7.509-31.718 0-80.005-118.519-80.005-118.519-160.009 0-80.005 118.519-80.005 118.519-160.009" style="fill:#011627;stroke:#011627;stroke-width:0;" transform="translate(800.002 4800)"/><path d="M799.998 400.001c-200.002 0-200.002-200-400.004-200-199.998 0-199.998 200-399.996 200 199.998 0 199.998 200 399.996 200 200.002 0 200.002-200 400.004-200z" style="fill:#ff7f11;stroke:#ff7f11;stroke-width:0;" transform="translate(800.002 4800)"/><g transform="translate(800.002 5599.999)"><path style="fill:#f55178" d="M-.002.001h800v800h-800z"/><circle style="fill:#ff7f11;stroke:#ff7f11;stroke-width:0;" cx="549.766" cy="267.978" r="100"/><circle style="fill:#ff7f11;stroke:#ff7f11;stroke-width:0;" cx="250.171" cy="267.978" r="100"/><circle style="fill:#ff7f11;stroke:#ff7f11;stroke-width:0;" cx="549.766" cy="532.818" r="100"/><circle style="fill:#ff7f11;stroke:#ff7f11;stroke-width:0;" cx="250.171" cy="532.818" r="100"/><circle style="fill:#ff7f11;stroke:#ff7f11;stroke-width:0;" cx="699.998" cy="100.001" r="100"/><circle style="fill:#ff7f11;stroke:#ff7f11;stroke-width:0;" cx="99.998" cy="100.001" r="100"/><circle style="fill:#ff7f11;stroke:#ff7f11;stroke-width:0;" cx="699.998" cy="700.001" r="100"/><circle style="fill:#ff7f11;stroke:#ff7f11;stroke-width:0;" cx="99.998" cy="700.001" r="100"/><circle style="fill:#f55178" cx="399.998" cy="400.001" r="200"/><path transform="rotate(-134.999 400 400.004)" style="fill:#011627;stroke:#011627;stroke-width:0;" d="M299.998 300.001h200v200h-200z"/></g><path style="fill:#f55178" d="M-.002.001h800v800h-800z" transform="translate(.002 5599.999)"/><path style="fill:#fdfffc;stroke:#fdfffc;stroke-width:0;" transform="rotate(90 -2600 3400)" d="M149.998 400h100v400h-100z"/><path style="fill:#ff7f11;stroke:#ff7f11;stroke-width:0;" transform="rotate(90 -2600 3250)" d="M149.998 250h100v400h-100z"/><path style="fill:#3772ff;stroke:#3772ff;stroke-width:0;" transform="rotate(90 -2600 3550.001)" d="M149.998 550.001h100v400h-100z"/><path style="fill:#fdfffc;stroke:#fdfffc;stroke-width:0;" d="M549.997 400h100v400h-100z" transform="translate(.002 5599.999)"/><path style="fill:#011627;stroke:#011627;stroke-width:0;" d="M399.997 400h100v400h-100z" transform="translate(.002 5599.999)"/><path style="fill:#2ec4b6;stroke:#2ec4b6;stroke-width:0;" d="M699.998 400h100v400h-100z" transform="translate(.002 5599.999)"/><path style="fill:#3772ff;stroke:#3772ff;stroke-width:0;" d="M149.998.001h100v400h-100z" transform="translate(.002 5599.999)"/><path style="fill:#ff7f11;stroke:#ff7f11;stroke-width:0;" d="M-.002.001h100v400h-100z" transform="translate(.002 5599.999)"/><path style="fill:#2ec4b6;stroke:#2ec4b6;stroke-width:0;" d="M299.999.001h100v400h-100z" transform="translate(.002 5599.999)"/><path style="fill:#fdfffc;stroke:#fdfffc;stroke-width:0;" transform="rotate(-90 3399.999 3000)" d="M549.998.001h100v400h-100z"/><path style="fill:#011627;stroke:#011627;stroke-width:0;" transform="rotate(-90 3399.999 3150)" d="M549.998 150.001h100v400h-100z"/><path style="fill:#2ec4b6;stroke:#2ec4b6;stroke-width:0;" transform="rotate(-90 3399.999 2849.999)" d="M549.998-150h100v400h-100z"/><path style="fill:#ff7f11;stroke:#ff7f11;stroke-width:0;" d="M-.002.001h800v800h-800z" transform="translate(1600.002 3199.999)"/><path style="fill:#fdfffc;stroke:#fdfffc;stroke-width:0;" d="m599.998 100.001 200 200v-100l-200-200-200 200-200-200-200 200v100l200-200 200 200z" transform="translate(1600.002 3199.999)"/><path style="fill:#2ec4b6;stroke:#2ec4b6;stroke-width:0;" d="m599.998 300.001 200 200v-100l-200-200-200 200-200-200-200 200v111.582l200-211.582 200 200z" transform="translate(1600.002 3199.999)"/><path style="fill:#f55178" d="m599.998 500.001 200 200v-100l-200-200-200 200-200-200-200 200v100l200-200 200 200z" transform="translate(1600.002 3199.999)"/><path style="fill:#3772ff;stroke:#3772ff;stroke-width:0;" d="M-.002.001v100l100-100zM299.998.001l100 100 100-100zM699.998.001l100 100v-100zM599.998 600.001l-200 200-200-200-200 200h100l100-100 100 100h200l100-100 100 100h100z" transform="translate(1600.002 3199.999)"/><path style="fill:#ff7f11;stroke:#ff7f11;stroke-width:0;" d="M-.002.001h800v800h-800z" transform="translate(2400.002 3199.999)"/><path style="fill:#3772ff;stroke:#3772ff;stroke-width:0;" d="M-.002 400.001h800v400h-800z" transform="translate(2400.002 3199.999)"/><path style="fill:#011627;stroke:#011627;stroke-width:0;" d="M-.002 400.001v-400l400 400zM399.998 400.001v-400l400 400z" transform="translate(2400.002 3199.999)"/><path style="fill:#ff7f11;stroke:#ff7f11;stroke-width:0;" d="M-.002.001h800v800h-800z" transform="matrix(1 0 0 1 2400.002 3999.999)"/><path style="fill:#f55178" d="M399.999 800.001v-400c0-220.914 179.086-400 400-400v400c-.001 220.914-179.087 400-400 400z" transform="matrix(1 0 0 1 2400.002 3999.999)"/><path style="fill:#011627;stroke:#011627;stroke-width:0;" d="M-.002 400.001v400h399.99c-220.909-.005-399.99-179.089-399.99-400z" transform="matrix(1 0 0 1 2400.002 3999.999)"/><path style="fill:#fdfffc;stroke:#fdfffc;stroke-width:0;" d="M799.998 400.001v400h-399.99c220.909-.005 399.99-179.089 399.99-400z" transform="matrix(1 0 0 1 2400.002 3999.999)"/><path style="fill:#2ec4b6;stroke:#2ec4b6;stroke-width:0;" d="m400.008.001-.02.01v-.01H-.002v400c220.909.005 399.99 179.089 399.99 399.999V400.001h-.003l.003-.01v-.009l.02.019c0-220.91 179.081-399.994 399.99-400z" transform="matrix(1 0 0 1 2400.002 3999.999)"/><path style="fill:#3772ff;stroke:#3772ff;stroke-width:0;" transform="rotate(-180 1200 2400)" d="M-.002.001h800v800h-800z"/><path d="M399.998 800.001h-400v-400c0-220.914 179.086-400 400-400z" style="fill:#ff7f11;stroke:#ff7f11;stroke-width:0;" transform="translate(1600.002 3999.999)"/><path d="M799.998.001h-400v400c0 220.914 179.086 400 400 400z" style="fill:#011627;stroke:#011627;stroke-width:0;" transform="translate(1600.002 3999.999)"/><path style="fill:#ff7f11;stroke:#ff7f11;stroke-width:0;" d="M-.002.001h800v800h-800z" transform="translate(1600.002 4799.999)"/><path style="fill:#f55178" d="m199.998 800.001-200-200h400z" transform="translate(1600.002 4799.999)"/><path style="fill:#3772ff;stroke:#3772ff;stroke-width:0;" d="m599.998 800.001-200-200h400z" transform="translate(1600.002 4799.999)"/><path style="fill:#2ec4b6;stroke:#2ec4b6;stroke-width:0;" d="m199.998 600.001-200-200h400z" transform="translate(1600.002 4799.999)"/><path style="fill:#011627;stroke:#011627;stroke-width:0;" d="m599.998 600.001-200-200h400z" transform="translate(1600.002 4799.999)"/><path style="fill:#3772ff;stroke:#3772ff;stroke-width:0;" d="m199.998 400.001-200-200h400z" transform="translate(1600.002 4799.999)"/><path style="fill:#f55178" d="m599.998 400.001-200-200h400z" transform="translate(1600.002 4799.999)"/><path style="fill:#fdfffc;stroke:#fdfffc;stroke-width:0;" d="m199.998 200.001-200-200h400z" transform="translate(1600.002 4799.999)"/><path style="fill:#2ec4b6;stroke:#2ec4b6;stroke-width:0;" d="m599.998 200.001-200-200h400z" transform="translate(1600.002 4799.999)"/><path style="fill:#3772ff;stroke:#3772ff;stroke-width:0;" d="M-.002.001h800v800h-800z" transform="translate(2400.002 4799.999)"/><path d="M399.998.001c-220.914 0-400 179.086-400 400v400h800v-400c0-220.914-179.086-400-400-400z" style="fill:#ff7f11;stroke:#ff7f11;stroke-width:0;" transform="translate(2400.002 4799.999)"/><path style="fill:#f55178" d="M-.002.001h800v800h-800z" transform="translate(2400.002 5599.999)"/><path style="fill:#3772ff;stroke:#3772ff;stroke-width:0;" d="M-.002.001v600l400-200 200-400z" transform="translate(2400.002 5599.999)"/><path style="fill:#ff7f11;stroke:#ff7f11;stroke-width:0;" d="M399.998 400.001h400v400h-400z" transform="translate(2400.002 5599.999)"/><g transform="translate(1600.002 5599.999)"><path style="fill:#2ec4b6;stroke:#2ec4b6;stroke-width:0;" d="M-.002.001h800v800h-800z"/><path d="M533.409 533.411c66.711 66.711-32.122 165.544 34.589 232.256C634.621 832.29 733.275 733.824 799.985 800v-.012h.013c-66.131-66.706 32.307-165.346-34.305-231.958-66.712-66.712-165.545 32.121-232.258-34.591M266.588 266.59c-66.711-66.711 32.122-165.545-34.589-232.256C165.375-32.288 66.721 66.178.011.002v.012h-.013C66.129 66.72-32.309 165.36 34.303 231.973c66.712 66.712 165.546-32.121 232.258 34.591" style="fill:#fdfffc;stroke:#fdfffc;stroke-width:0;"/><path d="M266.588 533.411c-66.711 66.711 32.122 165.544-34.589 232.256C165.375 832.29 66.721 733.824.012 800v-.012h-.013C66.13 733.282-32.308 634.642 34.304 568.03c66.712-66.712 165.545 32.121 232.258-34.591M533.409 266.59c66.711-66.711-32.122-165.545 34.589-232.256C634.621-32.289 733.275 66.177 799.985.001v.012h.013c-66.131 66.706 32.307 165.346-34.305 231.958-66.712 66.712-165.546-32.121-232.258 34.591" style="fill:#011627;stroke:#011627;stroke-width:0;"/><circle r="200" cy="400.001" cx="399.998" style="fill:#f55178"/><circle r="100" cy="400.001" cx="399.998" style="fill:#ff7f11;stroke:#ff7f11;stroke-width:0;"/></g><path style="fill:#ff7f11;stroke:#ff7f11;stroke-width:0;" d="M-.002.001h800v800h-800z" transform="translate(3200.002)"/><path style="fill:#3772ff;stroke:#3772ff;stroke-width:0;" d="M799.998 720.001h-400c110.457 106.666 289.543 106.667 400 0z" transform="translate(3200.002)"/><path style="fill:#011627;stroke:#011627;stroke-width:0;" d="M799.998 640.001h-400c110.457 106.666 289.543 106.667 400 0z" transform="translate(3200.002)"/><path style="fill:#2ec4b6;stroke:#2ec4b6;stroke-width:0;" d="M799.998 560.001h-400c110.457 106.666 289.543 106.667 400 0z" transform="translate(3200.002)"/><path style="fill:#f55178" d="M799.998 480.001h-400c110.457 106.666 289.543 106.667 400 0z" transform="translate(3200.002)"/><path style="fill:#fdfffc;stroke:#fdfffc;stroke-width:0;" d="M799.998 400.001h-400c110.457 106.667 289.543 106.667 400 0z" transform="translate(3200.002)"/><path style="fill:#3772ff;stroke:#3772ff;stroke-width:0;" d="M319.998 400.001v400c106.667-110.457 106.667-289.543 0-400z" transform="translate(3200.002)"/><path style="fill:#011627;stroke:#011627;stroke-width:0;" d="M239.998 400.001v400c106.667-110.457 106.667-289.543 0-400z" transform="translate(3200.002)"/><path style="fill:#2ec4b6;stroke:#2ec4b6;stroke-width:0;" d="M159.998 400.001v400c106.667-110.457 106.667-289.543 0-400z" transform="translate(3200.002)"/><path style="fill:#f55178" d="M79.998 400.001v400c106.667-110.457 106.667-289.543 0-400z" transform="translate(3200.002)"/><path style="fill:#fdfffc;stroke:#fdfffc;stroke-width:0;" d="M-.002 400.001v400c106.667-110.457 106.667-289.543 0-400z" transform="translate(3200.002)"/><path style="fill:#3772ff;stroke:#3772ff;stroke-width:0;" d="M719.998.001v400c106.667-110.457 106.667-289.543 0-400z" transform="translate(3200.002)"/><path style="fill:#011627;stroke:#011627;stroke-width:0;" d="M639.998.001v400c106.667-110.457 106.667-289.543 0-400z" transform="translate(3200.002)"/><path style="fill:#2ec4b6;stroke:#2ec4b6;stroke-width:0;" d="M559.998.001v400c106.667-110.457 106.667-289.543 0-400z" transform="translate(3200.002)"/><path style="fill:#f55178" d="M479.998.001v400c106.667-110.457 106.667-289.543 0-400z" transform="translate(3200.002)"/><path style="fill:#fdfffc;stroke:#fdfffc;stroke-width:0;" d="M399.998.001v400c106.667-110.457 106.667-289.543 0-400z" transform="translate(3200.002)"/><path style="fill:#3772ff;stroke:#3772ff;stroke-width:0;" d="M-.002 80.001h400c-110.457-106.667-289.543-106.667-400 0z" transform="translate(3200.002)"/><path style="fill:#011627;stroke:#011627;stroke-width:0;" d="M-.002 160.001h400c-110.457-106.667-289.543-106.667-400 0z" transform="translate(3200.002)"/><path style="fill:#2ec4b6;stroke:#2ec4b6;stroke-width:0;" d="M-.002 240.001h400c-110.457-106.667-289.543-106.667-400 0z" transform="translate(3200.002)"/><path style="fill:#f55178" d="M-.002 320.001h400c-110.457-106.667-289.543-106.667-400 0z" transform="translate(3200.002)"/><path style="fill:#fdfffc;stroke:#fdfffc;stroke-width:0;" d="M-.002 400.001h400c-110.457-106.667-289.543-106.667-400 0z" transform="translate(3200.002)"/><path style="fill:#2ec4b6;stroke:#2ec4b6;stroke-width:0;" transform="rotate(90 2400 2400.001)" d="M-.002.001h800v800h-800z"/><path style="fill:#011627;stroke:#011627;stroke-width:0;" transform="rotate(90 2400 2600.001)" d="M199.998 200.001h400v800h-400z"/><path style="fill:#f55178" d="m399.998.001 200 400-200 400-200-400z" transform="translate(4000.002)"/><path style="fill:#ff7f11;stroke:#ff7f11;stroke-width:0;" d="m399.998.001-200 400h200z" transform="translate(4000.002)"/><path style="fill:#fdfffc;stroke:#fdfffc;stroke-width:0;" d="M399.998 400.001v400l-200-400z" transform="translate(4000.002)"/><path style="fill:#011627;stroke:#011627;stroke-width:0;" d="M399.998 400.001h200l-200-400z" transform="translate(4000.002)"/><path style="fill:#f55178" d="m799.998.001-200 400h200z" transform="translate(4000.002)"/><path style="fill:#fdfffc;stroke:#fdfffc;stroke-width:0;" d="M799.998 400.001v400l-200-400z" transform="translate(4000.002)"/><path style="fill:#ff7f11;stroke:#ff7f11;stroke-width:0;" d="m-.002.001 200 400h-200z" transform="translate(4000.002)"/><path style="fill:#3772ff;stroke:#3772ff;stroke-width:0;" d="M-.002 400.001v400l200-400z" transform="translate(4000.002)"/><path transform="rotate(-180 2399.999 800)" style="fill:#ff7f11;stroke:#ff7f11;stroke-width:0;" d="M-.002.001h800v800h-800z"/><g transform="translate(4000.002 800)"><path style="fill:#fdfffc;stroke:#fdfffc;stroke-width:0;" d="M599.998 650.396c0 55.083-89.543 99.736-200 99.736s-200-44.654-200-99.736V149.869h400z"/><path style="fill:#f55178" d="M599.998 400.133c0 55.083-89.543 99.736-200 99.736s-200-44.653-200-99.736V149.869h400z"/><ellipse style="fill:#3772ff;stroke:#3772ff;stroke-width:0;" cx="399.998" cy="149.869" rx="200" ry="100"/><circle style="fill:#2ec4b6;stroke:#2ec4b6;stroke-width:0;" cx="399.998" cy="487.717" r="100"/></g><path style="fill:#3772ff;stroke:#3772ff;stroke-width:0;" d="M-.002.001h800v800h-800z" transform="translate(3200.002 799.999)"/><path style="fill:#f55178" d="M599.998 400.001c110.457 0 200-89.543 200-200s-89.543-200-200-200h-200v400zM199.998 800.001c-110.457 0-200-89.543-200-200s89.543-200 200-200h200v400z" transform="translate(3200.002 799.999)"/><path style="fill:#fdfffc;stroke:#fdfffc;stroke-width:0;" d="M399.998.001h-400l400 400z" transform="translate(3200.002 799.999)"/><path style="fill:#011627;stroke:#011627;stroke-width:0;" d="M399.998 400.001h400l-400 400z" transform="translate(3200.002 799.999)"/><path transform="rotate(-180 1999.999 1200)" style="fill:#f55178" d="M-.002.001h800v800h-800z"/><path style="fill:#fdfffc;stroke:#fdfffc;stroke-width:0;" d="M64.104 65.789h666.257v666.257H64.104z" transform="translate(3200.002 1600)"/><path style="fill:#3772ff;stroke:#3772ff;stroke-width:0;" d="M64.104 289.262h221.067v442.785H64.104z" transform="translate(3200.002 1600)"/><path style="fill:#011627;stroke:#011627;stroke-width:0;" d="M64.104 65.789h221.067v223.472H64.104z" transform="translate(3200.002 1600)"/><path style="fill:#ff7f11;stroke:#ff7f11;stroke-width:0;" d="M510.892 68.947h221.067v220.38H510.892z" transform="translate(3200.002 1600)"/><path style="fill:#f55178" d="M289.873 510.72h442.086v222.906H289.873z" transform="translate(3200.002 1600)"/><path style="fill:#011627;stroke:#011627;stroke-width:0;" d="M56.958 56.988v686h686v-686zm21.718 442.916V300.077h199.789v421.286H78.676V521.535Zm199.789-221.458H78.676V78.619h199.789zm221.427 21.631v199.827H300.104V78.619h199.789v221.458zm0 421.285H300.104V521.535H721.32v199.827H521.531ZM721.32 499.904H521.531V300.077H721.32Zm0-221.458H521.531V78.619H721.32Z" transform="translate(3200.002 1600)"/><path style="fill:#f55178" transform="rotate(90 1600 3200.002)" d="M-.002.001h800v800h-800z"/><path d="M179.515 588.333c20.864.014 26.424-14.956 27.758-24.351l.492-193.294c2.703-.016 5.332.007 7.788.009-3.042-.425-5.731-.517-7.791-.533l.332-137.979c-2.79-14.967-12.466-32.327-42.328-32.409.908-1.001-165.767-.096-165.767-.096v388.507c-.001.001 180.457.984 179.516.146z" style="fill:#ff7f11;stroke:#ff7f11;stroke-width:0;" transform="translate(4000.002 1600)"/><path d="m502.961 799.828.327-120.643c-19.104-.03-149.734-.238-169.953-.706l-.295 121.202z" style="fill:#3772ff;stroke:#3772ff;stroke-width:0;" transform="translate(4000.002 1600)"/><path d="m259.397 799.488.269-122.497c-17.245-.152-34.812-.497-52.666-.563l-207.002-.232V800" style="fill:#011627;stroke:#011627;stroke-width:0;" transform="translate(4000.002 1600)"/><path d="m-.002 120.941 214.087.284.009.376c15.284.027 30.96-.231 46.922-.517L261.34.001H-.002Z" style="fill:#fdfffc;stroke:#fdfffc;stroke-width:0;" transform="translate(4000.002 1600)"/><path d="M799.998 523.536c0-89.493-36.203-135.627-106.52-152.695 42.797-21.66 69.615-59.944 63.521-123.853H757c-8.181-87.338-83.484-116.795-178.628-125.366L578.666.504 799.997.001v523.535z" style="fill:#3772ff;stroke:#3772ff;stroke-width:0;" transform="translate(4000.002 1600)"/><path d="M799.998 523.536c-11.057 116.366-99.029 147.378-222.991 154.186l-.323 122.279h223.314" style="fill:#ff7f11;stroke:#ff7f11;stroke-width:0;" transform="translate(4000.002 1600)"/><path d="m335.024.184-.302 118.707c19.683-.345 150.556-.679 169.937-.634L504.944.331Z" style="fill:#011627;stroke:#011627;stroke-width:0;" transform="translate(4000.002 1600)"/><path style="fill:#ff7f11;stroke:#ff7f11;stroke-width:0;" d="M-.002.001h800v800h-800z" transform="translate(4000.002 2399.999)"/><path style="fill:#f55178" d="M199.998 800.001h600v-600l-600 600" transform="translate(4000.002 2399.999)"/><path style="fill:#2ec4b6;stroke:#2ec4b6;stroke-width:0;" d="M399.998 800.001h400v-400l-400 400" transform="translate(4000.002 2399.999)"/><path style="fill:#fdfffc;stroke:#fdfffc;stroke-width:0;" d="M599.998 800.001h200v-200z" transform="translate(4000.002 2399.999)"/><path style="fill:#011627;stroke:#011627;stroke-width:0;" d="M599.998 800.001h-600v-600l600 600" transform="translate(4000.002 2399.999)"/><path style="fill:#f55178" d="M399.998 800.001h-400v-400l400 400" transform="translate(4000.002 2399.999)"/><path style="fill:#fdfffc;stroke:#fdfffc;stroke-width:0;" d="M199.998 800.001h-200v-200z" transform="translate(4000.002 2399.999)"/><path style="fill:#2ec4b6;stroke:#2ec4b6;stroke-width:0;" d="M599.998.001h-600v600l600-600" transform="translate(4000.002 2399.999)"/><path style="fill:#011627;stroke:#011627;stroke-width:0;" d="M399.998.001h-400v400l400-400" transform="translate(4000.002 2399.999)"/><path style="fill:#fdfffc;stroke:#fdfffc;stroke-width:0;" d="M199.998.001h-200v200z" transform="translate(4000.002 2399.999)"/><path style="fill:#3772ff;stroke:#3772ff;stroke-width:0;" d="M199.998.001h600v600l-600-600" transform="translate(4000.002 2399.999)"/><path style="fill:#011627;stroke:#011627;stroke-width:0;" d="M399.998.001h400v400l-400-400" transform="translate(4000.002 2399.999)"/><path style="fill:#fdfffc;stroke:#fdfffc;stroke-width:0;" d="M599.998.001h200v200z" transform="translate(4000.002 2399.999)"/><path style="fill:#f55178" d="M-.002.001h800v800h-800z" transform="translate(3200.002 2399.999)"/><path style="fill:#2ec4b6;stroke:#2ec4b6;stroke-width:0;" d="M199.998 800.001c-110.457 0-200-89.543-200-200h200z" transform="translate(3200.002 2399.999)"/><path style="fill:#011627;stroke:#011627;stroke-width:0;" d="M199.998 600.001h-200v-100c0-55.228 44.771-100 100-100 55.228 0 100 44.771 100 100z" transform="translate(3200.002 2399.999)"/><path style="fill:#2ec4b6;stroke:#2ec4b6;stroke-width:0;" d="M399.998 800.001c-110.457 0-200-89.543-200-200h200z" transform="translate(3200.002 2399.999)"/><path style="fill:#011627;stroke:#011627;stroke-width:0;" d="M399.998 600.001h-200v-100c0-55.228 44.771-100 100-100 55.228 0 100 44.771 100 100z" transform="translate(3200.002 2399.999)"/><path style="fill:#2ec4b6;stroke:#2ec4b6;stroke-width:0;" d="M599.998 800.001c-110.457 0-200-89.543-200-200h200z" transform="translate(3200.002 2399.999)"/><path style="fill:#011627;stroke:#011627;stroke-width:0;" d="M599.998 600.001h-200v-100c0-55.228 44.771-100 100-100 55.228 0 100 44.771 100 100z" transform="translate(3200.002 2399.999)"/><path style="fill:#2ec4b6;stroke:#2ec4b6;stroke-width:0;" d="M799.998 800.001c-110.457 0-200-89.543-200-200h200z" transform="translate(3200.002 2399.999)"/><path style="fill:#011627;stroke:#011627;stroke-width:0;" d="M799.998 600.001h-200v-100c0-55.228 44.771-100 100-100 55.228 0 100 44.771 100 100z" transform="translate(3200.002 2399.999)"/><path style="fill:#2ec4b6;stroke:#2ec4b6;stroke-width:0;" d="M199.998.001c-110.457 0-200 89.543-200 200h200z" transform="translate(3200.002 2399.999)"/><path style="fill:#fdfffc;stroke:#fdfffc;stroke-width:0;" d="M199.998 200.001h-200v100c0 55.228 44.771 100 100 100 55.228 0 100-44.771 100-100z" transform="translate(3200.002 2399.999)"/><path style="fill:#2ec4b6;stroke:#2ec4b6;stroke-width:0;" d="M399.998.001c-110.457 0-200 89.543-200 200h200z" transform="translate(3200.002 2399.999)"/><path style="fill:#fdfffc;stroke:#fdfffc;stroke-width:0;" d="M399.998 200.001h-200v100c0 55.228 44.771 100 100 100 55.228 0 100-44.771 100-100z" transform="translate(3200.002 2399.999)"/><path style="fill:#2ec4b6;stroke:#2ec4b6;stroke-width:0;" d="M599.998.001c-110.457 0-200 89.543-200 200h200z" transform="translate(3200.002 2399.999)"/><path style="fill:#fdfffc;stroke:#fdfffc;stroke-width:0;" d="M599.998 200.001h-200v100c0 55.228 44.771 100 100 100 55.228 0 100-44.771 100-100z" transform="translate(3200.002 2399.999)"/><path style="fill:#2ec4b6;stroke:#2ec4b6;stroke-width:0;" d="M799.998.001c-110.457 0-200 89.543-200 200h200z" transform="translate(3200.002 2399.999)"/><path style="fill:#fdfffc;stroke:#fdfffc;stroke-width:0;" d="M799.998 200.001h-200v100c0 55.228 44.771 100 100 100 55.228 0 100-44.771 100-100z" transform="translate(3200.002 2399.999)"/><path transform="rotate(90 2800 2800.002)" style="fill:#fdfffc;stroke:#fdfffc;stroke-width:0;" d="M-.002.001h800v800h-800z"/><path style="fill:#011627;stroke:#011627;stroke-width:0;" d="m399.998 800.001 400-200v200zM399.998 800.001l-400-200v200zM399.998.001l400 200v-200zM399.998.001l-400 200v-200z" transform="translate(4800.002)"/><path style="fill:#f55178" d="m399.998 800.001-400-200v-400l400 200z" transform="translate(4800.002)"/><path style="fill:#ff7f11;stroke:#ff7f11;stroke-width:0;" d="m399.998 800.001 400-200v-400l-400 200z" transform="translate(4800.002)"/><g transform="translate(5600.002)"><path style="fill:#011627;stroke:#011627;stroke-width:0;" transform="rotate(90 399.998 400)" d="M-.002.001h800v800h-800z"/><path style="fill:#ff7f11;stroke:#ff7f11;stroke-width:0;" transform="rotate(90 399.998 600)" d="M199.998 200.001h400v800h-400z"/><path d="M799.998 100.001c-165.685 0-300 134.314-300 300 0-.398-.006-.796-.008-1.194v301.194h.008c165.685 0 300-134.315 300-300z" style="fill:#f55178"/><path d="M-.002 400.001c220.914 0 400 179.086 400 400h-100c0-165.685-134.315-300-300-300" style="fill:#3772ff;stroke:#3772ff;stroke-width:0;"/><path d="M299.998 800.001c0-165.685-134.315-300-300-300v300z" style="fill:#fdfffc;stroke:#fdfffc;stroke-width:0;"/><path d="M199.998 800.001c0-110.457-89.543-200-200-200v200z" style="fill:#f55178"/><path d="M99.998 800.001c0-55.229-44.772-100-100-100v100z" style="fill:#2ec4b6;stroke:#2ec4b6;stroke-width:0;"/><circle r="100" cy="200.001" cx="199.998" style="fill:#2ec4b6;stroke:#2ec4b6;stroke-width:0;"/></g><path style="fill:#f55178" d="M-.002.001h800v800h-800z" transform="translate(5600.002 799.999)"/><path style="fill:#2ec4b6;stroke:#2ec4b6;stroke-width:0;" d="M799.979 800.001v-800H-.002c441.819.01 799.981 358.178 799.981 800z" transform="translate(5600.002 799.999)"/><path style="fill:#fdfffc;stroke:#fdfffc;stroke-width:0;" d="M-.002.001c220.914 0 400 179.086 400 400s-179.086 400-400 400" transform="translate(5600.002 799.999)"/><path style="fill:#f55178" d="M-.002.001h800V800.02h-800z" transform="matrix(1 0 0 .99995 4800.002 799.999)"/><path d="M-.002.001c400 0 398.539 806.431 800 800v-800z" style="fill:#011627;stroke:#011627;stroke-width:0;" transform="matrix(1 0 0 .99995 4800.002 799.999)"/><path d="M399.998.001c200 0 199.27 403.215 400 400v-400zM399.998 800.001c-200 0-199.27-403.215-400-400v400z" style="fill:#3772ff;stroke:#3772ff;stroke-width:0;" transform="matrix(1 0 0 .99995 4800.002 799.999)"/><path style="fill:#f55178" d="M-.002.001h800v800h-800z" transform="translate(4800.002 1599.999)"/><path style="fill:#ff7f11;stroke:#ff7f11;stroke-width:0;" d="M-.002.001h400v800h-400z" transform="translate(4800.002 1599.999)"/><path style="fill:#3772ff;stroke:#3772ff;stroke-width:0;" d="M199.998 200.001h400v400h-400z" transform="translate(4800.002 1599.999)"/><path style="fill:#f55178" d="M-.002.001h800v800h-800z" transform="translate(5600.002 1599.999)"/><path d="M699.998 399.991c0-22.272-15.876-33.828-32.351-44.98-7.149-4.84-9.176-14.466-4.585-21.777 10.578-16.846 20.445-33.821 11.466-54.201-7.701-17.478-22.909-23.037-39.429-26.513a16.033 16.033 0 0 1-12.533-18.31c2.739-16.656 3.061-32.843-10.443-46.348-15.745-15.745-35.136-12.695-54.666-8.933-8.477 1.633-16.717-3.741-18.641-12.157-4.432-19.389-9.46-38.363-30.216-46.423-17.803-6.913-32.486-.092-46.624 9.131a16.031 16.031 0 0 1-21.809-4.086c-9.841-13.716-21.06-25.392-40.16-25.392-22.27 0-33.826 15.873-44.977 32.346-4.84 7.149-14.466 9.176-21.777 4.585-16.848-10.579-33.824-20.449-54.205-11.469-17.477 7.7-23.036 22.906-26.512 39.424a16.032 16.032 0 0 1-18.311 12.532c-16.658-2.74-32.847-3.063-46.352 10.442-15.747 15.747-12.695 35.143-8.932 54.676 1.633 8.477-3.741 16.717-12.157 18.641-19.394 4.433-38.376 9.458-46.438 30.22-6.913 17.803-.092 32.486 9.13 46.624a16.031 16.031 0 0 1-4.086 21.809c-13.716 9.841-25.392 21.06-25.392 40.16 0 22.27 15.873 33.826 32.346 44.977 7.149 4.84 9.176 14.466 4.585 21.777-10.579 16.848-20.449 33.824-11.468 54.205 7.7 17.477 22.906 23.036 39.424 26.512a16.032 16.032 0 0 1 12.532 18.311c-2.74 16.658-3.063 32.846 10.442 46.352 15.752 15.752 35.153 12.693 54.691 8.929 8.477-1.633 16.717 3.741 18.641 12.157 4.433 19.397 9.457 38.385 30.222 46.448 17.804 6.914 32.489.09 46.628-9.133a16.031 16.031 0 0 1 21.809 4.086c9.841 13.714 21.059 25.388 40.157 25.388 22.272 0 33.828-15.876 44.98-32.35 4.84-7.149 14.466-9.176 21.777-4.585 16.846 10.578 33.821 20.445 54.201 11.465 17.478-7.701 23.037-22.909 26.513-39.429a16.033 16.033 0 0 1 18.31-12.533c16.656 2.739 32.843 3.061 46.348-10.443 15.749-15.749 12.694-35.146 8.93-54.681-1.633-8.477 3.741-16.717 12.157-18.641 19.392-4.432 38.372-9.459 46.433-30.219 6.914-17.804.09-32.489-9.133-46.628a16.031 16.031 0 0 1 4.086-21.809c13.715-9.84 25.389-21.059 25.389-40.157z" style="fill:#ff7f11;stroke:#ff7f11;stroke-width:0;" transform="translate(5600.002 1599.999)"/><path style="fill:#f55178" d="M-.002.001h800v800h-800z" transform="translate(5600.002 2399.999)"/><path style="fill:#ff7f11;stroke:#ff7f11;stroke-width:0;" d="M-.002.001h400v400h-400z" transform="translate(5600.002 2399.999)"/><path style="fill:#011627;stroke:#011627;stroke-width:0;" d="M399.998 400.001h400v400h-400z" transform="translate(5600.002 2399.999)"/><path style="fill:#f55178" d="M-.002.001h800v800h-800z" transform="translate(4800.002 2399.999)"/><path style="fill:#fdfffc;stroke:#fdfffc;stroke-width:0;" transform="rotate(90 1600 4000)" d="M299.998 0h200v800h-200z"/><path style="fill:#ff7f11;stroke:#ff7f11;stroke-width:0;" transform="rotate(90 1600 3700.001)" d="M299.998-299.999h200v800h-200z"/><path style="fill:#3772ff;stroke:#3772ff;stroke-width:0;" transform="rotate(90 1600 4300.002)" d="M299.998 300.001h200v800h-200z"/><path style="fill:#011627;stroke:#011627;stroke-width:0;" d="m-.002 800.001 800-800v800z" transform="translate(4800.002 2399.999)"/><g transform="translate(3200.002 3199.999)"><path style="fill:#f55178" d="M-.002.001h800v800h-800z"/><circle style="fill:#ff7f11;stroke:#ff7f11;stroke-width:0;" cx="399.998" cy="400.001" r="300"/><path style="fill:#fdfffc;stroke:#fdfffc;stroke-width:0;" d="M799.998 400.001c0-220.914-179.086-400-400-400s-400 179.086-400 400z"/></g><path style="fill:#ff7f11;stroke:#ff7f11;stroke-width:0;" transform="rotate(-90 3999.999 200)" d="M199.998 200.001h400v800h-400z"/><path d="M99.998 400.001c0 165.685 134.315 300 300 300s300-134.315 300-300h100c0 220.914-179.086 400-400 400s-400-179.086-400-400z" style="fill:#fdfffc;stroke:#fdfffc;stroke-width:0;" transform="translate(4000.002 3200)"/><path d="M699.998 400.001c0 165.685-134.315 300-300 300s-300-134.315-300-300z" style="fill:#011627;stroke:#011627;stroke-width:0;" transform="translate(4000.002 3200)"/><path d="M599.998 400.001c0 110.457-89.543 200-200 200s-200-89.543-200-200z" style="fill:#3772ff;stroke:#3772ff;stroke-width:0;" transform="translate(4000.002 3200)"/><path d="M499.998 400.001c0 55.228-44.772 100-100 100s-100-44.772-100-100z" style="fill:#ff7f11;stroke:#ff7f11;stroke-width:0;" transform="translate(4000.002 3200)"/><path style="fill:#ff7f11;stroke:#ff7f11;stroke-width:0;" transform="rotate(90 800 3800.001)" d="M199.998-199.999h400v800h-400z"/><path d="M699.998 400.001c0-165.685-134.315-300-300-300s-300 134.315-300 300h-100c0-220.914 179.086-400 400-400s400 179.086 400 400z" style="fill:#3772ff;stroke:#3772ff;stroke-width:0;" transform="translate(4000.002 3200)"/><path d="M99.998 400.001c0-165.685 134.315-300 300-300s300 134.315 300 300z" style="fill:#2ec4b6;stroke:#2ec4b6;stroke-width:0;" transform="translate(4000.002 3200)"/><path d="M199.998 400.001c0-110.457 89.543-200 200-200s200 89.543 200 200z" style="fill:#f55178" transform="translate(4000.002 3200)"/><path d="M299.998 400.001c0-55.228 44.772-100 100-100s100 44.772 100 100z" style="fill:#011627;stroke:#011627;stroke-width:0;" transform="translate(4000.002 3200)"/><path style="fill:#2ec4b6;stroke:#2ec4b6;stroke-width:0;" d="M-.002.001h800v800h-800z" transform="matrix(.99958 0 0 .99697 4000.002 4000)"/><path style="fill:#3772ff;stroke:#3772ff;stroke-width:0;" d="M-.002 800.001c39.999-39.999-19.26-99.258 20.738-139.257 40-40 99.259 19.26 139.258-20.74 39.998-39.998-19.261-99.258 20.737-139.256 40-40 99.259 19.259 139.259-20.741 39.999-39.999-19.26-99.259 20.74-139.258 40-40 99.259 19.259 139.259-20.74 39.999-39.999-19.26-99.259 20.739-139.258 40-40 99.26 19.259 139.26-20.742 40.002-40.002-19.257-99.262 20.745-139.264C700.735-19.257 759.995 40.002 799.997 0L.333 2.431ZM800.333 2.097c-40.016 40.016 19.269 99.3-20.747 139.315-40.016 40.016-99.3-19.268-139.317 20.748-40.015 40.015 19.269 99.299-20.746 139.314-40.017 40.017-99.301-19.267-139.317 20.749-40.016 40.016 19.268 99.3-20.748 139.316-40.017 40.017-99.301-19.267-139.317 20.749-40.016 40.016 19.268 99.3-20.748 139.316-40.017 40.017-99.301-19.267-139.318 20.75-40.019 40.019 19.265 99.303-20.754 139.322-40.019 40.019-99.304-19.263-139.323 20.756l800-2.431z" transform="matrix(.99958 0 0 .99697 4000.002 4000)"/><path style="fill:#3772ff;stroke:#3772ff;stroke-width:0;" d="M799.998.001C759.999 40 819.259 99.259 779.26 139.258c-40 40-99.259-19.26-139.258 20.74-39.998 39.998 19.261 99.258-20.737 139.256-40 40-99.259-19.259-139.259 20.741-39.999 39.999 19.26 99.259-20.74 139.258-40 40-99.259-19.259-139.259 20.74-39.999 39.999 19.26 99.259-20.739 139.258-40 40-99.26-19.259-139.26 20.742-40.002 40.002 19.257 99.262-20.745 139.264C99.26 819.258 40 759.999-.002 800.001l799.665-2.43z" transform="matrix(.99958 0 0 .99697 4000.002 4000)"/><path style="fill:#ff7f11;stroke:#ff7f11;stroke-width:0;" d="M799.998 200.001c-29.999 29.999 14.445 74.444-15.554 104.443-30 30-74.444-14.445-104.444 15.555-29.999 29.999 14.446 74.443-15.553 104.442-30 30-74.444-14.445-104.444 15.555s14.445 74.444-15.555 104.444-74.444-14.445-104.444 15.555c-29.999 29.999 14.445 74.444-15.554 104.443-30 30-74.445-14.444-104.445 15.556-30.002 30.002 14.443 74.446-15.559 104.448-30.002 30.002-74.446-14.443-104.448 15.559l599.749-1.823zM-.002 600.001c29.999-29.999-14.445-74.444 15.554-104.443 30-30 74.444 14.445 104.444-15.555 29.999-29.999-14.446-74.443 15.553-104.442 30-30 74.444 14.445 104.444-15.555s-14.445-74.444 15.555-104.444 74.444 14.445 104.444-15.555c29.999-29.999-14.445-74.444 15.554-104.443 30-30 74.445 14.444 104.445-15.556 30.002-30.002-14.443-74.446 15.559-104.448C525.552-14.442 569.996 30.003 599.998.001L.25 1.824Z" transform="matrix(.99958 0 0 .99697 4000.002 4000)"/><path style="fill:#011627;stroke:#011627;stroke-width:0;" d="M799.998 400.001c-19.999 19.999 9.63 49.629-10.369 69.628-20 20-49.629-9.63-69.629 10.37-19.999 19.999 9.631 49.629-10.369 69.628-20 20-49.63-9.63-69.63 10.37-20 20 9.63 49.629-10.37 69.629-20 20-49.63-9.63-69.63 10.37-20 20 9.63 49.629-10.37 69.629-20 20-49.63-9.629-69.63 10.371-20.001 20.001 9.629 49.631-10.373 69.632-20.001 20.001-49.631-9.628-69.632 10.373l399.832-1.215z" transform="matrix(.99958 0 0 .99697 4000.002 4000)"/><path style="fill:#f55178" d="M-.002 400.001c19.999-19.999-9.63-49.629 10.369-69.628 20-20 49.629 9.63 69.629-10.37 19.999-19.999-9.631-49.629 10.369-69.628 20-20 49.63 9.63 69.63-10.37 20-20-9.63-49.629 10.37-69.629 20-20 49.63 9.63 69.63-10.37 20-20-9.63-49.629 10.37-69.629 20-20 49.63 9.629 69.63-10.371 20.001-20.001-9.628-49.631 10.373-69.632C350.369-9.627 379.999 20.002 400 .001L.166 1.216Z" transform="matrix(.99958 0 0 .99697 4000.002 4000)"/><path style="fill:#011627;stroke:#011627;stroke-width:0;" d="M-.002.001h800v800h-800z" transform="translate(3200.002 3999.999)"/><path style="fill:#2ec4b6;stroke:#2ec4b6;stroke-width:0;" d="m-.002 800.001 200-800 200 800z" transform="translate(3200.002 3999.999)"/><path style="fill:#3772ff;stroke:#3772ff;stroke-width:0;" d="m399.998 800.001 200-800 200 800z" transform="translate(3200.002 3999.999)"/><g transform="translate(3200.002 4799.999)"><path style="fill:#f55178" d="M-.002.001h800v800h-800z"/><path style="fill:#2ec4b6;stroke:#2ec4b6;stroke-width:0;" d="m599.998 800.001 200-200v200z"/><path style="fill:#011627;stroke:#011627;stroke-width:0;" d="m799.998 800.001-200-200v200z"/><path style="fill:#3772ff;stroke:#3772ff;stroke-width:0;" d="m399.998 800.001 200-200v200z"/><path style="fill:#fdfffc;stroke:#fdfffc;stroke-width:0;" d="m599.998 800.001-200-200v200z"/><path style="fill:#2ec4b6;stroke:#2ec4b6;stroke-width:0;" d="m199.998 800.001 200-200v200z"/><path style="fill:#ff7f11;stroke:#ff7f11;stroke-width:0;" d="m399.998 800.001-200-200v200z"/><path style="fill:#011627;stroke:#011627;stroke-width:0;" d="m-.002 800.001 200-200v200z"/><path style="fill:#3772ff;stroke:#3772ff;stroke-width:0;" d="m199.998 800.001-200-200v200z"/><path style="fill:#2ec4b6;stroke:#2ec4b6;stroke-width:0;" d="m599.998.001 200 200v-200z"/><path style="fill:#011627;stroke:#011627;stroke-width:0;" d="m799.998.001-200 200v-200z"/><path style="fill:#3772ff;stroke:#3772ff;stroke-width:0;" d="m399.998.001 200 200v-200z"/><path style="fill:#fdfffc;stroke:#fdfffc;stroke-width:0;" d="m599.998.001-200 200v-200z"/><path style="fill:#2ec4b6;stroke:#2ec4b6;stroke-width:0;" d="m199.998.001 200 200v-200z"/><path style="fill:#ff7f11;stroke:#ff7f11;stroke-width:0;" d="m399.998.001-200 200v-200z"/><path style="fill:#011627;stroke:#011627;stroke-width:0;" d="m-.002.001 200 200v-200z"/><path style="fill:#3772ff;stroke:#3772ff;stroke-width:0;" d="m199.998.001-200 200v-200z"/><circle style="fill:#ff7f11;stroke:#ff7f11;stroke-width:0;" cx="399.998" cy="400.001" r="100"/><circle style="fill:#ff7f11;stroke:#ff7f11;stroke-width:0;" cx="699.998" cy="400.001" r="100"/><circle style="fill:#ff7f11;stroke:#ff7f11;stroke-width:0;" cx="99.998" cy="400.001" r="100"/></g><path style="fill:#3772ff;stroke:#3772ff;stroke-width:0;" d="M-.002.001h800v800h-800z" transform="translate(4000.002 4799.999)"/><path d="M688.182 373.367c-20.232-20.233-46.492-9.399-71.32-5.948-5.358.745-10.775-.796-15.041-4.121l-.503-.39c-3.619-2.789-6.101-6.774-7.201-11.209a198.807 198.807 0 0 0-22.698-54.76c-2.361-3.918-3.429-8.495-2.842-13.031l.085-.67c.664-5.37 3.406-10.29 7.722-13.553 19.996-15.115 46.224-26.024 46.224-54.637 0-10.519-3.549-18.642-9.027-25.463a20.722 20.722 0 0 0-3.175-3.175c-6.821-5.478-14.944-9.027-25.462-9.027-28.621 0-39.527 26.246-54.649 46.244-3.262 4.314-8.181 7.055-13.549 7.72-.214.026-.427.054-.641.081-4.537.587-9.115-.481-13.034-2.842a198.8 198.8 0 0 0-54.765-22.703c-4.435-1.1-8.421-3.583-11.21-7.203l-.384-.496c-3.324-4.266-4.864-9.682-4.119-15.039 3.451-24.829 14.287-51.092-5.946-71.326-7.443-7.443-15.702-10.678-24.405-11.625a20.728 20.728 0 0 0-4.482 0c-8.703.947-16.963 4.182-24.405 11.625-20.239 20.24-9.39 46.513-5.943 71.35.743 5.355-.797 10.768-4.119 15.034-.121.156-.243.312-.363.469-2.79 3.621-6.777 6.105-11.213 7.205a198.761 198.761 0 0 0-54.787 22.709c-3.919 2.362-8.498 3.429-13.036 2.842l-.62-.079c-5.367-.666-10.285-3.406-13.547-7.719-15.123-19.999-26.029-46.247-54.65-46.247-10.526 0-18.653 3.553-25.477 9.038a20.689 20.689 0 0 0-3.169 3.169c-5.484 6.824-9.037 14.952-9.037 25.478 0 28.614 26.23 39.522 46.226 54.638 4.315 3.262 7.057 8.182 7.721 13.551l.082.649c.587 4.537-.481 9.114-2.842 13.032a198.805 198.805 0 0 0-22.704 54.782c-1.1 4.436-3.583 8.422-7.203 11.212l-.476.369c-4.266 3.324-9.681 4.864-15.037 4.121-24.834-3.448-51.105-14.295-71.343 5.944-7.438 7.438-10.672 15.692-11.621 24.389a20.675 20.675 0 0 0 0 4.49c.949 8.697 4.184 16.951 11.621 24.389 20.232 20.233 46.492 9.399 71.32 5.948 5.358-.745 10.775.796 15.041 4.121l.503.39c3.619 2.789 6.101 6.774 7.201 11.209a198.776 198.776 0 0 0 22.698 54.76c2.361 3.918 3.429 8.495 2.842 13.031l-.085.67c-.664 5.37-3.406 10.29-7.722 13.553-19.996 15.115-46.224 26.024-46.224 54.637 0 10.519 3.549 18.642 9.027 25.463a20.677 20.677 0 0 0 3.175 3.175c6.821 5.478 14.944 9.027 25.462 9.027 28.621 0 39.527-26.245 54.649-46.244 3.262-4.314 8.181-7.055 13.549-7.72.214-.026.427-.054.641-.081 4.537-.587 9.115.481 13.034 2.842a198.8 198.8 0 0 0 54.765 22.703c4.435 1.1 8.421 3.583 11.21 7.203l.384.496c3.324 4.266 4.864 9.682 4.119 15.038-3.451 24.83-14.287 51.092 5.946 71.326 7.443 7.443 15.702 10.678 24.405 11.625 1.489.162 2.993.162 4.482 0 8.703-.947 16.963-4.182 24.405-11.625 20.239-20.24 9.39-46.513 5.943-71.35-.743-5.355.797-10.769 4.119-15.034l.363-.469c2.79-3.62 6.777-6.105 11.213-7.205a198.761 198.761 0 0 0 54.787-22.709c3.919-2.362 8.498-3.429 13.036-2.842l.62.079c5.367.666 10.285 3.406 13.547 7.719 15.123 19.999 26.029 46.247 54.65 46.247 10.526 0 18.653-3.553 25.477-9.038a20.65 20.65 0 0 0 3.169-3.17c5.484-6.824 9.037-14.952 9.037-25.478 0-28.614-26.23-39.522-46.226-54.638-4.315-3.262-7.057-8.182-7.721-13.551l-.082-.649c-.587-4.537.481-9.114 2.842-13.033a198.774 198.774 0 0 0 22.704-54.782c1.1-4.436 3.583-8.422 7.203-11.212l.476-.369c4.266-3.324 9.68-4.864 15.037-4.121 24.834 3.448 51.105 14.295 71.343-5.944 7.438-7.438 10.672-15.692 11.622-24.389a20.675 20.675 0 0 0 0-4.49c-.95-8.694-4.185-16.948-11.622-24.386z" style="fill:#ff7f11;stroke:#ff7f11;stroke-width:0;" transform="translate(4000.002 4799.999)"/><path transform="rotate(-180 2399.999 3200)" style="fill:#ff7f11;stroke:#ff7f11;stroke-width:0;" d="M-.002.001h800v800h-800z"/><path style="fill:#3772ff;stroke:#3772ff;stroke-width:0;" d="M799.998 600.001c-39.999 0-39.999 59.259-79.998 59.259-40 0-40-59.259-79.999-59.259-39.998 0-39.998 59.259-79.996 59.259-40 0-40-59.259-80-59.259-39.999 0-39.999 59.259-79.999 59.259-40 0-40-59.259-80-59.259-39.999 0-39.999 59.259-79.999 59.259-40 0-40-59.259-80.001-59.259-40.002 0-40.002 59.259-80.005 59.259-40.003 0-40.001-59.259-80.003-59.259v200h800V629.63M799.998 200.001c-39.999 0-39.999-59.259-79.998-59.259-40 0-40 59.259-79.999 59.259-39.998 0-39.998-59.259-79.996-59.259-40 0-40 59.259-80 59.259-39.999 0-39.999-59.259-79.999-59.259-40 0-40 59.259-80 59.259-39.999 0-39.999-59.259-79.999-59.259-40 0-40 59.259-80.001 59.259-40.002 0-40.002-59.259-80.005-59.259-40.003 0-40.001 59.259-80.003 59.259v-200h800v170.37" transform="translate(4000.002 5600)"/><path style="fill:#3772ff;stroke:#3772ff;stroke-width:0;" d="M199.998.001c0 39.999-59.259 39.999-59.259 79.998 0 40 59.259 40 59.259 79.999 0 39.998-59.259 39.998-59.259 79.996 0 40 59.259 40 59.259 80 0 39.999-59.259 39.999-59.259 79.999 0 40 59.259 40 59.259 80 0 39.999-59.259 39.999-59.259 79.999 0 40 59.259 40 59.259 80.001 0 40.002-59.259 40.002-59.259 80.005 0 40.003 59.259 40.002 59.259 80.005h-200v-800h170.37M599.998.001c0 39.999 59.259 39.999 59.259 79.998 0 40-59.259 40-59.259 79.999 0 39.998 59.259 39.998 59.259 79.996 0 40-59.259 40-59.259 80 0 39.999 59.259 39.999 59.259 79.999 0 40-59.259 40-59.259 80 0 39.999 59.259 39.999 59.259 79.999 0 40-59.259 40-59.259 80.001 0 40.002 59.259 40.002 59.259 80.005 0 40.003-59.259 40.002-59.259 80.005h200v-800h-170.37" transform="translate(4000.002 5600)"/><path style="fill:#fdfffc;stroke:#fdfffc;stroke-width:0;" d="M559.993 681.482c79.999 0 79.999 118.518 159.998 118.518 12.369 0 22.822-2.839 31.958-7.63 7.964-5.551 15.642-11.295 22.441-17.633 6.521-6.944 12.408-14.827 18.099-23.001 4.715-9.079 7.509-19.456 7.509-31.718 0-80.005-118.519-80.005-118.519-160.009 0-80.005 118.519-80.005 118.519-160.009h-400v400c79.998.001 79.998-118.518 159.995-118.518z" transform="translate(4000.002 5600)"/><path style="fill:#fdfffc;stroke:#fdfffc;stroke-width:0;" d="M118.517 240.006c0-79.999-118.518-79.999-118.518-159.998 0-12.369 2.839-22.822 7.63-31.958 5.551-7.964 11.295-15.642 17.633-22.441 6.944-6.521 14.827-12.408 23.001-18.099C57.342 2.795 67.719.001 79.981.001c80.005 0 80.005 118.519 160.009 118.519C319.995 118.52 319.995.001 399.999.001v400H-.002c0-79.998 118.519-79.998 118.519-159.995z" transform="translate(4000.002 5600)"/><path style="fill:#3772ff;stroke:#3772ff;stroke-width:0;" d="M-.002.001h800v800h-800z" transform="translate(3200.002 5599.999)"/><path d="M348.004 800.001c2.664-2.37 5.22-4.939 7.966-7.477 47.659-44.061 42.126-121.59 44.028-192.46-79.587 0-145.26-3.623-192.481 44.009a203.102 203.102 0 0 0-7.519 8.004 203.102 203.102 0 0 0-7.519-8.004C145.258 596.44 79.584 600.064-.002 600.064c1.903 70.87-3.63 148.398 44.028 192.46 2.746 2.539 5.302 5.108 7.966 7.477z" style="fill:#fdfffc;stroke:#fdfffc;stroke-width:0;" transform="translate(3200.002 5599.999)"/><path d="M748.004 800.001c2.664-2.37 5.22-4.939 7.966-7.477 47.658-44.061 42.126-121.59 44.028-192.46-79.587 0-145.26-3.623-192.481 44.009a203.102 203.102 0 0 0-7.519 8.004 203.102 203.102 0 0 0-7.519-8.004c-47.221-47.633-112.895-44.009-192.481-44.009 1.903 70.87-3.63 148.398 44.028 192.46 2.746 2.539 5.302 5.108 7.966 7.477z" style="fill:#011627;stroke:#011627;stroke-width:0;" transform="translate(3200.002 5599.999)"/><path d="M348.004 400.001c2.664 2.37 5.22 4.939 7.966 7.477 47.659 44.061 42.126 121.59 44.028 192.46-79.587 0-145.26 3.623-192.481-44.009a203.102 203.102 0 0 1-7.519-8.004 203.102 203.102 0 0 1-7.519 8.004C145.258 603.562 79.584 599.938-.002 599.938c1.903-70.87-3.63-148.398 44.028-192.46 2.746-2.539 5.302-5.108 7.966-7.477z" style="fill:#ff7f11;stroke:#ff7f11;stroke-width:0;" transform="translate(3200.002 5599.999)"/><path d="M748.004 400.001c2.664 2.37 5.22 4.939 7.966 7.477 47.658 44.061 42.126 121.59 44.028 192.46-79.587 0-145.26 3.623-192.481-44.009a203.102 203.102 0 0 1-7.519-8.004 203.102 203.102 0 0 1-7.519 8.004c-47.221 47.633-112.895 44.009-192.481 44.009 1.903-70.87-3.63-148.398 44.028-192.46 2.746-2.539 5.302-5.108 7.966-7.477z" style="fill:#fdfffc;stroke:#fdfffc;stroke-width:0;" transform="translate(3200.002 5599.999)"/><path d="M348.004.001c2.664 2.37 5.22 4.939 7.966 7.477 47.659 44.061 42.126 121.59 44.028 192.46-79.587 0-145.26 3.623-192.481-44.009a203.102 203.102 0 0 1-7.519-8.004 203.102 203.102 0 0 1-7.519 8.004C145.258 203.562 79.584 199.938-.002 199.938c1.903-70.87-3.63-148.398 44.028-192.46 2.746-2.539 5.302-5.108 7.966-7.477z" style="fill:#f55178" transform="translate(3200.002 5599.999)"/><path d="M748.004.001c2.664 2.37 5.22 4.939 7.966 7.477 47.658 44.061 42.126 121.59 44.028 192.46-79.587 0-145.26 3.623-192.481-44.009a203.102 203.102 0 0 1-7.519-8.004 203.102 203.102 0 0 1-7.519 8.004c-47.221 47.633-112.895 44.009-192.481 44.009 1.903-70.87-3.63-148.398 44.028-192.46 2.746-2.539 5.302-5.108 7.966-7.477z" style="fill:#ff7f11;stroke:#ff7f11;stroke-width:0;" transform="translate(3200.002 5599.999)"/><path d="M348.004 400.001c2.664-2.37 5.22-4.939 7.966-7.477 47.659-44.061 42.126-121.59 44.028-192.46-79.587 0-145.26-3.623-192.481 44.009a203.102 203.102 0 0 0-7.519 8.004 203.102 203.102 0 0 0-7.519-8.004C145.258 196.44 79.584 200.064-.002 200.064c1.903 70.87-3.63 148.398 44.028 192.46 2.746 2.539 5.302 5.108 7.966 7.477z" style="fill:#011627;stroke:#011627;stroke-width:0;" transform="translate(3200.002 5599.999)"/><path d="M748.004 400.001c2.664-2.37 5.22-4.939 7.966-7.477 47.658-44.061 42.126-121.59 44.028-192.46-79.587 0-145.26-3.623-192.481 44.009a203.102 203.102 0 0 0-7.519 8.004 203.102 203.102 0 0 0-7.519-8.004c-47.221-47.633-112.895-44.009-192.481-44.009 1.903 70.87-3.63 148.398 44.028 192.46 2.746 2.539 5.302 5.108 7.966 7.477z" style="fill:#f55178" transform="translate(3200.002 5599.999)"/><path transform="rotate(-90 4399.999 -400)" style="fill:#f55178" d="M-.002.001h800v800h-800z"/><path style="fill:#011627;stroke:#011627;stroke-width:0;" d="M99.998 700.001h600v-300h-150v150h-300v-300h150v-150h-300z" transform="translate(4800.002 3199.999)"/><path style="fill:#011627;stroke:#011627;stroke-width:0;" d="M-.002.001h800v800h-800z" transform="matrix(1 0 0 1 5600.003 3199.999)"/><path d="M532.511 532.514H267.478h.006C119.755 532.514-.003 652.272-.003 800.001h800V265.027c-147.728 0-267.486 119.758-267.486 267.487z" style="fill:#2ec4b6;stroke:#2ec4b6;stroke-width:0;" transform="matrix(1 0 0 1 5600.003 3199.999)"/><path d="M267.485 532.514h265.033-.006c147.729 0 267.487 119.758 267.487 267.487h-800V265.028c147.728-.001 267.486 119.757 267.486 267.486z" style="fill:#f55178" transform="matrix(1 0 0 1 5600.003 3199.999)"/><path d="M532.511 267.488H267.478h.006C119.756 267.487-.002 147.73-.002.001h800v534.973c-147.729 0-267.487-119.758-267.487-267.486z" style="fill:#ff7f11;stroke:#ff7f11;stroke-width:0;" transform="matrix(1 0 0 1 5600.003 3199.999)"/><path d="M267.485 267.488h265.033-.006c147.729 0 267.487-119.758 267.487-267.487h-800v534.973c147.728 0 267.486-119.758 267.486-267.486z" style="fill:#3772ff;stroke:#3772ff;stroke-width:0;" transform="matrix(1 0 0 1 5600.003 3199.999)"/><path style="fill:#fdfffc;stroke:#fdfffc;stroke-width:0;" d="M267.485 532.514h-.006.006C119.756 532.514-.002 652.272-.002 800.001V265.028c147.729-.001 267.487 119.757 267.487 267.486z" transform="matrix(1 0 0 1 5600.003 3199.999)"/><path d="M267.485 267.488h-.006.006C119.756 267.487-.002 147.73-.002.001v534.973c147.729 0 267.487-119.758 267.487-267.486z" style="fill:#2ec4b6;stroke:#2ec4b6;stroke-width:0;" transform="matrix(1 0 0 1 5600.003 3199.999)"/><g transform="translate(5600.002 3999.999)"><path style="fill:#ff7f11;stroke:#ff7f11;stroke-width:0;" d="M-.002.001h800v800h-800z"/><path style="fill:#3772ff;stroke:#3772ff;stroke-width:0;" d="M-.002 400.001h800v400h-800z"/><circle r="80" cy="400.001" cx="79.998" style="fill:#fdfffc;stroke:#fdfffc;stroke-width:0;"/><circle r="80" cy="400.001" cx="399.998" style="fill:#fdfffc;stroke:#fdfffc;stroke-width:0;"/><circle r="80" cy="400.001" cx="719.998" style="fill:#fdfffc;stroke:#fdfffc;stroke-width:0;"/></g><path style="fill:#ff7f11;stroke:#ff7f11;stroke-width:0;" d="M-.002.001h800v800h-800z" transform="translate(4800.002 3999.999)"/><path style="fill:#f55178" d="M-.002.001v800h800z" transform="translate(4800.002 3999.999)"/><path style="fill:#3772ff;stroke:#3772ff;stroke-width:0;" d="M-.002.001h800v800h-800z" transform="translate(4800.002 4799.999)"/><path d="M201.838 800.001h-200v-200c0-110.457 89.543-200 200-200s200 89.543 200 200-89.543 200-200 200z" style="fill:#89c765" transform="translate(4800.002 4799.999)"/><path d="M201.838 800.001h-200v-200c0-110.457 89.543-200 200-200s200 89.543 200 200-89.543 200-200 200z" style="fill:#011627;stroke:#011627;stroke-width:0;" transform="translate(4800.002 4799.999)"/><path d="M599.998 800.001h200v-200c0-110.457-89.543-200-200-200s-200 89.543-200 200 89.543 200 200 200z" style="fill:#fdfffc;stroke:#fdfffc;stroke-width:0;" transform="translate(4800.002 4799.999)"/><path d="M201.838.001h-200v200c0 110.457 89.543 200 200 200s200-89.543 200-200-89.543-200-200-200z" style="fill:#f55178" transform="translate(4800.002 4799.999)"/><path d="M599.998.001h200v200c0 110.457-89.543 200-200 200s-200-89.543-200-200 89.543-200 200-200z" style="fill:#ff7f11;stroke:#ff7f11;stroke-width:0;" transform="translate(4800.002 4799.999)"/><path style="fill:#3772ff;stroke:#3772ff;stroke-width:0;" d="M-.002.001h800v800h-800z" transform="translate(5600.002 4799.999)"/><path d="M799.998.001c-72.859 0-141.165 19.484-200 53.518C541.163 19.484 472.857.001 399.998.001c0 72.858 19.484 141.164 53.518 200-34.035 58.835-53.518 127.141-53.518 200 72.858 0 141.164-19.483 200-53.518 58.835 34.035 127.141 53.518 200 53.518 0-72.858-19.483-141.164-53.518-200 34.035-58.835 53.518-127.141 53.518-200z" style="fill:#011627;stroke:#011627;stroke-width:0;" transform="translate(5600.002 4799.999)"/><path d="M399.998.001c-72.859 0-141.165 19.484-200 53.518C141.163 19.484 72.857.001-.001.001c0 72.858 19.484 141.164 53.518 200C19.482 258.836-.002 327.142-.002 400c72.858 0 141.164-19.483 200-53.518 58.835 34.035 127.141 53.518 200 53.518 0-72.858-19.483-141.164-53.518-200C380.515 141.166 399.998 72.86 399.998.001z" style="fill:#f55178" transform="translate(5600.002 4799.999)"/><path d="M399.998 400.001c-72.859 0-141.165 19.484-200 53.518-58.835-34.035-127.141-53.518-200-53.518 0 72.858 19.484 141.164 53.518 200C19.482 658.836-.002 727.142-.002 800c72.858 0 141.164-19.483 200-53.518 58.835 34.035 127.141 53.518 200 53.518 0-72.858-19.483-141.164-53.518-200 34.035-58.834 53.518-127.14 53.518-199.999z" style="fill:#011627;stroke:#011627;stroke-width:0;" transform="translate(5600.002 4799.999)"/><path d="M799.998 400.001c-72.859 0-141.165 19.484-200 53.518-58.835-34.035-127.141-53.518-200-53.518 0 72.858 19.484 141.164 53.518 200-34.035 58.835-53.518 127.141-53.518 200 72.858 0 141.164-19.483 200-53.518 58.835 34.035 127.141 53.518 200 53.518 0-72.858-19.483-141.164-53.518-200 34.035-58.835 53.518-127.141 53.518-200z" style="fill:#f55178" transform="translate(5600.002 4799.999)"/><path style="fill:#ff7f11;stroke:#ff7f11;stroke-width:0;" d="M-.002.001h800v800h-800z" transform="translate(5600.002 5599.999)"/><path style="fill:#3772ff;stroke:#3772ff;stroke-width:0;" d="m399.998 800.001 400-400-400-400h-200l400 400-400 400z" transform="translate(5600.002 5599.999)"/><path style="fill:#f55178" d="m-.002 800.001 400-400-400-400v200l200 200-200 200z" transform="translate(5600.002 5599.999)"/><path style="fill:#011627;stroke:#011627;stroke-width:0;" d="M799.998 200.001v-200h-200zM799.998 800.001v-200l-200 200z" transform="translate(5600.002 5599.999)"/><path transform="rotate(-180 2800.001 3200.003)" style="fill:#3772ff;stroke:#3772ff;stroke-width:0;" d="M-.002.001h800v800h-800z"/><path style="fill:#ff7f11;stroke:#ff7f11;stroke-width:0;" d="M399.998.001h400v400c0 220.914-179.086 400-400 400h-.001c-220.914 0-400-179.086-400-400V400C-.002 179.087 179.084.001 399.998.001Z" transform="matrix(1 0 0 1 4800.003 5599.999)"/><path style="fill:#f55178" d="M599.998.001h200v200c0 110.457-89.543 200-200 200s-200-89.543-200-200 89.543-200 200-200z" transform="matrix(1 0 0 1 4800.003 5599.999)"/></svg>