<?xml version="1.0" encoding="UTF-8" standalone="no"?>
<!-- Generator: Adobe Illustrator 25.4.1, SVG Export Plug-In . SVG Version: 6.00 Build 0)  -->

<svg
   xmlns:dc="http://purl.org/dc/elements/1.1/"
   xmlns:cc="http://creativecommons.org/ns#"
   xmlns:rdf="http://www.w3.org/1999/02/22-rdf-syntax-ns#"
   xmlns:svg="http://www.w3.org/2000/svg"
   xmlns="http://www.w3.org/2000/svg"
   xmlns:sodipodi="http://sodipodi.sourceforge.net/DTD/sodipodi-0.dtd"
   xmlns:inkscape="http://www.inkscape.org/namespaces/inkscape"
   version="1.1"
   id="Layer_1"
   x="0px"
   y="0px"
   viewBox="0 0 1600 1600"
   style="enable-background:new 0 0 1600 1600;"
   xml:space="preserve"
   sodipodi:docname="brushedstroke.svg"
   inkscape:version="0.92.5 (2060ec1f9f, 2020-04-08)"><metadata
   id="metadata25"><rdf:RDF><cc:Work
       rdf:about=""><dc:format>image/svg+xml</dc:format><dc:type
         rdf:resource="http://purl.org/dc/dcmitype/StillImage" /></cc:Work></rdf:RDF></metadata><defs
   id="defs23" /><sodipodi:namedview
   pagecolor="#ffffff"
   bordercolor="#666666"
   borderopacity="1"
   objecttolerance="10"
   gridtolerance="10"
   guidetolerance="10"
   inkscape:pageopacity="0"
   inkscape:pageshadow="2"
   inkscape:window-width="1848"
   inkscape:window-height="1016"
   id="namedview21"
   showgrid="false"
   inkscape:zoom="3.3812396"
   inkscape:cx="100.51359"
   inkscape:cy="715.65673"
   inkscape:window-x="72"
   inkscape:window-y="27"
   inkscape:window-maximized="1"
   inkscape:current-layer="Layer_1" />
<g
   id="g18">
	<path
   style="fill:#FFFFFF;"
   d="M1510.933,1280.926c-4.831-18.691-13.208-37.309-10.753-56.399   c1.975-15.354,2.643-30.505-3.589-45.202c-3.595-8.479-7.477-16.442-10.296-25.761c-3.747-12.389-4.395-24.731-7.556-36.95   c-7.417-28.674-45.647-14.345-62.578-9.819c-14.551,3.89-28.448,4.599-43.424,6.843c-39.301,5.887-77.026,14.901-117.123,16.633   c-29.994,1.295-59.329,3.781-88.33,8.207c-40.239,6.141-82.345,6.498-123.098,8.257c-56.809,2.453-113.464,8.197-170.274,10.65   c-27.432,1.184-57.745-2.233-85.457-1.037c-18.667,0.806-37.945,3.057-56.451,1.311c-35.222-3.323-72.524-2.049-106.999-11.912   c-19.435-5.56-36.287-8.454-56.021-9.563c-15.214-0.855-37.263-1.835-51.999-1.199c-26.952,1.164-55.57,2.678-81.958,8.05   c-58.494,11.909-121.706,11.377-181.634,13.964c-19.644,0.848-39.257,0.14-58.582-3.408c-13.526-2.484-45.263-2.777-44.426,16.126   c1.211,27.374,2.441,57.375-0.156,84.177c-2.127,21.949-6.074,44.839-5.131,66.891c0.906,21.173,2.824,40.22-2.36,60.765   c-1.594,6.316-1.183,9.661-6.282,14.179c-3.328,2.95-8.486,3.67-10.638,5.71c-1.682,1.595-1.526,3.997,2.782,8.902   c4.703,5.356,12.099,7.333,18.314,8.776c13.286,3.084,27.21,1.307,40.365,4.934c24.511,6.757,51.31,8.23,76.344,8.403   c22.537,0.156,45.08,4.979,67.689,6.302c14.059,0.823,27.213-2.427,41.22-3.032c13.619-0.588,27.311-0.719,40.899-1.769   c14.732-1.138,28.451-5.656,43.353-6.3c30.863-1.333,73.837-5.515,91.362-2.579c16.715,2.801,36.413,4.368,53.482,6.15   c16.912,1.766,34.37,0.305,51.183,2.79c19.983,2.954,40.155,4.977,60.152,6.479c20.566,1.545,41.216,1.668,61.811,3.27   c62.943,4.894,125.333,4.129,187.881-2.177c37.22-3.752,74.024-4.115,111.457-5.731c18.323-0.791,36.645-1.582,54.968-2.373   c6.442-0.278,13.077,0.38,19.396-0.206c7.249-0.672,14.438-2.211,21.722-2.808c14.263-1.17,28.642-1.593,42.685-4.773   c11.705-2.65,23.064-4.445,34.883-5.671c6.894-0.715,13.315-3.082,20.348-3.376c9.131-0.381,17.827-0.432,26.902-1.892   c9.514-1.531,19.159-2.181,28.77-3.728c20.957-3.373,42.501-4.081,63.443-6.914c14.253-1.928,28.015-3.195,42.409-4.015   c9.821-0.559,19.422-3.294,28.428-7.643c8.155-3.938,15.317-10.732,23.766-13.317c13.413-4.103,34.691-9.605,41.321-25.297   C1531.311,1334.542,1515.761,1299.605,1510.933,1280.926z M781.643,1387.205c-8.803,2.414-18.611,1.399-27.836,2.27   c-15.776,1.489-31.125,7.292-46.765,8.607c-7.965,0.67-16.627,0.037-24.683,0.008c-15.025-0.052-31.44,1.144-46.256-1.054   c-3.803-0.564-12.555-1.39-19.449-1.833c-6.894-0.444-15.362-1.189-18.818-1.656c-28.422-3.843-98.728-1.33-128.663,4.599   c-13.664,2.706-30.996,6.051-38.515,7.432c-20.553,3.776-74.134,7.218-92.466,5.941c-27.657-1.926-41.385-2.65-59.148-3.119   c-9.432-0.249-24.193-0.697-32.802-0.996c-2.535-0.088-4.873-0.073-6.964,0.012c-10.26-0.632-21.384-1.11-24.74-1.229   c-6.646-0.237-19.013-2.984-27.483-6.104c-15.005-5.527-31.509-18.281-29.214-22.577c1.408-2.635,149.279-4.818,165.739-5.72   c55.315-3.031,69.728-17.483,203.933-11.081c3.025,0.144,15.566,0.968,27.952,1.069l46.328,1.524   c13.095,0.737,28.884,1.597,35.086,1.911c6.202,0.315,15.788,0.86,21.304,1.213c5.515,0.353,17.357,1,26.314,1.437   c15.477,2.452,32.276,3.213,46.698,5.276l28.655,3.735c4.395,0.347,27.96,1.406,29.467,5.761   C790.26,1385.361,783.97,1386.568,781.643,1387.205z"
   id="path2" />
	<path
   style="fill:#3c67b1"
   d="m 1499.928,1015.328 c -2.246,-1.947 -7.436,-2.445 -10.902,-5.252 -5.308,-4.299 -5.054,-7.663 -6.942,-13.911 -6.142,-20.326 -5.114,-39.46 -5.196,-60.677 -0.086,-22.098 -5.102,-44.821 -8.252,-66.684 -3.847,-26.696 -4.019,-56.756 -4.086,-84.188 -0.046,-18.944 -31.762,-17.28 -45.169,-14.211 -19.154,4.384 -38.73,5.939 -58.41,5.939 -60.036,0 -123.209,3.262 -182.246,-6.124 -26.633,-4.234 -55.315,-4.513 -82.316,-4.513 -14.762,0 -36.761,1.932 -51.932,3.445 -19.678,1.961 -36.391,5.584 -55.562,11.984 -34.007,11.353 -71.361,11.69 -106.419,16.535 -18.42,2.546 -37.799,1.127 -56.5,1.127 -27.761,0 -57.908,4.727 -85.39,4.727 -56.911,0 -113.822,-3.299 -170.733,-3.299 -40.827,0 -82.94,1.461 -123.456,-2.943 -29.202,-3.174 -58.647,-4.394 -88.694,-4.394 -40.169,0 -78.306,-7.388 -117.874,-11.578 -15.077,-1.597 -29.004,-1.706 -43.734,-4.969 -17.138,-3.796 -56.028,-16.477 -62.106,12.523 -2.59,12.359 -2.661,24.731 -5.829,37.285 -2.383,9.443 -5.892,17.574 -9.091,26.211 -5.544,14.969 -12.74574,27.43325 -10.05474,42.70525 3.346,18.988 4.41574,40.63375 0.45874,59.53675 -3.954,18.891 -17.87,54.508 -8.814,73.466 7.361,15.409 28.891,19.993 42.493,23.518 8.567,2.22 16.045,8.707 24.382,12.293 9.207,3.961 18.934,6.281 28.779,6.417 14.429,0.198 28.246,0.871 42.587,2.184 21.069,1.929 42.642,1.707 63.752,4.176 9.682,1.132 19.355,1.366 28.938,2.486 9.141,1.068 17.838,0.743 26.984,0.73 7.045,-0.01 13.575,2.08 20.501,2.498 11.874,0.716 23.314,2.02 35.14,4.166 14.188,2.574 28.583,2.377 42.898,2.931 7.31,0.283 14.569,1.513 21.848,1.871 6.345,0.313 12.948,-0.632 19.401,-0.632 h 55.067 c 37.501,0 74.313,-1.227 111.7,0.919 62.828,3.606 125.24,1.677 187.941,-5.936 20.515,-2.491 41.155,-3.506 61.645,-5.94 19.922,-2.366 39.996,-5.26 59.836,-9.078 16.694,-3.212 34.216,-2.505 51.041,-5.001 16.982,-2.52 36.603,-4.938 53.184,-8.461 17.383,-3.694 60.543,-1.366 91.462,-1.366 14.929,0 28.856,3.927 43.638,4.429 13.633,0.463 27.329,0 40.972,0 14.032,0 27.335,2.682 41.352,1.252 22.542,-2.299 44.856,-8.097 67.38,-9.226 25.02,-1.254 51.744,-3.885 75.935,-11.702 12.983,-4.195 26.987,-3.02 40.126,-6.678 6.146,-1.711 13.448,-4.008 17.9,-9.569 4.079,-5.093 4.123,-7.502 2.367,-9.025 z m -828.293,25.685 c -32.971,1.533 -81.941,4.096 -108.822,5.697 -43.775,2.606 -171.914,3.199 -204.267,0.945 -102.319,-7.128 -193.371,-14.993 -200.212,-17.295 -3.692,-1.242 -3.98,-2.111 -1.326,-3.996 5.013,-3.561 2.645,-4.962 -18.812,-11.124 -8.497,-2.44 -14.021,-4.172 -17.353,-5.595 -2.549,-1.089 -1.61,-4.924 1.152,-4.728 l 240.31,17.123 c 51.561,5.244 164.384,11.111 192.907,10.031 11.762,-0.444 57.42,-0.58 101.462,-0.299 97.14,0.62 104.368,5.084 14.961,9.241 z M 1456.098,942.8 c -7.292,0.151 -24.273,2.758 -27.644,4.245 -16.662,7.348 -132.903,7.514 -177.649,0.253 -51.64,-8.38 -100.052,-10.092 -171.685,-6.073 -39.743,2.23 -55.796,3.625 -104.013,9.042 -6.892,0.774 -19.299,2.046 -27.57,2.827 -8.271,0.781 -28.009,3.328 -43.861,5.66 -15.853,2.332 -38.974,4.845 -51.38,5.581 v 0 c -71.615,4.255 -95.084,5.131 -93.77,3.501 1.367,-1.696 18.394,-5.85 37.867,-9.239 18.797,-3.272 26.146,-4.608 32.092,-5.835 42.43,-8.754 76.613,-15.339 86.653,-16.693 6.791,-0.916 15.167,-2.267 18.614,-3.003 3.446,-0.735 11.905,-1.984 18.798,-2.775 6.892,-0.791 15.351,-2.148 18.797,-3.016 3.446,-0.868 12.469,-2.339 20.051,-3.269 7.582,-0.93 17.168,-2.226 21.304,-2.878 22.366,-3.531 58.219,-5.38 104.013,-5.351 45.781,0.024 60.825,0.797 109.026,5.597 6.893,0.686 19.299,1.827 27.57,2.534 8.271,0.707 25.752,2.224 38.848,3.371 32.81,2.873 88.154,3.187 107.773,0.611 l 62.485,-2.083 c 2.362,-0.079 4.751,0.972 6.152,3.159 3.783,5.901 -2.012,13.617 -12.471,13.834 z"
   id="path4"
   inkscape:connector-curvature="0"
   sodipodi:nodetypes="cccccccscscccssscscccccccccccscccccccssccccccscsccccccsccccccccccscccccscccccccccsscccsccccc" />
	<path
   style="fill:#231F20;stroke:#231F20;stroke-miterlimit:10;"
   d="M1523.896,1024.563c-0.051-5.141,12.096-7.378,9.62-12.533   c-0.402-0.837-1.189-1.751-2.477-2.767c-2.807-2.214-7.633-2.942-10.849-4.183c-7.675-2.962-15.829-5.047-23.139-9.28   c-14.462-8.375-4.024-21.125,17.292-21.125c4.619,0,8.396-0.972,8.391-2.16c-0.004-1.188-5.362-5.401-11.905-9.361   c-7.106-4.301-22.365-14.14-9.376-21.03c5.408-2.869,17.04-1.71,20.996-7.01c9.522-12.766-40.03-17.997-34.549-25.59   c2.159-2.991,1.873-4.33-1.218-5.693c-2.223-0.98-4.042-2.792-4.042-4.027c0-7.023,43.636-12.33,29.123-22.192   c-4.814-3.271-33.732-7.689-25.39-17.958c6.062-7.462,24.84-7.089,32.609-8.498l10.026-1.818l-10.652-3.697   c-12.685-4.402-13.341-7.247-2.827-12.252l7.825-3.725l-11.737-3.425c-4.584-1.352-13.978-3.371-16.09-9.23   c-2.541-7.048,5.62-8.565,10.147-9.942c5.13-1.561,19.516-5.439,9.579-10.196c-9.911-4.745-24.431-1.529-33.265-9.09   c-6.357-5.441,2.984-7.843,7.764-10.539c4.343-2.451,15.922-5.286,11.097-12.311c-3.795-5.524-12.429-2.831-17.471-1.853   c-7.285,1.413-14.616,2.312-22.041,2.955c-12.406,1.075-25.941,2.303-30.076,2.73c-76.096,7.843-197.251,7.709-246.875-0.273   c-4.825-0.776-12.72-2.027-17.545-2.779c-17.41-2.714-86.989-3.418-110.279-1.115c-13.096,1.295-32.269,3.16-42.608,4.144   c-10.339,0.984-23.309,2.912-28.823,4.285c-5.514,1.372-17.356,3.286-26.316,4.252c-8.96,0.966-19.675,2.369-23.81,3.117   c-4.135,0.748-11.466,1.881-16.291,2.517c-4.825,0.636-14.411,1.934-21.304,2.883c-15.217,2.096-34.831,3.872-66.418,6.011   c-13.096,0.887-28.184,2.256-33.529,3.042c-17.109,2.516-373.256-0.081-395.056-2.881c-4.825-0.62-17.795-1.925-28.823-2.902   c-11.028-0.976-26.254-2.359-33.836-3.072c-7.582-0.713-25.063-2.026-38.848-2.916c-27.185-1.756-33.012-2.336-53.886-5.364   c-7.582-1.1-17.169-2.468-21.304-3.042c-4.135-0.573-22.181-3.291-40.101-6.04c-49.422-7.581-64.211-5.821-68.718,8.179   c-1.109,3.446-1.058,10.107,0.113,14.802c1.585,6.35-0.1,11.265-2.222,17.173c-1.014,2.822-2.187,5.669-3.246,8.436   c-2.217,5.793-3.04,10.806-0.225,16.816c2.831,6.045,4.113,11.879,3.437,18.956c-0.39,4.083-3.512,6.999-3.774,10.724   c-0.247,3.507,1.634,4.628-0.291,8.041c-1.541,2.733-3.919,4.022-6.388,5.522c-3.042,1.848-5.855,3.444-7.966,6.589   c-4.569,6.806,1.11,13.261,5.318,17.825c8.91,9.665,9.211,11.49,2.306,14.009c-2.867,1.046-8.415,5.752-12.329,10.459   c-7.984,9.602-8.232,18.25-1.025,35.707c3.367,8.153,3.641,11.534,1.343,16.567c-1.587,3.478-3.135,16.693-3.438,29.367   c-0.492,20.574,0.079,23.87,5.336,30.755c6.833,8.951,15.06,13.189,29.111,14.998c12.498,1.609,18.33,3.099,24.265,7.734   c6.879,5.37,14.872,8.566,23.156,9.402c5.904,0.596,11.079,1.418,16.726,3.657c11.157,4.423,21.869-0.789,33.107-0.298   c10.826,0.473,21.611,3.085,32.325,4.172c16.88,1.712,33.735,0.865,50.685,2.915c12.706,1.537,24.557,4.689,37.228,2.704   c8.299-1.3,18.099,1.228,26.428,2.013c20.463,1.929,40.915,4,61.381,5.897c14.711,1.364,29.56,3.204,44.34,3.254   c61.029,0.207,122.06,0.96,183.083,1.84c48.386,0.698,94.919,4.238,141.479-5.489c7.714-1.612,17.57,0.04,25.51,0.041   c50.484,0.003,102.288-6.957,152.444-14.366c4.135-0.611,22.745-3.711,41.355-6.889c18.61-3.178,41.49-6.942,50.844-8.365   c18.607-2.829,59.394-2.587,119.587,0.711c57.727,3.163,97.647,2.363,140.355-2.811c4.825-0.585,18.923-1.951,31.329-3.037   c12.406-1.086,23.121-2.347,23.81-2.802c0.689-0.456,9.712-1.713,20.051-2.794c10.339-1.081,30.076-4.286,43.861-7.122   c13.785-2.836,26.755-5.265,28.823-5.397c2.068-0.132,8.835-1.534,15.04-3.115c8.297-2.113,17.434-3.321,25.916-3.452   c3.955-0.061,15.663,3.652,18.118-1.356C1534.591,1029.795,1524.829,1025.038,1523.896,1024.563z M1462.417,925.806   c2.362-0.079,4.751,0.972,6.152,3.159c3.783,5.902-2.012,13.618-12.471,13.835c-7.292,0.151-24.273,2.758-27.644,4.245   c-16.662,7.348-132.903,7.514-177.649,0.253c-51.64-8.38-100.052-10.092-171.685-6.073c-39.743,2.23-55.796,3.625-104.013,9.042   c-6.892,0.774-19.299,2.046-27.57,2.827c-8.271,0.781-28.009,3.328-43.861,5.66c-15.853,2.332-38.974,4.845-51.38,5.581l0,0   c-71.615,4.255-95.084,5.131-93.77,3.501c1.367-1.696,18.394-5.85,37.867-9.239c18.797-3.272,26.146-4.608,32.092-5.835   c42.43-8.754,76.613-15.339,86.653-16.693c6.791-0.916,15.167-2.267,18.614-3.003c3.446-0.735,11.905-1.984,18.798-2.775   c6.892-0.791,15.351-2.148,18.797-3.016c3.446-0.868,12.469-2.339,20.051-3.269c7.582-0.93,17.168-2.226,21.304-2.878   c22.366-3.531,58.219-5.38,104.013-5.351c45.781,0.024,60.825,0.797,109.026,5.597c6.893,0.686,19.299,1.827,27.57,2.534   c8.271,0.707,25.752,2.224,38.848,3.371c32.81,2.873,88.154,3.187,107.773,0.611L1462.417,925.806z M979.314,876.127   c2.429-0.273,4.796-0.54,7.072-0.796c66.526-7.487,164.942-11.395,204.267-8.111c7.013,0.586,15.055,1.035,23.331,1.367   c0.327,0.029,0.605,0.055,0.944,0.085c24.595,2.144,194.463,3.613,203.802,0.84c8.478-2.518,12.749,2.669,9.319,11.319   c-2.83,7.139-2.598,7.445,6.988,9.207c17.932,3.295,18.719,13.062,1.859,23.082c-20.432,12.143-136.716,11.903-223.48-0.462   c-72.948-10.396-121.341-9.29-255.853,5.845c-34.462,3.878-82.07,8.381-105.796,10.006c-47.466,3.254-173.076,3.256-212.509,0.004   c-13.785-1.137-61.437-3.059-105.893-4.27c-44.456-1.211-80.829-3.192-80.829-4.401c0.004-5.345,80.621-7.924,86.377-8.236   c31.13-1.69,59.9-6.837,90.416-12.666c16.463-3.145,33.629-2.483,49.904-4.552c15.201-1.933,30.713-1.343,45.968-2.946   c14.053-1.477,28.578-5.454,42.809-5.03c14.986,0.447,30.134,1.17,45.44,0.864c44.801-0.894,93.299-2.963,107.773-4.599   C934.153,881.216,958.94,878.421,979.314,876.127z M151.873,804.597c2.013-1.463,7.889-2.677,13.059-2.705   c10.933-0.051,12.558-4.887,2.506-7.458c-13.798-3.529-15.923-4.658-14.972-7.953c1.796-6.227,51.033-5.348,120.866,2.158   c104.507,11.232,131.664,13.056,219.305,14.728c24.841,0.474,53.926,1.272,79.507,2.141c30.22-2.254,58.636,3.491,88.737,4.924   c15.262,0.727,30.635-0.502,45.911-0.028c21.797,0.676,44.642,2.527,66.536,0.815c20.494-1.603,43.151-2.174,63.162-6.926   c19.149-4.547,39.214-2.207,58.227-6.378c16.657-3.655,33.493-5.663,50.465-8.402c31.907-5.149,63.416-13.496,95.384-16.43   c9.257-0.849,18.49-0.326,27.812-0.757c51.596-2.385,103.6,1.3,154.859,8.076c11.876,1.57,93.901,1.555,106.519-0.019   c4.825-0.602,27.382-1.916,50.127-2.92c22.745-1.004,47.326-2.364,54.625-3.023c10.095-0.911,13.61-0.178,14.692,3.061   c-0.167,17.724-15.17,17.724-79.342,24.179c-22.334,2.67-156.766,2.115-172.938-0.715c-21.191-3.708-56.371-5.579-100.254-5.332   c-43.76,0.246-86.098,5.11-129.453,9.734c-22.78,2.43-45.581,7.372-67.733,12.972c-14.994,3.79-30.709,2.924-46.003,4.232   c-34.85,2.98-68.837,9.104-103.851,9.104c-14.941,0-29.886-0.107-44.827-0.03c-24.289,0.125-48.02,5.824-72.067,8.466   c-20.595,2.263-42.889,3.246-63.708,3.246c-28.059,0-56.176-1.946-83.683-3.624c-11.536-0.704-22.584-1.398-34.219-1.398   c-54.849,0-110.332,2.588-165.258-2.316c-58.44-5.217-111.022-11.429-119.489-14.116c-4.86-1.542-10.934-5.468-13.498-8.725   C148.884,808.11,148.74,806.875,151.873,804.597z M1412.348,832.606c-17.913,4.437-32.228,5.199-92.619,4.935   c-42.38-0.185-91.16-2.235-119.941-5.041c-80.35-7.832-118.318-6.508-234.706,8.181c-30.327,3.828-73.749,8.32-96.494,9.982   c-22.745,1.662-90.98,2.895-151.634,2.738c-105.406-0.272-127.566-2.648-62.658-6.717c16.542-1.037,50.941-3.707,76.443-5.932   c25.502-2.226,59.338-4.832,75.19-5.793c46.885-2.841,125.419-10.026,141.608-12.955c68.782-12.445,155.226-15.598,286.976-10.466   c56.341,2.195,71.334,1.756,126.57-3.702c34.462-3.405,66.726-6.828,71.697-7.607c6.474-1.015,10.681,0.113,14.83,3.973   C1459.506,815.274,1449.372,823.437,1412.348,832.606z M208.166,843.867c26.191,2.185,63.974,5.255,83.962,6.822   c19.988,1.567,57.771,4.828,83.963,7.246c70.144,6.477,177.064,9.843,269.432,8.482c195.106-2.875,228.128-4.015,278.204-9.6   c127.8-14.256,151.174-15.471,251.887-13.091c117.486,2.776,199.279,3.216,246.808,1.329c32.187-1.278,36.367-0.91,37.096,3.268   c1.334,7.643-12.224,11.19-60.839,15.916c-31.185,3.032-64.267,3.999-107.146,3.133c-8.469-0.171-16.833-0.342-24.88-0.501   c-27.075-2.876-106.069-7.414-145.818-7.398c-49.329,0.015-92.939,3.072-173.299,12.147c-23.225,2.623-55.632,8.948-208.272,9.171   c-8.229,0.012-16.483,0.36-24.683,1.044l-98.692,8.233c-26.069,2.175-52.272,2.18-78.342,0.015L343.531,873.97   c-58.586-5.037-114.763-5.609-143.726-7.922c-28.963-2.313-51.583-18.775-54.326-20.01   C134.248,840.982,162.045,840.019,208.166,843.867z M143.177,876.412c68.471-2.668,128.705-1.081,247.952,8.961   c37.219,3.134,89.032,7.04,115.139,8.679c26.107,1.639,48.007,3.6,48.665,4.356c2.638,3.04-135.333,25.449-263.394,13.126   c-40.78-3.924-124.755-3.294-148.549-7.768C87.055,893.247,127.135,877.037,143.177,876.412z M127.323,915.212   c4.181-4.887,6.376-4.891,50.127-0.093c95.774,10.501,124.661,13.126,163.553,14.863c22.056,0.985,66.042,3.682,97.747,5.994   c102.835,7.499,166.087,9.839,266.717,9.867c54.336,0.015,98.209,0.697,97.497,1.515c-3.364,3.867-87.278,10.254-168.719,12.843   v0.002c-162.323,5.16-284.013,2.816-363.419-6.998c-20.677-2.556-53.949-6.557-73.937-8.891   c-39.789-4.646-58.887-9.814-67.999-18.4C123.235,920.588,123.16,920.076,127.323,915.212z M157.009,1026.365   c5.013-3.561,2.645-4.962-18.812-11.124c-8.497-2.44-14.021-4.172-17.353-5.595c-2.549-1.089-1.61-4.924,1.152-4.728l240.31,17.123   c51.561,5.244,164.384,11.111,192.907,10.031c11.762-0.444,57.42-0.58,101.462-0.299c97.138,0.619,104.365,5.083,14.959,9.24   c-32.971,1.533-81.941,4.096-108.822,5.697c-43.775,2.606-171.914,3.199-204.267,0.945   c-102.319-7.128-193.371-14.993-200.212-17.295C154.643,1029.118,154.355,1028.25,157.009,1026.365z M470.706,1072.701   c-13.07,4.936-25.572,6.799-54.967,8.189c-12.598,0.596-25.362-0.847-37.91-1.931c-22.35-1.93-44.668-4.357-66.985-6.73   c-23.262-2.474-46.817-6.097-70.152-6.097c-6.019,0-12.038,0-18.058,0c-4.135,0-8.072,0.713-12.169,0.426   c-3.768-0.264-7.326-1.972-11.081-2.286c-4.137-0.345-8.278-0.556-12.411-0.982c-5.581-0.575-11.368-1.142-16.766-2.984   c-5.505-1.878-9.799-5.303-7.426-12.406c1.519-4.549,5.049-4.825,39.818-3.12c20.983,1.03,47.738,3.144,59.455,4.698   c37.497,4.975,142.79,11.575,184.843,11.594c22.684,0.008,40.728,1.172,40.728,2.626   C487.623,1065.137,480.01,1069.187,470.706,1072.701z M1415.318,1042.442c-55.412,13.169-154.816,19.038-215.894,12.749   c-49.446-5.091-114.418-3.876-156.647,2.93c-66.614,10.736-114.26,17.121-160.406,21.497v-0.005   c-48.804,4.628-119.213,7.563-135.342,5.643c-5.514-0.656-26.469-3.161-46.567-5.566c-21.9-2.621-61.066-4.396-97.748-4.424   c-35.982-0.03-59.642-1.084-57.412-2.558c2.087-1.379,16.185-5.095,31.329-8.257c37.65-7.862,111.126-10.574,258.119-9.526   c110.45,0.787,123.076,0.379,154.14-4.993c73.138-12.647,112.071-14.32,176.697-7.593c46.874,4.879,110.191,5.528,146.982,1.505   c43.179-4.721,64.87-7.325,74.86-9.236c15.993-1.563,37.253-5.288,48.712-9.756c9.578-3.734,17.868-6.268,18.422-5.631   C1459.048,1024.371,1437.359,1037.204,1415.318,1042.442z M1438.305,1019.183c-8.378,3.913-20.675,7.652-27.326,8.308   c-3.358,0.332-14.488,1.518-24.746,2.823c-2.098,0.032-4.44,0.156-6.978,0.404c-8.616,0.842-23.39,2.214-32.832,3.051   c-17.782,1.575-31.512,3.187-59.157,6.945c-18.324,2.491-72.13,1.938-92.854-0.954c-7.582-1.058-25.063-3.673-38.848-5.81   c-30.2-4.682-100.732-3.22-129.077,2.676c-3.446,0.717-11.905,2.037-18.797,2.934c-6.893,0.897-15.633,2.322-19.424,3.165   c-22.32,4.968-47.958,2.282-70.606,1.313c-10.713-0.458-21.45-3.133-32.165-3.021c-8.108,0.085-16.307,1.086-24.526,1.195   c-6.418,0.085-31.606,3.547-36.452-2.006c-2.74-3.151-0.931-4.286,9.979-6.259c5.373-0.972,12.14-2.393,15.038-3.159   c2.898-0.766,9.216-1.97,14.041-2.674c4.825-0.705,17.687-3.312,28.582-5.793c14.379-3.116,31.186-4.952,46.608-8.555   c8.96-1.013,20.803-2.428,26.317-3.144c5.514-0.715,15.101-1.885,21.304-2.599c6.203-0.714,21.993-2.598,35.089-4.186l46.367-4.436   c12.407-0.851,24.944-2.501,27.97-2.84c134.249-15.02,149.19-0.103,204.72-0.103c16.524,0,164.763-6.465,166.264-3.672   C1469.244,997.339,1453.149,1012.251,1438.305,1019.183z M1467.035,978.777c-9.842,8.271-159.928,10.021-236.974,2.764   c-34.043-3.208-62.308-4.118-90.788-2.928c-47.576,1.989-149.512,11.643-187.705,17.777   c-60.406,9.702-124.828,13.353-218.322,12.371l0-0.001c-50.315-0.528-141.107-0.077-201.761,1.003   c-60.653,1.08-125.505,0.825-144.115-0.565c-52.026-3.887-232.289-28.219-245.934-33.197c-2.585-0.943-4.7-2.923-4.7-4.401   c0-3.898,30.637-3.235,75.19,1.626c98.379,10.733,130.467,13.499,184.216,15.875c65.132,2.88,165.484,1.529,203.014-2.733   c13.785-1.565,63.779-2.893,111.098-2.949c91.766-0.11,139.548-3.602,219.739-16.059c88.877-13.806,113.729-16.245,180.457-17.705   c58.877-1.289,73.697-0.672,114.039,4.742c69.318,9.303,103.042,10.18,175.003,4.548c55.506-4.344,75.166-4.161,63.543,0.592   c-2.424,0.991-1.75,3.271,2.506,8.479C1470.97,974.658,1471.071,975.385,1467.035,978.777z"
   id="path6" />
	<path
   style="fill:#FDE900;"
   d="M1480.622,342.346c-2.257-1.934-7.45-2.402-10.932-5.189c-5.332-4.269-5.097-7.634-7.021-13.871   c-6.257-20.291-5.337-39.43-5.54-60.646c-0.212-22.097-5.355-44.791-8.63-66.635c-3.999-26.673-4.34-56.732-4.563-84.164   c-0.154-18.944-31.86-17.097-45.249-13.952c-19.129,4.493-38.696,6.161-58.375,6.273c-60.035,0.344-123.189,3.968-182.278-5.079   c-26.656-4.081-55.34-4.196-82.34-4.041c-14.762,0.085-36.749,2.143-51.911,3.742c-19.666,2.074-36.359,5.792-55.493,12.303   c-33.942,11.548-71.293,12.099-106.324,17.145c-18.405,2.651-37.792,1.344-56.492,1.451c-27.761,0.159-57.88,5.059-85.362,5.217   c-56.91,0.326-113.839-2.647-170.749-2.32c-40.826,0.234-82.93,1.937-123.471-2.235c-29.219-3.007-58.671-4.058-88.718-3.886   c-40.168,0.23-78.347-6.939-117.938-10.903c-15.086-1.51-29.014-1.54-43.761-4.718c-17.159-3.698-56.121-16.155-62.034,12.879   c-2.52,12.373-2.521,24.745-5.618,37.317c-2.329,9.456-5.792,17.608-8.942,26.262c-5.459,15.001-3.998,30.118-1.221,45.375   c3.454,18.969-3.945,37.995-7.795,56.921c-3.847,18.914-17.561,54.61-8.398,73.515c7.448,15.367,29.004,19.827,42.625,23.274   c8.58,2.171,16.094,8.615,24.451,12.153c9.229,3.908,18.969,6.173,28.814,6.252c14.43,0.116,28.251,0.709,42.598,1.94   c21.08,1.808,42.651,1.463,63.775,3.81c9.688,1.077,19.362,1.255,28.951,2.32c9.147,1.016,17.841,0.641,26.988,0.576   c7.045-0.05,13.587,2.002,20.515,2.38c11.878,0.648,23.325,1.887,35.163,3.964c14.203,2.493,28.596,2.213,42.914,2.685   c7.312,0.241,14.578,1.429,21.858,1.746c6.347,0.276,12.944-0.706,19.397-0.743c18.355-0.105,36.711-0.21,55.066-0.316   c37.5-0.215,74.305-1.653,111.703,0.279c62.847,3.246,125.248,0.959,187.904-7.014c20.501-2.609,41.135-3.742,61.61-6.293   c19.909-2.481,39.965-5.49,59.784-9.421c16.675-3.308,34.201-2.701,51.012-5.294c16.968-2.617,36.575-5.148,53.135-8.766   c17.362-3.794,60.535-1.713,91.453-1.89c14.928-0.086,28.878,3.761,43.662,4.178c13.636,0.385,27.328-0.154,40.972-0.232   c14.031-0.08,27.349,2.525,41.358,1.015c22.529-2.429,44.809-8.354,67.326-9.613c25.013-1.398,51.722-4.182,75.867-12.137   c12.959-4.27,26.969-3.174,40.088-6.908c6.136-1.746,13.425-4.085,17.846-9.671   C1482.357,346.267,1482.387,343.858,1480.622,342.346z M748.489,140.03c0.795-0.924,14.228-2.243,29.851-2.931   c15.623-0.688,39.116-2.056,52.207-3.04c13.09-0.984,33.826-2.489,46.08-3.345c12.253-0.856,26.905-2.752,32.559-4.212   c5.654-1.461,18.734-3.572,29.066-4.692c10.333-1.12,20.472-3.061,22.533-4.315c6.8-4.137,44.5-10.509,82.632-13.966   c47.794-4.334,94.123-2.739,159.187,5.481c11.885,1.502,93.908,1.017,106.518-0.629c4.821-0.629,27.37-2.073,50.109-3.207   c22.739-1.134,47.312-2.636,54.607-3.336c10.09-0.969,13.609-0.256,14.709,2.977c-0.066,17.724-15.069,17.81-79.204,24.634   c-22.319,2.798-156.752,3.013-172.939,0.276c-21.212-3.587-56.401-5.256-100.282-4.757c-57.414,0.653-87.044,3.52-130.26,12.604   c-6.196,1.303-12.957,2.436-15.024,2.532c-4.453,0.194-23.685,3.283-32.553,5.228l0,0.001c-8.731,1.915-83.966,5.067-85.336,3.576   c-0.616-0.671-10.148-2.102-21.183-3.181c-11.034-1.079-22.883-2.272-26.332-2.652c-3.448-0.38-8.996-0.842-12.329-1.027   C749.771,141.861,747.695,140.953,748.489,140.03z M1436.382,270.07c-7.291,0.193-24.257,2.897-27.62,4.403   c-16.621,7.444-132.858,8.275-177.645,1.271c-51.686-8.083-100.107-9.519-171.716-5.089c-39.73,2.458-55.775,3.945-103.96,9.638   c-6.888,0.814-19.287,2.157-27.553,2.985c-8.266,0.828-27.989,3.488-43.828,5.912c-15.839,2.423-38.945,5.068-51.348,5.876l0,0   c-71.589,4.666-95.053,5.676-93.748,4.039c1.358-1.703,18.36-5.955,37.814-9.456c18.778-3.38,26.119-4.758,32.059-6.019   c42.38-8.997,76.525-15.778,86.557-17.19c6.786-0.955,15.155-2.354,18.596-3.109c3.442-0.755,11.894-2.052,18.782-2.883   c6.888-0.83,15.339-2.236,18.78-3.124c3.441-0.888,12.456-2.41,20.032-3.384c7.576-0.974,17.156-2.324,21.287-3   c22.346-3.659,58.188-5.713,103.981-5.948c45.781-0.238,60.828,0.448,109.056,4.972c6.896,0.647,19.309,1.716,27.584,2.376   c8.275,0.66,25.765,2.076,38.867,3.148c32.826,2.685,88.17,2.681,107.774-0.007l62.472-2.442c2.362-0.092,4.756,0.945,6.17,3.124   C1452.591,262.044,1446.839,269.793,1436.382,270.07z"
   id="path8" />
	<path
   style="fill:#231F20;stroke:#231F20;stroke-miterlimit:10;"
   d="M1504.643,351.443c-0.08-5.141,12.054-7.447,9.549-12.588   c-0.407-0.835-1.199-1.744-2.493-2.753c-2.819-2.198-7.65-2.898-10.872-4.121c-7.692-2.918-15.857-4.956-23.191-9.147   c-14.509-8.292-4.144-21.102,17.172-21.224c4.619-0.027,8.39-1.02,8.379-2.208c-0.011-1.188-5.392-5.37-11.958-9.293   c-7.13-4.26-22.444-14.011-9.495-20.976c5.392-2.9,17.03-1.807,20.956-7.13c9.45-12.82-40.132-17.767-34.694-25.391   c2.142-3.003,1.848-4.341-1.25-5.686c-2.228-0.967-4.057-2.769-4.065-4.003c-0.04-7.023,43.566-12.58,28.996-22.359   c-4.832-3.243-33.775-7.496-25.491-17.812c6.02-7.497,24.8-7.232,32.561-8.685l10.015-1.876l-10.673-3.636   c-12.709-4.329-13.382-7.17-2.897-12.236l7.804-3.77l-11.756-3.357c-4.592-1.326-13.997-3.29-16.142-9.138   c-2.581-7.033,5.572-8.597,10.09-10c5.121-1.59,19.485-5.551,9.521-10.251c-9.937-4.688-24.439-1.389-33.315-8.899   c-6.388-5.404,2.939-7.859,7.704-10.584c4.329-2.476,15.892-5.377,11.027-12.374c-3.826-5.502-12.444-2.76-17.481-1.753   c-7.277,1.455-14.603,2.395-22.024,3.081c-12.4,1.146-25.927,2.452-30.06,2.902c-76.051,8.279-197.204,8.839-246.872,1.142   c-4.829-0.748-12.731-1.954-17.56-2.678c-17.425-2.615-87.007-2.92-110.283-0.483c-13.088,1.37-32.251,3.345-42.584,4.388   c-10.333,1.043-23.292,3.046-28.798,4.45c-5.506,1.404-17.337,3.385-26.292,4.403c-8.955,1.018-19.661,2.482-23.792,3.253   c-4.131,0.772-11.456,1.946-16.277,2.61c-4.821,0.664-14.4,2.016-21.287,3.005c-15.205,2.183-34.808,4.071-66.383,6.391   c-13.091,0.962-28.171,2.417-33.511,3.234c-17.095,2.614-373.251,2.058-395.066-0.617c-4.828-0.592-17.806-1.823-28.839-2.736   c-11.033-0.913-26.267-2.208-33.853-2.878c-7.586-0.67-25.074-1.882-38.864-2.693c-27.194-1.6-33.024-2.147-53.916-5.055   c-7.588-1.056-17.182-2.37-21.321-2.919c-4.139-0.55-22.199-3.164-40.135-5.811c-49.464-7.298-64.243-5.453-68.67,8.573   c-1.09,3.452-1.001,10.113,0.197,14.801c1.621,6.341-0.036,11.265-2.125,17.185c-0.998,2.828-2.155,5.682-3.198,8.454   c-2.184,5.806-2.978,10.824-0.13,16.817c2.866,6.029,4.18,11.855,3.544,18.936c-0.367,4.085-3.472,7.019-3.713,10.745   c-0.227,3.508,1.66,4.618-0.245,8.042c-1.526,2.742-3.896,4.045-6.357,5.559c-3.031,1.866-5.835,3.478-7.929,6.635   c-4.531,6.832,1.186,13.255,5.419,17.794c8.965,9.614,9.275,11.437,2.385,13.995c-2.861,1.062-8.383,5.8-12.27,10.53   c-7.93,9.647-8.129,18.297-0.822,35.712c3.413,8.134,3.706,11.513,1.437,16.56c-1.568,3.487-3.04,16.711-3.272,29.386   c-0.376,20.576,0.215,23.869,5.51,30.724c6.884,8.911,15.135,13.103,29.196,14.83c12.507,1.537,18.347,2.994,24.309,7.594   c6.909,5.331,14.921,8.481,23.209,9.269c5.907,0.562,11.087,1.355,16.747,3.561c11.182,4.359,21.865-0.915,33.105-0.488   c10.829,0.411,21.628,2.961,32.348,3.987c16.889,1.616,33.739,0.672,50.701,2.625c12.714,1.464,24.583,4.548,37.243,2.491   c8.292-1.348,18.106,1.124,26.439,1.861c20.473,1.812,40.937,3.765,61.413,5.545c14.718,1.279,29.578,3.034,44.351,3   c95.997-0.225,289.733,1.447,299.527,2.585c26.617,3.091,74.05,5.4,104.044,5.064c35.128-0.393,99.491-3.839,105.236-5.634   c2.064-0.645,9.952-1.95,17.528-2.901c7.576-0.951,19.972-2.995,27.544-4.543c22.114-4.521,32.415-5.983,56.349-7.995   c30.82-2.591,33.27-2.588,68.926,0.078c61.418,4.593,158.703,1.976,187.95-5.055c12.04-2.894,36.45-5.564,75.635-8.273   c43.493-3.006,41.1-7.03-3.026-5.089c-43.99,1.935-53.353,2.724-66.244,5.58c-33.336,7.387-137.954,11.803-174.296,7.356   c-27.632-3.381-103.344-4.012-116.552-0.972c-18.618,4.286-37.453,7.564-58.842,10.243c-7.576,0.949-16.591,2.417-20.032,3.262   c-11.526,2.831-135.32,4.366-135.335,1.678c-0.008-1.435,6.469-2.777,14.395-2.982c26.192-0.678,67.545-5.263,119.605-13.258   c4.132-0.635,22.724-3.842,41.315-7.126c18.591-3.285,41.449-7.18,50.796-8.656c18.591-2.935,59.378-2.927,119.589,0.025   c57.744,2.832,97.659,1.803,140.337-3.616c4.821-0.612,18.912-2.059,31.312-3.216c12.4-1.157,23.107-2.479,23.794-2.939   c0.687-0.459,9.702-1.768,20.035-2.909c10.332-1.141,30.051-4.459,43.82-7.374c13.769-2.915,26.725-5.419,28.792-5.563   c2.067-0.144,8.826-1.585,15.022-3.201c8.285-2.161,17.415-3.421,25.896-3.6c3.954-0.084,15.684,3.562,18.11-1.46   C1515.367,356.613,1505.578,351.913,1504.643,351.443z M1442.604,253.04c2.362-0.092,4.756,0.945,6.17,3.124   c3.816,5.88-1.935,13.63-12.393,13.906c-7.291,0.193-24.257,2.897-27.62,4.403c-16.621,7.444-132.858,8.275-177.645,1.271   c-51.686-8.084-100.107-9.519-171.716-5.089c-39.73,2.457-55.775,3.945-103.96,9.638c-6.888,0.814-19.287,2.157-27.553,2.985   c-8.266,0.828-27.989,3.488-43.828,5.912c-15.839,2.423-38.946,5.068-51.348,5.876l0,0c-71.589,4.666-95.053,5.676-93.748,4.039   c1.358-1.703,18.36-5.955,37.814-9.456c18.778-3.38,26.119-4.758,32.059-6.019c42.38-8.997,76.525-15.778,86.557-17.19   c6.786-0.955,15.154-2.353,18.596-3.109c3.442-0.755,11.894-2.052,18.781-2.883c6.888-0.83,15.339-2.236,18.78-3.124   c3.441-0.888,12.456-2.41,20.032-3.384c7.576-0.973,17.156-2.324,21.287-3c22.346-3.659,58.188-5.713,103.981-5.948   c45.781-0.238,60.828,0.448,109.056,4.972c6.896,0.647,19.309,1.716,27.583,2.376c8.275,0.66,25.765,2.076,38.867,3.148   c32.826,2.685,88.17,2.681,107.774-0.007L1442.604,253.04z M830.547,134.059c13.09-0.984,33.826-2.489,46.08-3.345   c12.254-0.856,26.905-2.752,32.559-4.213c5.654-1.461,18.734-3.572,29.066-4.692c10.332-1.12,20.472-3.061,22.533-4.315   c6.8-4.137,44.5-10.509,82.631-13.967c47.794-4.334,94.123-2.739,159.187,5.481c11.884,1.502,93.908,1.017,106.518-0.629   c4.821-0.629,27.37-2.073,50.109-3.207c22.739-1.134,47.312-2.636,54.607-3.336c10.09-0.969,13.609-0.256,14.709,2.976   c-0.066,17.725-15.069,17.811-79.204,24.634c-22.318,2.798-156.752,3.013-172.939,0.276c-21.212-3.587-56.401-5.256-100.282-4.757   c-57.414,0.653-87.044,3.52-130.26,12.604c-6.196,1.303-12.957,2.436-15.024,2.532c-4.453,0.195-23.685,3.283-32.554,5.228   c-1.286,4.531-55.779,3.482-61.4,3.647c-11.384,0.334-20.531-1.28-31.617-2.684c-12.592-1.595-28.534,2.862-39.574-5.295   C784.029,132.001,810.379,135.575,830.547,134.059z M1392.009,160.129c-17.888,4.539-32.198,5.384-92.589,5.466   c-42.38,0.058-91.171-1.713-119.968-4.353c-80.393-7.371-118.353-5.83-234.656,9.527c-30.305,4.002-73.701,8.742-96.436,10.535   c-22.735,1.793-90.977,2.266-151.616,3.607c-458.174,10.132-164.048-14.207-99.164-18.649c16.536-1.132,87.388,8.292,112.878,5.92   c25.489-2.372,59.309-5.172,75.156-6.224c46.869-3.11,125.36-10.744,141.533-13.766c68.71-12.839,155.135-16.488,286.912-12.111   c56.353,1.872,71.343,1.347,126.547-4.427c34.442-3.602,66.686-7.211,71.652-8.018c6.468-1.052,10.682,0.051,14.852,3.888   C1439.068,142.527,1428.98,150.748,1392.009,160.129z M131.395,139.346c2.005-1.475,7.874-2.722,13.043-2.779   c10.933-0.114,12.53-4.959,2.464-7.472c-13.818-3.45-15.949-4.566-15.017-7.867c1.761-6.237,51.002-5.64,120.876,1.465   c104.569,10.633,131.735,12.301,219.385,13.47c44.805,0.597,103.463,2.17,130.352,3.495c26.889,1.324,64.581,3.177,83.76,4.117   c56.113,2.75,52.159,5.547-11.008,7.787c-32.388,1.148-74.667,4.167-93.951,6.707c-19.285,2.541-57.045,6.721-83.911,9.288   c-53.026,5.068-183.879,6.447-231.826,2.443c-58.468-4.882-111.085-10.792-119.567-13.431c-4.868-1.514-10.965-5.405-13.548-8.647   C128.427,142.876,128.275,141.641,131.395,139.346z M187.91,178.292c26.203,2.035,64.003,4.888,84,6.34   c19.997,1.452,57.798,4.496,84.002,6.765c70.179,6.075,177.117,8.828,269.475,6.937c195.086-3.994,228.101-5.322,278.145-11.195   c127.717-14.988,151.084-16.337,251.809-14.535c117.5,2.103,199.294,2.074,246.811-0.086c32.179-1.462,36.362-1.118,37.115,3.055   c1.377,7.635-12.161,11.26-60.749,16.265c-31.168,3.211-64.243,4.368-107.127,3.748c-8.47-0.122-16.834-0.245-24.882-0.358   c-27.09-2.72-106.109-6.805-145.857-6.562c-49.328,0.298-92.92,3.605-173.227,13.14c-23.817,2.828-98.729,12.143-261.886,12.973   H489.117c-13.66,0-27.308-0.827-40.869-2.478l-106.076-12.908c-58.613-4.702-130.277-10.304-159.253-12.451   c-28.976-2.147-54.932-4.9-57.682-6.119C113.977,175.831,141.768,174.709,187.91,178.292z M105.441,222.077   c1.319-11.42,16.774-5.77,18.223-12.643c11.931-6.098,29.203-5.419,43.182-7.402c22.725-3.222,43.715-4.355,66.789-4.355   c19.229,0,36.835,1.925,55.743,5.586c40.566,7.853,82.263,11.628,123.317,15.845c55.813,5.733,111.745,4.921,167.505,10.531   c26.38,2.654,52.746,6.588,79.539,7.524c36.174,1.264,71.681-1.01,107.89-1.01c25.337,0,50.663-0.972,76-0.96   c41.047,0.02,81.44-3.937,122.244-7.117c42.751-3.331,38.691-8.332-4.768-5.874c-114.596,6.483-257.08,6.695-251.214,0.374   c1.15-1.24,38.742-3.196,83.537-4.346c44.795-1.151,93.28-3.498,107.745-5.217c14.465-1.718,43.769-5.192,65.122-7.719   c66.483-7.868,164.875-12.341,204.218-9.282c7.016,0.546,15.06,0.949,23.339,1.233c0.327,0.027,0.605,0.052,0.945,0.08   c24.607,2.003,194.48,2.499,203.803-0.328c8.464-2.567,12.763,2.596,9.383,11.266c-2.79,7.155-2.556,7.46,7.04,9.167   c17.951,3.193,18.793,12.955,1.99,23.071c-20.363,12.26-136.647,12.686-223.479,0.819c-73.006-9.978-121.392-8.595-255.816,7.312   c-34.44,4.075-82.022,8.851-105.738,10.613c-12.503,0.929-30.457,1.661-50.808,2.184c-1.465,0.119-2.933,0.261-4.397,0.377   c-21.915,1.728-44.461,3.594-66.312,4.3c-50.49,1.63-101.163,0.986-151.751,1.044c-53.467,0.061-106.238-8.32-159.587-8.525   c-40.025-0.154-79.064-9.354-119.007-9.651c-28.953-0.215-61.59-2.913-90.361-7.202c-22.674-3.38-47.042-3.277-69.229-7.727   C114.031,232.74,104.456,230.607,105.441,222.077z M107.473,250.1c4.153-4.91,6.348-4.927,50.126-0.381   c95.831,9.952,124.733,12.412,163.634,13.925c22.061,0.858,66.062,3.304,97.78,5.434c102.875,6.91,166.139,8.887,266.768,8.338   c54.335-0.296,98.211,0.134,97.504,0.956c-3.342,3.886-87.218,10.755-168.643,13.81v0.002   c-162.291,6.09-283.993,4.444-363.453-4.915c-20.691-2.437-53.985-6.247-73.986-8.467c-39.815-4.418-58.941-9.476-68.102-18.01   C103.415,255.499,103.337,254.987,107.473,250.1z M451.742,405.618c-13.042,5.011-25.533,6.945-54.92,8.504   c-12.594,0.669-25.366-0.702-37.92-1.713c-22.361-1.802-44.692-4.1-67.022-6.346c-23.275-2.341-46.851-5.828-70.186-5.695   c-6.019,0.034-12.038,0.069-18.057,0.103c-4.134,0.024-8.068,0.759-12.166,0.496c-3.769-0.242-7.337-1.93-11.094-2.222   c-4.138-0.321-8.281-0.508-12.416-0.911c-5.585-0.543-11.375-1.077-16.783-2.888c-5.516-1.847-9.828-5.247-7.497-12.363   c1.493-4.558,5.022-4.854,39.799-3.348c20.989,0.909,47.755,2.87,59.48,4.357c37.525,4.76,142.854,10.756,184.906,10.534   c22.684-0.122,40.734,0.938,40.742,2.393C468.616,397.957,461.026,402.051,451.742,405.618z M1395.658,368.966   c-9.786,5.191-49.15,9.865-54.549,10.535c-48.943,6.076-99.038,8.712-148.293,5.437c-4.16-0.276-8.317-0.605-12.467-1.008   c-49.473-4.808-114.438-3.22-156.627,3.828c-66.552,11.118-114.161,17.776-160.281,22.412   c-48.776,4.907-119.168,8.247-135.308,6.419c-5.518-0.625-26.487-3.009-46.598-5.299c-21.915-2.495-61.09-4.046-97.771-3.864   c-35.982,0.176-59.647-0.742-57.425-2.229c2.079-1.391,16.156-5.187,31.282-8.437c37.605-8.078,111.064-11.211,258.061-11.005   c110.453,0.154,123.076-0.327,154.109-5.877c73.066-13.066,111.988-14.962,176.651-8.606c46.901,4.61,110.22,4.896,146.988,0.663   c22.415-2.581,45.199-4.405,67.428-8.395c5.45-0.978,34.716-3.686,36.937,2.811   C1398.094,367.227,1397.284,368.104,1395.658,368.966z M1419.022,346.554c-8.356,3.961-20.631,7.77-27.279,8.465   c-3.356,0.351-14.479,1.601-24.73,2.965c-2.097,0.044-4.439,0.181-6.975,0.443c-8.611,0.891-23.377,2.349-32.814,3.239   c-17.772,1.677-31.493,3.367-59.116,7.284c-18.309,2.596-72.118,2.351-92.858-0.422c-7.588-1.015-25.084-3.529-38.88-5.587   c-30.226-4.509-100.749-2.642-129.06,3.416c-3.442,0.737-11.893,2.105-18.781,3.042s-15.62,2.411-19.406,3.276   c-22.291,5.095-47.945,2.557-70.598,1.718c-5.287-0.196-10.583-0.931-15.88-1.606c-0.451-0.011-0.887,0.009-1.341-0.007   c-18.187-0.631-32.501,3.265-50.322,4.54c-26.04,1.862-52.761,0.209-78.866,0.19c-24.198-0.018-48.244,1.849-72.429,1.807   c-62.069-0.108-124.476,2.883-186.471,2.715c-9.157-0.025-18.291-0.2-27.419-0.419c-50.417,0.861-106.465,0.873-126.354-0.398   c-102.358-6.541-193.453-13.884-200.307-16.147c-3.699-1.221-3.992-2.088-1.348-3.988c4.993-3.59,2.617-4.977-18.874-11.016   c-19.98-5.615-23.549-7.415-20.868-10.531c2.855-3.32,129.74,4.991,245.01,16.047c15.983,1.533,32.319,3.501,48.375,3.69   c7.537,0.089,14.892-1.729,22.394-1.985c8.583-0.293,15.421,2.676,23.485,4.012c17.699,2.933,38.402,2.491,56.309,1.729   c53.915-2.293,107.629-9.605,161.71-9.952c46.886-0.301,93.606,0.902,140.399,0.902c21.717,0,45.526,2.418,66.526-2.491   c12.642-2.955,24.929-5.2,37.755-7.245c15.069-2.402,29.921-3.048,44.778-3.407c0.318-0.043,0.687-0.091,0.972-0.129   c5.51-0.747,15.09-1.971,21.289-2.721c6.199-0.75,21.978-2.724,35.065-4.387l46.341-4.702c12.401-0.922,24.929-2.644,27.953-3   c134.162-15.789,149.187-0.959,204.716-1.277c16.523-0.095,164.723-7.409,166.241-4.625   C1449.837,324.532,1433.826,339.537,1419.022,346.554z M1447.523,305.983c-9.795,8.327-159.869,10.938-236.955,4.122   c-34.061-3.012-62.331-3.761-90.803-2.407c-47.564,2.261-149.444,12.5-187.602,18.853c-60.35,10.048-124.75,14.068-218.249,13.622   l0-0.001c-50.317-0.24-141.105,0.732-201.752,2.159c-60.646,1.428-125.498,1.545-144.116,0.261   c-52.047-3.589-232.445-26.887-246.118-31.786c-2.59-0.928-4.717-2.896-4.725-4.374c-0.022-3.898,30.618-3.411,75.198,1.195   c98.438,10.169,130.542,12.751,184.303,14.819c65.147,2.506,165.49,0.58,202.995-3.897c13.776-1.645,63.762-3.259,111.08-3.586   c91.764-0.636,139.526-4.402,219.644-17.318c88.797-14.316,113.635-16.896,180.353-18.739c58.869-1.626,73.692-1.095,114.064,4.088   c69.369,8.906,103.098,9.589,175.026,3.545c55.481-4.662,75.141-4.592,63.545,0.228c-2.419,1.005-1.732,3.281,2.554,8.465   C1451.434,301.843,1451.539,302.568,1447.523,305.983z"
   id="path10" />
	<path
   style="fill:#CB1F3A;"
   d="M96.225,597.802c2.477,1.622,7.68,1.409,11.477,3.717c5.816,3.534,6.003,6.9,8.688,12.83   c8.733,19.291,10.212,38.378,13.063,59.375c2.97,21.87,10.9,43.688,16.872,64.907c7.293,25.911,11.386,55.653,15.032,82.808   c2.518,18.752,33.698,12.787,46.569,7.924c18.389-6.948,37.564-11.152,57.046-13.831c59.431-8.172,121.541-20.001,181.209-18.744   c26.917,0.568,55.347-3.061,82.075-6.736c14.613-2.009,36.138-6.917,50.958-10.48c19.223-4.621,35.295-10.483,53.438-19.43   c32.182-15.871,69.116-21.289,103.189-30.859c17.902-5.028,37.271-6.261,55.783-8.807c27.481-3.779,56.708-12.563,83.912-16.304   c56.338-7.747,113.106-12.227,169.443-19.973c40.415-5.557,81.913-12.737,122.596-13.891c29.321-0.832,58.629-3.632,88.374-7.722   c39.764-5.468,78.481-3.344,118.197-4.58c15.133-0.471,28.935-2.258,43.941-1.033c17.461,1.426,57.614,8.689,59.845-20.854   c0.951-12.59-0.593-24.851,0.904-37.713c1.126-9.674,3.539-18.204,5.578-27.191c3.534-15.577,0.199-30.368-4.458-45.124   c-5.791-18.347-0.837-38.167,0.613-57.423c1.449-19.245,10.576-56.407-0.863-73.946c-9.297-14.256-31.209-15.865-45.134-17.504   c-8.771-1.032-17.02-6.437-25.741-8.854c-9.631-2.669-19.563-3.642-29.326-2.436c-14.309,1.768-28.075,2.982-42.442,3.634   c-21.109,0.958-42.435,4.114-63.655,4.543c-9.732,0.197-19.338,1.282-28.971,1.477c-9.188,0.186-17.755,1.692-26.808,2.95   c-6.973,0.969-13.71-0.212-20.621,0.318c-11.848,0.907-23.343,1.173-35.33,0.658c-14.381-0.618-28.605,1.537-42.848,2.937   c-7.274,0.715-14.62,0.485-21.872,1.121c-6.322,0.554-12.735,2.388-19.123,3.267c-18.171,2.499-36.341,4.997-54.512,7.496   c-37.123,5.105-73.404,11.33-110.694,14.295c-62.665,4.981-124.197,15.387-185.272,31.461   c-19.983,5.259-40.283,9.073-60.248,14.273c-19.413,5.055-38.906,10.653-58.048,17.134c-16.106,5.453-33.544,7.137-49.874,11.9   c-16.482,4.807-35.59,9.872-51.543,15.618c-16.726,6.024-59.755,9.594-90.362,13.803c-14.778,2.032-29.078,0.04-43.776,1.555   c-13.556,1.397-27.054,3.717-40.56,5.574c-13.89,1.91-27.409,1.065-41.099,4.389c-22.015,5.345-43.347,14.124-65.496,18.308   c-24.604,4.648-50.716,10.891-73.642,21.924c-12.305,5.922-26.321,6.663-38.85,12.075c-5.86,2.531-12.789,5.799-16.471,11.911   C94.018,594.142,94.288,596.533,96.225,597.802z"
   id="path12" />
	<path
   style="fill:#231F20;stroke:#231F20;stroke-miterlimit:10;"
   d="M1495.244,519.994c-10.082-8.357-10.617-10.124-4.111-13.558   c2.702-1.426,7.58-6.842,10.84-12.035c6.651-10.594,5.768-19.192-3.646-35.497c-4.397-7.615-5.109-10.925-3.492-16.223   c1.118-3.66,0.924-16.957-0.429-29.548c-2.198-20.44-3.194-23.625-9.295-29.728c-7.933-7.933-16.63-11.01-30.775-10.888   c-12.582,0.108-18.549-0.574-25.03-4.355c-7.51-4.382-15.84-6.458-24.15-6.158c-5.922,0.214-11.153,0.103-17.035-1.345   c-11.622-2.862-21.546,3.758-32.735,4.801c-10.779,1.005-21.796-0.113-32.544,0.269c-16.933,0.602-33.507,3.735-50.554,4.012   c-12.778,0.208-24.922-1.3-37.206,2.39c-8.046,2.417-18.077,1.248-26.424,1.604c-20.508,0.875-41.025,1.609-61.531,2.516   c-14.74,0.652-29.68,0.851-44.311,2.813c-95.072,12.745-287.205,36.359-297.05,36.509c-10.489,0.161-23.204,5.136-33.338,7.661   c-11.321,2.82-22.525,6.13-33.769,9.302c-6.896,1.946-13.807,3.84-20.77,5.537c-36.751,8.961-73.838,16.618-110.184,27.192   c-4.014,1.168-22.031,6.771-40.039,12.45c-18.008,5.68-40.165,12.522-49.24,15.204c-18.05,5.334-58.458,10.646-118.475,15.574   c-57.557,4.726-96.971,10.952-138.574,21.889c-4.7,1.236-18.477,4.508-30.617,7.272c-12.14,2.764-22.582,5.471-23.205,6.016   c-0.623,0.545-9.391,3.018-19.484,5.496c-10.093,2.478-29.214,8.338-42.489,13.023c-13.276,4.685-25.799,8.856-27.828,9.268   c-2.029,0.413-8.545,2.722-14.482,5.132c-7.937,3.222-16.825,5.661-25.204,6.946c-3.907,0.599-15.982-1.484-17.759,3.809   c-0.036,0.106,0.094,0.252,0.35,0.427c4.64,3.164,6.388,9.34,3.102,13.908c-0.92,1.279-1.258,2.582-0.355,3.96   c0.507,0.774,1.406,1.572,2.813,2.402c5.079,2.998,14.615,3.867,20.409,4.526c4.142,0.471,13.495-1.814,16.502,1.893   c8.023,9.893-17.078,18.727-22.496,21.167c-6.832,3.076-49.457,11.829-45.243,24.004c1.976,5.695,8.27,4.908,12.952,3.776   c12.821-3.1,25.72-5.25,38.755-7.002c5.001-0.672,10.4-0.724,15.504-0.454c4.356,0.231,11.552,2.06,10.084,7.806   c-1.398,5.468-11.357,8.169-15.742,10.348c-5.318,2.642-35.268,11.99-24.683,22.047c5.192,4.934,18.532,2.687,24.653,1.393   c4.675-0.988,28.328-11.805,27.846-1.739c-0.282,5.899-8.109,7.416-1.888,11.558c5.242,3.491,17.779,3.215,8.225,11.686   c-3.22,2.855-42.483,14.101-28.683,21.021c2.722,1.365,7.453,1.095,10.529,1.554c6.092,0.91,21.566,5.317,12.781,12.763   c-4.053,3.436-8.464,4.301-13.466,4.853c-2.657,0.293-12.753,0.639-11.056,5.573c1.467,4.26,7.727,2.79,9.548,6.044   c2.711,4.842-7.604,6.133-8.599,10.658c-1.515,6.892,20.872,5.419,24.314,12.066c3.435,6.633-4.446,9.246-8.747,11.226   c-4.875,2.244-18.609,8.042-8.152,11.401c10.43,3.35,24.384-1.811,34.116,4.473c7.003,4.522-1.931,8.172-6.31,11.493   c-3.98,3.018-15.072,7.401-9.379,13.701c4.477,4.953,12.673,1.112,17.536-0.543c7.028-2.391,14.167-4.279,21.433-5.926   c12.141-2.753,25.379-5.812,29.417-6.797c74.306-18.124,194.257-34.483,244.422-33.334c4.878,0.112,12.856,0.276,17.73,0.364   c17.589,0.318,86.559-8.456,109.313-13.907c12.795-3.065,31.531-7.521,41.637-9.903c10.106-2.382,22.694-6.057,27.973-8.166   c5.279-2.11,16.752-5.616,25.496-7.793c8.744-2.177,19.167-5.024,23.164-6.328c3.996-1.303,11.105-3.423,15.798-4.709   c4.693-1.287,14.014-3.876,20.713-5.755c14.79-4.147,33.974-8.575,64.964-14.993c12.848-2.661,27.605-6.07,32.794-7.576   c16.609-4.821,369.505-50.727,391.45-50.922c4.857-0.043,17.867-0.516,28.911-1.05c11.044-0.534,26.297-1.238,33.896-1.564   c7.598-0.326,25.075-1.406,38.837-2.401c27.14-1.961,32.984-2.18,54.043-2.024c7.649,0.057,17.318,0.107,21.486,0.112   c4.169,0.005,22.387,0.24,40.486,0.523c49.913,0.78,64.324-2.977,66.958-17.453c0.648-3.563-0.271-10.152-2.044-14.642   c-2.397-6.072-1.371-11.168-0.042-17.307c0.635-2.933,1.425-5.912,2.113-8.795c1.439-6.038,1.599-11.114-1.972-16.682   c-3.592-5.601-5.622-11.203-5.876-18.302c-0.147-4.096,2.563-7.409,2.337-11.133c-0.213-3.506-2.221-4.36-0.762-8.002   c1.169-2.916,3.355-4.516,5.603-6.338c2.77-2.244,5.347-4.208,7.026-7.609C1506.469,529.559,1500.004,523.941,1495.244,519.994z    M1468.061,510.099c-3.501,5.408-5.673,5.711-49.609,6.916c-96.179,2.638-125.117,3.971-163.844,7.546   c-21.962,2.027-65.857,5.343-97.544,7.37c-102.777,6.572-165.696,12.865-265.316,26.535c-53.79,7.381-97.31,12.678-96.712,11.771   c2.826-4.287,85.06-22.034,165.342-35.683l0-0.002c160.013-27.205,280.783-41.449,360.67-42.539   c20.802-0.284,54.261-0.851,74.352-1.261c39.995-0.815,59.574,1.702,69.715,8.964   C1471.406,504.219,1471.547,504.717,1468.061,510.099z M1424.168,404.076c-4.498,4.209-1.971,5.273,20.074,8.454   c20.495,2.958,24.255,4.277,21.989,7.714c-2.414,3.662-129.152,11.978-244.726,16.058c-51.726,1.826-164.177,11.374-192.272,16.325   c-11.585,2.041-56.765,8.39-100.401,14.107c-96.239,12.61-103.977,9.173-16.014-7.113c32.439-6.006,80.58-15.21,106.981-20.453   c42.993-8.539,169.764-26.568,202.085-28.741c102.218-6.87,193.378-11.475,200.451-10.127   C1426.15,401.027,1426.549,401.848,1424.168,404.076z M1107.585,400.893c12.294-6.667,24.427-10.213,53.344-15.591   c12.393-2.305,25.217-2.613,37.78-3.249c22.377-1.132,44.786-1.766,67.188-2.453c23.35-0.716,47.141-0.335,70.241-3.512   c5.959-0.819,11.917-1.639,17.876-2.458c4.093-0.563,7.897-1.805,11.99-2.078c3.932-0.263,7.843,1.066,11.77,0.72   c2.462-0.217,4.905-0.53,7.376-0.562c6.95-0.088,14.413-0.834,21.523,0.552c5.694,1.111,10.392,3.918,8.971,11.274   c-0.91,4.711-4.368,5.465-39.009,8.509c-20.906,1.837-47.667,3.385-59.469,3.441c-37.769,0.178-142.862,7.975-184.493,13.681   c-22.456,3.08-40.47,4.384-40.66,2.943C1091.826,410.686,1098.833,405.639,1107.585,400.893z M1064.003,400.065   c7.654,0,9.872,10.48,2.893,13.64c-49.406,22.374-195.194,38.431-317.367,54.344c-109.44,14.255-121.885,16.378-151.935,25.926   c-70.75,22.479-109.072,29.435-173.925,31.571c-47.038,1.549-109.801,9.526-145.697,18.517   c-42.127,10.552-63.26,16.083-72.9,19.335c-15.628,3.725-36.187,10.307-46.948,16.291c-8.994,5.001-16.87,8.639-17.501,8.084   c-5.109-4.491,14.686-20.15,35.821-28.336c53.135-20.582,150.771-39.925,212.054-42.011c49.611-1.689,113.77-11.736,154.685-24.224   c64.541-19.698,110.873-32.507,155.983-43.121l0.001,0.005c47.708-11.226,117.024-23.716,133.242-24.01   c5.544-0.1,26.615-0.473,46.824-0.827c22.022-0.386,106.702-20.217,143.017-25.183H1064.003z M156.724,585.597   c7.783-5.015,19.468-10.391,25.966-11.947c3.281-0.786,14.144-3.475,24.129-6.164c2.072-0.317,4.375-0.759,6.855-1.349   c8.419-2.006,22.865-5.377,32.103-7.49c17.397-3.98,30.778-7.445,57.654-14.929c17.814-4.961,71.15-11.737,92.043-11.694   c7.643,0.016,25.29,0.225,39.215,0.465c30.507,0.526,100.137-10.523,127.426-20.22c3.318-1.179,11.519-3.638,18.225-5.464   c6.706-1.826,15.173-4.427,18.815-5.778c14.191-5.264,30.556-7.188,45.332-10.183c7.923-1.607,16.335-3.982,24.291-4.82   c15.623-1.644,31.753,1.599,47.541,0.115c9.231-0.867,18.704-3.878,27.793-3.002c2.402,0.231,8.806,0.299,8.362,3.419   c-0.713,4.982-23.715,10.734-27.979,11.966c-4.684,1.354-17.076,5.687-27.538,9.627c-13.828,5.042-30.225,9.149-45.021,14.815   c-8.738,2.223-20.276,5.236-25.641,6.695c-5.365,1.459-14.703,3.922-20.75,5.474c-6.048,1.551-21.432,5.566-34.189,8.921   l-45.321,10.704c-12.17,2.532-24.366,5.872-27.317,6.619c-130.936,33.147-147.673,20.41-202.643,27.969   c-16.357,2.249-162.258,28.829-164.109,26.268C128.948,611.439,142.935,594.481,156.724,585.597z M145.042,681.342   c-2.328,0.399-4.83-0.316-6.503-2.291c-4.515-5.329,0.215-13.759,10.54-15.397c7.198-1.142,23.669-6.035,26.812-7.966   c15.535-9.544,130.582-25.531,175.825-24.432c25.721,0.625,51.442-0.359,77.046-2.904c14.096-1.401,28.146-3.243,42.15-5.384   c9.501-1.453,48.109-0.81,50.31-15.199c0.689-4.503-42.003,3.814-45.031,4.286c-12.728,1.984-25.471,3.924-38.265,5.438   c-20.311,2.403-40.647,3.085-61.085,3.15c-69.833,0.223-103.332,3.946-173.833,19.318c-54.38,11.857-73.865,14.352-62.98,8.063   c2.271-1.312,1.306-3.478-3.588-8.055c-6.241-5.838-6.436-6.543-2.884-10.452c8.663-9.53,157.008-31.692,234.225-34.993   c34.119-1.458,62.218-4.403,90.255-9.459c46.837-8.445,146.485-31.881,183.493-43.153c58.531-17.83,121.827-30.213,214.507-41.967   c49.877-6.326,139.695-19.131,199.596-28.456c59.901-9.325,124.132-17.901,142.736-19.058   c52.009-3.233,233.631-3.676,247.788-0.605c2.682,0.582,5.034,2.255,5.227,3.718c0.509,3.859-29.906,7.374-74.645,8.625   c-98.788,2.763-130.914,4.393-184.431,9.356c-64.85,6.014-164.014,21.012-200.61,30.341   c-61.92,15.784-125.703,14.549-187.593,31.283c-27.692,7.487-56.742,9.857-83.755,18.104c-6.891,2.104-14.872,2.325-21.415,5.425   c-14.014,6.639,4.933,6.961,10.257,6.215c17.372-2.432,34.392-6.84,51.499-10.635c11.519-2.556,23.748-2.955,35.062-6.05   c3.309-0.905,6.792-2.064,10.312-2.889c6.789-1.593,9.351,8.77,2.628,10.625c-3.034,0.837-6.103,1.466-8.621,2.269   c-18.181,5.798-25.281,8.122-31.007,10.146c-40.86,14.444-73.839,25.617-83.601,28.325c-6.603,1.832-14.719,4.309-18.034,5.507   c-3.316,1.197-11.526,3.585-18.246,5.306s-14.916,4.217-18.215,5.546c-3.298,1.329-12.038,4.013-19.422,5.967   c-7.384,1.953-16.705,4.541-20.714,5.75c-21.68,6.541-56.93,13.252-102.266,19.457c-45.323,6.208-60.316,7.491-108.657,9.298   c-6.913,0.259-19.343,0.818-27.622,1.243c-8.28,0.426-25.783,1.303-38.897,1.951c-32.855,1.621-87.681,8.844-106.766,14.065   L145.042,681.342z M846.784,702.79c-0.672,1.019-13.815,4.079-29.206,6.798c-15.392,2.719-38.494,7.139-51.339,9.822   c-12.845,2.682-33.199,6.879-45.231,9.325c-12.032,2.447-26.31,6.236-31.729,8.421c-5.419,2.185-18.112,5.984-28.209,8.441   c-10.096,2.457-19.898,5.704-21.783,7.215c-6.22,4.986-42.771,16.218-80.115,24.619c-46.806,10.529-92.901,14.991-158.383,15.333   c-11.961,0.062-93.158,11.242-105.443,14.518c-4.697,1.253-26.856,5.624-49.241,9.714c-22.385,4.09-46.54,8.783-53.68,10.429   c-9.875,2.276-13.45,2.029-14.943-1.031c-2.148-17.573,12.704-19.615,75.387-34.742c21.761-5.684,154.91-23.433,171.288-22.832   c21.462,0.788,56.531-2.149,99.939-8.366c56.796-8.136,85.791-14.842,127.469-29.482c5.975-2.099,12.531-4.104,14.567-4.469   c4.387-0.773,23.053-6.343,31.596-9.427v-0.001c8.41-3.036,82.549-15.974,84.092-14.675c0.694,0.584,10.316,0.759,21.382,0.389   c11.066-0.37,22.953-0.733,26.417-0.807c3.464-0.073,9.017-0.339,12.342-0.591C845.286,701.141,847.456,701.771,846.784,702.79z    M806.769,681.937c-46.042,9.195-122.846,26.999-138.49,32.104c-66.464,21.686-151.625,36.575-282.717,49.427   c-56.06,5.496-70.844,7.971-124.811,20.894c-33.67,8.063-65.162,15.844-69.981,17.292c-6.277,1.886-10.588,1.342-15.199-1.916   c-13.221-9.343-4.255-18.806,31.199-32.925c17.154-6.832,31.225-9.535,91.041-17.494c41.977-5.585,90.533-10.195,119.39-11.335   c80.562-3.182,117.975-9.661,231.272-40.049c29.521-7.918,71.92-18.277,94.219-23.019c22.299-4.742,89.685-15.251,149.748-23.351   c104.38-14.079,252.002-29.535,188.279-16.67c-16.24,3.279-177.508,38.463-202.463,44.138S822.337,678.828,806.769,681.937z    M1459.973,640.992c-0.965,6.41-49.821,12.242-119.929,14.315c-104.92,3.103-132.041,4.994-219.017,15.268   c-44.461,5.252-102.767,11.345-129.57,13.54c-26.802,2.195-64.374,5.276-83.492,6.846c-55.932,4.595-52.364,1.307,9.932-9.152   c31.942-5.362,73.448-13.868,92.235-18.902c18.787-5.033,55.672-14.101,81.967-20.15c51.898-11.939,181.355-30.374,229.355-32.66   c58.531-2.789,111.394-3.795,120.127-2.287c5.012,0.866,11.537,3.926,14.501,6.802c4.612,4.475,4.916,5.679,2.112,8.36   c-1.802,1.723-7.46,3.724-12.574,4.456c-10.817,1.539-11.794,6.549-1.508,7.726   C1458.233,636.771,1460.484,637.599,1459.973,640.992z M1473.199,589.61c-4.415,4.404-14.953,2.844-20.13,3.134   c-18.748,1.05-36.474,0.069-55.053,3.034c-23.221,3.707-47.371,3.846-70.794,4.775c-52.144,2.069-102.936,11.859-154.98,11.859   c-25.372,0-51.057-1.012-76.576-0.831c-44.499,4.807-91.035,10.787-134.213,17.374c-192.764,29.405-225.304,35.028-274.147,47.376   c-124.651,31.513-147.631,35.897-247.64,47.25c-116.664,13.243-197.69,23.941-244.494,32.279   c-31.696,5.647-35.882,5.851-37.149,1.814c-2.318-7.386,10.641-12.744,58.149-24.042c30.475-7.248,63.097-12.708,105.657-17.688   c8.406-0.983,16.708-1.953,24.694-2.89c27.177-0.838,105.967-7.097,145.313-12.523c48.83-6.73,91.601-15.693,169.967-35.617   c46.291-11.77,93.855-15.857,140.519-25.327c7.469-1.516,16.61-3.297,25.666-5.419c6.525-1.53,4.563-11.388-2.036-10.22   c-14.58,2.58-29.756,6.628-33.455,7.211c-44.233,6.983-91.972,15.634-106.086,19.224c-14.115,3.59-42.712,10.855-63.549,16.144   c-64.878,16.469-161.792,33.735-201.149,35.836c-7.019,0.375-15.038,1.024-23.274,1.822c-0.328,0.016-0.607,0.028-0.946,0.044   c-24.627,1.225-192.974,22.892-201.857,26.91c-8.064,3.648-12.968-0.907-10.702-9.94c1.87-7.454,1.6-7.726-8.119-8.166   c-18.181-0.822-20.235-10.386-4.853-22.603c18.641-14.806,133.785-30.396,221.287-29.963c73.57,0.364,121.331-7.318,252.511-40.614   c33.609-8.531,80.149-19.47,103.424-24.31c46.562-9.683,170.907-26.783,210.367-28.931c13.794-0.75,61.216-5.334,105.383-10.186   c44.166-4.852,80.431-7.842,80.589-6.645c0.648,4.915-70.812,16.851-216.268,36.123c-151.556,20.08-191.649,27.095-253.083,44.283   c-15.409,4.311-40.491,10.479-55.737,13.706c-41.936,8.877-37.289,13.304,5.457,5.199c22.064-4.184,47.567-8.624,68.502-16.494   c21.722-8.165,49.26-13.377,72.493-15.374c11.533-0.991,23.034-1.767,34.718-2.414c30.138-1.668,57.618-12.372,87.117-17.086   c56.657-9.055,113.346-12.578,169.956-22.4c34.45-5.977,69.798-3.524,104.389-9.611c65.262-11.485,131.932-7.441,196.886-18.379   c28.975-4.879,58.97-7.825,88.383-7.433c5.734,0.077,14.032,0.022,18.461,3.887c3.247,2.833,8.175,14.116,4.721,18.02   c-3.409,3.852-17.284,1.564-21.741,1.347c-14.821-0.723-29.01-1.055-43.787-0.364c-10.242,0.479-25.059-1.51-33.352,6.094   c-5.166,4.737-2.264,7.621,3.704,8.79c19.565,3.831,39.419-2.487,59.024-2.487c9.979-0.001,21.322-1.977,30.981,1.306   c4.783,1.626,10.999,4.594,8.251,11.045C1474.256,588.346,1473.78,589.029,1473.199,589.61z"
   id="path14" />
	<path
   style="fill:#231F20;stroke:#231F20;stroke-miterlimit:10;"
   d="M1534.365,1333.099c-0.893-12.633-3.053-25.752-4.8-29.154   c-2.528-4.923-2.412-8.308,0.569-16.588c6.381-17.728,5.73-26.347-2.687-35.583c-4.126-4.528-9.883-8.985-12.794-9.905   c-7.01-2.215-6.795-4.049,1.649-14.077c3.987-4.735,9.356-11.42,4.478-18.015c-2.254-3.047-5.136-4.518-8.259-6.231   c-2.535-1.391-4.968-2.574-6.634-5.234c-2.08-3.323-0.255-4.522-0.665-8.011c-0.436-3.705-3.687-6.48-4.267-10.537   c-1.005-7.032,0.003-12.907,2.547-19.061c2.53-6.118,1.475-11.084-1.008-16.769c-1.186-2.714-2.49-5.505-3.634-8.277   c-2.393-5.803-4.304-10.634-3.018-17.038c0.951-4.735,0.691-11.384-0.577-14.774c-5.15-13.774-19.995-14.893-68.975-5.199   c-17.76,3.515-35.647,7.005-39.748,7.755c-4.101,0.75-13.607,2.529-21.124,3.953c-20.696,3.92-26.486,4.75-53.54,7.674   c-13.719,1.483-31.108,3.546-38.643,4.584c-7.535,1.038-22.67,3.074-33.632,4.523c-10.963,1.449-23.849,3.311-28.636,4.137   c-21.63,3.734-377.017,21.674-394.213,19.901c-5.372-0.554-20.497-1.27-33.61-1.59c-31.63-0.773-51.292-1.699-66.579-3.135   c-6.924-0.65-16.554-1.532-21.4-1.959c-4.846-0.427-12.216-1.241-16.379-1.809c-4.163-0.568-14.924-1.506-23.913-2.084   c-8.989-0.578-20.899-1.977-26.467-3.109c-5.568-1.131-18.605-2.496-28.971-3.033c-10.366-0.536-29.592-1.571-42.724-2.298   c-23.356-1.294-92.777,2.407-110.03,5.865c-4.781,0.958-12.603,2.547-17.383,3.529c-49.163,10.102-170.094,15.458-246.42,10.912   c-4.327-0.258-18.904-0.945-31.752-1.496c-7.005-0.3-13.969-1.093-20.925-1.983c-6.932-0.887-26.062,0.11-14.459,10.527   c5.702,5.119,29.16,4.282,16.17,18.657c-4.993,5.525-15.907,4.737-21.842,8.438c-16.297,10.162,4.605,24.754,14.78,30.384   c-0.098,13.63-32.331,4.9-38.904,13.481c-12.739,16.631,35.957,23.357,40.511,26.812c10.676,8.1-4.522,7.177-10.327,11.504   c-8.608,6.415-1.764,11.129,4.851,16.139c4.632,3.508,13.567,7.986,9.016,14.998c-3.355,5.169-18.021,5.377-23.262,5.602   c-4.63,0.199-20.885-1.099-21.894,5.79c-1.816,12.439,23.584,13.686,31.067,15.518c15.524,3.801,28.657,19.959,8.037,29.02   c-16.044,7.051-11.443,12.528,0.77,20.123c11.874,7.384-2.887,8.729-9.511,9.154c-6.669,0.428-22.538-2.577-25.5,6.018   c-2.609,7.595,17.285,11.925,3.225,17.173c-4.388,1.638-23.22,1.068-18.739,10.546c3.98,8.406,21.289,4.097,27.955,3.047   c5.472-0.862,10.954-1.797,16.488-2.148c5.598-0.355,10.893,0.797,16.413,0.896c3.758,0.068,6.54-0.354,8.105,3.881   c1.206,3.262,0.649,7.076,0.87,10.48c0.295,4.544,3.372,10.338,8.661,9.937c4.773-0.361,4.53-2.057,6.717-5.581   c1.643-2.648,3.05-4.98,6.31-4.651c1.747,0.176,7.985,3.155,9.174-0.117c0.596-1.639-1.322-3.49-0.957-5.209   c0.569-2.677,2.527-2.323,4.696-2.076c5.318,0.607,10.613,1.64,15.923,2.345c10.044,1.334,20.14,2.584,30.256,3.202   c10.371,0.633,19.436,1.499,20.145,1.924c0.709,0.425,11.463,1.221,23.898,1.77c12.435,0.548,26.571,1.304,31.415,1.68   c42.872,3.322,82.759,2.399,140.234-3.244c59.932-5.884,100.635-7.884,119.34-5.863c9.404,1.016,32.418,3.786,51.143,6.155   c18.724,2.369,37.445,4.66,41.601,5.091c37.636,3.905,75.485,4.807,113.235,7.052c7.151,0.425,14.287,1.053,21.417,1.734   c11.626,1.11,23.237,2.364,34.875,3.114c10.418,0.672,23.81,3.294,34.161,1.576c9.715-1.613,202.961-12.738,298.77-17.201   c14.745-0.687,29.482-3.162,44.102-5.157c20.34-2.775,40.659-5.722,60.996-8.529c8.277-1.143,17.942-4.087,26.287-3.148   c12.741,1.434,24.424-2.221,37.036-4.303c16.079-2.653,44.608-9.975,60.444-6.411c16.955,3.815,5.68,30.674,22.165,29.837   c7.717-0.392,7.54-8.797,10.302-14.212c1.72-3.372,6.92-1.699,6.531,2.071c-1.135,11.004-8.531,61.341,9.123,61.802   c10.408,0.272,7.968-17.081,8.328-24.28c0.216-4.309,1.475-7.898,1.887-11.866c0.691-6.658-2.637-13.157-4.472-19.453   c-6.757-23.183,7.893-33.241,26.729-40.295c5.063-1.896,10.245-3.12,15.35-4.946c10.019-3.582,19.665-6.297,29.83-9.227   c8.559-2.467,15.671-7.143,20.798-14.528C1535.398,1356.92,1535.816,1353.606,1534.365,1333.099z M1491.302,1242.392   c4.382,4.673,4.331,5.188-1.063,10.746c-8.697,8.959-27.519,14.939-67.02,21.29c-19.844,3.19-52.869,8.616-73.39,12.057   c-78.807,13.215-200.17,20.798-362.442,22.645l0-0.002c-81.416,0.927-165.476-1.83-169.015-5.543   c-0.749-0.786,43.015-3.357,97.252-5.714c100.449-4.365,163.478-9.426,265.779-21.34c31.541-3.674,75.322-8.261,97.293-10.194   c38.741-3.409,67.454-7.273,162.567-21.878C1484.71,1237.787,1486.901,1237.696,1491.302,1242.392z M908.163,1164.585   c19.091-1.874,56.608-5.562,83.371-8.195c26.763-2.634,85.218-7.066,129.898-9.85c87.406-5.445,114.429-8.435,218.226-24.146   c69.357-10.499,118.465-13.498,120.548-7.362c1.103,3.247-0.966,4.465-14.575,8.58c-9.914,2.999-8.067,7.754,2.849,7.334   c5.161-0.195,11.084,0.762,13.161,2.136c3.233,2.137,3.147,3.376-0.601,8.605c-2.408,3.359-8.288,7.538-13.068,9.287   c-8.327,3.046-60.526,11.51-118.617,19.234c-47.639,6.334-178.292,11.347-231.473,8.88c-26.945-1.25-64.845-3.576-84.222-5.169   c-19.377-1.594-61.725-2.54-94.107-2.104C856.402,1172.664,852.31,1170.066,908.163,1164.585z M179.903,1158.271   c7.316,0.342,31.917,0.64,54.668,0.662c22.751,0.021,45.329,0.36,50.173,0.753c12.669,1.027,94.548-2.494,106.329-4.572   c64.499-11.376,110.648-15.229,158.57-13.239c38.233,1.588,76.188,6.104,83.19,9.898c2.122,1.15,12.342,2.592,22.711,3.204   c10.37,0.613,23.532,2.08,29.251,3.261c5.719,1.181,20.439,2.357,32.712,2.613c12.273,0.256,33.044,0.745,46.159,1.087   c13.115,0.343,36.63,0.56,52.257,0.483c15.626-0.076,29.101,0.584,29.942,1.467c0.841,0.883-1.183,1.89-4.499,2.237   c-3.316,0.347-8.828,1.079-12.25,1.626c-3.422,0.547-15.184,2.316-26.139,3.931c-10.955,1.615-20.392,3.508-20.972,4.207   c-1.289,1.554-76.534,2.082-85.346,0.599l0-0.001c-8.952-1.507-28.305-3.649-32.759-3.625c-2.068,0.005-8.874-0.796-15.125-1.793   c-43.601-6.953-73.32-8.366-130.649-6.214c-43.816,1.645-78.845,5.028-99.826,9.641c-16.011,3.521-150.176,9.869-172.594,8.167   c-64.358-3.676-79.335-3.029-80.326-20.706C166.309,1158.679,169.784,1157.797,179.903,1158.271z M168.21,1188.531   c3.961-4.031,8.108-5.337,14.618-4.604c4.998,0.563,37.363,2.588,71.923,4.5c55.391,3.065,70.378,2.856,126.516-1.761   c131.275-10.798,217.711-11.378,286.949-1.925c16.297,2.225,95.025,6.009,141.958,6.823c15.869,0.276,45.303-11.048,70.863-9.927   c25.56,1.121,190.478,6.902,207.038,7.224c64.981,1.263-83.021,12.456-188.226,17.27c-60.537,2.771-128.708,4.481-151.489,3.803   c-22.782-0.679-66.336-3.289-96.787-5.801c-116.864-9.641-154.825-9.325-234.666,1.952c-28.599,4.04-77.196,8.188-119.492,10.199   c-60.27,2.866-74.595,2.722-92.683-0.932C167.347,1207.799,156.851,1200.09,168.21,1188.531z M158.378,1233.065   c0.533-4.199,4.689-4.747,36.878-4.859c47.532-0.166,129.158-4.13,246.303-11.963c100.422-6.715,123.81-6.51,252.046,2.206   c50.247,3.415,83.263,3.129,278.153-2.411c43.653-1.241,90.506-3.679,135.145-6.907c25.145-4.387,50.241-9.976,75.209-14.514   c51.215-9.308,102.928-8.758,154.606-16.049c23.214-3.275,47.005-7.457,70.51-7.963c18.807-0.405,36.078-4.541,54.713-6.86   c5.145-0.641,15.24-4.06,20.363-0.516c0.675,0.467,1.264,1.055,1.743,1.786c3.844,5.857-1.748,9.89-6.168,12.345   c-8.925,4.958-20.436,5.042-30.257,6.826c-19.293,3.506-39.948,0.84-58.524,8.109c-5.667,2.217-8.012,5.574-2.092,9.312   c9.505,6,23.734,1.393,33.898,0.032c14.663-1.963,28.568-4.828,43.025-8.19c4.348-1.011,17.597-5.744,21.632-2.563   c4.09,3.224,1.235,15.208-1.46,18.577c-3.675,4.595-11.851,6.025-17.48,7.126c-28.875,5.646-58.913,8.113-88.288,8.493   c-65.852,0.853-130.745,16.757-196.997,17.127c-35.115,0.196-69.467,8.932-104.424,9.212c-57.444,0.46-113.853,7.132-171.207,8.354   c-29.862,0.636-58.796-4.982-88.749-1.233c-11.612,1.453-23.067,2.747-34.591,3.834c-23.216,2.19-51.237,1.987-74.056-2.163   c-21.993-4-47.874-3.808-70.326-3.979c-43.497-0.331-47.288,4.856-4.451,6.092c15.574,0.449,41.346,2.033,57.272,3.52   c63.493,5.926,104.188,5.659,256.878-1.687c146.545-7.05,218.976-8.086,219.207-3.132c0.056,1.206-36.16,4.75-80.48,7.874   c-44.32,3.125-91.797,7.096-105.504,8.824c-39.211,4.945-164.597,10.356-212.129,9.155c-23.759-0.599-71.492-3.041-106.073-5.425   c-134.976-9.304-183.334-8.322-255.667,5.195c-86.032,16.077-202.096,21.328-223.058,10.092   c-17.296-9.271-16.966-19.05,0.781-23.11c9.486-2.171,9.704-2.487,6.546-9.488c-3.826-8.484,0.194-13.843,8.775-11.696   c9.451,2.365,178.946-6.422,203.397-9.622c0.337-0.044,0.614-0.083,0.939-0.125c8.246-0.688,16.253-1.483,23.226-2.37   c39.102-4.971,137.523-5.314,204.279-0.711c21.44,1.479,50.866,3.513,65.39,4.521c14.525,1.008,63.032,0.983,107.794-0.056   c3.743-0.087,19.394,1.182,34.198,1.113c6.7-0.031,6.889-10.083,0.197-10.422c-9.288-0.469-18.599-0.587-26.217-0.743   c-47.594-0.973-95.122,3.512-142.757,0.209c-80.639-5.591-124.312-6.762-173.554-4.651c-39.678,1.697-118.319,9.63-145.211,13.666   c-8.025,0.506-16.366,1.037-24.812,1.572c-42.763,2.712-75.829,3.173-107.1,1.491   C171.102,1243.703,157.403,1240.749,158.378,1233.065z M157.944,1352.753c4.007-5.379,4.573-7.683,2.107-8.568   c-11.823-4.242,7.792-5.272,63.402-3.329c72.094,2.518,105.717,0.19,174.477-12.08c20.124-3.591,40.256-6.557,60.668-7.825   c12.857-0.799,25.74-1.168,38.616-1.492c3.064-0.077,46.545,0.472,45.072-3.836c-4.71-13.766-42.589-6.228-52.195-5.958   c-14.159,0.397-28.311,1.098-42.43,2.241c-25.645,2.075-51.131,5.707-76.331,10.922c-44.328,9.173-160.367,14.018-177.342,7.404   c-3.434-1.338-20.507-3.208-27.792-3.044c-10.45,0.234-16.594-7.215-13.093-13.267c1.297-2.243,3.632-3.394,5.994-3.417   l62.47-0.614c19.704,1.724,74.933-0.974,107.551-5.254c13.019-1.708,30.399-3.975,38.622-5.037   c8.223-1.062,20.554-2.735,27.402-3.717c47.891-6.868,62.872-8.287,108.569-10.284c45.711-2.002,81.586-1.703,104.076,0.857   c4.159,0.473,13.788,1.352,21.4,1.954c7.612,0.602,16.687,1.68,20.167,2.398c3.481,0.717,11.988,1.707,18.905,2.199   c6.917,0.492,15.419,1.374,18.893,1.958c3.474,0.586,11.898,1.573,18.72,2.194c10.084,0.918,44.513,6.016,87.275,12.921   c5.993,0.968,13.391,1.984,32.307,4.439c2.62,0.34,5.753,0.41,8.886,0.691c6.943,0.623,6.254,11.279-0.708,10.926   c-3.61-0.183-7.243-0.7-10.66-0.999c-11.681-1.022-23.786,0.773-35.573,0.318c-17.505-0.676-35.033-1.97-52.558-1.255   c-5.371,0.219-23.959,3.923-8.995,7.951c6.987,1.88,14.88,0.67,22.032,1.508c28.04,3.285,57.046,0.421,85.621,2.836   c63.862,5.398,126.41-7.225,190.133-2.767c37.661,2.635,137.896-0.342,202.777-6.022c53.542-4.688,85.444-8.83,183.146-23.779   c44.247-6.771,74.798-8.752,74.98-4.863c0.069,1.474-1.95,3.541-4.487,4.594c-13.389,5.554-192.195,37.601-243.947,43.722   c-18.512,2.189-83.235,5.238-143.83,6.775c-60.595,1.537-151.246,4.999-201.446,7.695c-93.281,5.01-157.757,4.144-218.507-2.933   c-38.411-4.474-140.614-9.714-188.197-9.648c-28.484,0.04-56.656,2.167-90.489,6.834c-76.57,10.562-226.469,15.284-236.678,7.456   C152.767,1360.343,152.834,1359.614,157.944,1352.753z M157.843,1377.506c1.408-2.635,149.279-4.818,165.739-5.72   c55.315-3.031,69.728-17.483,203.933-11.081c3.025,0.144,15.566,0.968,27.952,1.069l46.328,1.524   c13.095,0.737,28.884,1.597,35.086,1.911c6.202,0.315,15.788,0.86,21.304,1.213c5.515,0.353,17.357,1,26.314,1.437   c15.477,2.452,32.276,3.213,46.698,5.276l28.655,3.735c4.395,0.347,27.96,1.406,29.467,5.761c0.941,2.728-5.35,3.934-7.676,4.572   c-8.803,2.414-18.611,1.399-27.836,2.27c-15.776,1.489-31.125,7.292-46.765,8.607c-7.965,0.67-16.627,0.037-24.683,0.008   c-15.025-0.052-31.44,1.144-46.256-1.054c-3.803-0.564-12.555-1.39-19.449-1.833c-6.894-0.444-15.362-1.189-18.818-1.656   c-28.422-3.843-98.728-1.33-128.663,4.599c-13.664,2.706-30.996,6.051-38.515,7.432c-20.553,3.776-74.134,7.218-92.466,5.941   c-27.657-1.926-41.385-2.65-59.148-3.119c-9.432-0.249-24.193-0.697-32.802-0.996c-2.535-0.088-4.873-0.073-6.964,0.012   c-10.26-0.632-21.384-1.11-24.74-1.229c-6.646-0.237-19.013-2.984-27.483-6.104   C172.052,1394.557,155.548,1381.802,157.843,1377.506z M1113.131,1422.939l-41.088,7.468c-36.614,1.609-123.451-2.761-145.19,0.797   c-19.95,3.266-40.751,6.668-46.225,7.561c-16.011,2.611-86.431,2.717-135.363,0.203l0,0.005   c-46.267-2.377-94.125-6.695-161.12-14.536c-42.47-4.971-107.383-3.383-156.502,3.828c-60.675,8.908-160.175,7.335-216.101-3.415   c-22.245-4.276-44.493-16.145-40.259-21.478c0.524-0.659,8.917,1.512,18.652,4.825c11.647,3.964,33.042,6.764,49.079,7.635   c10.061,1.476,31.835,3.139,75.156,5.989c36.913,2.428,100.086-0.948,146.648-7.837c64.197-9.497,103.137-9.506,176.734-0.039   c31.259,4.021,43.881,3.885,154.096-1.661c123.039-6.191,269.342-16.464,321.916-3.283   C1120.994,1410.86,1120.663,1421.57,1113.131,1422.939z M1455.256,1389.012c-6.751,2.636-14.227,3.237-21.082,4.393   c-2.437,0.411-4.898,0.54-7.359,0.767c-3.926,0.361-7.539,2.368-11.455,2.813c-4.076,0.463-8.04-0.079-12.167,0.099   c-6.008,0.259-12.017,0.519-18.025,0.778c-23.294,1.006-46.638,5.635-69.743,9.107c-22.166,3.33-44.331,6.714-66.551,9.602   c-12.475,1.622-25.149,3.612-37.752,3.56c-29.408-0.121-41.974-1.441-55.25-5.802c-9.452-3.105-17.24-6.818-17.307-8.252   c-0.068-1.452,17.89-3.39,40.533-4.376c41.976-1.831,146.773-12.954,183.971-19.534c11.624-2.056,38.232-5.319,59.129-7.25   c34.627-3.201,38.163-3.077,39.891,1.396C1464.79,1383.298,1460.663,1386.901,1455.256,1389.012z M1485.108,1342.666   c-21.131,7.073-23.43,8.573-18.259,11.91c2.737,1.767,2.49,2.646-1.137,4.044c-6.722,2.592-97.244,14.363-199.047,25.885   c-32.189,3.643-160.127,8.574-203.945,7.86c-26.907-0.438-75.908-0.886-108.892-0.994c-89.44-0.294-82.433-5.06,14.502-9.864   c43.95-2.178,89.533-4.011,101.294-4.074c28.523-0.152,140.87-10.868,192.094-18.323c114.453-16.656,240.642-31.14,243.665-27.968   C1508.22,1334.12,1504.753,1336.09,1485.108,1342.666z"
   id="path16" />
</g>
</svg>