<?xml version="1.0" encoding="UTF-8" standalone="no"?>
<!-- Generator: Adobe Illustrator 25.4.1, SVG Export Plug-In . SVG Version: 6.00 Build 0)  -->

<svg
   xmlns:dc="http://purl.org/dc/elements/1.1/"
   xmlns:cc="http://creativecommons.org/ns#"
   xmlns:rdf="http://www.w3.org/1999/02/22-rdf-syntax-ns#"
   xmlns:svg="http://www.w3.org/2000/svg"
   xmlns="http://www.w3.org/2000/svg"
   xmlns:sodipodi="http://sodipodi.sourceforge.net/DTD/sodipodi-0.dtd"
   xmlns:inkscape="http://www.inkscape.org/namespaces/inkscape"
   version="1.1"
   id="Layer_1"
   x="0px"
   y="0px"
   viewBox="0 0 1600 800"
   xml:space="preserve"
   sodipodi:docname="fauxko.svg"
   inkscape:version="0.92.5 (2060ec1f9f, 2020-04-08)"
   width="1600"
   height="800"><metadata
   id="metadata297"><rdf:RDF><cc:Work
       rdf:about=""><dc:format>image/svg+xml</dc:format><dc:type
         rdf:resource="http://purl.org/dc/dcmitype/StillImage" /><dc:title /></cc:Work></rdf:RDF></metadata><defs
   id="defs295" /><sodipodi:namedview
   pagecolor="#ffffff"
   bordercolor="#666666"
   borderopacity="1"
   objecttolerance="10"
   gridtolerance="10"
   guidetolerance="10"
   inkscape:pageopacity="0"
   inkscape:pageshadow="2"
   inkscape:window-width="1848"
   inkscape:window-height="1016"
   id="namedview293"
   showgrid="false"
   inkscape:zoom="0.29036273"
   inkscape:cx="1564.5967"
   inkscape:cy="389.85708"
   inkscape:window-x="72"
   inkscape:window-y="27"
   inkscape:window-maximized="1"
   inkscape:current-layer="Layer_1" />
<g
   id="g80"
   style="fill:#454040;fill-opacity:1"
   transform="matrix(1.1395065,0,0,1.1395065,-101.95031,-511.60632)">
	<path
   style="fill:#454040;fill-opacity:1"
   d="m 830.91406,513.82617 -65.22265,16.43164 v 14.11914 l 26.41797,3.65039 v 88.00782 c -0.37201,-0.204 -0.74329,-0.42388 -1.11329,-0.67188 -2.202,-1.47 -5.27436,-1.02478 -8.56836,-1.55078 0.889,1.918 1.26138,2.72225 1.98438,4.28125 -2.032,-0.437 -3.70594,-0.27258 -4.83594,-1.14258 -3.093,-2.388 -6.01384,-2.07212 -9.08984,-0.20312 -0.601,0.365 -1.45905,0.76567 -1.99805,0.51367 -4.53,-2.101 -9.19086,-1.48681 -13.63086,-0.25781 -4.335,1.202 -8.41337,1.53832 -12.35937,-0.63868 -3.277,3.774 -4.23514,4.25419 -7.36914,1.49219 -2.461,-2.167 -4.54403,-2.08548 -6.70703,-0.14648 -2.07201,1.858 -3.87436,2.577 -6.06836,0.25 -1.322,-1.404 -2.5478,-1.36027 -4.4668,-0.0723 -2.179,1.463 -5.84181,2.44855 -7.75781,1.18555 -0.908,-0.599 -1.81006,-1.00511 -2.70703,-1.28711 v -9.05664 h 44.22265 v -22.07031 h -43.81445 l 1.4414,-50.46094 h -29.35351 l -13.91406,49.92773 -29.58594,3.82032 v 18.7832 h 27.05078 v 12.31055 c -2.499,0.621 -5.22566,-0.27375 -7.97266,0.15625 0.658,-1.311 0.97691,-1.94519 1.87891,-3.74219 -3.264,1.072 -5.55244,1.99001 -7.89844,2.54101 -1.996,0.47 -4.28278,1.32061 -6.05078,0.59961 -5.183,-2.118 -9.96755,-1.13753 -14.18555,1.23047 -2.899,-1.328 -5.32581,-2.43984 -8.38281,-3.83984 0.54,4.87 -1.76648,4.90533 -4.14648,4.86133 -2.042,-0.039 -4.10514,-0.25389 -6.11914,0.0371 -0.777,0.112 -1.50733,0.24129 -2.23633,0.27929 -15.804,-26.911 -44.2952,-41.64844 -75.1582,-41.64844 -31.111,10e-6 -59.45869,14.85774 -75.17969,41.67774 -1.866,0.073 -3.67606,0.30055 -5.41406,1.93555 -1.362,1.281 -3.4361,2.65926 -4.9961,-1.05274 -0.717,-1.704 -3.33009,-1.73728 -5.12109,0.0117 -0.854,0.835 -1.9021,1.92841 -2.8711,1.94141 -5.237,0.074 -10.57904,1.36456 -15.62304,-1.64844 -0.966,-0.577 -2.6015,-1.19086 -3.22657,-0.63086 -2.70098,2.421 -5.22721,0.77178 -7.94921,0.42578 -3.351,-0.428 -7.17633,-0.89672 -10.11133,0.61328 -4.837,2.494 -9.0123,2.11689 -13.4043,-0.66211 -0.227,-0.144 -0.69147,0.25411 -1.0664,0.41211 -0.48301,1.105 -0.97382,2.22627 -1.50782,3.44727 -0.923,-1.022 -1.87842,-1.76846 -2.85742,-2.31445 15.882,-11.65702 22.87695,-27.67921 22.87695,-44.03321 0,-39.19 -32.32418,-62.38476 -88.99218,-62.38476 h -30.89063 -24.22656 -24.76367 -30.24024 v 17.15039 l 30.72461,3.34765 c 0.565,28.999 0.60638,58.12732 0.60938,87.07032 -2.229,0.21 -4.45297,0.56034 -6.66797,1.15234 -0.709,0.191 -1.4941,-0.0561 -2.2461,-0.0801 l -24.57421,-0.75391 c -1.115,-0.028 -2.23438,0.41941 -3.35938,0.56641 -2.512,0.301 -5.02453,0.60202 -7.64453,0.91602 0.166,-1.595 0.25158,-2.42797 0.39258,-3.79297 -7.06,3.643 -13.832,5.40734 -21.125,2.65234 -2.706,-1.014 -5.94255,0.0529 -8.93555,0.21094 -1.28,0.067 -2.61717,0.60073 -3.82617,0.30273 -7.123,-1.747 -13.81203,0.98566 -20.58203,2.84766 -0.99,0.273 -2.37061,1.32584 -2.59961,2.33984 -0.876,3.875 -2.21635,8.03273 -1.77735,11.80079 0.59,5.066 0.84413,9.96682 0.20313,14.96874 -0.411,3.202 0.40286,5.34536 2.38086,5.56836 -1.079,5.14 -4.14713,9.77802 -1.45313,14.91602 1.538,2.935 1.24419,5.4372 1.11719,8.4082 -0.192,4.528 -1.60433,9.77082 4.51367,12.25782 -2.309,0.949 -3.65056,1.50131 -5.64258,2.32031 3.481,0.414 6.0746,1.40615 6.3086,6.66015 -3.279,0.984 -6.47156,1.94321 -10.10156,3.03321 0.228,2.63 0.44959,5.20892 0.68359,7.91992 2.572,-0.268 4.45489,-0.46316 6.33789,-0.66016 -1.23,-0.995 -2.49197,-1.93567 -3.66797,-3.01367 -0.404,-0.372 -0.592,-1.085 -1,-1.875 1.767,-2.696 3.76756,-2.04859 6.35156,-0.80859 -0.273,1.932 -0.53868,3.81717 -0.80468,5.70117 2.038,-1.369 4.07811,-2.74053 6.91211,-4.64453 -0.704,2.183 -1.0363,3.21095 -1.6543,5.12695 2.313,-0.224 4.08473,0.0337 5.55273,-0.65625 1.389,-0.655 2.45814,-2.30756 4.11914,-3.97656 0.167,5.466 3.60597,3.1483 5.66797,3.7793 2.288,0.7 4.99852,0.78093 7.22852,-0.0391 2.131,-0.784 3.88009,-3.07617 5.49609,-4.45117 2.588,2.608 4.51949,4.55617 6.89649,6.95117 -1.843,0.21 -3.28175,0.50277 -4.71875,0.50977 -5.119,0.029 -10.32899,-0.77314 -15.33399,0.13086 -5.15,0.931 -10.12828,1.21044 -15.23828,0.27344 -3.94,-0.723 -7.72726,0.19359 -11.82226,1.93359 2.522,3.573 5.42265,3.21255 8.22265,3.18555 9.314,-0.091 18.62536,-1.409 27.94336,0.375 2.395,0.457 4.95235,0.009 7.40235,-0.33203 4.166,-0.56801 8.23937,-1.10335 12.35937,0.47265 1.303,0.502 3.2057,0.34186 4.3457,-0.49414 2.391,-1.754 4.66696,-1.00023 7.12696,-0.86523 6.018,0.328 12.12454,0.88023 18.06054,-0.01 4.257,-0.639 8.18778,-0.27978 12.30078,0.57422 2.145,0.444 4.29336,0.87689 6.44336,1.21289 -0.057,3.854 -0.12226,7.70016 -0.19726,11.53516 l -30.73242,3.3457 v 17.15234 h 30.24023 48.99024 30.77929 v -17.15234 l -31.26172,-3.4043 c -0.075,-3.887 -0.14122,-7.78254 -0.19922,-11.68554 2.276,-0.225 4.54132,-0.94707 6.82032,-1.03907 4.336,-0.174 8.76295,0.66882 13.00195,-0.11718 6.968,-1.292 13.75867,-2.22616 20.51367,1.08984 0.802,0.394 1.86578,-0.0476 2.80078,0.0254 5.63,0.446 11.12424,-0.64402 16.70117,-1.41602 2.34601,-0.323 4.71485,-0.56356 7.08985,-0.72656 l 1.86133,8.73828 c 3.979,22.693 18.12573,30.14453 45.05273,30.14453 13.903,0 21.19181,-1.32607 33.25781,-4.45507 v -17.15235 l -28.05078,-3.13867 -2.87695,-12.24219 c 2.649,0.117 5.29259,-0.22175 7.85351,-0.59375 7.28002,-1.057 14.41097,-2.75745 21.79297,-1.18945 2.49,0.526 5.13413,0.0812 7.70313,-0.0488 l 17.85547,-1.04883 c 0.182,-0.011 0.36487,-0.027 0.54687,-0.041 15.323,26.135 42.8378,40.60351 75.0918,40.60351 32.884,0 61.27325,-15.21607 76.40625,-42.95507 0.439,-0.325 0.87287,-0.68815 1.29687,-1.11914 0.675,-0.68801 2.41466,-0.091 3.59766,0.25 5.927,1.70298 11.71675,5.45571 17.96875,1.26171 0.704,-0.471 1.89031,-0.39592 2.69531,-0.0449 5.555,2.43 11.08014,0.56539 16.61914,0.0254 1.482,-0.145 2.99152,-0.0664 4.47852,0.0606 2.325,0.2 4.64966,0.53687 6.97266,0.79687 1.548,29.034 18.81006,41.72657 46.66406,41.72657 22.546,0 38.58837,-8.81343 47.98437,-23.98243 l -8.66601,-9.32226 c -8.287,6.133 -14.91925,9.15234 -22.28125,9.15234 -9.765,0 -16.90278,-5.59051 -18.92578,-18.10351 1.169,-0.091 2.36336,-0.12305 3.56836,-0.24805 0.675,-1.061 1.44275,-2.26706 2.09375,-3.28906 3.143,0.636 4.51995,4.42314 8.00195,3.86914 8.382,-1.333 16.83211,1.43145 25.28711,-0.18555 2.754,-0.528 5.70264,-0.61644 8.43164,-0.0234 4.068,0.883 7.80855,0.7156 11.56055,-1.5664 1.046,-0.638 2.72798,-0.63103 3.83398,-0.082 6.959,3.451 14.07517,0.85356 21.07617,0.64258 -0.078,6.36399 -0.17215,12.61628 -0.28515,18.36328 l -23.79102,4.70312 v 14.92188 h 23.23047 46.14258 20.77148 v -14.92383 l -21.32617,-4.39453 c -0.128,-6.419 -0.23145,-13.48372 -0.31445,-20.63672 2.468,-0.589 5.13356,-0.89735 7.35156,-0.77735 2.838,0.152 5.86387,0.31363 8.79687,0.64063 1.979,0.222 3.98057,1.68048 5.85157,1.39648 3.548,-0.538 6.9334,-0.92734 10.5664,-0.27734 2.313,0.414 5.05408,-2.47709 7.33008,-1.99609 2.603,0.55 4.94392,2.83757 7.91992,2.64257 3.006,-0.198 6.03088,0.0405 9.04688,-0.0195 3.341,-0.066 7.00747,0.7303 10.10547,-0.0957 -0.079,6.559 -0.17597,12.99361 -0.29297,18.89063 l -23.15821,4.6289 v 14.92383 h 22.59571 46.14453 21.53711 v -14.92383 l -22.0957,-4.46875 c -0.123,-6.152 -0.22369,-12.89772 -0.30469,-19.76172 1.335,0.1 2.67086,0.19658 4.00586,0.26758 1.9,0.102 3.41076,-2.13719 5.75976,-0.74219 1.632,0.968 3.9751,0.26102 5.9961,0.16602 6.519,-0.31 12.80607,-3.24158 19.58007,-1.51758 3.528,0.898 7.44846,-0.45645 11.18946,-0.81445 0.738,-0.07 1.5544,-0.54002 2.1914,-0.29102 5.96196,2.337 11.90756,0.98417 17.85356,0.28321 -0.089,7.51999 -0.2056,15.01492 -0.3497,22.04492 l -24.91597,4.83398 v 14.92188 h 24.38477 46.1445 23.9825 v -14.92383 l -24.5098,-4.57617 c -0.146,-7.101 -0.2616,-14.70744 -0.3516,-22.39844 5.834,0.248 11.68,0.87726 17.461,-1.17774 1.395,-0.495 3.2016,-0.7105 4.4726,-0.0625 6.996,3.564 14.375,-0.75153 21.459,1.73047 0.505,0.177 1.0654,0.0953 1.6504,-0.0937 l 22.7246,41.5 h 61.5996 v -14.92382 l -23.9492,-5.20118 -12.9961,-22.94531 c 2.018,-0.058 4.0377,0.0765 6.0977,0.18945 6.786,0.368 13.6557,0.61357 20.3847,-0.27343 5.01,-0.661 10.1112,2.11514 14.9942,-0.88086 0.372,-0.227 1.0632,0.46242 1.6132,0.48242 2.607,0.102 5.2182,0.18153 7.8262,0.14453 0.528,-0.007 1.056,-0.0367 1.584,-0.0527 14.121,31.174 43.8253,48.60937 79.2363,48.60937 36.65,0 67.7144,-18.90256 81.0684,-52.97656 1.202,0.013 2.4174,0.243 3.6484,0.5 3.433,0.717 6.7073,0.64045 9.7403,-2.18555 0.976,-0.909 3.138,-1.29556 4.123,-0.60156 4.101,2.891 7.1968,1.27998 10.0918,-2.41602 -0.384,-0.878 -0.7707,-1.76531 -1.1777,-2.69531 2.213,-0.798 3.9556,-1.42683 4.6406,-1.67383 4.798,0.172 2.1715,7.53878 6.7715,7.55078 -0.019,-3.117 -1.9218,-6.38609 1.3222,-8.12109 3.722,1.876 7.4012,3.02705 11.2032,0.24805 -1.329,-6.567 -8.2463,-1.74472 -10.0703,-8.38672 4.507,1.368 5.7575,-3.38941 8.8945,-4.81641 -1.147,-1.346 -1.8839,-2.21186 -2.8809,-3.38086 3.496,-2.037 6.62,-2.84845 10.127,-1.93945 2.683,0.694 5.6412,-1.86833 5.3222,-3.98633 -1.202,-1.216 -2.3417,-2.36772 -4.0918,-4.13672 3.3807,-0.762 5.7209,-1.2889 8.3379,-1.8789 -0.077,-2.381 -0.1383,-4.30718 -0.1953,-6.07618 -6.675,-2.516 -11.9887,-2.85376 -18.5527,-1.13476 -1.061,-2.082 -2.2135,-4.34285 -3.1035,-6.08984 1.486,-1.93602 2.6207,-3.41543 3.3437,-4.35743 3.098,0.549 6.1244,1.0851 9.1504,1.6211 l 0.074,0.0781 v -0.0957 l -0.047,0.01 c -2.099,-3.9 -4.0461,-8.03371 -8.9551,-7.51171 1.754,-5.873 5.4098,-2.32511 7.8828,-3.28711 -0.077,-2.349 -0.15,-4.60814 -0.252,-7.74414 5.661,-0.283 11.0275,0.62667 15.7305,-1.11133 4.81,-1.78 10.4977,1.39997 14.7617,-3.58203 -1.605,-4.057 -4.6366,-3.435 -7.0586,-4.125 -2.483,-0.71 -5.0793,-0.84757 -7.5683,-1.22657 -0.637,0.612 -1.6021,2.21883 -2.2481,2.04883 -3.618,-0.954 -7.5103,-1.07689 -10.6953,-4.21289 2.226,-1.024 4.4017,-1.50976 6.5957,-1.75976 2.066,-0.234 4.3122,0.81418 7.3242,-1.88282 -2.512,-0.075 -3.7775,-0.002 -5.0195,-0.17578 -2.977,-0.419 -6.0678,-0.47769 -8.8848,-1.55469 -4.288,-1.639 -8.4288,-3.67073 -13.0488,-3.55273 -0.949,0.024 -1.9108,-0.82847 -3.3008,-1.48047 1.852,-2.799 3.4941,-3.45939 6.0801,-3.44141 4.017,0.028 8.062,-1.06834 12.041,-2.02734 0.775,-0.186 1.2995,-1.9178 2.2735,-3.4668 -3.941,-1.748 -7.3004,-3.94467 -10.8594,-4.63867 -4.433,-0.862 -9.0427,-0.75911 -13.5567,-0.53711 -2.4384,0.121 -4.1038,-0.44778 -6.0468,-2.42578 -4.59,-4.67 -11.2229,-3.25861 -14.4629,2.52539 -10.255,-4.429 -10.254,-4.43068 -13.793,-2.42969 1.564,1.05401 2.8811,1.94318 4.7481,3.20118 -3.159,1.559 -4.5897,-0.66908 -6.3067,-1.83008 -1.428,-0.966 -2.9102,-2.59299 -4.3652,-2.58399 -5.655,0.035 -11.309,0.59468 -16.9609,1.01368 -0.1187,0.01 -0.2009,0.70312 -0.2989,1.07812 l 4.1641,1.17578 c -1.424,0.637 -2.8484,1.09727 -4.2754,1.44727 -16.156,-15.678 -38.0929,-24.06641 -61.3789,-24.06641 -21.539,0 -41.7522,7.1233 -57.3692,20.4043 -0.971,0.027 -1.9447,0.0592 -2.9277,0.0762 -0.241,0.004 -0.4774,0.51816 -0.8164,0.91016 0.605,0.177 1.1322,0.33137 1.6582,0.48437 0.096,0.029 0.1999,0.0567 0.2969,0.0957 -0.366,0.33 -0.7318,0.65909 -1.0918,0.99609 -3.3,0.455 -6.4522,0.15123 -9.5762,-2.13477 -2.312,-1.693 -5.2143,-1.61811 -7.4863,0.71289 -2.767,2.838 -5.5927,1.76124 -8.5117,0.74024 -0.908,-0.317 -1.8969,-0.69274 -2.7989,-0.55274 -2.961,0.456 -5.8985,1.15213 -8.8515,1.70313 -0.267,0.049 -0.5812,-0.29345 -1.0742,-0.56445 1.197,-0.467 2.2191,-0.86568 3.2421,-1.26368 l -0.3476,-1.34179 -7.9668,2.67578 c -1.274,0.426 -2.1563,1.63764 -3.7774,-0.44336 -1.0422,-1.338 -4.5972,-1.24541 -6.1132,-0.0664 -0.975,0.758 -1.3019,1.85891 -2.7539,1.25391 -0.755,-0.314 -1.8171,-0.25861 -2.5411,0.15039 -2.806,1.581 -5.4971,1.3123 -8.2031,-0.2207 -0.04,-0.022 -0.081,-0.0366 -0.1211,-0.0586 l 22.709,-3.32812 v -15.08008 h -13.0195 -25.6231 -46.3359 v 15.08008 l 25.9687,5.46093 -1.0859,1.09766 c -1.677,0.113 -3.3517,0.1792 -5.0137,0.0332 -3.253,-0.287 -4.2943,1.66769 -4.6093,4.67969 -6.092,0.538 -6.0705,0.50055 -11.3125,-3.56445 -0.734,-0.569 -1.8003,-0.7707 -2.6973,-0.7207 -2.562,0.145 -5.1155,0.50811 -7.6875,0.7871 0.201,1.82601 0.313,2.85655 0.459,4.18555 -5.568,0.271 -10.8105,0.52667 -15.6875,0.76367 -1.274,-1.898 -2.2539,-3.3572 -3.5469,-5.2832 -2.121,3.615 -3.6709,7.4212 -7.2559,6.6582 -0.838,-0.179 -1.6747,-0.30892 -2.5097,-0.41992 V 568.5957 l 1.4609,-51.44726 -5.5137,-3.32227 -66.31831,16.43164 v 14.11914 l 26.41991,3.65039 v 89.10157 c -3.66,-0.116 -7.3205,-0.21768 -10.9805,-0.26368 -4.68968,-0.057 -9.2548,1.95299 -14.0898,0.83399 -3.35,-0.777 -7.25449,1.05958 -9.39649,-3.98242 -0.231,-0.544 -1.33973,-0.7101 -2.05273,-0.7461 -2.07,-0.107 -4.14711,-0.0613 -6.16211,-0.0723 -1.455,4.085 -3.91745,6.00586 -5.56445,4.38086 0.194,-1.183 0.3944,-2.40289 0.6914,-4.21289 -2.041,0.301 -3.64178,0.53778 -5.42578,0.80078 0.424,1.467 0.706,2.44648 1.125,3.89843 -2.3,0.111 -4.36903,0.20941 -6.58203,0.31641 0.297,-1.711 0.47589,-2.74367 0.58789,-3.38867 -3.052,-1.992 -5.96058,-2.584 -9.26758,-1.125 -2.175,0.961 -4.69051,0.48659 -5.35351,-3.31641 -0.071,0.034 -0.13805,0.0743 -0.20703,0.11133 -7.66603,-19.74 -22.90194,-28.85156 -44.33594,-28.85156 -22.105,0 -43.43519,10.66339 -62.49219,32.27539 V 568.5957 l 1.45898,-51.44726 z m -544.51758,44.36328 h 23.61719 c 33.818,0 49.98047,15.45603 49.98047,45.45703 0,26.493 -14.96797,47.66993 -52.79297,47.66993 h -21.43555 c 0,-33.013 0.0229,-63.07096 0.63086,-93.12696 z m 246.79688,61.09375 c 14.525,0 25.44672,7.74057 32.26172,23.35157 -1.79,-0.627 -3.55681,-1.42593 -5.38281,-1.79493 -4.092,-0.828 -8.4385,0.16905 -12.8125,0.37305 -1.703,3.449 -3.38186,4.7023 -5.38086,2.5293 -4.712,-5.116 -10.20485,-2.45921 -14.58985,-1.28321 -4.93,1.327 -9.10192,1.77018 -13.29492,-1.04882 -3.323,3.704 -3.96583,3.89764 -8.29883,2.68164 -1.613,-0.454 -3.24756,-1.27157 -4.85156,-1.60157 6.743,-15.513 17.61161,-23.20703 32.34961,-23.20703 z M 1308.793,735.29883 c 1.7714,-0.065 3.5464,0.22739 5.3261,1.30664 0.598,0.364 1.4901,0.0211 2.2461,-0.006 l 2.0899,-0.0781 c -6.241,21.819 -18.4063,32.33008 -35.6563,32.33008 -17.185,0 -29.1083,-10.07098 -35.3633,-30.95898 2.223,-0.194 4.4489,-0.51383 6.6739,-0.54883 l 31.1875,-0.27148 c 4.885,-0.061 9.7674,-0.27408 14.6504,-0.45508 2.9487,-0.10875 5.8933,-1.21 8.8457,-1.31836 z m -742.86722,9.61914 c -6.778,16.122 -17.86542,23.93359 -32.73242,23.93359 -15.04,0 -26.05177,-7.71558 -32.75977,-23.64258 0.293,0.222 0.58753,0.44574 0.89453,0.67774 9.28901,-1.097 19.64169,1.01597 30.05469,-0.45703 6.253,-0.883 12.73605,0.88059 19.12305,1.05859 4.496,0.125 9.2025,0.44363 13.4375,-0.98437 0.68,-0.229 1.33742,-0.42694 1.98242,-0.58594 z m 497.93752,68.46094 -66.31838,16.43164 v 14.11914 l 26.41988,3.65039 v 156.77152 c 0,16.904 -0.1904,38.5039 -0.5664,56.9179 l -24.91598,4.834 v 14.9238 h 24.38478 46.1445 23.9824 v -14.9238 l -24.5078,-4.5762 c -0.327,-15.958 -0.5126,-34.4696 -0.5586,-50.7656 l 19.2129,-18.78514 48.7598,89.04884 h 61.5976 v -14.9219 l -23.9472,-5.2031 -55.9219,-98.73634 36.7852,-35.96679 33.457,-4.90039 v -15.08204 h -13.0195 -25.6231 -46.334 v 15.08204 l 25.9688,5.45898 -60.9473,61.47461 V 868.14648 l 1.461,-51.44531 z m -856.23439,25.42578 v 17.15039 l 30.72656,3.34765 c 0.601,30.875 0.61133,61.90346 0.61133,92.68946 v 15.8457 c 0,31.276 -0.0105,62.29841 -0.60547,92.69141 l -30.73242,3.3477 v 17.1484 h 30.24023 49.52539 32.92188 v -17.1484 l -33.41993,-3.6407 c -0.587,-30.438 -0.5957,-61.37538 -0.5957,-93.94138 h 48.8457 l 4.97657,35.11918 h 18.84375 v -86.16605 h -18.84375 l -4.73438,31.83789 h -49.08789 c 0.002,-29.968 0.042,-59.6873 0.625,-88.82032 h 75.25391 l 7.68554,44.45704 h 25.54102 l -2.55664,-63.91797 H 287.39648 262.63477 237.86914 Z m 276.66601,62.25976 c -44.688,0 -72.91369,18.90219 -77.30469,47.99219 1.802,10.603 9.11699,16.48242 20.58399,16.48242 12.003,0 20.69734,-7.85115 22.77734,-25.41015 l 4.27344,-20.14063 c 5.8,-0.978 10.75878,-1.28711 15.30078,-1.28711 23.696,0 31.9082,9.16608 31.9082,43.20508 v 10.39453 c -12.607,3.255 -25.42495,6.94752 -34.75195,9.97852 -52.68,17.088 -65.37695,34.4567 -65.37695,57.7187 0,30.172 20.93458,46.1778 48.39258,46.1778 23.172,0 35.05565,-9.6982 53.09765,-28.0352 4.17,17.11 16.7943,27.3399 36.1543,27.3399 17.373,0 28.84052,-6.2188 37.60351,-23.1758 l -8.50976,-7.2305 c -4.151,5.416 -7.62886,8.0332 -12.63086,8.0332 -6.789,0 -10.83008,-4.6369 -10.83008,-16.3769 v -79.68362 c 0,-47.48001 -18.3875,-65.98243 -60.6875,-65.98243 z m 807.99808,0 c -47.217,0 -88.0742,34.21483 -88.0742,92.54883 0,58.33202 38.4452,92.56252 88.0742,92.56252 49.033,0 88.0732,-33.8275 88.0722,-92.56252 0,-58.737 -41.3182,-92.54883 -88.0722,-92.54883 z m -645.13675,2.28711 -63.70117,7.69532 v 14.12109 l 23.51758,5.1582 -1.13672,90.12503 c -0.499,48.198 19.0969,65.7226 49.3789,65.7226 23.109,0 44.45861,-11.3607 62.09961,-33.7597 l 3.02344,32.0683 62.29102,-3.3222 v -14.9239 l -22.11133,-4.6972 V 958.52344 l 1.0957,-51.38672 -4.72266,-3.78516 -62.4375,8.36524 v 13.45117 l 22.99805,5.12695 -1.08398,104.64258 c -13.001,12.446 -27.98431,20.7187 -41.69531,20.7187 -16.195,8e-4 -24.61524,-9.3087 -24.61524,-36.8457 v -60.28706 l 1.82422,-51.38672 z m 151.0293,2.86133 v 15.08203 l 22.83203,3.55664 47.9668,73.89258 -48.39844,63.05666 -24.28516,4.3008 v 14.9238 h 9.5293 24.95117 36.76367 v -14.9238 l -23.0332,-4.2461 34.37109,-47.9961 32.09961,48.6269 -21.87109,3.6153 v 14.9238 h 34.10937 50.88086 11.44727 v -14.9238 l -24.22656,-4.375 -49.90821,-75.38285 47.47656,-60.98828 21.07032,-4.06055 v -15.08203 h -6.16992 -25.28125 -34.64649 v 15.08203 l 20.78711,4.23438 -33.0293,46.03906 -31.21484,-46.98438 19.36523,-3.28906 v -15.08203 h -31.56836 -49.28515 z m 494.10745,12.625 c 26.003,0 40.4707,24.77669 40.4707,75.17969 0,50.53502 -14.4677,74.38862 -40.4707,74.38862 -26.466,1e-4 -40.4707,-23.8536 -40.4707,-74.38862 0,-50.403 14.0047,-75.17969 40.4707,-75.17969 z m -790.45902,68.21289 v 57.53512 c -15.885,11.367 -22.26718,14.9063 -31.74218,14.9063 -14.517,0 -25.68946,-8.0688 -25.68946,-26.8848 0,-13.939 7.27027,-27.0078 31.82227,-36.83982 6.184,-2.657 15.56437,-5.7988 25.60937,-8.7168 z"
   id="path2"
   inkscape:connector-curvature="0"
   sodipodi:nodetypes="cccccccccccccccccccccccccccccccccccccccscccccccccccccssccccccccccccccccccccccccccccccccccccccccccccccccccccccccccccccccccccccscccccccccsccccccccsccsccccccccccccccccccccccccccccccccccccccccccccccccccccccccccccccccccscccccccccccccccccccccccccccccccccccccccccccccccccccccccsccccccccccccccccccccccccccccccccccccccccccccccccccccccccccccscccccsssccsccccccccsccccscccccccsccccccccccsccccccccccccccccccccccccccccccsscccccccccccccccccccccccccscsccssccsscsccssssssscscccccscccccccccccccsccccccccccccccccccccccccccccccccccccccccsscssccsscc" />
	<polygon
   style="fill:#454040;fill-opacity:1"
   points="141.564,677.319 141.654,678.465 143.969,677.964 143.9,677.244 "
   id="polygon4" />
	<path
   style="fill:#454040;fill-opacity:1"
   d="m 210.013,738.347 0.045,-1.819 c -4.444,0.172 -8.888,0.344 -14.372,0.557 5.342,3.101 9.86,1.623 14.327,1.262 z"
   id="path6"
   inkscape:connector-curvature="0" />
	<path
   style="fill:#454040;fill-opacity:1"
   d="m 221.248,737.203 c 0.427,0.947 0.854,1.895 1.666,3.697 0.62,-2.058 0.918,-3.046 1.217,-4.035 l -0.726,-1.044 z"
   id="path8"
   inkscape:connector-curvature="0" />
	<path
   style="fill:#454040;fill-opacity:1"
   d="m 199.185,742.574 c 0.328,0.317 0.624,0.737 0.998,0.894 0.132,0.055 0.45,-0.537 0.682,-0.835 l -0.749,-0.686 z"
   id="path10"
   inkscape:connector-curvature="0" />
	<path
   style="fill:#454040;fill-opacity:1"
   d="m 235.997,735.699 c -3.392,1.358 -6.767,2.933 -9.17,6.898 0.79,0.386 1.2,0.795 1.477,0.69 3.271,-1.254 6.543,-2.515 9.751,-3.979 0.273,-0.124 0.532,-0.94 0.655,-1.549 0.003,-0.237 0.004,-0.475 0.007,-0.711 -0.848,-0.654 -1.992,-1.639 -2.72,-1.349 z"
   id="path12"
   inkscape:connector-curvature="0" />
	<path
   style="fill:#454040;fill-opacity:1"
   d="m 309.017,738.215 0.513,1.55 5.137,-2.289 c -2.08,-0.506 -4.326,-1.962 -5.65,0.739 z"
   id="path14"
   inkscape:connector-curvature="0" />
	<path
   style="fill:#454040;fill-opacity:1"
   d="m 333.608,736.65 c 0.043,0.349 0.065,0.996 0.13,1.001 1.039,0.104 2.085,0.141 3.128,0.143 0.12,0 0.243,-0.272 0.644,-0.753 -0.428,-0.369 -0.569,-0.595 -0.702,-0.589 -1.067,0.044 -2.133,0.127 -3.2,0.198 z"
   id="path16"
   inkscape:connector-curvature="0" />
	<polygon
   style="fill:#454040;fill-opacity:1"
   points="197.343,722.028 193.122,722.192 193.143,723.263 197.363,723.1 "
   id="polygon18" />
	<path
   style="fill:#454040;fill-opacity:1"
   d="m 287.288,737.641 c 0.265,0.196 0.516,0.433 0.802,0.559 0.089,0.039 0.403,-0.308 0.387,-0.345 -0.13,-0.331 -0.312,-0.631 -0.481,-0.939 z"
   id="path20"
   inkscape:connector-curvature="0" />
	<path
   style="fill:#454040;fill-opacity:1"
   d="m 290.9,740.429 c 2.828,-1.148 4.526,-1.838 6.225,-2.528 -1.985,-0.353 -4.165,-1.409 -6.225,2.528 z"
   id="path22"
   inkscape:connector-curvature="0" />
	<path
   style="fill:#454040;fill-opacity:1"
   d="m 187.155,737.434 c 0.809,0.802 1.619,1.606 2.391,2.372 -0.523,1.279 -0.915,2.237 -1.566,3.827 4.26,-0.972 4.104,-3.75 3.497,-7.658 -1.676,0.566 -3.002,1.013 -4.322,1.459 z"
   id="path24"
   inkscape:connector-curvature="0" />
	<path
   style="fill:#454040;fill-opacity:1"
   d="m 152.93,708.561 c -0.593,0.018 -1.179,0.456 -2.184,0.903 0.86,0.776 1.35,1.519 1.64,1.419 0.603,-0.21 1.101,-0.869 1.641,-1.342 -0.367,-0.347 -0.738,-0.991 -1.097,-0.98 z"
   id="path26"
   inkscape:connector-curvature="0" />
	<polygon
   style="fill:#454040;fill-opacity:1"
   points="171.74,686.394 169.724,685.934 169.617,687.024 171.684,687.243 "
   id="polygon28" />
	<polygon
   style="fill:#454040;fill-opacity:1"
   points="160.604,708.849 160.757,710.014 163.169,709.55 163.014,708.385 "
   id="polygon30" />
	<path
   style="fill:#454040;fill-opacity:1"
   d="m 140.736,689.108 1.876,1.269 c 0.135,-0.354 0.423,-0.996 0.387,-1.023 -0.586,-0.451 -1.211,-0.827 -1.828,-1.22 z"
   id="path32"
   inkscape:connector-curvature="0" />
	<polygon
   style="fill:#454040;fill-opacity:1"
   points="171.294,702.862 165.456,702.665 165.352,703.988 171.177,704.975 "
   id="polygon34" />
	<path
   style="fill:#454040;fill-opacity:1"
   d="m 169.703,721.431 c 4.712,1.797 7.503,1.696 11.954,-0.732 -4.409,-0.595 -8.224,-1.311 -11.954,0.732 z"
   id="path36"
   inkscape:connector-curvature="0" />
	<path
   style="fill:#454040;fill-opacity:1"
   d="m 344.418,738.081 c 0.468,-0.376 0.854,-0.902 1.268,-1.377 -0.688,0.03 -1.376,0.061 -2.686,0.118 0.916,0.827 1.325,1.334 1.418,1.259 z"
   id="path38"
   inkscape:connector-curvature="0" />
	<path
   style="fill:#454040;fill-opacity:1"
   d="m 179.065,736.659 c 3.472,2.465 5.728,2.299 7.943,0.773 -2.24,-1.79 -4.488,-1.193 -7.943,-0.773 z"
   id="path40"
   inkscape:connector-curvature="0" />
	<path
   style="fill:#454040;fill-opacity:1"
   d="m 165.696,723.76 3.815,-2.301 c -1.769,-1.297 -3.239,-1.227 -3.815,2.301 z"
   id="path42"
   inkscape:connector-curvature="0" />
	<polygon
   style="fill:#454040;fill-opacity:1"
   points="871.773,639.112 873.23,640.826 874.034,639.876 872.218,638.4 "
   id="polygon44" />
	<path
   style="fill:#454040;fill-opacity:1"
   d="m 1397.656,709.223 c 0.4,-0.158 0.719,-0.617 1.072,-0.951 -0.364,-0.347 -0.729,-0.694 -1.321,-1.259 -0.264,0.724 -0.523,1.185 -0.557,1.668 -0.012,0.168 0.593,0.626 0.806,0.542 z"
   id="path46"
   inkscape:connector-curvature="0" />
	<path
   style="fill:#454040;fill-opacity:1"
   d="m 1396.621,638.197 c -1.474,0.073 -2.63,0.13 -4.848,0.24 2.571,2.505 3.763,2.37 4.848,-0.24 z"
   id="path48"
   inkscape:connector-curvature="0" />
	<path
   style="fill:#454040;fill-opacity:1"
   d="m 1394.904,624.585 c -4.703,-2.707 -5.485,-2.731 -8.829,0.652 3.421,0.332 6.03,0.586 8.641,0.839 z"
   id="path50"
   inkscape:connector-curvature="0" />
	<path
   style="fill:#454040;fill-opacity:1"
   d="m 1145.739,626.525 c 1.74,0.381 3.496,0.018 5.369,-0.6 l -0.594,-0.1 z"
   id="path52"
   inkscape:connector-curvature="0" />
	<path
   style="fill:#454040;fill-opacity:1"
   d="m 1386.985,715.075 c -5.228,0.397 -10.669,4.011 -15.564,-1.968 -0.843,0.811 -1.641,1.581 -2.424,2.335 -0.284,1.553 -0.598,3.084 -0.944,4.591 l 8.605,0.34 c 3.733,0.147 7.468,0.252 11.199,0.455 1.302,0.069 2.814,0.989 3.853,0.449 3.045,-1.584 5.392,-0.35 7.508,2.275 1.032,-2.45 1.863,-4.42 3.056,-7.25 -1.92,-0.836 -3.551,-2.118 -5.196,-2.143 -3.36,-0.047 -6.723,0.659 -10.093,0.916 z"
   id="path54"
   inkscape:connector-curvature="0" />
	<path
   style="fill:#454040;fill-opacity:1"
   d="m 1417.406,648.23 c -5.769,0.673 -10.527,1.229 -15.53,1.813 4.431,4.084 9.886,3.662 15.53,-1.813 z"
   id="path56"
   inkscape:connector-curvature="0" />
	<polygon
   style="fill:#454040;fill-opacity:1"
   points="1079.32,705.111 1079.33,705.99 1081.513,706 1081.503,705.005 "
   id="polygon58" />
	<path
   style="fill:#454040;fill-opacity:1"
   d="m 1401.571,686.514 c 1.403,-1.806 2.204,-2.837 3.601,-4.635 -3.144,-0.162 -3.91,0.908 -3.601,4.635 z"
   id="path60"
   inkscape:connector-curvature="0" />
	<path
   style="fill:#454040;fill-opacity:1"
   d="m 1402.972,696.425 c -1.197,0.907 -2.166,1.641 -3.135,2.376 3.011,0.85 3.011,0.85 3.135,-2.376 z"
   id="path62"
   inkscape:connector-curvature="0" />
	<path
   style="fill:#454040;fill-opacity:1"
   d="m 989.089,663.246 c 5.844,-2.239 11.604,0.297 17.507,-3.077 -6.031,-3.803 -14.809,-2.388 -17.507,3.077 z"
   id="path64"
   inkscape:connector-curvature="0" />
	<path
   style="fill:#454040;fill-opacity:1"
   d="m 1014.47,659.171 c -0.759,-0.074 -1.518,-0.174 -2.281,-0.331 -1.002,-0.206 -2.098,0.254 -3.381,0.44 1.599,2.637 3.562,4.18 5.662,4.534 z"
   id="path66"
   inkscape:connector-curvature="0" />
	<path
   style="fill:#454040;fill-opacity:1"
   d="m 1092.115,633.468 c 0.393,-0.289 0.714,-0.723 1.059,-1.107 -0.322,-0.184 -0.658,-0.537 -0.962,-0.499 -0.277,0.036 -0.518,0.496 -0.776,0.771 0.235,0.294 0.617,0.881 0.679,0.835 z"
   id="path68"
   inkscape:connector-curvature="0" />
	<path
   style="fill:#454040;fill-opacity:1"
   d="m 980.457,660.39 c 1.805,0.882 3.213,1.569 4.619,2.256 -1.411,-3.789 -1.411,-3.789 -4.619,-2.256 z"
   id="path70"
   inkscape:connector-curvature="0" />
	
	<path
   style="fill:#454040;fill-opacity:1"
   d="m 959.607,661.44 c -1.846,-0.37 -3.246,-0.651 -4.645,-0.932 1.105,2.933 2.571,3.755 4.645,0.932 z"
   id="path74"
   inkscape:connector-curvature="0" />
	<polygon
   style="fill:#454040;fill-opacity:1"
   points="1069.562,659.523 1069.325,658.206 1065.997,659.089 1066.205,660.276 "
   id="polygon76" />
	<polygon
   style="fill:#454040;fill-opacity:1"
   points="994.581,692.738 995.22,692.725 995.286,690.071 994.497,690.078 "
   id="polygon78" />
</g>
<g
   id="g88"
   style="fill:#231f20;fill-opacity:1"
   transform="matrix(1.1395065,0,0,1.1395065,-100.45092,-946.9815)">
	
	<polygon
   style="fill:#231f20;fill-opacity:1"
   points="1292.03,622.584 1292.089,621.277 1286.912,621.534 "
   id="polygon84" />
	
</g>


</svg>