<?xml version="1.0" encoding="utf-8"?>
<!-- Generator: Adobe Illustrator 25.4.1, SVG Export Plug-In . SVG Version: 6.00 Build 0)  -->
<svg version="1.1" id="Layer_1" xmlns="http://www.w3.org/2000/svg" xmlns:xlink="http://www.w3.org/1999/xlink" x="0px" y="0px"
	 viewBox="0 0 780 220" style="enable-background:new 0 0 780 220;" xml:space="preserve">
<style type="text/css">
	.st0{fill:#F6F6F6;stroke:#30303B;stroke-miterlimit:10;}
	.st1{fill:#3853A4;}
	.st2{fill:#EC2326;}
	.st3{fill:#EC2326;stroke:#30303B;stroke-miterlimit:10;}
	.st4{fill:#F6EB1C;}
	.st5{fill:#30303B;stroke:#30303B;stroke-miterlimit:10;}
	.st6{fill:#EC2326;stroke:#30303B;stroke-width:0.25;stroke-miterlimit:10;}
	.st7{fill:#30303B;}
</style>
<g>
	<rect x="4.1" y="121.8" class="st0" width="478.4" height="93.2"/>
	<path class="st0" d="M210,17.5C201.5,8.5,190,3,177.1,3c-3.1,0-6.2,0.3-9.2,1c-3-0.6-6.1-1-9.2-1c-12.7,0-24.5,5.5-32.8,14.5
		c-8.3,8.9-13.6,21.2-13.6,34.8c0,13.6,5.3,25.9,13.6,34.8c8.3,9,20,14.5,32.8,14.5c3.2,0,6.3-0.3,9.2-1c3,0.6,6,1,9.2,1
		c12.9,0,24.4-5.5,32.9-14.5c8.3-8.9,13.7-21.2,13.7-34.8C223.6,38.8,218.3,26.4,210,17.5z M190.1,19.2c2.2,2.4,4.2,5,5.9,7.8h-4.5
		h-51.7c1.7-2.8,3.7-5.5,5.9-7.8c6-6.4,13.6-11,22.2-12.9C176.5,8.2,184.2,12.8,190.1,19.2z M167.9,98.4
		c-8.5-1.9-16.2-6.5-22.2-12.9c-1.9-2.1-3.7-4.3-5.3-6.7h54.9c-1.5,2.4-3.3,4.7-5.2,6.7C184.2,91.9,176.5,96.5,167.9,98.4z"/>
	<path class="st0" d="M103.5,4.4H103H85.9h-2.1h-0.1L53.6,48.8l-30-44.5h-1.8h-0.4H4.2H3.1H2v95.9h0.1v0h19.7v0h1.6V36.4L43,65.6
		h1.8l0,0h17.6l0,0h1.8l19.6-29.2v40.1v2.3v19.6v2v0.3h21.4v-0.3v-2V78.7v-2.3V4.4H103.5z"/>
	<rect x="199.9" y="122.2" class="st1" width="21.6" height="45.4"/>
	<rect x="84.8" y="167.5" class="st2" width="95.8" height="47.4"/>
	<rect x="3.1" y="122.2" class="st1" width="80.7" height="93.7"/>
	<polygon class="st3" points="122.4,80.8 132.7,92.3 145.2,98.4 159.2,100.1 167.9,99.5 156.8,95.2 143,83.9 138.4,76.5 119.9,76.5 
			"/>
	<path class="st4" d="M197.7,76.7H139c-5.8-9.2-8.2-18.3-6.2-25.1H204C204,51.5,204.4,65.4,197.7,76.7z"/>
	<path class="st4" d="M132.2,48.4l2.4-12.4l6.3-12.7l7.4-8.3l8.5-5.6c0,0,5.9-2.5,6-2.5c0,0,4.6-1.7,4.6-1.7l-4-0.6h-8.8l-4.8,0.6
		l-6.7,1l-5.3,3.5c0,0-5.9,4.1-6.2,4.5c-0.3,0.3-5,4.8-5,4.8l-5.5,8.1l-4.9,8.6l-2.3,7.6l-1.4,7.3l0.4,1.7h19.7L132.2,48.4z"/>
	<g>
		<polygon class="st1" points="22.2,77.6 2.7,77.6 2.7,5.2 22.2,32 		"/>
		<rect x="84.8" y="77.6" class="st2" width="19.5" height="22.7"/>
		<polygon class="st4" points="54.8,50.7 63,63.8 84.8,33.8 84.8,5.9 82,8 		"/>
	</g>
	<path class="st1" d="M169.9,5.2l6.4-1.4l12.6,1.4l4.7,1.4l8.6,5.3l7.8,7l6,7.7c0,0-0.2,1.3-0.8,1.6c-0.6,0.3-13.9,0-13.9,0h-3.9
		c0,0-2.1-4-2.3-4.3c-0.2-0.3-3.6-5.2-3.5-5.8c0-0.5-7-5-7-5l-7-3.6L169.9,5.2z"/>
	<path class="st5" d="M210,17.5C201.5,8.5,190,3,177.1,3c-3.1,0-6.2,0.3-9.2,1c-3-0.6-6.1-1-9.2-1c-12.7,0-24.5,5.5-32.8,14.5
		c-8.3,8.9-13.6,21.2-13.6,34.8c0,13.6,5.3,25.9,13.6,34.8c8.3,9,20,14.5,32.8,14.5c3.2,0,6.3-0.3,9.2-1c3,0.6,6,1,9.2,1
		c12.9,0,24.4-5.5,32.9-14.5c8.3-8.9,13.7-21.2,13.7-34.8C223.6,38.8,218.3,26.4,210,17.5z M177.1,5.2c12.2,0,23.4,5.3,31.5,14
		c2.2,2.4,4.2,5,5.9,7.8h-15.9c-2-3.5-4.3-6.6-7-9.5C186.4,12,180.1,7.8,173,5.4C174.4,5.3,175.7,5.2,177.1,5.2z M196.8,76.5h-57.6
		c-3.9-6.9-6.3-15-6.4-23.7H203C202.9,61.4,200.7,69.5,196.8,76.5z M132.8,50.6c0.3-7.8,2.3-15,5.7-21.3h53h5.8
		c3.4,6.3,5.4,13.5,5.6,21.3H132.8z M190.1,19.2c2.2,2.4,4.2,5,5.9,7.8h-4.5h-51.7c1.7-2.8,3.7-5.5,5.9-7.8c6-6.4,13.6-11,22.2-12.9
		C176.5,8.2,184.2,12.8,190.1,19.2z M127.3,19.2c8.1-8.6,19.1-14,31.4-14c1.4,0,2.7,0.1,4.1,0.2c-7,2.4-13.4,6.6-18.5,12.1
		c-8,8.5-13.2,20.2-13.6,33.1h-16.3C114.8,38.3,119.8,27.3,127.3,19.2z M114.3,52.7h16.3c0.1,8.6,2.3,16.7,6,23.7h-16
		C116.8,69.5,114.4,61.4,114.3,52.7z M158.7,99.5c-12.2,0-23.3-5.3-31.4-14c-1.9-2.1-3.7-4.3-5.3-6.7H138c1.8,3,4,5.9,6.3,8.4
		c5.1,5.5,11.4,9.7,18.5,12.1C161.4,99.4,160.1,99.5,158.7,99.5z M167.9,98.4c-8.5-1.9-16.2-6.5-22.2-12.9c-1.9-2.1-3.7-4.3-5.3-6.7
		h54.9c-1.5,2.4-3.3,4.7-5.2,6.7C184.2,91.9,176.5,96.5,167.9,98.4z M208.6,85.5c-8.1,8.6-19.2,14-31.5,14c-1.4,0-2.7-0.1-4.1-0.2
		c7.1-2.4,13.4-6.6,18.6-12.1c8.3-8.9,13.6-21.2,13.6-34.8c0-8.3-2-16.2-5.5-23h16c3.6,6.8,5.7,14.6,5.7,23
		C221.4,65.3,216.5,77,208.6,85.5z"/>
	<path class="st5" d="M103.5,4.4H103H85.9h-2.1h-0.1L53.6,48.8l-30-44.5h-1.8h-0.4H4.2H3.1H2v95.9h2.1V78.7h17.3v21.5h2V36.4
		L43,65.6h1.8l0,0h17.6l0,0h1.8l19.6-29.2v40.1v2.3v19.6v2v0.3h21.4v-0.3v-2V78.7v-2.3V4.4H103.5z M21.4,76.5H4.1V7.5l17.3,25.8
		V76.5z M53.6,52.5l7.4,11H44l-0.1-0.3L23.4,32.8l-2-3L5.6,6.5h17.2L53.6,52.5z M83.8,32.8L63.2,63.2l-8.4-12.4l29-43.2V32.8z
		 M85.9,6.5h15.7L85.9,29.7V6.5z M103.2,98.3H85.9V78.7h17.3V98.3z M103.2,76.5H85.9V33.3l17.3-25.8V76.5z"/>
	<rect x="2.1" y="98.1" class="st5" width="19.7" height="2.1"/>
	<g>
		<g>
			<path class="st0" d="M376.9,4.4h-19.4h-12.9h-19.4c0,32,0,63.9,0,95.9h19.4h12.9h19.4C439.7,100.3,439.7,4.4,376.9,4.4z
				 M346.6,98.2c0-29.8,0-62,0-91.7h10.9c60.1,0,60.1,91.7,0,91.7H346.6z"/>
		</g>
		<path class="st0" d="M316.2,4.3H315h-17.3h-0.9h-1.1v64.1L251.4,4.3h-0.5h-1.4h-19v0.1l-0.1,0l-0.2,72.1h-0.1v2.3h0.1l-0.1,19.6h0
			v2.3h21.4v-0.3h0.1V36.7l43.8,63.5h1.1h1.1h17.2h0.4h1.8v-96H316.2z"/>
		<path class="st0" d="M560.8,28.1V7.5h-21.4v20.6v2.3v69h21.4v-69V28.1z"/>
		<path class="st0" d="M682.1,101.5L643.7,4.1h-2.2h-0.1h-17h-1.5H622l-38.4,97.4h1.4v0h18.7v0h1.6l13-32.2h29.1l13.1,32.2h1.7v0
			h18.7v0H682.1z M619.2,67.2L632.8,32l13.7,35.2H619.2z"/>
		<path class="st0" d="M486.6,60.4c39.1,0,39.1-57.3,0-57.3h-19.8h-12.9h-1.1h-18.7H433v1.1v94.6h0v2.3h0h2.1h17.7h2.1V78.8v-2.3
			v-7.7v-1.9l27.2,34.4h1h2.2h21.9h1.8h1.4l-34.3-40.8H486.6z M454.9,52.7V28.6v-2.3V5.3h12c36.3,0,36.3,53,0,53h-12V52.7z"/>
		<g>
			<path class="st0" d="M776.5,5.2h-0.6h-17.3h-1.4h-0.7v64.1L712.3,5.2h-0.8h-1.1H693h-0.1h-1.8v96h0.6h1.5h17.2h1.2h1V37.6
				l43.8,63.5h0.1h2h17.2h0.7h1.5v-96H776.5z"/>
		</g>
		<rect x="221.4" y="122.2" class="st4" width="96.9" height="69.4"/>
		<g>
			<rect x="326.7" y="26.7" class="st1" width="19.2" height="48.3"/>
			<path class="st4" d="M370.8,6.5l11.2,5.2l10.8,9.2l5.6,8l2.6,7.7l2.3,7.5c0,0-0.3,3.5,0,4.7c0.3,1.2,0,11.4,0,11.4l-2.7,10
				l-3.4,7.5l-5.2,7l-9,7l-8.3,4.6l-5.3,2.4h5.3h8.4l15.2-4.2l12.7-9.4l8.5-13.2l2.5-9l0.8-10.4l-0.8-9.7l-2.2-11.3l-4.9-8.7
				l-6.5-5.7l-4.5-5c0,0-7.2-3.1-8.8-3.3c-1.7-0.3-8.1-2.2-8.1-2.2"/>
			<path class="st5" d="M376.9,4.4h-19.4h-12.9h-19.4c0,32,0,63.9,0,95.9h19.4h12.9h19.4C439.7,100.3,439.7,4.4,376.9,4.4z
				 M344.6,98.2h-17.3c0-7.2,0-14.6,0-22.1h17.3C344.6,83.5,344.6,90.8,344.6,98.2z M344.6,74h-17.3c0-15.3,0-30.9,0-46.2h17.3
				C344.6,43.2,344.6,58.6,344.6,74z M344.6,25.7h-17.3c0-6.5,0-12.9,0-19.2h17.3C344.6,12.9,344.6,19.3,344.6,25.7z M346.6,98.2
				c0-29.8,0-62,0-91.7h10.9c60.1,0,60.1,91.7,0,91.7H346.6z M376.9,98.2h-4.6c43-12.5,43-79.2,0-91.7h4.6
				C436.9,6.5,436.9,98.2,376.9,98.2z"/>
		</g>
		<rect x="295.7" y="4.3" class="st4" width="20.5" height="47.9"/>
		<polyline class="st6" points="250.6,4.3 250.6,32.4 295.7,98.9 296.8,70.6 		"/>
		<rect x="231.1" y="77.6" class="st1" width="19.5" height="22.7"/>
		<path class="st5" d="M316.2,4.3H315h-17.3h-0.9h-1.1v64.1L251.4,4.3h-0.5h-1.4h-19v0.1l-0.1,0l-0.2,72.1h-0.1v2.3h0.1l-0.1,19.6h0
			v2.3h21.4v-0.3h0.1V36.7l43.8,63.5h1.1h1.1h17.2h0.4h1.8v-96H316.2z M249.5,98.3h-17.2V78.7h17.2V98.3z M249.5,33.6v42.9h-17.2
			V8.7l-0.1-2.3h17.3v23.1V33.6z M295.7,96.4l-44-63.7V8.7l44,63.7V96.4z M315,96.4l-0.1,1.7h-17.2V75.4v-4V53.5H315V96.4z
			 M315,50.9h-17.3v-44H315V50.9z"/>
		<rect x="540.1" y="78.7" class="st2" width="19.8" height="22.7"/>
		<rect x="434.2" y="77.6" class="st1" width="19.7" height="23.3"/>
		<polygon class="st5" points="453.9,98.8 433,98.8 433,101.2 454.9,101.2 		"/>
		<rect x="540.1" y="6.3" class="st1" width="19.8" height="21.8"/>
		<path class="st5" d="M560.8,28.1V7.5h1H576V5.6c-6.4,0-7.7,0-14.2,0c-7.8,0-15.7,0-23.5,0c-6.5,0-7.8,0-14.2,0v1.9h14.2h1v20.6
			v2.3v69h-1h-14.2v2.1c6.4,0,7.7,0,14.2,0c7.8,0,15.6,0,23.5,0c6.5,0,7.8,0,14.2,0v-2.1h-14.2h-1v-69V28.1z M541.4,7.5h17.3v20.6
			h-17.3V7.5z M558.7,30.4v47.2h-17.3V30.4H558.7z M541.4,99.4V79.9h17.3v19.5H541.4z"/>
		<polyline class="st2" points="583.5,101.5 603.7,101.5 617.5,68 598.1,68 		"/>
		<polygon class="st4" points="634,28.7 642.8,4.1 667.9,68 648,68 		"/>
		<path class="st5" d="M682.1,101.5L643.7,4.1h-2.2h-0.1h-17h-1.5H622l-38.4,97.4h1.4v0h18.7v0h1.6l13-32.2h29.1l13.1,32.2h1.7v0
			h18.7v0H682.1z M603.8,99.3h-17l12.1-30.1h16.8L603.8,99.3z M616.4,67.2h-16.6L623.1,7l0.3-0.7h17.1l-7.7,19.4l-1.3,3.2
			L616.4,67.2z M619.2,67.2L632.8,32l13.7,35.2H619.2z M634,28.7L642.4,7l23.4,60.2h-16.6L634,28.7z M650,69.2h16.6l12.3,30.1h-16.8
			v0.4L650,69.2z"/>
		<path class="st1" d="M472,4.1l7.8,3.7l6.9,3.6l4.9,6.7l3.4,9.3l19.2-0.3l-1.7-7.5l-5.3-6.1c0,0-4.2-4.9-4.7-5.1
			c-0.5-0.2-8.1-2.6-8.4-3"/>
		<polygon class="st2" points="453.4,27.4 434.3,27.4 434.1,4.1 453.4,4.1 		"/>
		<polyline class="st4" points="483.7,101.2 508.3,101.2 493.4,82.4 481.2,67.5 473.1,59.2 453.8,59.2 454.5,65.2 463.4,75.9 
			477.3,92.5 		"/>
		<path class="st5" d="M486.6,60.4c39.1,0,39.1-57.3,0-57.3h-19.8h-12.9h-1.1h-18.7H433v1.1v94.6h0v2.3h0h2.1h17.7h2.1V78.8v-2.3
			v-7.7v-1.9l27.2,34.4h1h2.2h21.9h1.8h1.4l-34.3-40.8H486.6z M435.1,5.3h17.7v20.9h-17.7V5.3z M435.1,28.6h17.7v22.5v1.6v5.6v2.1
			V62v2.9v2.9v0.9v7.7h-17.7V28.6z M435.1,98.8v-20h17.7v20H435.1z M486.6,58.3h-7.9c12.8-4.9,18.5-17.7,17.3-29.7h17.7
			C515.3,42.8,506.3,58.3,486.6,58.3z M486.6,5.3c15.6,0,24.5,9.8,26.7,20.9h-17.7c-1.6-8.9-7.1-17.1-16.6-20.9H486.6z M454.9,52.7
			V28.6v-2.3V5.3h12c36.3,0,36.3,53,0,53h-12V52.7z M505.3,98.8h-21.9l-28.5-35v-3.5h1.3h10.6c0.3,0,0.5,0,0.8,0l5.4,0L505.3,98.8z"
			/>
		<g>
			<g>
				<polygon class="st1" points="707.2,27.9 691.1,27.9 691.1,24.9 691.1,5.3 692.4,5.3 				"/>
				<polygon class="st4" points="734.5,67.2 712.6,35.7 712.6,8.4 734.5,38.6 				"/>
				<polyline class="st2" points="756.6,5.2 778,5.2 776.6,99.8 757.3,73.7 				"/>
			</g>
			<path class="st5" d="M776.5,5.2h-0.6h-17.3h-1.4h-0.7v64.1L712.3,5.2h-0.8h-1.1H693h-0.1h-1.8v96h0.6h1.5h17.2h1.2h1V37.6
				l43.8,63.5h0.1h2h17.2h0.7h1.5v-96H776.5z M693.2,9.6l11.8,17.1h-11.8V9.6z M710.4,99h-17.2V29h13.4l3.8,5.5V99z M710.4,30.5
				l-16-23.1h16V30.5z M733.5,63.8l-20.8-30.2V9.6l20.8,30.2V63.8z M757.5,99l-0.9-1.7l-20.8-30.2v-24l20.8,30.2l2,3L774.3,99H757.5
				z M758.6,72.3V7.3h17.3v90L758.6,72.3z"/>
		</g>
		<g>
			<path class="st7" d="M501.7,120.2h24.9l39.6,51.2v-51.2h26.4V217h-23.4l-41.1-53.1V217h-26.4V120.2z"/>
			<path class="st7" d="M609.7,120.2h77.1v23.5h-50.4v16.5h45.6v22.3h-45.6V217h-26.7V120.2z"/>
			<path class="st7" d="M722.4,143.7h-28.9v-23.5H778v23.5h-28.9V217h-26.7V143.7z"/>
		</g>
		<path class="st5" d="M84.8,120.2l-1.5,0l0,0H2V217h82.8h399.7v-96.8H84.8z M82.3,214H5v-90.8h78.3L82.3,214z M86.3,123.2h112.1v43
			H85.8L86.3,123.2z M179.1,214H85.3l0.5-44.8h93.9L179.1,214z M219.9,214h-37.9l0.6-44.8h37.3V214z M219.9,166.2h-18.6v-43h18.6
			V166.2z M317.1,214h-94.2v-19.5h94.2V214z M317.1,191.5h-94.2v-68.3h94.2V191.5z M481.5,214H320.1v-90.8h161.3V214z"/>
	</g>
</g>
</svg>
