<?xml version="1.0" encoding="iso-8859-1"?>
<!-- Generator: Adobe Illustrator 25.4.1, SVG Export Plug-In . SVG Version: 6.00 Build 0)  -->
<svg version="1.1" id="Layer_1" xmlns="http://www.w3.org/2000/svg" xmlns:xlink="http://www.w3.org/1999/xlink" x="0px" y="0px"
	 viewBox="0 0 1600 1600" style="enable-background:new 0 0 1600 1600;" xml:space="preserve">
<path style="fill:#3D6BB4;" d="M55.248,196.521c10.675,11.446,23.183,19.767,35.491,28.897c12.77,9.473,20.651,22.784,32.132,33.413
	c19.942,18.461,38.079,40.012,57.925,59.237c18.43,17.853,70.597,102.413,82.78,122.052
	c13.962,22.506,65.551,100.377,77.432,117.291c14.208,20.228,31.685,39.626,43.635,60.715
	c11.242,19.841-23.822-172.101-44.324-218.71c-9.033-20.536-15.513-42.081-22.057-63.618
	c-13.466-44.319-31.03-87.625-43.923-132.032c-1.688-5.813,45.379-12.147,51.135-5.706c5.611-7.477,20.844-1.786,28.918-2.63
	c10.958-1.145,25.301-2.796,36.779-1.284c20.051,2.64,33.24,1.79,53.114,0.235c-6.508,0.509,4.992,142.583,5.642,155.636
	c1.347,27.076,11.191,57.348,7.624,83.435c-4.888,35.748-12.805,67.862-7.975,104.263c2.627,19.795,0.733,39.697,1.774,59.745
	c0.788,15.192,6.831,28.171,8.667,43.325c2.619,21.621,8.6,142.93,8.6,142.93c-35.474-13.891-71.174-29.211-106.568-45.842
	c-15.257-7.169-30.146-14.775-44.467-23.775c-15.017-9.437-27.772-20.323-43.793-28.64c-18.284-9.491-46.385-35.486-68.95-32.506
	c-0.55,18.101-0.144,36.354-0.144,54.505c0,20.699-4.991,57.902,1.307,76.261c0,0-146.861,0.253-145.128-0.003
	c1.973-14.397-1.268-46.656-1.27-61.15c-0.01-56.72-9.561-117.11-1.237-173.425c4.428-29.957,7.487-59.326,4.208-89.613
	c-1.595-14.731-7.188-28.513-8.528-43.202c-4.04-44.312,1.229-89.927-0.253-134.432C52.895,254.947,48.169,223.184,55.248,196.521z"
	/>
<path style="fill:#3D6BB4;" d="M543.474,465.625c10.548-6.511,16.942-18.618,28.803-24.011
	c13.976-6.355,24.628-10.588,38.051-18.139c23.707-13.337,53.976-18.307,78.639-28.703c26.611-11.218,58.374-21.567,78.053-42.259
	c23.28-24.477,37.628-53.636,54.02-82.735c19.223-34.125,29.182-63.787,34.635-102.623c-20.389-0.692-39.425,2.573-59.28,3.525
	c-14.29,0.685-30.232,1.28-44.487,0.036c-9.821-0.857-20.123-5.219-29.583-5.397c-25.929-0.488-52.847,14.662-76.187,23.588
	c-62.716,23.985-123.45,55.494-177.521,96.826c18.214,20.41,10.98,42.373,26.106,63.608c6.39,8.972,26.995,17.903,9.846,29.34
	c1.907,9.395,12.814,23.283,17.053,34.951C527.492,429.794,535.75,444.982,543.474,465.625z"/>
<path style="fill:#3D6BB4;" d="M543.474,463.77c18.509-9.737,46.018-10.097,66.976-16.688c14.254-4.483,28.742-10.987,44.08-13.087
	c20.794-2.848,41.994-0.198,62.645-3.456c19.733-3.113,39.398-5.667,58.724-10.382c19.151-4.672,44.115-2.328,61.084-12.828
	c2.504,46.574-0.729,87.965-36.451,121.05c-36.762,34.047-99.43,50.991-148.725,58.188c-2.136,22.28-1.998,45.196-4.227,67.43
	c-4.408,43.971,7.67,87.67,5.319,130.576c-47.731,1-94.551-1.483-142.201-2.024c16.088-45.706,0.635-102.712,3.306-151.506
	c8.891-2.758,14.505-9.729,22.217-14.655c17.911-11.441,38.77-16.476,56.539-28.007c-22.003,8.891-44.536,6.626-66.978,12.063
	c-9.3,2.253-14.907,7.743-24.83,5.88c-0.696-5.53-1.121-12.672-0.013-18.174c0.886-4.401,7.674-6.199,8.378-10.475
	c0.755-4.584-3.699-6.521-3.17-10.019c0.716-4.743,2.018-11.857,1.956-16.193c-0.055-3.815,1.942-6.545,1.975-10.196
	c0.034-3.684-5.355-6.588-5.628-9.787c-0.927-10.852-1.896-37.948,1.836-48.303C512.32,466.437,531.726,470.642,543.474,463.77z"/>
<path style="fill:#3D6BB4;" d="M869.641,205.324c-0.525,16.307,1.24,32.948,1.24,49.464c0,15.966-5.446,29.139-4.958,45.03
	c0.471,15.348,6.239,26.801,6.198,42.797c-0.039,15.09-1.066,28.75,0.276,43.252c0.763,8.243,3.313,16.154,4.577,24.219
	c1.411,9.006-2.378,17.584-0.938,26.358c13.52-4.205,28.765,0.803,42.571-1.101c11.134-1.536,21.402-2.485,33.182-2.485
	c16.561,0,34.374-4.362,50.328-2.286c1.803,11.997-1.066,26.437-1.081,38.92c-0.009,7.909,1.064,14.17,2.341,21.651
	c3.749,21.961,1.162,41.63-0.888,63.531c-3.304,35.307-4.73,70.478-9.162,105.52c-2.678,21.17-0.783,42.737-3.283,64.011
	c-3.305,28.124-3.869,32.804-3.785,60.602c0.019,6.383,146.599-7.327,162.032-2.115c0.819-14.933-2.956-28.961-3.496-43.981
	c-0.417-11.607,0.192-20.985,2.614-32.014c3.324-15.138,2.429-29.688,4.96-44.784c2.492-14.859,0.284-31.745,3.734-46.191
	c3.236-13.548,11.131-24.934,12.336-39.519c1.142-13.826,1.699-26.432,2.415-40.21c1.822-35.068,13.811-70.318,10.85-105.427
	c-9.741-0.489-18.657-2.282-28.1-4.076c8.189-17.071,40.459-17.03,55.994-17.127c20.61-0.129,47.073,3.152,66.487-3.628
	c-2.241-4.282-4.326-9.14-7.211-12.626c6.011-13.916,7.844-28.972,11.233-43.668c3.495-15.155,2.446-24.134,3.464-39.63
	c1.931-29.417,15.076-58.412,18.886-88.689c0.567-4.502-3.005-3.323-0.827-9.661c0.816-2.376,6.332-7.102,7.808-10.682
	c6.002-14.56,9.302-35.174,11.308-50.734c-7.497,2.739-16.907,5.286-25.245,6.775c-16.293,2.909-33.138,1.393-49.566,3.646
	c-27.608,3.786-55.295,6.673-82.964,10.221c-40.133,5.145-80.847,8.566-120.414,14.956c-19.502,3.149-39.027,8.346-58.469,10.405
	c-19.705,2.088-40.196-1.644-59.911,0.623C905.662,198.801,888.615,205.324,869.641,205.324z"/>
<path style="fill:#3D6BB4;" d="M97.642,1118.59c23.318,0,46.637-0.054,69.956,0c14.224,0.033,25.452-4.238,38.678-5.991
	c16.552-2.194,35.405-0.726,52.188,0.179c1.957,40.244,6.176,80.014,6.189,120.883c0.003,9.536,0.085,18.582,2.67,27.541
	c1.178,4.084,5.81,11.698,6.065,15.61c0.407,6.221-3.532,8.088-5.189,14.45c-5.187,19.913,6.906,41.222,11.776,59.566
	c7.882,29.693,9.27,62.539,7.325,93.79c-28.13,0.109-56.347,0.016-84.504,0.006c-26.697-0.01-53.214,1.199-79.945,1.199
	c-21.491,0-47.27-4.373-68.098,1.079c3.242-7.006,1.992-15.063,2.036-22.655c0.081-13.93,6.316-25.025,7.264-38.843
	c1.571-22.899-2.673-46.779,0.217-69.565c1.972-15.549,3.73-29.81,4.535-45.948c0.804-16.115,6.912-31.129,8.409-45.82
	c1.517-14.888-1.426-24.729,3.639-40.311C88.578,1159.992,92.2,1134.853,97.642,1118.59z"/>
<path style="fill:#3D6BB4;" d="M142.098,1067.804c-17.332-5.561-28.587-13.021-43.289-22.478
	c-16.799-10.806-21.737-25.038-32.674-40.784c-10.072-14.5-11.901-32.071-14.213-49.411c-2.714-20.354,5.996-37.925,14.547-55.166
	c10.022-20.209,27.471-28.658,42.953-43.124c16.885-15.776,30.229-17.892,53.374-17.98c18.837-0.071,28.771,0.714,46.369,6.902
	c19.26,6.771,45.358,12.985,59.814,28.721c6.379,6.944,4.319,10.681,6.465,18.558c2.314,8.497,6.791,13.551,10.566,21.575
	c9.64,20.492,3.499,39.927,3.88,61.908c0.63,36.325-30.011,62.013-59.009,80.107c-7.579,4.729-71.368,31.882-70.911,7.761
	C152.067,1063.608,146.146,1072.121,142.098,1067.804z"/>
<path style="fill:#3D6BB4;" d="M512.933,861.585c-29.896,15.602-44.32,28.653-70.643,48.521
	c-13.846,10.451-57.949,53.219-69.654,62.405c-8.952,7.025-16.981,15.644-26.149,22.265c-7.244,5.231-19.109,7.88-23.873,14.751
	c3.97,8.731,0.645,16.51,2.636,26.089c2.304,11.08,6.368,20.765,11.057,31.381c4.197,9.503,5.176,18.539,9.133,27.954
	c5.014,11.932,16.198,22.972,23.515,33.655c18.613-2.166,116.34,75.059,141.123,91.325c15.406,10.111,29.169,22.439,44.501,32.839
	c10.836,7.35,24.261,12.309,33.443,21.532c-0.055,15.51-7.219,13.452-14.043,5.604c-31.677,0-73.065,0.103-101.93-8.986
	c-19.102-6.015-52.169,7.599-68.015-6.284c-2.845-0.047-0.152,1.259-1.377,2.662c-5.57,6.387-5.981,22.872-8.428,32.104
	c-3.257,12.288-5.645,25.056-8.116,37.64c-4.613,23.495-8.101,47.204-7.329,71.749c16.543,11.683,46.018,23.685,63.129,28.721
	c62.82,18.491,130.279,14.535,193.504,0.992c31.643-6.778,55.056-42.104,71.935-67.06c15.708-23.224,13.036-37.52,12.681-61.686
	c-0.215-14.627,3.035-30.695,2.799-46.195c-0.237-15.533-7.591-25.37-11.294-40.542c-5.014-20.544-11.034-35.044-26.036-50.516
	c-15.969-16.469-32.934-27.889-54.26-36.706c-27.528-11.38-53.903-28.145-78.432-44.166c-5.244-3.425-9.082-8.611-14.567-11.242
	c-5.275-2.53-24.591-7.446-30.273-10.852c0,0,98.427-76.937,106.733-86.629L512.933,861.585z"/>
<path style="fill:#3D6BB4;" d="M913.164,861.585c-29.896,15.602-44.32,28.653-70.643,48.521
	c-13.846,10.451-57.949,53.219-69.654,62.405c-8.952,7.025-16.981,15.644-26.149,22.265c-7.244,5.231-19.109,7.88-23.873,14.751
	c3.97,8.731,0.645,16.51,2.636,26.089c2.304,11.08,6.368,20.765,11.057,31.381c4.197,9.503,5.176,18.539,9.133,27.954
	c5.014,11.932,16.198,22.972,23.515,33.655c18.613-2.166,116.34,75.059,141.123,91.325c15.406,10.111,29.169,22.439,44.501,32.839
	c10.836,7.35,24.261,12.309,33.443,21.532c-0.055,15.51-7.219,13.452-14.043,5.604c-31.677,0-73.065,0.103-101.93-8.986
	c-19.101-6.015-52.169,7.599-68.015-6.284c-2.845-0.047-0.152,1.259-1.377,2.662c-5.57,6.387-5.981,22.872-8.428,32.104
	c-3.257,12.288-5.645,25.056-8.116,37.64c-4.613,23.495-8.101,47.204-7.329,71.749c16.543,11.683,46.018,23.685,63.129,28.721
	c62.82,18.491,130.279,14.535,193.504,0.992c31.643-6.778,55.056-42.104,71.935-67.06c15.708-23.224,13.036-37.52,12.681-61.686
	c-0.215-14.627,3.035-30.695,2.799-46.195c-0.237-15.533-7.591-25.37-11.294-40.542c-5.014-20.544-11.034-35.044-26.036-50.516
	c-15.969-16.469-32.934-27.889-54.26-36.706c-27.528-11.38-53.903-28.145-78.432-44.166c-5.244-3.425-9.082-8.611-14.567-11.242
	c-5.275-2.53-24.591-7.446-30.273-10.852c0,0,98.427-76.937,106.733-86.629L913.164,861.585z"/>
<path style="fill:#3D6BB4;" d="M1169.135,886.795c-0.016,58.75,5.187,115.758,5.187,174.199c19.976-9.399,54.11-1.643,76.024-1.725
	c25.397-0.095,47.718-6.899,74.043-6.899c46.95,0,93.407-1.647,140.389-1.725c28.728-0.047,57.405,1.725,86.437,1.725
	c1.362,0-4.576-71.016-5.317-78.202c-0.798-7.725,2.042-26.732-4.499-30.695c6.011-7.21,2.167-15.561,2.12-24.129
	c-0.028-4.944,2.133-9.021,2.382-14.227c0.534-11.189-3.14-26.165-5.058-37.295c-50.64,0-103.009-1.725-153.649-1.725
	c-32.7,0-61.161,1.458-93.219,7.746C1260.114,880.485,1178.279,886.952,1169.135,886.795z"/>
<path style="fill:#3D6BB4;" d="M1169.135,1207.051c-0.012-41.471,3.661-75.571,3.661-116.824c0,0,88.869-1.868,107.451-1.868
	c33.141,0,64.413,2.978,97.576,3.033c20.279,0.033,40.521-1.218,61.015-1.218c0,23.143-2.632,46.402-5.998,68.741
	c-3.239,21.498,2.317,40.403-1.325,61.527c-35.746,0-72.712,1.217-108.458,1.217c-23.083,0-43.172-1.029-65.802-5.468
	C1233.356,1211.505,1175.59,1206.94,1169.135,1207.051z"/>
<path style="fill:#3D6BB4;" d="M1169.135,1418.953c1.737-0.03-0.093-75.194,1.181-83.298c0.765-4.855,4.017-7.976,4.527-13.474
	c0.41-4.415-0.343-8.461-1.13-12.308c-4.321-21.107,0.609-43.819,0.609-65.12c19.976,9.399,54.11,1.643,76.024,1.725
	c25.397,0.095,47.718,6.899,74.043,6.899c46.95,0,93.407,1.647,140.389,1.725c28.728,0.047,57.405-1.725,86.437-1.725
	c0,32.785-3.729,65.736-8.497,97.383c-4.588,30.456,3.282,57.237-1.876,87.164c-50.64,0-103.009,1.725-153.649,1.725
	c-32.7,0-61.161-1.458-93.219-7.746C1260.115,1425.263,1178.281,1418.796,1169.135,1418.953z"/>
<path style="fill:#3D6BB4;" d="M1247.698,486.322c-0.013,58.75,4.121,115.758,4.121,174.199c15.871-9.398,42.99-1.643,60.4-1.725
	c20.178-0.095,37.911-6.899,58.826-6.899c37.302,0,74.211-1.647,111.538-1.725c22.824-0.047,45.607,1.725,68.673,1.725
	c1.082,0-3.635-71.016-4.224-78.202c-0.634-7.725,1.622-26.732-3.575-30.695c4.776-7.21,1.722-15.56,1.684-24.129
	c-0.022-4.944,1.695-9.021,1.892-14.227c0.424-11.189-2.495-26.165-4.019-37.295c-40.233,0-81.84-1.725-122.073-1.725
	c-25.98,0-48.592,1.458-74.061,7.746C1319.98,480.013,1254.963,486.48,1247.698,486.322z"/>
</svg>
