<?xml version="1.0" encoding="utf-8"?>
<!-- Generator: Adobe Illustrator 25.4.1, SVG Export Plug-In . SVG Version: 6.00 Build 0)  -->
<svg version="1.1" id="Layer_1" xmlns="http://www.w3.org/2000/svg" xmlns:xlink="http://www.w3.org/1999/xlink" x="0px" y="0px"
	 viewBox="0 0 396 158.6" style="enable-background:new 0 0 396 158.6;" xml:space="preserve">
<style type="text/css">
	.st0{fill:#F8EB6C;}
	.st1{fill:#231F20;}
	.st2{fill:#D5202D;}
</style>
<g id="Non-Fungible_Soup_Logo" transform="translate(-0.2 0.026)">
	<path id="Path_1" class="st0" d="M395,87.7c-0.3-0.6-0.5-1.2-0.6-1.8c0-0.8-3.1-6.8-4.5-8.8c-2.9-3.9-7.6-8.4-12.1-10.5
		c-4-1.8-7.4-1.8-11.3-2.1c-3.8-0.2-7.6,0-11.3,0.5c-3.3,0.3-6.4,1-9.7,1.4c-2.7,0.4-5.2,1.6-8.1,1.9c-4,0.5-8.1,0.4-12.1-0.2
		c-1.9-0.3-3.9-0.6-5.8-1.1c-1.7-0.3-3.7-1.2-5.5-1.2c0,1.2-0.2,2.3-0.4,3.5c-0.2,1.1-0.5,2.2-1,3.3c-1,2.8-1.9,5.6-2.9,8.6
		c-0.3,0.7-0.5,1.4-0.5,2.1c0.5,0.2,1.1,0.4,1.6,0.5c1,0.4,2,0.9,2.9,1.5c1,0.9,1.9,2,2.7,3.2c0.6,0.8,1,1.8,1.3,2.7
		c0.1,0.8,0.3,1.5,0.5,2.3c0.4,1.8,0.7,3.6,0.8,5.4c0.3,4.6,0.2,9.2,0.3,13.8c0,5.9,0.3,12.2-0.9,17.8c-0.3,1.4-0.1,2.8-0.7,4
		c-0.7,1.2-1.5,2.1-4.1,3.8c-1.7,1.2-2.1,3.2-1,6.1c1.1,3,1.9,6.2,2.5,9.3l0,0c0.2,1.5,0.8,2,1.5,0.9c0.3-0.3,0.7-0.5,1.1-0.4
		c0.5,0.1,0.8,0,0.8-0.2c0-0.3,9.4-3.4,10.3-3.2c0.4,0,0.8,0,1.2-0.1c2.9-0.5,5.8-0.8,8.8-0.8c3.7-0.1,9.8,0.9,11.8,1.8
		c0.8,0.3,2.1,0.9,3,1.2c0.5,0.1,1,0.3,1.6,0.5c1.2-2.7,2.6-5.2,4.2-7.7c0.8-1.3,1-2.8,1.7-4.1c0.7-1.3,0.4-1.2-1.3-2.4
		c-1-0.8-2.1-1.5-3.3-1.9c-0.6-0.1-2.7-2.5-3.2-3.8c-0.4-1-0.3-1.5,0.6-2.9c0.5-0.9,1.3-1.6,2.2-2c2.9-0.9,5.1-0.7,8.2-0.7
		c3.3,0.1,6.3-0.5,9.5-0.9c3.8-0.5,6.9-1,10-2.9c4.7-3,8.2-7.4,10.2-12.6c1.2-3.3,1.9-6.7,2.2-10.2C396.4,94.8,396,90,395,87.7z
		 M370.3,100c-0.6,2.3-1.9,4.4-3.9,5.9c-1.1,0.7-2.3,1.3-3.6,1.7c-1.9,0.5-3.8,0.8-5.8,0.9c-1.6,0.1-3.2,0.3-4.8,0.5
		c-2.2,0-4.4-0.2-6.5-0.7l0,0c-0.3-0.2-0.5-0.8-0.3-1.7c0.2-1.4,0.6-14.5,0.5-16.4c0-0.8,0.3-1.2,1.4-1.6c2.8-1,6.2-0.6,9.2-1.1
		c1.5,0,3,0.2,4.5,0.4c1.6,0.2,3.1,0.7,4.5,1.4c2.1,1.4,3.4,2.9,3.7,4.1c0.1,0.6,0.4,1.2,0.7,1.7C370.6,95.8,370.7,98.4,370.3,100z"
		/>
	<g id="Group_1" transform="translate(93.519 63.223)">
		<path id="Path_2" class="st0" d="M101.9,47.4c0-1.7-0.2-3.5-0.4-5.2c-0.2-0.7-0.4-1.3-0.5-2c-0.4-1.8-0.9-3.5-1.6-5.2
			c-0.7-1.9-1.3-3.7-1.4-4c-0.1-0.3-0.3-0.6-0.5-0.8c-0.5-0.5-0.9-1-1.2-1.6c-0.4-0.7-0.9-1.7-1.2-2.1c-3-4.4-3.9-5.8-4.3-6.1
			c-0.2-0.3-1.2-1.3-2.1-2.4c-3.1-3.6-6.7-6.7-10.8-9.2c-6-3.8-13.8-7-18.7-7.5c-0.6-0.1-1.3-0.2-1.9-0.4c-2-0.6-9.3-0.9-12.9-0.6
			c-2.7,0.4-5.4,1-8.1,1.7c-1.9,0.4-3.7,0.9-5.5,1.6C25.1,5.1,21,8.6,16.5,12c-4.7,3.5-8.7,8-11.6,13.1C4,26.9,4,28.7,3.5,30.5
			c-0.5,1.5-1.1,3.1-1.6,4.7C0.8,38.9,0.1,42.8,0,46.7c-0.1,2.1,0,4.1,0.2,6.2c0.7,3.7,1.7,7.3,3,10.9c1.5,4.2,3.9,8,6.9,11.2
			c1.2,1.4,2.5,2.7,3.8,4c0.4,0.2,1.7,1.1,3,2c2.3,1.5,4.5,3.1,6.7,4.8c2.4,1.9,5.6,2.4,8.6,3.4c2.6,1,5.2,1.8,7.8,2.5
			c3.6,0.8,7.2,1.3,10.9,1.5l0,0c1.6,0.1,3.2,0.1,4.8,0.3c0.3,0,2.6-0.3,5-0.6c2.3-0.3,4.6-0.7,6.8-1.3c2.9-0.8,5.7-1.9,8.3-3.3
			c0.5-0.3,2.5-1.6,4.4-2.7c4.8-3.2,9.1-7.1,13-11.3c2.8-3.8,5.2-8,7-12.3c0.7-2,1.1-4,1.4-6.1C101.9,53,102,50.2,101.9,47.4z
			 M74.7,58.3c-0.2,1.1-0.5,2.5-0.8,3.2c-1.3,2.6-3.3,4.9-5.7,6.6c-1.2,0.5-2.5,1-3.9,1.3c-2.3,0.6-4.6,0.7-6.9,0.4l0,0
			c-2.1-0.4-4.1-1-6.1-1.8c-1.2-0.5-3.6-2-7.3-5c-3.7-3-7-6.4-10-10.1c-1.2-1.6-2.5-3.3-2.9-3.9c-0.3-0.4-0.6-0.9-0.8-1.4
			c-0.2-0.7-0.5-1.4-0.8-2c-1.4-3-2.1-6.2-2.1-9.5c0-2.6,0.8-5.2,2.3-7.3c1.9-2.2,4.5-3.7,7.4-4.2c1.1-0.2,2.1-0.4,3.2-0.4
			c0.2,0.1,1.6,0.3,3.1,0.5c2.3,0.5,4.4,1.3,6.5,2.3c1.4,0.6,2.7,1.3,4,2.1c0.1,0.1,1.3,1,2.7,1.9c3.9,2.5,9.4,7.9,11.1,10.8
			c0.7,1.1,1.5,2.1,2.4,3.1c0.9,1.2,1.8,2.4,2.4,3.8c0.7,1.6,1.2,3.2,1.7,4.8C74.8,55,74.9,56.7,74.7,58.3L74.7,58.3z"/>
	</g>
	<g id="Group_2" transform="translate(0.349 59.298)">
		<path id="Path_3" class="st0" d="M79.7,20.3c-0.6-1-1.5-1.7-1.9-2.8c-0.1-0.2-0.1-0.4-0.2-0.6c-0.4-0.7-0.9-1.4-1.4-2
			c-0.3-0.3-0.5-0.7-0.6-1.1c-0.2-0.5-0.5-1-0.9-1.3c-0.2-0.2-0.3-0.3-0.4-0.5c-0.1-0.2-0.2-0.4-0.4-0.6c-0.1-0.2-0.2-0.4-0.4-0.5
			c-0.2-0.3-0.5-0.6-0.8-0.8c-0.3-0.2-0.5-0.4-0.7-0.6c-0.1-0.1-0.2-0.3-0.4-0.4c-0.3-0.4-0.7-0.7-1.1-1.1c-0.2-0.3-0.5-0.6-0.7-0.9
			c-0.3-0.4-0.7-0.8-1.1-1.2c-0.3-0.2-0.6-0.6-0.8-0.9c-0.6-0.9-1.3-1.8-2-2.6C65,1.4,64.2,0.7,63.4,0c-0.6,1.1-1.3,2.1-2.2,3
			c-0.8,0.8-1.6,1.6-2.5,2.3c-0.4,0.2-0.8,0.6-1.1,0.9c-0.3,0.3-0.7,0.6-1.2,0.8c-0.2,0.1-0.5,0.2-0.7,0.2c-0.2,0.1-0.3,0-0.5,0.1
			c-0.1,0-0.2,0.1-0.3,0.1c-0.3,0.1-0.5,0.1-0.8,0.1c-0.2,0-0.4,0-0.5,0.1c-0.3,0.1-0.6,0.1-0.9,0.1c-0.7-0.1-1.5,0-2.2,0
			s-3-0.2-5.1-0.4c-3.8-0.4-8-1.2-12-0.8c-2,0.3-4,0.8-6,1.3c-2.7,0.6-5.3,1.7-7.6,3.2c-5.3,3.2-9.4,8.1-11.4,14
			c-1.5,3.5-2.3,7.2-2.5,11c-0.1,4.4,1,8.2,3.1,10.3c0.8,0.8,1.5,1.6,2.1,2.4c0.4,0.6,1,1,1.1,1s0.3,0.1,0.3,0.4s1.7,1.6,3.8,2.9
			c3.9,2.5,6,3.2,16.8,6.2c4.2,1.1,6.1,2,8.1,3.4c1.3,0.9,2.5,1.9,3.6,2.9c1.6,1.5,2.7,3.5,0.8,6c-1.4,1.9-4.1,2.2-6.1,2
			c-0.4-0.1-2.2-0.3-4-0.7c-1.2-0.1-2.4-0.5-3.6-1c-0.2-0.3-0.5-0.4-0.8-0.3c-0.7,0.1-7.5-4.3-7.5-4.9c0-0.8-1.8-2.1-2.2-2.8
			c-0.8-1.4-1.4-2.9-1.9-4.4c-1,0.1-2.9,1.2-3.9,1.6c-1.2,0.5-2.3,1.3-3.5,2c-2.2,1.2-4.3,2.6-6.3,4c-1.5,1-3.6,1.8-4.8,3.2
			c-0.3,0.4-0.5,0.6-0.8,1c0.3,0.4,0.5,0.6,0.9,1C2,73.8,3,75.5,3.8,77.3c0.2,0.4,0.4,0.7,0.6,1c1.3,1.9,2.4,4.1,3.2,6.3
			c0,0.5,0.2,1,0.5,1.3c0.3,0.2,2.4,8,2.7,10.4c0.1,0.9,0.3,1.7,0.6,1.7s0.4,0.2,0.4,0.7c0,0.6,0.2,0.7,0.8,0.4
			c4.5-2.2,6-2.8,8.3-3.2c1.5-0.2,3.7-0.5,4.9-0.6s3-0.2,4.1-0.2c3.1-0.2,4.9-0.3,5.4-0.1c0.7,0.3,9.3,1.3,11.6,1.4
			c2.1,0,4.2-0.2,6.2-0.5c1.9-0.2,3.6-0.1,5.5-0.7l-0.1-0.1c1.8-0.6,3.6-0.9,5.4-1.5c5-1.7,9.6-4.6,13.4-8.3
			c2.3-2.3,4.2-4.9,5.7-7.8c0.7-1.1,1.1-2.3,1.4-3.5c0-0.3,0.2-1.3,0.4-2.2c0.5-2.3,0.6-4.7,0.2-7c-0.4-2-1.1-3.8-1.6-5.7
			c-0.2-1.3-0.7-2.6-1.3-3.9c-2.4-3.3-6-5.6-9.1-8.4c-2.1-1.9-4-3.9-7-5c-3.7-1.2-7.7-1.8-11.4-2.9c-6-1.7-8.8-2.7-10.7-3.9
			c-1-0.6-1.8-1.3-2.5-2.2c-0.3-0.5-0.4-0.7-0.7-1.2c0.3-0.4,0.4-0.7,0.7-1.1c0.6-0.9,1.6-1.5,2.7-1.7c1.5-0.4,3.1-0.6,4.7-0.5
			c3,0,6,0.7,8.7,2.1c0.7,0.4,2.3,1.5,3.7,2.3c2.3,1.4,4.5,2.9,6.4,4.7c0.5,0.5,1.1,1,1.8,1.4c0.2,0.2,1.2-0.4,2.3-1.1
			c1-0.8,2.1-1.6,2.5-1.8c0.3-0.2,1.2-0.9,2-1.5c0.7-0.5,9.4-6.8,9.7-6.4c-1-1.5-2.1-2.9-3.3-4.2C81.4,22.8,80.5,21.5,79.7,20.3z"/>
		<path id="Path_4" class="st0" d="M293.8,15.7c-0.6-1.6-0.9-3.3-1-5.1c0-1,0-1.9-0.2-2.9c-0.1-0.4-0.4-0.7-0.8-0.7
			c-0.9,0.1-1.8,0.3-2.6,0.7c-1.6,0.5-3.3,0.8-5,0.8c-1.1,0-2.2,0.1-3.3,0.3c-0.6,0.3-8.9-0.3-14.9-0.9c-2.1-0.2-3.2-0.3-5.3-0.5
			c-0.1,0.6-0.1,0.9-0.2,1.4c-0.6,2.6-1.3,5.1-2.2,7.6c-0.9,2.4-2.1,4.3-2.6,4.3c-0.5-0.1-2.9-6.1-3.3-8.7c-0.4-2.8-1.5-4.6-2-3.5
			c-0.1,0.5-2.6,0.4-3.1,0.5c-1.7,0.1-3.5,0.2-5.3,0.3c-4.2,0.2-8.3,0.2-12.5-0.2c-5.1-0.4-10.9-0.9-12.7-1.1
			c-7.9-1.2-8.9-1.1-10-0.7c-0.5,0.2-1,0.6-1.3,1.1c-0.2,0.7-0.4,1.4-0.5,2.2c-0.2,2.5-0.7,4.9-1.6,7.3c-0.4,1.2-0.8,2.4-1.4,3.5
			c-0.3,0.5-0.2,0.8,0.4,1.3c0.4,0.3,0.8,0.5,1.2,0.6c1,0,3.2,1.3,4.3,2.6c0.8,0.9,1.5,1.9,2,3c0.8,1.7,1.4,4.4,1.9,9.1
			c0.4,7.7,0.3,15.4-0.2,23c-0.3,3.2-0.3,6.4,0,9.5c0.3,2.3,1.8,5.7,4,9.3c0.9,1.3,2,2.5,3.2,3.5c2.6,2.4,5.5,4.5,8.7,6.2
			c2.4,1.3,4.9,2.4,7.4,3.3c3.4,1,7,1.8,10.5,2.3l0,0c1.6,0.3,3.2,0.5,4.8,0.5c3.2,0.4,12.4-0.1,14.2-0.7c1.1-0.3,2.3-0.5,3.4-0.6
			c1-0.2,2.1-0.7,3.1-1c2.6-0.7,5.1-1.7,7.5-2.8c4.2-1.9,7.6-5.3,9.5-9.5c0.7-1.7,1.1-3.7,1.8-5.4c0.5-1,0.8-2.1,0.9-3.2
			c0.2-3.4,0.2-6.8,0.1-10.2c0-2-0.1-4.1-0.3-6.2c-0.1-2.2,0.2-4.4-0.2-6.6c-0.3-2.4-0.4-4.9-0.2-7.3c0.1-7.7,0.2-9.4,0.9-11.2
			c0.6-1.3,1.3-2.6,2.1-3.7c0.7-0.9,1.7-1.5,2.8-1.8c1.9-0.4,2.4-1.7,1.2-3.1C296.1,21.1,295.1,19.1,293.8,15.7z M249.9,35.1
			c0.1-3.4,1-6.7,2.6-9.6c0.8-1,1.9-1.8,3-2.4c0.5-0.6,0-2,0.9-1c0.4,0.4,1.2,0.6,1.5,0.8c0.6,0.5,1.2,1,1.9,1.3
			c2.6,1.5,4.6,4,5.4,6.9c0.4,1.5,0.7,3,0.7,4.6c0.1,0.9,0.1,1.8,0,2.7c-0.2,1.9-0.3,3.7-0.3,5.6c-0.3,6.2-1,13.1-1.7,15.4
			c-0.5,1.4-1.1,2.7-1.8,4c-0.8,1.5-1.5,2.9-3.1,3.3c-0.6,0.2-1.3,0.2-2,0.1c-8.3-1.5-7.5-11.4-7.4-17.7
			C249.9,44.5,249.5,39.8,249.9,35.1L249.9,35.1z"/>
	</g>
	<g id="Group_5" transform="translate(0.2 -0.026)">
		<g id="Group_3" transform="translate(0.149 59.323)">
			<path id="Path_5" class="st1" d="M79.7,20.3c-0.6-1-1.5-1.7-1.9-2.8c-0.1-0.2-0.1-0.4-0.2-0.6c-0.4-0.7-0.9-1.4-1.4-2
				c-0.3-0.3-0.5-0.7-0.6-1.1c-0.2-0.5-0.5-1-0.9-1.3c-0.2-0.2-0.3-0.3-0.4-0.5c-0.1-0.2-0.2-0.4-0.4-0.6c-0.1-0.2-0.2-0.4-0.4-0.5
				c-0.2-0.3-0.5-0.6-0.8-0.8c-0.3-0.2-0.5-0.4-0.7-0.6c-0.1-0.1-0.2-0.3-0.4-0.4c-0.3-0.4-0.7-0.7-1.1-1.1
				c-0.2-0.3-0.5-0.6-0.7-0.9c-0.3-0.4-0.7-0.8-1.1-1.2c-0.3-0.2-0.6-0.6-0.8-0.9c-0.6-0.9-1.3-1.8-2-2.6C65,1.4,64.2,0.7,63.4,0
				c-0.6,1.1-1.3,2.1-2.2,3c-0.8,0.8-1.6,1.6-2.5,2.3c-0.4,0.2-0.8,0.6-1.1,0.9c-0.3,0.3-0.7,0.6-1.2,0.8c-0.2,0.1-0.5,0.2-0.7,0.2
				c-0.2,0.1-0.3,0-0.5,0.1c-0.1,0-0.2,0.1-0.3,0.1c-0.3,0.1-0.5,0.1-0.8,0.1c-0.2,0-0.4,0-0.5,0.1c-0.3,0.1-0.6,0.1-0.9,0.1
				c-0.7-0.1-1.5,0-2.2,0s-3-0.2-5.1-0.4c-3.8-0.4-8-1.2-12-0.8c-2,0.3-4,0.8-6,1.3c-2.7,0.6-5.3,1.7-7.6,3.2
				c-5.3,3.2-9.4,8.1-11.4,14c-1.5,3.5-2.3,7.2-2.5,11c-0.1,4.4,1,8.2,3.1,10.3c0.8,0.8,1.5,1.6,2.1,2.4c0.4,0.6,1,1,1.1,1
				s0.3,0.1,0.3,0.4s1.7,1.6,3.8,2.9c3.9,2.5,6,3.2,16.8,6.2c4.2,1.1,6.1,2,8.1,3.4c1.3,0.9,2.5,1.9,3.6,2.9c1.6,1.5,2.7,3.5,0.8,6
				c-1.4,1.9-4.1,2.2-6.1,2c-0.4-0.1-2.2-0.3-4-0.7c-1.2-0.1-2.4-0.5-3.6-1c-0.2-0.3-0.5-0.4-0.8-0.3c-0.7,0.1-7.5-4.3-7.5-4.9
				c0-0.8-1.8-2.1-2.2-2.8c-0.8-1.4-1.4-2.9-1.9-4.4c-1,0.1-2.9,1.2-3.9,1.6c-1.2,0.5-2.3,1.3-3.5,2c-2.2,1.2-4.3,2.6-6.3,4
				c-1.5,1-3.6,1.8-4.8,3.2c-0.3,0.4-0.5,0.6-0.8,1c0.3,0.4,0.5,0.6,0.9,1C2,73.8,3,75.5,3.8,77.3c0.2,0.4,0.4,0.7,0.6,1
				c1.3,1.9,2.4,4.1,3.2,6.3c0,0.5,0.2,1,0.5,1.3c0.3,0.2,2.4,8,2.7,10.4c0.1,0.9,0.3,1.7,0.6,1.7s0.4,0.2,0.4,0.7
				c0,0.6,0.2,0.7,0.8,0.4c4.5-2.2,6-2.8,8.3-3.2c1.5-0.2,3.7-0.5,4.9-0.6s3-0.2,4.1-0.2c3.1-0.2,4.9-0.3,5.4-0.1
				c0.7,0.3,9.3,1.3,11.6,1.4c2.1,0,4.2-0.2,6.2-0.5c1.9-0.2,3.6-0.1,5.5-0.7l-0.1-0.1c1.8-0.6,3.6-0.9,5.4-1.5
				c5-1.7,9.6-4.6,13.4-8.3c2.3-2.3,4.2-4.9,5.7-7.8c0.7-1.1,1.1-2.3,1.4-3.5c0-0.3,0.2-1.3,0.4-2.2c0.5-2.3,0.6-4.7,0.2-7
				c-0.4-2-1.1-3.8-1.6-5.7c-0.2-1.3-0.7-2.6-1.3-3.9c-2.4-3.3-6-5.6-9.1-8.4c-2.1-1.9-4-3.9-7-5c-3.7-1.2-7.7-1.8-11.4-2.9
				c-6-1.7-8.8-2.7-10.7-3.9c-1-0.6-1.8-1.3-2.5-2.2c-0.3-0.5-0.4-0.7-0.7-1.2c0.3-0.4,0.4-0.7,0.7-1.1c0.6-0.9,1.6-1.5,2.7-1.7
				c1.5-0.4,3.1-0.6,4.7-0.5c3,0,6,0.7,8.7,2.1c0.7,0.4,2.3,1.5,3.7,2.3c2.3,1.4,4.5,2.9,6.4,4.7c0.5,0.5,1.1,1,1.8,1.4
				c0.2,0.2,1.2-0.4,2.3-1.1c1-0.8,2.1-1.6,2.5-1.8c0.3-0.2,1.2-0.9,2-1.5c0.7-0.5,9.4-6.8,9.7-6.4c-1-1.5-2.1-2.9-3.3-4.2
				C81.4,22.8,80.5,21.5,79.7,20.3z M77,28.1c-0.5,1-2,1.3-3,1.8c-1.2,0.7-2.4,1.6-3.5,2.4C70,32.8,69.7,33,69,33.4
				c-1.7-1.3-2.6-1.9-4.3-3.2c-3.5-2.6-7.6-4.5-11.8-5.4c-1.5-0.3-3.1-0.5-4.7-0.5c-2.2-0.2-5.5-0.3-7.5,1.2c-1.8,1.5-3,3.6-3.4,5.8
				c-0.2,1.5,0,4.5,2,4.7c0.4,0.1,0.8,0.3,0.8,0.6c0,0.3,1.8,1.3,4.2,2.4s4.6,2,5,2.2c6.9,2.5,13.7,5.4,20.3,8.8
				c1.4,0.8,2.7,1.7,4,2.7c1,0.9,1.9,2,2.6,3.2c2.2,4,3,5.5,3.5,6.9c0.9,3.2,0.8,6.5-0.1,9.7c-0.8,2.4-1.3,5.3-3.1,7.3
				c-1,1.3-2.2,2.6-3.4,3.7c-1.2,1-2.6,1.8-4,2.4c-1,0.5-3.7,1.7-6,2.6l0,0c-4.6,1.9-9.6,2.6-14.6,2.2c-3.6-0.3-7.6,0.4-10.9-0.7
				c-2.7-1-5.8-1-8.9-1.3c-0.8-0.1-3.6,0.4-6.5,1.2c-2,0.5-3.1,0.8-5.2,1.4c-0.2-0.5-0.4-0.8-0.7-1.4c-0.8-2-1.6-4.1-2.2-6.2
				c-0.6-1.3-1.4-2.6-2.2-3.8c-0.8-1.4-1.2-2.9-1.9-4.3c-0.2-0.5-1.8-2.4-1.3-3.2c1.3-2.2,6.3-4.2,8.7-5c0.5-0.1,0.7-0.2,1.2-0.4
				c0.7,0.7,1.1,1.1,1.9,1.8c3.2,3.1,7.2,5.4,11.5,6.5c1.6,0.5,3.6,1.1,4.3,1.3c4.2,1.1,8.6,0.6,12.5-1.3c2.3-1.2,4.7-3.6,5-5.9
				c0.5-3.8-2-7.2-4.9-9.2c-1.2-0.7-2.5-1.3-3.8-1.8c-1.6-0.6-3.1-1.3-4.6-2.1c-1-0.6-2.1-1-3.3-1.3c-0.8-0.2-1.6-0.4-2.3-0.7
				c-0.5-0.2-2.4-1-4-1.7c-1.6-0.6-3.1-1.3-4.6-2.2c-0.6-0.4-1.2-0.8-1.9-0.9c-0.5,0.1-6.4-4.1-8.1-5.8c-1-1.1-1.8-2.3-2.3-3.7
				c-0.5-1.9-0.7-3.7-0.8-5.6c-0.1-1.4-0.1-2.1-0.2-3.5c0.4-1.1,0.6-1.6,0.9-2.7c1.2-3.4,3.1-6.5,5.5-9.2c1.2-1.2,2.6-2.2,4.1-3.1
				c4-2.9,10.6-3.7,14.7-3.2c1.4,0.2,2.9,0.3,4.4,0.2c1.9-0.1,3.6,0.2,5.5,0.1c1.2-0.1,2.4-0.3,3.6-0.4c1.2-0.1,2.3-0.3,3.4-0.6
				c1.2-0.3,2.4-0.8,3.6-1.2c1.9-0.7,3.6-1.7,5.1-3.1c1,0.8,1.5,2.8,2.1,4c0.6,1.1,1.3,2.1,2.1,3.1c0.7,0.9,1.9,2.7,2.7,3.9
				c1,1.7,2.2,3.4,3.5,5C74.2,24.2,77.2,27.7,77,28.1z"/>
			<path id="Path_6" class="st1" d="M64.9,19.4c-0.8-0.6-1.6-1.4-2.2-2.2c-0.5-0.6-0.4-0.7-1.1-0.9c-0.8,0-1.7,0-2.5,0.1
				c-1.8,0-3.6-0.2-5.3-0.3c-3.8-0.1-7.7-0.8-11.5-0.4c-4.3,0.3-9.3-0.1-13.5,1.9c-2,1.1-3.9,2.5-5.6,4.1c-3.4,2.9-4.3,6.3-4.3,9.9
				c0,4.8,2.4,7.7,4.8,11.1c1.1,1.6,2.6,2.9,4.3,3.8c1.7,1.3,3.5,2.5,5.5,3.4c0.9,0.3,1.6,0.7,2.3,1.3c0,0.5,4.3,1.4,5,1.7
				c1.2,0.4,2.3,1,3.6,1.4c3.4,1.1,6.8,2.4,10,4c1.6,0.9,3.1,2.1,4.3,3.5c0.7,0.8,1.2,1.8,1.5,2.9c0.5,2-0.1,6.6-1.2,8.2
				c-1.5,2.3-3.4,4.2-5.7,5.6c-1.6,1-3.5,1.7-5.4,1.9c-5.1,0.6-10.4,0-15.3-1.6c-1.3-0.4-2.6-0.9-3.9-1.5c-1.1-0.6-2.2-1.1-3.4-1.6
				c-1.4-0.5-2.8-1.3-3.9-2.3c-0.4-0.6-1-1-1.3-0.9c-0.7,0.4-1.3,0.9-1.9,1.5c-0.5,0.5-0.8,0.8-1.3,1.4c0.2,0.8,0.3,1.2,0.6,2
				c0.4,1.3,0.6,2.8,0.6,4.2c0,0.9,0,1.3,0,2.2c0.8-0.1,1.1-0.1,1.9-0.2c1.1-0.1,3-0.3,4.4-0.5c3.5-0.5,7.2-0.3,10.7,0.4
				c4.8,1,9.6,1.6,14.5,1.8l0,0c1.6,0,4.3-0.3,5.8-0.3c3.9-0.9,7.7-2.1,9.3-3.1c3.1-1.9,5.5-4.6,7.1-7.9c1.3-2.9,2.5-7,1.5-9.8
				c-1.4-4.5-4.4-8.2-8.4-10.6c-1.2-0.6-2.4-1-3.7-1.4c-1.7-0.6-3.2-1.4-4.8-2.3c-3.2-1.6-6.6-3.1-10-4.3c-2-0.7-3.9-1.6-5.8-2.4
				c-1.6-0.6-3.2-1.4-4.6-2.4c-1.3-1-2.5-2.2-3.4-3.6c-1.7-3-2.5-7.3,0.3-11c2.4-3.1,6.3-4.6,9.8-5.3c2.5-0.6,5.1-0.8,7.7-0.6
				c2.6,0.2,5.5,0.1,8.1,0.6c1.7,0.4,5.9,1.1,6.6,2.8c0.8-0.4,1.7-1.2,2.6-1.7C66.3,22.1,65.7,20.3,64.9,19.4z"/>
			<path id="Path_7" class="st1" d="M165.6,52.6c-0.7-1.3-1.5-2.6-2.4-3.8c-0.8-1-1.9-2.5-2.4-3.1c-1.7-2.8-7.2-8.2-11.1-10.8
				c-1.3-0.9-2.5-1.7-2.7-1.9c-1.3-0.8-2.6-1.5-4-2.1c-2.1-1-4.3-1.8-6.5-2.3c-1.5-0.2-2.9-0.5-3.1-0.5c-1.1,0.1-2.2,0.2-3.2,0.4
				c-2.9,0.4-5.5,1.9-7.4,4.2c-1.5,2.1-2.3,4.7-2.3,7.3c0.1,3.3,0.8,6.5,2.1,9.5c0.4,0.6,0.6,1.3,0.8,2c0.2,0.5,0.5,1,0.8,1.4
				c0.4,0.6,1.7,2.3,2.9,3.9c2.9,3.7,6.3,7.1,10,10.1c3.8,3,6,4.5,7.3,5c2,0.8,4,1.4,6.1,1.8l0,0c2.3,0.3,4.7,0.2,6.9-0.4
				c1.3-0.3,2.6-0.7,3.9-1.3c1.7-0.8,5.1-4.7,5.7-6.6c0.2-0.7,0.5-2.1,0.8-3.2c0.3-1.6,0.1-3.3-0.4-4.9
				C166.9,55.7,166.3,54.1,165.6,52.6z M160.5,65.9c-0.6,1.1-1.3,2.1-2.3,2.9l0,0c-1.3,0.8-5.3,1.4-6.2,0.7c-0.8-0.4-1.7-0.7-2.6-1
				c-1.6-0.6-3.1-1.4-4.6-2.3c-1.5-0.9-4.5-3.3-6.8-5.2c-2.3-1.9-4.5-4.1-6.3-6.4c-1.7-2.3-3.2-4.6-4.6-7.1c-0.9-1.5-1.7-6-1.1-6.3
				c0.3-0.2,0.4-0.5,0.4-0.8c0-1.2,1.4-3.4,2.8-4.2c2.3-1.4,3.9-1.6,6.8-0.8c1.5,0.4,3,0.9,4.5,1.5c1.9,0.9,3.8,2,5.5,3.3
				c0.2,0.2,0.4,0.3,0.6,0.4c0.5,0.2,1,0.5,1.4,0.8c0.6,0.4,1.4,1.1,1.9,1.4c0.5,0.3,2.2,2,3.9,3.7c1.8,1.9,3.4,3.9,4.8,6.1
				c0.7,1.1,1.3,2.3,1.7,3.5c0.1,0.4,0.2,0.7,0.5,1c0.5,0.6,0.5,1.1,0.7,4.3C161.8,63.1,161.4,64.6,160.5,65.9L160.5,65.9z"/>
			<path id="Path_8" class="st1" d="M293.8,15.7c-0.6-1.6-0.9-3.3-1-5.1c0-1,0-1.9-0.2-2.9c-0.1-0.4-0.4-0.7-0.8-0.7
				c-0.9,0.1-1.8,0.3-2.6,0.7c-1.6,0.5-3.3,0.8-5,0.8c-1.1,0-2.2,0.1-3.3,0.3c-0.6,0.3-8.9-0.3-14.9-0.9c-2.1-0.2-3.2-0.3-5.3-0.5
				c-0.1,0.6-0.1,0.9-0.2,1.4c-0.6,2.6-1.3,5.1-2.2,7.6c-0.9,2.4-2.1,4.3-2.6,4.3c-0.5-0.1-2.9-6.1-3.3-8.7c-0.4-2.8-1.5-4.6-2-3.5
				c-0.1,0.5-2.6,0.4-3.1,0.5c-1.7,0.1-3.5,0.2-5.3,0.3c-4.2,0.2-8.3,0.2-12.5-0.2c-5.1-0.4-10.9-0.9-12.7-1.1
				c-7.9-1.2-8.9-1.1-10-0.7c-0.5,0.2-1,0.6-1.3,1.1c-0.2,0.7-0.4,1.4-0.5,2.2c-0.2,2.5-0.7,4.9-1.6,7.3c-0.4,1.2-0.8,2.4-1.4,3.5
				c-0.3,0.5-0.2,0.8,0.4,1.3c0.4,0.3,0.8,0.5,1.2,0.6c1,0,3.2,1.3,4.3,2.6c0.8,0.9,1.5,1.9,2,3c0.8,1.7,1.4,4.4,1.9,9.1
				c0.4,7.7,0.3,15.4-0.2,23c-0.3,3.2-0.3,6.4,0,9.5c0.3,2.3,1.8,5.7,4,9.3c0.9,1.3,2,2.5,3.2,3.5c2.6,2.4,5.5,4.5,8.7,6.2
				c2.4,1.3,4.9,2.4,7.4,3.3c3.4,1,7,1.8,10.5,2.3l0,0c1.6,0.3,3.2,0.5,4.8,0.5c3.2,0.4,12.4-0.1,14.2-0.7c1.1-0.3,2.3-0.5,3.4-0.6
				c1-0.2,2.1-0.7,3.1-1c2.6-0.7,5.1-1.7,7.5-2.8c4.2-1.9,7.6-5.3,9.5-9.5c0.7-1.7,1.1-3.7,1.8-5.4c0.5-1,0.8-2.1,0.9-3.2
				c0.2-3.4,0.2-6.8,0.1-10.2c0-2-0.1-4.1-0.3-6.2c-0.1-2.2,0.2-4.4-0.2-6.6c-0.3-2.4-0.4-4.9-0.2-7.3c0.1-7.7,0.2-9.4,0.9-11.2
				c0.6-1.3,1.3-2.6,2.1-3.7c0.7-0.9,1.7-1.5,2.8-1.8c1.9-0.4,2.4-1.7,1.2-3.1C296.1,21.1,295.1,19.1,293.8,15.7z M249.9,35.1
				c0.1-3.4,1-6.7,2.6-9.6c0.8-1,1.9-1.8,3-2.4c0.5-0.6,0-2,0.9-1c0.4,0.4,1.2,0.6,1.5,0.8c0.6,0.5,1.2,1,1.9,1.3
				c2.6,1.5,4.6,4,5.4,6.9c0.4,1.5,0.7,3,0.7,4.6c0.1,0.9,0.1,1.8,0,2.7c-0.2,1.9-0.3,3.7-0.3,5.6c-0.3,6.2-1,13.1-1.7,15.4
				c-0.5,1.4-1.1,2.7-1.8,4c-0.8,1.5-1.5,2.9-3.1,3.3c-0.6,0.2-1.3,0.2-2,0.1c-8.3-1.5-7.5-11.4-7.4-17.7
				C249.9,44.5,249.5,39.8,249.9,35.1L249.9,35.1z M289.5,24.8c-0.8,0.2-2.7,3.8-3,5.8c-0.1,0.8-0.3,1.5-0.5,2.3
				c-0.2,0.6-0.3,1.1-0.4,1.7c-0.2,3.1-0.2,6.3,0.2,9.4c0.1,1.3,0.1,2.7,0.3,3.9c0.3,2.3,0.1,4.5,0.3,6.7c0.1,2.4,0,4.9,0,7.3
				c0,4.1,0,6.2,0,10.3c-0.4,1.2-0.6,1.8-1,3c-0.4,1.2-0.8,2.3-1.3,3.4c-0.3,0.6-0.6,1.2-0.9,1.8c-0.7,1.8-4.9,5.1-9,7.1
				c-1.8,0.9-3.7,1.6-5.7,2.1c-1.4,0.3-3.9,0.6-5.5,0.8l0,0c-3.2,0.1-6.4,0-9.6-0.5c-5.6-0.3-7.3-0.5-9.8-1.3
				c-1.6-0.5-4-1.2-5.3-1.6c-1.4-0.4-2.8-1-4.1-1.7c-1-0.6-1.9-1-3-1.4c-1.1-0.5-2.2-1-3.2-1.7c-2.8-1.9-5.2-4.2-7.3-6.8
				c-0.8-1-1.4-2.2-1.9-3.4c-0.9-2.1-2-9.2-1.5-9.9c0.9-8.3,0.8-16.9,0.9-25.2c0-6.2-0.3-9.5-1.3-11.8c-1-1.3-2.1-2.4-3.4-3.4
				c-1.2-0.9-1.8-1.3-3-2.3c0-0.5,0.1-0.8,0.1-1.4c0.1-0.8,0.2-1.7,0.2-2v-0.6c4.1,0.2,6.2,0.3,10.3,0.5c5.5,0.4,11.1,0.6,16.6,0.3
				c3.5-0.1,6.8-0.3,7.4-0.4c1.1-0.1,1.1-0.1,2.7,3.1c0.2,0.5,0.5,1.1,0.9,1.5c0.2,0.1,0.2,0.3-0.1,0.5c-1.2,0.3-2.1,1.5-2.9,3.8
				c-0.6,1.7-0.9,3.4-0.9,5.2c-0.1,8.7,0,17.4,0.4,26.2c0.1,2.2,0.4,4.5,0.8,6.7c0.3,1.2,0.9,2.4,1.5,3.5c0.9,1.1,2,2.2,3.1,3
				c0.9,0.6,1.3,1,2.2,1.6c1.1,0.1,1.6,0.1,2.8,0.2c1.5,0.2,3,0,4.5-0.3c1.4-0.6,2.8-1.3,4-2.3c2.5-1.9,2.9-4.1,3.8-6.8
				c0.7-2,1.2-4,1.6-6c0.8-5.2,1.3-10.5,1.3-15.8c0.1-2.6,0-5.3-0.3-7.9c-0.6-4.1-1.3-6.7-1.9-6.7c-0.6-0.3-1.1-0.6-1.6-1
				c-0.6-0.5-1.4-1-2.1-1.2c-0.7-0.2-0.8-0.5-0.7-1.7c0.2-1.2,0.5-2.3,0.9-3.4c0.3-0.7,0.4-1.1,0.7-1.8c1.2,0.1,1.8,0.1,3.1,0.1
				c5.2,0.2,9.5,0.4,10.5,0.3c2.3-0.3,4.6-0.5,6.8-0.4c0.2,0.2,0.3,0.4,0.3,0.6c0.8,2.3,1.9,4.5,3.3,6.5c0.3,0.3,0.5,0.7,0.5,1.1
				C290.1,24.5,289.8,24.7,289.5,24.8L289.5,24.8z"/>
			<path id="Path_9" class="st1" d="M380.2,22.8c-1.8-1.6-3.8-3-6-4c-5.5-2.4-9-2.1-13.9-1.2c-2.3,0.4-4.7,0.6-7,1.1
				c-2.6,0.4-5.2,0.6-7.7,1.1c-3.7,0.7-7.5,0.9-11.2,0.5c-1.8-0.2-6.9-0.9-6.6,1.3c0.2,0.5,0.4,1.1,0.5,1.6c0,0.7,0,1.5-0.1,2.2
				c0,1.6,0.2,3.3,0.3,4.9c0.1,2.3,0.6,4.5,0.7,6.7c0.2,2.9-0.5,5.6-0.2,8.4c0.2,3,0,6,0.1,8.9c0.1,5.4,0,9.8,0,10
				c-0.1,0.2-0.3,4.1-0.4,8.7c-0.1,3.3-0.1,5-0.2,8.4c0.4,0.4,0.6,0.5,1,0.9l0,0c0.4,0.4,0.9,0.8,1.4,1.1c0.2,0,0.4-0.1,0.6-0.2
				c0.4-0.3,8.6-0.2,10.1,0.1c0.4,0.1,0.6,0.1,1.1,0.2c0.1-0.8,0.1-1.1,0.2-1.9c0.1-1.3,0.1-2.6-0.1-3.9c-0.4-2.3-0.8-18.9-0.5-19.1
				c0.2-0.1,3.2-0.1,8,0.4c3.6,0.4,7.3,0.3,10.9-0.2c4.3-0.6,5.4-1,5.7-1.5c0.1-0.2,0.4-0.3,0.6-0.2c0,0,0.1,0,0.1,0
				c0.2,0.2,1.9-0.3,3.8-1c3.5-1.4,7.1-3.5,8-4.8c1-1.3,3.1-4.6,3.9-5.8c0.7-1.2,1.5-5.4,1.7-9.3c0.1-2.5-0.4-5.1-1.3-7.4
				C382.6,26.7,381.9,24.4,380.2,22.8z M373.5,44.2c-1.1,3.3-3.6,5.6-6.4,7.6c-2.5,1.8-5.7,1.7-8.9,2.3c-3.2,0.5-6.5,0.7-9.8,0.6
				l0,0c-2.6-0.1-5.1-0.1-5.5-0.1c-0.4-0.1-0.7-0.2-1-0.4c-0.1-1.6-0.1-3.2,0-4.8c0.1-2.4,0.2-7,0.3-10.1c0.1-7.9,0.3-12.5,0.7-13.2
				c0.1-0.4,1-0.8,1.8-1c0.8-0.2,1.6-0.4,1.8-0.4c0.1,0,1.6-0.2,3.4-0.4c5.7-0.7,10.9-1,13.5-0.6c1.4,0.1,2.8,0.5,4,1.1
				C374.4,28.8,376,37.1,373.5,44.2L373.5,44.2z"/>
			<path id="Path_10" class="st1" d="M369,34.2c-0.3-1.2-1.6-2.6-3.7-4.1c-1.4-0.7-2.9-1.2-4.5-1.4c-1.5-0.3-3-0.4-4.5-0.4
				c-3,0.4-6.4,0-9.2,1.1c-1.1,0.4-1.4,0.8-1.4,1.6c0.1,1.9-0.3,15-0.5,16.4c-0.1,0.9,0,1.5,0.3,1.7l0,0c2.1,0.5,4.3,0.8,6.5,0.7
				c0.4-0.1,2.6-0.3,4.8-0.5c2-0.1,3.9-0.4,5.8-0.9c1.2-0.4,2.4-1,3.6-1.7c1.9-1.5,3.3-3.6,3.9-5.9c0.3-1.6,0.2-4.2-0.2-4.9
				C369.5,35.4,369.2,34.8,369,34.2z M362.2,43.8c-2.7,1-5.5,1.4-8.4,1.1l0,0c-0.7-0.3-1.4-0.2-2,0.1c-0.4,0.3-0.8,0.2-1.2-0.3
				c-0.5-0.5-0.6-1.5-0.5-4.7c0-1.9,0.4-6.7,0.4-6.7c0.6-0.2,1.2-0.3,1.8-0.1c2.9,0.5,5.7-0.1,8.5,0.7
				C366.7,35.6,365.8,41.9,362.2,43.8L362.2,43.8z"/>
			<path id="Path_11" class="st1" d="M394.6,28.4c-0.3-0.6-0.5-1.2-0.6-1.8c0-0.8-3.1-6.8-4.5-8.8c-2.9-3.9-7.6-8.4-12.1-10.5
				c-4-1.8-7.4-1.8-11.3-2.1c-3.8-0.2-7.6,0-11.3,0.5c-3.3,0.3-6.4,1-9.7,1.4c-2.7,0.4-5.2,1.6-8.1,1.9c-4,0.5-8.1,0.4-12.1-0.2
				c-1.9-0.3-3.9-0.6-5.8-1.1c-1.7-0.3-3.7-1.2-5.5-1.2c0,1.2-0.2,2.3-0.4,3.5c-0.2,1.1-0.5,2.2-1,3.3c-1,2.8-1.9,5.6-2.9,8.6
				c-0.3,0.7-0.5,1.4-0.5,2.1c0.5,0.2,1.1,0.4,1.6,0.5c1,0.4,2,0.9,2.9,1.5c1.1,0.9,2,2,2.7,3.2c0.6,0.8,1,1.8,1.3,2.7
				c0.1,0.8,0.3,1.5,0.5,2.3c0.4,1.8,0.7,3.6,0.8,5.4c0.3,4.6,0.2,9.2,0.3,13.8c0,5.9,0.3,12.2-0.9,17.8c-0.3,1.4-0.1,2.8-0.7,4
				c-0.7,1.2-1.5,2.1-4.1,3.8c-1.7,1.2-2.1,3.2-1,6.1c1.1,3,1.9,6.2,2.5,9.3l0,0c0.2,1.5,0.8,2,1.5,0.9c0.3-0.3,0.7-0.5,1.1-0.4
				c0.5,0.1,0.8,0,0.8-0.2c0-0.3,9.4-3.4,10.3-3.2c0.4,0,0.8,0,1.2-0.1c2.9-0.5,5.8-0.8,8.8-0.8c3.7-0.1,9.8,0.9,11.8,1.8
				c0.8,0.3,2.1,0.9,3,1.2c0.5,0.1,1,0.3,1.6,0.5c1.2-2.7,2.6-5.2,4.2-7.7c0.8-1.3,1-2.8,1.7-4.1c0.7-1.3,0.4-1.2-1.3-2.4
				c-1-0.8-2.1-1.5-3.3-1.9c-0.6-0.1-2.7-2.5-3.2-3.8c-0.4-1-0.3-1.5,0.6-2.9c0.5-0.9,1.3-1.6,2.2-2c2.9-0.9,5.1-0.7,8.2-0.7
				c3.3,0.1,6.3-0.5,9.5-0.9c3.8-0.5,6.9-1,10-2.9c4.7-3,8.2-7.4,10.2-12.6c1.2-3.3,1.9-6.7,2.2-10.2
				C396.1,35.5,395.7,30.7,394.6,28.4z M390.1,41c0,0.4-0.4,2-0.8,3.6c-0.8,3.5-2.7,8.2-3.8,9.4c-0.7,0.7-1.2,1.5-1.7,2.3
				c-1.6,2.3-3.7,4.1-6.2,5.3c-2.6,1.3-6.2,0.8-9.3,1.2c-1.6,0.2-3.3,0.2-4.9,0.6c-1.6,0.4-3.4,0.2-5.1,0.6
				c-1.7,0.3-3.1,1.1-4.8,1.4c-2,0.4-5.2,0.5-6,2.5c-0.3,1.2-0.5,2.5-0.4,3.8c0,1.1-0.4,2.2-0.6,3.3c0.7,1.1,1.1,1.6,1.8,2.7
				c0.8,1.2,1.8,2.3,2.9,3.3c0.5,0.3,1,0.7,1.3,1.1c0.1,0.6-0.1,1.2-0.4,1.7c-0.4,0.7-0.6,1.5-0.7,2.3c0.1,0.7-0.4,1.4-1.1,1.6
				c-0.8,0.3-1.7,0.3-2.5-0.1c-3.2-1.1-6.5-1.7-9.9-1.7c-1.9-0.1-4.2-0.1-4.9-0.2c-1.6-0.2-4.9,0.3-9.4,1.6l0,0
				c-1.8,0.5-3.3,0.8-3.4,0.9s-0.4-0.4-0.4-1c-0.1-1.8,0-2.6,0.6-2.9c0.8-0.4,3.5-5.1,4.3-7.3c0.9-3.6,1.2-7.2,1.1-10.9
				c-0.1-0.8-0.3-7.1-0.4-13.9c-0.1-6.7-0.5-14-0.8-16.1c-0.7-5.4-1.6-9-2.2-9.6c-0.3-0.3-0.5-0.6-0.5-1c-0.5-1.6-1.2-3-2.2-4.4
				c-0.7-0.5-0.5-2.4,0.4-4.6c0.3-0.8,0.5-1.2,0.9-2c1.6,0.2,2.3,0.4,3.9,0.6c3,0.6,6.1,0.8,9.1,0.6c1.5-0.1,3-0.2,4.5-0.2
				c3.5,0.1,7-0.3,10.4-1.1c1.1-0.3,2.2-0.5,3.3-0.6c0.8-0.1,1.6-0.3,2.4-0.5c1.9-0.5,3.7-1,5.6-1.2c2.3-0.4,4.6-0.5,6.9-0.3
				c6.6,0.6,14.3,4.2,17.5,8.1c0.8,0.9,1.3,1.7,1.2,1.7c-0.1-0.1,0.1,0.7,0.8,1.7c0.8,1.4,1.5,2.9,2,4.5c0.6,1.8,1,3.6,1.2,5.5
				C390.3,35.9,390.3,38.5,390.1,41z"/>
			<path id="Path_12" class="st1" d="M281.7,22c-0.4-0.4-6.3-0.8-6.9-0.4c-0.3,0.2-0.4,1.1-0.2,2.9c0.1,1,0.3,2,0.6,3
				c0.3,0.4,0.6,5.4,0.7,11.6c-0.1,7.4-0.8,14.8-2,22c-0.7,3.3-1.7,5.9-2.6,7c-1.3,1.6-5.3,4.9-6,4.8c-0.3-0.1-0.5,0.1-0.4,0.3
				c0.1,0.2-0.8,0.6-2,1c-2,0.5-4,0.6-6,0.3c-3.5-0.2-6.9-1.1-9.9-2.8c-0.8-0.4-1.6-0.9-2.3-1.6c-0.3-0.4-1.2-1.7-2.1-3
				c-1.2-1.6-1.9-3.6-2.1-5.6c-0.5-3-0.9-8.8-1.1-18.3c0-2.2-0.1-4-0.1-4s-0.1-2.3-0.2-5.1c-0.1-2.8-0.2-5.8-0.4-6.6
				c0-0.8-0.2-2.5-0.3-3.7c0-0.8,0-1.3,0-2.1c-1.7-0.1-2.6-0.1-4.3-0.1c-2.4-0.1-5.9-0.2-7.9-0.2h-3.6l-0.2,1.7
				c-0.2,1.9-0.2,3.8-0.1,5.6c0,2.1,0.1,9,0.2,15.4c0.1,7.8,0.2,15.8,1.7,23.4c0.5,2,1.4,3.9,2.5,5.6c0.3,0.3,0.4,0.6,0.5,0.9
				c1.1,1.2,2.2,2.4,3.5,3.5c1.6,1.6,3.4,2.9,5.4,4.1c2.8,1.2,5.8,2.2,8.8,2.8l0,0c2.7,0.6,5.5,0.9,8.2,0.7c2.4,0.2,4.8,0.2,7.2,0
				c1.5-0.1,2.9-0.3,4.3-0.8c1.7-0.7,3.6-0.9,5.2-1.8c1.7-0.9,3.4-2,4.9-3.3c1.6-1.4,3-3.1,4.1-4.9c1.6-2.7,2.7-5.8,3.2-8.9
				c0.9-13.5,1-27.1,0.3-40.6C282.2,24,282,23,281.7,22z"/>
			<path id="Path_13" class="st1" d="M180.5,41.1c-1.6-3.5-3.7-6.7-6-9.7c-2-2.2-4.3-4.3-6.7-6.1c-1.1-0.8-2.3-1.5-3.5-2.2
				c-1.2-0.6-3-1.6-4-2.2c-0.7-0.5-1.5-0.9-2.4-1.1c-0.2,0-0.5-0.1-0.5-0.2c0-0.2-0.9-0.6-2-0.9c-1.3-0.4-2.5-0.9-3.7-1.5
				c-0.8-0.4-1.8-0.7-2-0.6c-0.4,0.1-0.9,0.1-1.3-0.1c-1.4-0.6-8.2-1-12.3-0.7c-2.1,0.2-4.3,0.4-6.4,0.8c-1.4,0.3-2.8,0.8-4.2,1.4
				c-4,1.9-7.7,4.4-10.9,7.3c-2.6,2.5-4.8,5.3-6.5,8.4c-1.8,3.9-3,8-3.6,12.2c-0.2,1.8-0.3,3.5-0.2,5.3c0,2.4,0.4,4.8,1.1,7.1
				c0.6,2.2,1.4,4.3,2.4,6.3c0.5,1,1,2,1.3,3c0,0.4,0.3,0.6,0.6,0.7c0.3,0.1,0.6,0.3,0.6,0.5c0.5,0.9,1.2,1.8,1.9,2.5
				c2.2,2.5,11.3,10.2,12.1,10.1c0.3-0.1,0.8,0.3,1.3,0.7c0.9,0.8,3.1,1.7,6.7,2.8c3.3,1.1,6.8,1.8,10.3,2.3l0,0
				c1.5,0.1,4.9,0.2,7.7,0.1c2.7,0,5.3-0.4,7.9-1.1c1.6-0.5,3.7-1.2,4.6-1.6c4.9-2.1,8-3.7,9.3-4.7c0.7-0.6,2-1.5,2.7-2.1
				c2.5-2.2,4.4-5,5.5-8.1c0.5-1.5,1.2-3.1,1.4-3.6c0.6-1.3,1.3-5.6,1.5-9.2c0.1-2.9-0.2-5.7-0.8-8.5
				C182,45.9,181.3,43.5,180.5,41.1z M173.4,62c-0.7,3.6-2.1,7.3-3.4,8.9c-1.1,1.3-2.2,2.4-3.5,3.5c-2.2,2-3.2,2.4-7.5,3.9l0,0
				c-1.7,0.6-7.5,0.8-10.5,0.5c-1.4-0.2-2.7-0.6-4-1c-3.8-1.4-11.1-6.1-15-9.4c-2-1.7-4-3.5-5.8-5.4c-1.1-1.2-1.8-2.7-2.9-4
				c-0.9-1-3.8-6.9-3.8-7.8c-0.2-0.7-0.4-1.4-0.8-2.1c-0.6-1.2-1-2.5-1.2-3.8c-0.3-2-0.3-4-0.2-6c0.2-3.1,0.4-4.1,1.5-6.2
				c2.3-3.9,5.7-7,9.9-9c1.2-0.5,1.8-0.8,3-1.3h3.5c2,0,3.9,0.1,5.9,0.4c1.7,0.4,3.4,0.9,5,1.5c3.4,1.4,6.7,3.1,9.8,5.2
				c1.7,1.2,3.4,2.5,5,3.9c1.5,1.3,3.1,2.2,4.3,3.7c1.2,1.6,2.6,3.1,4.1,4.6c2.1,2.3,3.8,4.9,5.1,7.7c0.7,1.9,1.3,3.9,1.6,5.9
				C173.7,57.9,173.7,60,173.4,62L173.4,62z"/>
			<path id="Path_14" class="st1" d="M194.6,46.1c-0.2-0.7-0.4-1.3-0.5-2c-0.4-1.8-0.9-3.5-1.6-5.2c-0.7-1.9-1.3-3.7-1.4-4
				c-0.1-0.3-0.3-0.6-0.5-0.8c-0.5-0.5-0.9-1-1.2-1.6c-0.4-0.7-0.9-1.7-1.2-2.1c-3-4.4-3.9-5.8-4.3-6.1c-0.2-0.3-1.2-1.3-2.1-2.4
				c-3.1-3.6-6.7-6.7-10.8-9.2c-6-3.8-13.8-7-18.7-7.5c-0.6-0.1-1.3-0.2-1.9-0.4c-2-0.6-9.3-0.9-12.9-0.6c-2.7,0.4-5.4,1-8.1,1.7
				c-1.9,0.4-3.7,0.9-5.5,1.6c-5.6,1.7-9.7,5.2-14.2,8.6c-4.7,3.5-8.7,8-11.6,13.1c-0.9,1.7-0.9,3.6-1.4,5.4
				c-0.5,1.5-1.1,3.1-1.6,4.7c-1.1,3.7-1.8,7.6-1.9,11.4c-0.1,2.1,0,4.1,0.2,6.2c0.7,3.7,1.7,7.3,3,10.9c1.5,4.2,3.9,8,6.9,11.2
				c1.2,1.4,2.5,2.7,3.8,4c0.4,0.2,1.7,1.1,3,2c2.3,1.5,4.5,3.1,6.7,4.8c2.4,1.9,5.6,2.4,8.6,3.4c2.6,1,5.2,1.8,7.8,2.5
				c3.6,0.8,7.2,1.3,10.9,1.5l0,0c1.6,0.1,3.2,0.1,4.8,0.3c0.3,0,2.6-0.3,5-0.6c2.3-0.3,4.6-0.7,6.8-1.3c2.9-0.8,5.7-1.9,8.3-3.3
				c0.5-0.3,2.5-1.6,4.4-2.7c4.8-3.2,9.1-7.1,13-11.3c2.8-3.8,5.2-8,7-12.3c0.7-2,1.1-4,1.4-6.1c0.3-2.8,0.4-5.5,0.2-8.3
				C194.9,48.7,194.7,46.2,194.6,46.1z M188.4,58.2c-0.7,4-2.6,10.1-3.3,10.9c-0.3,0.4-0.4,0.9-0.4,1.3c-0.1,0.7-0.3,1.4-0.6,2
				c-0.3,0.5-0.9,1.4-1.2,2c-1.2,1.9-2.6,3.6-4.3,5.2c-0.9,0.8-2.9,2.4-4.6,3.6c-5.3,3.5-11.1,6.1-17.3,7.8l0,0
				c-4.6,0.8-9.3,1.2-14,1.1c-1.8-0.1-3.5-0.5-5.2-0.9c-2.9-0.7-3.7-0.9-7.2-2c-2.7-0.8-5.2-1.7-7.7-3c-1.2-0.7-8.5-5.3-9.8-6
				c-2.4-1.7-4.6-3.7-6.6-5.8c-2-2.2-6.1-9.1-6-10.4c0-0.9-0.2-1.7-0.6-2.5c-0.8-1.6-1.3-7-1.2-10.3c0.5-3.8,1.2-7.6,2.2-11.3
				c1.6-4.6,3.8-8.9,6.7-12.8c3-3.7,8.4-8.3,11.3-9.6c0.7-0.3,1.4-0.7,2-1.1c0.2-0.3,2.7-1.5,6.9-3.4c2.3-0.9,4.8-1.5,7.2-1.8
				c3.1-0.5,6.2-0.6,9.4-0.3c2.4,0.2,5.6,0.6,6.9,0.8c2.7,0.6,5.3,1.5,7.8,2.6c3.4,1.3,6.7,2.6,9.6,4.9c1.5,1.2,3,2.4,4.5,3.7
				c2.9,2.3,5.5,4.9,7.8,7.7c2.8,4.1,5.2,8.4,7.2,12.9c0.6,2.2,1,4.5,1.1,6.8C189.1,52.7,188.9,55.5,188.4,58.2L188.4,58.2z"/>
		</g>
		<g id="Group_4" transform="translate(0 0)">
			<g id="g40_00000055690794967140185310000014012306460304621449_">
				<path id="path16_00000165915788132667932360000013303527550688813477_" class="st2" d="M20.4,1.3H19c0,7,0,14.1,0,21.2
					c-3-6.9-6.1-13.8-9.3-20.8C9.6,1.6,9.6,1.5,9.5,1.3H9c-2.9,0-4.7,0-7.5,0H0v50.2h0.7c3,0,4.9,0,7.9,0h1.5V29.4
					c3.3,7.2,6.5,14.4,9.7,21.7c0,0.1,0.1,0.2,0.1,0.4h8.7c0.1-16.8,0.1-33.6,0.1-50.3h-0.7C25,1.3,23.5,1.3,20.4,1.3z"/>
				<path id="path18_00000052816235914191960830000005308340685043328394_" class="st2" d="M53.4,0.2c-3-0.1-6,1-8.2,3
					c-6.3,5.8-7.9,15.3-8.5,23.3v0.2c0.1,9.9,3.1,25.6,15.9,25.6c1,0,2-0.1,3-0.3c1.9-0.4,3.6-1.3,5.1-2.6
					c6.3-5.6,8.1-15.4,8.7-23.4v-0.2C69.4,16.1,66.1,0.4,53.4,0.2z M55.3,37.5c-0.6,0.6-1.4,0.9-2.2,0.9c-5.4-0.9-6.4-7.9-6.3-12.3
					v-0.2c-0.1-2.9,1.2-8.5,3.7-10.7c0.4-0.4,0.9-0.7,1.4-0.8c0.2,0,0.5-0.1,0.7-0.1c5.4,0.9,6.4,7.9,6.4,12.3v0.1
					C59.2,29.7,57.8,35.3,55.3,37.5z"/>
				<path id="path20_00000107588448655051846060000018379564137935074489_" class="st2" d="M98,1.1h-1.3c-0.1,7.1-0.1,14.2-0.1,21.4
					C93.3,15.5,90.2,8.6,87,1.6c-0.1-0.1-0.2-0.3-0.2-0.4h-0.6c-3,0-4.5,0-7.4,0h-1.3c-0.1,16.7-0.2,33.5-0.3,50.3h10.1
					c0-7.4,0.1-14.9,0.1-22.3c3.3,7.3,6.6,14.5,9.9,21.8c0.1,0.2,0.2,0.3,0.2,0.5h8.9c0.1-16.7,0.3-33.5,0.4-50.2h-0.9
					C102.6,1.1,101.1,1.1,98,1.1L98,1.1z"/>
				<path id="path22_00000000908726757211412310000013955967159782109313_" class="st2" d="M116,22.1h-1.3
					c-0.1,5.4-0.1,8.1-0.1,13.5c0.3,0,0.6,0,0.9,0c5.4,0,8.1-0.1,13.5-0.1h1.3c0.1-5.4,0.1-8.1,0.1-13.5h-0.9
					C124,22,121.4,22.1,116,22.1z"/>
				<path id="path24_00000160894838825996393550000002113579653136115613_" class="st2" d="M140.1,1h-1.2
					c-0.2,16.7-0.4,33.5-0.6,50.3h1c3.2,0,4.8,0,8,0h1.2c0-5.7,0.1-11.5,0.2-17.2h13.7c0-5.3,0.1-7.8,0.1-13.1h-1
					c-5.2,0-7.8,0-12.6,0c0-2.5,0-3.8,0-6.3H164c0-5.5,0.1-8.2,0.2-13.7h-1.1C155.4,1,147.8,1,140.1,1z"/>
				<path id="path26_00000107577815842424571990000009607484364144975548_" class="st2" d="M191.6,1h-1.1
					c-0.1,9.4-0.3,18.8-0.4,28.2c0,4.1-0.9,7-2.4,8.3c-0.5,0.5-1.2,0.7-1.9,0.7c-2.7,0-4.2-3.5-4.1-9.4c0.1-9.3,0.3-18.6,0.4-27.8
					h-10.4c-0.1,9.4-0.2,18.8-0.4,28.2c-0.3,9.3,2,23.3,14.2,23h0.4c12.2-0.6,14.2-13.7,14.7-23.3c0.1-9.3,0.3-18.6,0.4-27.9h-1.1
					C196.5,1,194.9,1,191.6,1L191.6,1z"/>
				<path id="path28_00000016795159509883897080000004902777266648015515_" class="st2" d="M238.1,1.1c-3.1,0-4.7,0-8,0H229
					c-0.1,7.2-0.3,14.4-0.4,21.7c-3.1-7-6.2-14-9.4-21c-0.1-0.2-0.1-0.4-0.2-0.6h-9.5c-0.3,16.8-0.5,33.5-0.8,50.3h10.1
					c0.1-7.5,0.3-15.1,0.4-22.6c3.3,7.3,6.5,14.6,9.8,22c0.1,0.2,0.2,0.4,0.3,0.6h0.8c2.8,0,4.3,0,7,0c0.3,0,0.7,0,1,0
					c0.3-16.8,0.6-33.6,0.9-50.4L238.1,1.1z"/>
				<path id="path30_00000013907752170305417180000010952890794846669983_" class="st2" d="M276.2,21.3c-5.3,0-7.9,0-13.2,0h-1
					c-0.1,4.7-0.1,7.1-0.2,11.8h1.2c1.8,0,2.9,0,4.4,0c0,1.8,0,2.7-0.1,4.5c-0.9,1-2.3,1.5-3.6,1.5c-1.2,0-2.3-0.6-3.1-1.4
					c-2.7-2.6-3.4-8-3.3-11v-0.1c0-4.6,1.2-11.3,6.7-12.4c1.8-0.1,3.8,1.2,5.7,4c0.4,0.6,0.7,1,1.1,1.6c0.3-0.6,0.5-0.9,0.8-1.6
					c2-3.8,3-5.7,4.9-9.5c0.1-0.2,0.1-0.2,0.2-0.4c-0.1-0.2-0.2-0.3-0.3-0.5c-2.7-4.4-7.2-7.7-12.6-7.7c-12.9-0.5-16.7,16.5-17,26
					v0.2c0.2,7.8,1.7,17.6,7.9,23.1c2,1.6,4.4,2.7,7,2.9c0.5,0,1,0,1.5,0c5,0,11-3.6,13.5-7.8c0,0,0-0.1,0.1-0.2
					c0.1-7.7,0.3-15.4,0.5-23.1C277,21.2,276.6,21.2,276.2,21.3z"/>
				<path id="path32_00000001659390849092880850000014283853698615200417_" class="st2" d="M295.4,1.2h-8.9
					c-0.4,16.8-0.8,33.6-1.2,50.4h10.2c0.2,0,0.1-6.8,0.2-7.2c0.2-10.6,0-21.3,0.6-32c0.1-0.8,0-11.2,0.3-11.2
					C296.7,1.2,295.4,1.2,295.4,1.2z"/>
				<path id="path34_00000091008525457350259800000014078083216937484452_" class="st2" d="M332.5,37.4c0.1-5.6-1.3-9.6-4.7-12
					c2.5-2.4,3.9-5.8,4-10.6v-0.1c0.2-2.9-0.4-5.8-1.7-8.4c-1.7-3.2-5.2-5.2-8.8-5.1h-15.5c-0.4,16.8-0.8,33.6-1.2,50.4h1.3
					c4.9,0,9.8,0,14.7,0c7.2-0.6,12.5-6.8,12-14c0,0,0,0,0-0.1C332.6,37.5,332.6,37.5,332.5,37.4z M321.8,17.1
					c-0.1,2.3-1,3.5-2.9,3.5h-3.6c0-2.6,0.1-3.9,0.1-6.5h4.3c0.5,0,1,0.1,1.4,0.4c0.6,0.7,0.8,1.6,0.7,2.5L321.8,17.1z M314.8,38.9
					c0-2.8,0.1-4.2,0.2-6.9c1.9,0,3,0,5.2,0c0.6,0,1.2,0.1,1.6,0.5c0.6,0.7,0.9,1.7,0.7,2.6v0.1c0,1.3-0.4,3.7-3,3.6L314.8,38.9z"/>
				<path id="path36_00000183248704832585634960000009446793762198585237_" class="st2" d="M362.1,38H350c0.3-12.2,0.7-24.4,1-36.7
					h-9.2c-0.3,0-0.6,0-0.8,0c-0.4,16.8-0.9,33.6-1.4,50.4h1.4c7.1,0,14.3,0,21.4,0h0.7c0.1-5.5,0.2-8.3,0.4-13.8
					C362.9,38,362.7,38,362.1,38z"/>
				<path id="path38_00000170265997275706060160000017420298039805388213_" class="st2" d="M395.5,38.3h-15.2c0-2.3,0.1-3.4,0.1-5.6
					h13.2c0.1-5.1,0.2-7.6,0.4-12.6h-1.5c-4.8,0-7.4,0-11.8,0c0-2.1,0.1-3.2,0.1-5.3c4.7,0,9.4,0,13.9,0h0.7
					c0.2-5.4,0.2-8.1,0.4-13.5h-1.5c-7.4,0-14.9,0-22.2,0h-0.7c-0.5,16.8-1,33.6-1.5,50.5h25.3C395.6,46.4,395.3,43.7,395.5,38.3z"
					/>
			</g>
		</g>
	</g>
</g>
</svg>
