<svg id="Layer_1" data-name="Layer 1" xmlns="http://www.w3.org/2000/svg" viewBox="0 0 166 130"><defs><style>.cls-1{fill:#fc2424;}.cls-2{fill:#4488ea;}.cls-3{fill:#231f20;}.cls-4{fill:none;}</style></defs><path id="Path_451" data-name="Path 451" class="cls-1" d="M15,14.85A37.72,37.72,0,0,1,68,15a36.94,36.94,0,0,1-.11,52.56,37.73,37.73,0,0,1-52.91,0,36.75,36.75,0,0,1-.37-52.3Z"/><path id="Path_453" data-name="Path 453" class="cls-1" d="M97.83,14.85a37.72,37.72,0,0,1,53,.1,36.94,36.94,0,0,1-.11,52.56,37.73,37.73,0,0,1-52.91,0,36.75,36.75,0,0,1-.36-52.3Z"/><path id="Path_455" data-name="Path 455" class="cls-2" d="M56.42,56.07a37.71,37.71,0,0,1,53,.1,36.94,36.94,0,0,1-.1,52.56,37.73,37.73,0,0,1-52.91,0,36.75,36.75,0,0,1-.37-52.3Z"/><path class="cls-3" d="M166,41.38v-.16a41.6,41.6,0,0,0-83-3.63A41.35,41.35,0,0,0,41.75,0,41.4,41.4,0,0,0,0,41.06,41,41,0,0,0,13.82,71.9C3.25,73.35.41,75.61.41,78.16c0,4.09,18.1,7.4,41.17,7.8a41.06,41.06,0,0,0,16.57,29.52c-12.22,1.42-16.3,3.85-16.3,6.61,0,4.36,16.09,7.91,41.32,7.91s41.36-3.55,41.36-7.91c0-2.78-4.18-5.23-16.63-6.64A41.06,41.06,0,0,0,124.42,86c23.06-.4,41.54-3.71,41.54-7.79,0-2.55-3.21-4.81-13.79-6.25A40.94,40.94,0,0,0,166,41.38ZM42,74.48A33.2,33.2,0,0,1,18.12,17.71,33.61,33.61,0,0,1,75.39,41.13c0,.26,0,.52,0,.79A41.44,41.44,0,0,0,42.2,74.47Zm41.41,41.19A33.39,33.39,0,0,1,49.73,82.52c0-.29,0-.58,0-.87a33.24,33.24,0,0,1,1.3-8.45h0a32.28,32.28,0,0,1,1.4-3.86A33.52,33.52,0,0,1,68.25,52.7a34.79,34.79,0,0,1,5.82-2.24h0a34,34,0,0,1,8.31-1.25l.79,0a33.5,33.5,0,0,1,32.31,24h0a33.2,33.2,0,0,1-32.12,42.47ZM91.15,42c0-.23,0-.46,0-.69A33.12,33.12,0,0,1,101,17.71a33.61,33.61,0,0,1,57.27,23.42,33.41,33.41,0,0,1-33.45,33.35l-1,0A41.34,41.34,0,0,0,91.15,42Z"/><rect class="cls-4" width="166" height="130"/></svg>