<?xml version="1.0" encoding="utf-8"?>
<!-- Generator: Adobe Illustrator 25.4.1, SVG Export Plug-In . SVG Version: 6.00 Build 0)  -->
<svg version="1.1" id="Layer_1" xmlns="http://www.w3.org/2000/svg" xmlns:xlink="http://www.w3.org/1999/xlink" x="0px" y="0px"
	 viewBox="0 0 166 130" style="enable-background:new 0 0 166 130;" xml:space="preserve">
<style type="text/css">
	.st0{fill:#F6F6F6;}
</style>
<path class="st0" d="M165.9,41.6v-0.2c-0.2-23-19-41.4-42-41.2C102.7,0.4,85,16.6,83,37.7C81.1,16.5,63.2,0.2,41.8,0.2
	C18.9,0,0.2,18.4,0,41.3l0,0c0,11.8,5,23,13.8,30.8C3.3,73.6,0.5,75.8,0.5,78.4c0,4.1,18.1,7.4,41.2,7.8c1,11.8,7.1,22.5,16.6,29.5
	c-12.2,1.4-16.3,3.8-16.3,6.6c0,4.4,16.1,7.9,41.3,7.9s41.4-3.5,41.4-7.9c0-2.8-4.2-5.2-16.6-6.7c9.5-7,15.5-17.7,16.5-29.5
	c23.1-0.4,41.5-3.7,41.5-7.8c0-2.5-3.2-4.8-13.8-6.2C160.9,64.4,165.9,53.3,165.9,41.6z M42,74.7C23.7,74.9,8.6,60.3,8.4,41.9
	c-0.1-9,3.4-17.6,9.8-23.9C31.3,4.9,52.6,5,65.7,18.2c6.1,6.2,9.6,14.5,9.8,23.2c0,0.3,0,0.5,0,0.8c-16.7,3-29.8,15.9-33.2,32.6
	L42,74.7L42,74.7z M83.3,115.9C65,116,49.9,101.2,49.8,82.7c0-0.3,0-0.6,0-0.9c0.1-2.9,0.5-5.7,1.3-8.4l0,0
	c2.6-8.9,8.8-16.4,17.2-20.5c1.9-0.9,3.8-1.7,5.8-2.2l0,0c2.7-0.8,5.5-1.2,8.3-1.3h0.8c14.9-0.1,28.1,9.7,32.3,24l0,0
	c5.1,17.6-5,36-22.6,41.2C89.7,115.5,86.5,115.9,83.3,115.9L83.3,115.9z M91.1,42.2c0-0.2,0-0.5,0-0.7c0-8.8,3.5-17.3,9.8-23.6
	c13.2-13.1,34.4-13,47.5,0.2c6.1,6.2,9.6,14.5,9.8,23.2c0,18.4-15,33.4-33.4,33.3l0,0h-1C120.4,58.3,107.6,45.5,91.1,42.2z"/>
</svg>
