<?xml version="1.0" encoding="utf-8"?>
<!-- Generator: Adobe Illustrator 25.4.1, SVG Export Plug-In . SVG Version: 6.00 Build 0)  -->
<svg version="1.1"
	 id="svg43" inkscape:version="0.92.5 (2060ec1f9f, 2020-04-08)" sodipodi:docname="rmutt.svg" xmlns:cc="http://creativecommons.org/ns#" xmlns:dc="http://purl.org/dc/elements/1.1/" xmlns:inkscape="http://www.inkscape.org/namespaces/inkscape" xmlns:rdf="http://www.w3.org/1999/02/22-rdf-syntax-ns#" xmlns:sodipodi="http://sodipodi.sourceforge.net/DTD/sodipodi-0.dtd" xmlns:svg="http://www.w3.org/2000/svg"
	 xmlns="http://www.w3.org/2000/svg" xmlns:xlink="http://www.w3.org/1999/xlink" x="0px" y="0px" viewBox="0 0 1360 1600"
	 style="enable-background:new 0 0 1360 1600;" xml:space="preserve">
<style type="text/css">
	.st0{fill:#FBFBFB;}
	.st1{fill:#231F20;stroke:#231F20;stroke-width:0.25;stroke-miterlimit:10;}
	.st2{fill:#231F20;stroke:#231F20;stroke-width:0.75;stroke-miterlimit:10;}
	.st3{fill:#DC2126;}
</style>
<sodipodi:namedview  bordercolor="#666666" borderopacity="1" gridtolerance="10" guidetolerance="10" id="namedview45" inkscape:current-layer="svg43" inkscape:cx="453.0013" inkscape:cy="896.9893" inkscape:pageopacity="0" inkscape:pageshadow="2" inkscape:window-height="1016" inkscape:window-maximized="1" inkscape:window-width="1848" inkscape:window-x="72" inkscape:window-y="27" inkscape:zoom="1.4289716" objecttolerance="10" pagecolor="#ffffff" showgrid="false">
	</sodipodi:namedview>
<g id="Layer_5">
</g>
<g id="g877" transform="translate(-131.05303,-2.4904957)">
	<g id="Layer_4">
		<path id="path3" inkscape:connector-curvature="0" class="st0" d="M553.4,1462.8c8.2,2.4,16.4,4.6,24.6,6.7
			c74.9,18.4,154.1,27.6,230.9,27.4c6.2,0.1,12.4,0.1,18.5,0c7.6,0,15.1,0,22.7-0.1c22.7-0.1,45.3-0.2,67.9,0.3
			c10.1,0,20.2,0,30.6,0c9.7,0,19.7,0,30,0c0.4,0.5,0.8,1.1,1.3,1.6c8.1,7.7,13.6,16.9,21.5,24.8c0.7,0.7,1.4,1.4,2,2.1
			c0.7,0.7,1.3,1.5,1.9,2.2c0.5,0.6,1,1.2,1.5,1.8c1.7,1.6,3.4,3.3,4.9,5.1c1.6,1.8,3.1,3.6,4.6,5.3c3,3.7,6.2,6.6,9.8,8.6
			c0.9,0.5,1.8,1,2.7,1.4c32.7,6,67.7-1.3,98.4-11.6c1-0.4,1.9-0.9,2.9-1.4c2.9-1.4,5.7-3,8.4-4.8c0.9-0.9,1.6-1.8,2.3-2.8
			c2.1-2.9,3.4-6.3,3.3-10.1c-0.2-0.7-0.4-1.4-0.7-2.2c-0.3-0.7-0.6-1.5-1-2.3c-0.4-1.1-0.9-2.2-1.4-3.3c-1.6-3.3-3.7-6.4-6.1-9.2
			c-0.7-1.2-1.4-2.5-2.2-3.7c-4.8-8.1-9.9-16.1-13-24.1c21.1-5.9,42.9-16.4,62-21.3c3.7-1.5,7.4-3,11-4.6c3.6-1.6,7.1-3.2,10.4-4.9
			c11.6-5.3,22.9-11.1,34-17.3c44.5-24.5,86.1-54.6,127.6-83.4c8.9-7.3,17.9-15.6,26.3-24.7c20.5-19.9,37.6-48,44.4-77.1
			c0.6-2.6,1.2-5.3,1.6-7.9c5.3-26-0.2-51.8-13.8-73.3c-1.5-2.1-3.1-4.2-4.6-6.3c-3.3-4.6-9.8-12.1-11.5-17.4
			c-0.6-1.8-0.5-3.5-0.2-5.1c8.5-5,17.5-8.7,26.1-13.5c6.9-3.9,14.5-3.7,21.9-6.7c9.5-3.9,19.8-14.7,14.7-24.5
			c-0.8-1.5-1.8-2.9-3.3-4.3c-1.8-1.7-5.3-3.4-6.2-5.8c-0.5-1.4-0.6-3-0.6-4.5c0-6.9,0-13.9,0-20.8c0-5.5,1.7-12.6,0.3-17.8
			c-1.6-5.9-7.9-9-12.6-11.9c-10.4-6.5-21-12.5-28.1-22.9c-2-2.9-3.5-5.9-4.7-9.2c-1.3-3.7-2.4-6.3-5.2-9.2
			c-2.5-2.6-5.4-4.7-9.1-5.3c-2.5-0.4-5,0-7.5,0.3c-0.2-33.8-7.6-67.9-19.4-99.5c-26.5-70.7-70.8-135.8-121.4-191.4
			c-49.4-54.3-106-101.5-154.5-156.7c-50.6-57.7-88.1-124.7-118.6-194.9c-21.6-49.6-37.8-101.5-61.8-150.1
			C894.7,137.5,864,90.7,815.5,70.3c-13.1-5.5-26.8-8.5-40.7-11.1c-14.7-2.7-29.4-4.8-44.3-5.9c-24.6-1.8-49.6-0.9-73.8,4.7
			c-39.2,9-72.4,31.5-95.8,64.1c-10.5,14.6-21.7,28.9-32.6,42.8c-11.8,15.1-22.7,30.7-32.9,46.9c-3.5,5.5-6.9,11.2-9.2,17.3
			c-2.8,7.4-5.3,15-7.7,22.5c-4.7,14.9-8.5,30-11.9,45.2c-7,30.6-12.3,61.6-17.7,92.6c-5.5,31.7-12.9,63-20.3,94.3
			c-4.1,17.3-8.2,34.7-12,52.1c-3.3,15.1-5.8,30.4-10.3,45.3c-4.3,14.4-12.3,27.5-18.8,41c-14.4,29.9-28.7,59.8-41.6,90.4
			c-7.9,18.8-12.2,38.6-19.5,57.5c-6.3,16.4-27.8,88.6-32.3,107.3c-4.7,19.5-8.8,39.1-11.1,59.1c-2.2,19.4-4.5,38.8-6.7,58.1
			c-1.9,16.3-0.6,36-10.1,50c-15.2,22.3-44.4,26.6-68,35.2c-8.8,3.2-17.6,7-25.2,12.6c-14.9,11-12.1,32.1-13.4,48.8
			c-0.5,6.5-1,12.3-4.5,17.9c-4.1,6.5-6.4,12.1-0.9,18.8c6.1,7.4,13.3,14,18.2,22.4c7.3,12.6,3.8,25.1,3.7,38.5
			c-0.3,10.5-5.4,22.4-3.3,32.9c3.6,17.7,29.5,27.6,45.5,22.7c11.2-3.4,21.7-4.8,31.6-3.4c3.3,0.5,6.6,1.2,9.8,2.3
			c10.4,2.8,21.5,8.3,32.8,8.5c3.9,0.6,7.8,1.1,11.7,1.5c2.9,0.3,5.8,0.6,8.7,1c2.3,8.2,10.6,15.6,15.6,22.1
			c7.4,9.7,15.4,18.8,24.3,27.2c5.5,5.2,11.1,10.2,16.8,15c40,33.9,86,59.5,135.1,77.9"/>
	</g>
	<g id="Layer_3">
		<g id="g24">
			<path id="path6" inkscape:connector-curvature="0" class="st1" d="M1019.5,1119.7C1020.1,1119.6,1020.4,1119.6,1019.5,1119.7z"/>
			<path id="path8" inkscape:connector-curvature="0" class="st1" d="M497.6,1053.6c20.3,13.4,42.1,24.6,63.2,34.2
				c60,27.2,125,42.3,190.3,49c119.5,12.2,245.6,15.1,362.4-16.9c39-10.7,77-26.7,109.8-50.5c29.5-21.4,47.6-58.9,49.1-95.5
				c1.5-35.8-9.7-70.7-24.6-102.8c-11.7-25.1-27.4-48.1-44.2-70c-18-23.6-37.8-45.7-58.4-67.1c-41.3-42.9-85.8-82.6-127.8-124.8
				c-41.7-41.9-81.3-86.8-110.8-138.3c-7.5-13.2-14.4-26.7-20.5-40.6c-7.5-17-15.7-33.5-22-51c-6.7-18.7-12.7-37.6-18.8-56.4
				c-6.1-18.6-11.8-37.6-19.9-55.5c-7.8-17.2-16.5-34.4-26.3-50.6c-4.5-7.4-10.2-13.1-16.4-19.1c-23.8-23-58.6-29.8-90.1-19.8
				c-32.6,10.4-50.9,35.6-65.2,65.1c-8.1,16.7-13.9,34.5-18.6,52.4c-9.6,36.7-13.8,74.3-20.4,111.6c-6.5,36.4-15.4,72.2-28.5,106.8
				c-15.6,40.8-34.7,80.2-53.9,119.4c-19.4,39.6-39.2,79-56.5,119.7c-15.5,36.5-29.4,74.4-35.7,113.7c-5.5,34.2-5,70.1,8.4,102.5
				C436.7,1004.7,465.1,1032,497.6,1053.6L497.6,1053.6z M1232.5,1029.6c-18.8,31.7-59.1,50.5-92.2,63.2
				c-40,15.3-81.6,22.7-124.1,26.3c-52,4.5-104.3,5.9-156.5,4.1c-76.4-2.5-155.9-8.2-229-31.5c-42.9-13.7-84.3-33.6-120.1-61.3
				c-17.8-13.8-33.6-29.5-48-46.9c-7.4-9-12.8-16.3-16.9-27.5c-1.3-3.5-11.1-30.8-8-32.9c46.5-32.4,98.8-56.3,153.3-71.9
				c58.5-16.8,119.4-24.9,180.2-25.4c60.5-0.5,121.1,6.6,179.9,21c55.7,13.7,109.8,34.2,159.6,62.8c23.6,13.6,44.7,27.9,65.8,45.5
				c20.4,17,36.5,33.1,52.9,53.8c2.8,3.5,5.4,7,8,10.6c-0.2,0.5-0.4,0.9-0.6,1.4C1235.6,1024.1,1234.1,1026.9,1232.5,1029.6
				L1232.5,1029.6z M455.4,799.9c13.4-39.7,31-77.9,49.2-115.6c19-39.5,38.9-78.5,57.1-118.3c8.4-18.5,16.4-37.1,23.7-56.1
				c13.3-35.1,22.4-71.5,28.8-108.5c6.4-36.7,10.6-73.8,20.1-109.9c4.6-17.7,10.3-35.2,18.3-51.7c6.3-13,13.2-27.6,25.4-35.8
				c12.1-8.2,26.7-12.6,41.3-12.2c11.8,0.4,23.5,3.9,33.6,10c10.6,6.4,16,14.3,22,24.7c4.9,8.5,9.4,17.2,13.8,25.9
				c8.7,16.9,16,34,22.2,52c6.3,18.5,12.2,37.1,18.3,55.7c5.9,17.9,11.8,35.9,19.8,52.9c13.4,28.4,26.1,56.7,42.9,83.4
				c15.5,24.6,33.2,47.8,52.2,69.8c38.3,44.5,81.4,84.3,123.7,124.8c42.1,40.3,83.7,81.7,118.3,128.8c15.3,20.9,28.9,42.4,39.3,66.1
				c7.5,17.1,13.7,34.9,17.5,53.3c4.5,22,5.3,44-0.3,65.4c-30.4-40.2-69.3-73.3-111.7-100.2c-49.3-31.2-103.8-53.9-159.9-69.7
				c-59.1-16.7-120.4-25.5-181.7-27c-61.5-1.5-123.3,4.5-183,19.4c-58.5,14.5-115.3,37.4-165.9,70.4c-1.4,0.9-2.9,1.9-4.3,2.9
				C436,866.1,444.5,832,455.4,799.9L455.4,799.9z"/>
			<path id="path10" inkscape:connector-curvature="0" class="st1" d="M607.2,704c6.8-0.4,11.9-6.6,11.4-13.7
				c-0.5-7.1-6.4-12.5-13.2-12.1c-6.8,0.4-11.8,6.6-11.3,13.7C594.6,699,600.5,704.4,607.2,704L607.2,704z"/>
			<path id="path12" inkscape:connector-curvature="0" class="st1" d="M585.2,753.4c6.8-0.4,11.9-6.6,11.4-13.7
				c-0.5-7.1-6.3-12.5-13.1-12.1c-6.8,0.4-11.9,6.6-11.4,13.7S578.4,753.9,585.2,753.4z"/>
			<path id="path14" inkscape:connector-curvature="0" class="st1" d="M634.5,746c6.8-0.4,11.9-6.6,11.4-13.7s-6.3-12.5-13.1-12.1
				c-6.8,0.4-11.9,6.6-11.4,13.7C621.9,741,627.7,746.4,634.5,746z"/>
			<path id="path16" inkscape:connector-curvature="0" class="st1" d="M571.9,801.4c6.8-0.4,11.9-6.6,11.4-13.7
				c-0.5-7.1-6.3-12.5-13.1-12.1c-6.8,0.4-11.9,6.6-11.4,13.7C559.3,796.5,565.2,801.9,571.9,801.4z"/>
			<path id="path18" inkscape:connector-curvature="0" class="st1" d="M665.2,784.4c6.8-0.4,11.9-6.6,11.4-13.7
				c-0.5-7.1-6.3-12.5-13.1-12.1c-6.8,0.4-11.9,6.6-11.4,13.7S658.5,784.8,665.2,784.4z"/>
			<path id="path20" inkscape:connector-curvature="0" class="st1" d="M606.6,780.7c0.5,7.1,6.3,12.5,13.1,12.1
				c6.8-0.4,11.9-6.6,11.4-13.7c-0.5-7.1-6.3-12.5-13.1-12.1C611.3,767.5,606.2,773.6,606.6,780.7z"/>
			<path id="path22" inkscape:connector-curvature="0" class="st1" d="M1028.7,1258L1028.7,1258
				C1028.8,1258,1028.8,1258,1028.7,1258z"/>
		</g>
		<path id="path26" inkscape:connector-curvature="0" class="st2" d="M1469.7,1086.9c-0.8-1.5-1.8-2.9-3.3-4.3
			c-1.8-1.7-5.3-3.4-6.2-5.8c-0.5-1.4-0.6-3-0.6-4.5c0-6.9,0-13.9,0-20.8c0-5.5,1.7-12.6,0.3-17.8c-1.6-5.9-7.9-9-12.6-11.9
			c-11.7-7.3-23.7-14-30.6-27c-0.9-1.7-1.6-3.5-2.3-5.4c-1.2-3.6-2.4-6.2-5.1-9c-2.5-2.6-5.4-4.7-9.1-5.3c-2.5-0.4-5,0-7.5,0.3
			c-0.2-33.8-7.6-67.9-19.4-99.5c-26.5-70.7-70.8-135.8-121.4-191.4c-49.4-54.3-106-101.5-154.5-156.7
			c-50.6-57.7-88.1-124.7-118.6-194.9c-21.6-49.6-37.8-101.5-61.8-150.1C894.7,137.5,864,90.7,815.5,70.3
			c-13.1-5.5-26.8-8.5-40.7-11.1c-14.7-2.7-29.4-4.8-44.3-5.9c-24.6-1.8-49.6-0.9-73.8,4.7c-39.2,9-72.4,31.5-95.8,64.1
			c-10.2,14.3-21.2,28.2-31.8,41.8c-12,15.4-23.3,31.3-33.7,47.9c-3.5,5.5-6.9,11.2-9.3,17.3c-2.8,7.4-5.3,15-7.7,22.5
			c-4.7,14.9-8.5,30-11.9,45.2c-7,30.6-12.3,61.6-17.7,92.6c-5.5,31.7-12.9,63-20.3,94.3c-4.1,17.3-8.2,34.7-12,52.1
			c-3.3,15.1-5.8,30.4-10.3,45.3c-4.3,14.4-12.3,27.5-18.8,41c-14.4,29.9-28.7,59.8-41.6,90.4c-7.9,18.8-12.2,38.6-19.5,57.5
			c-6.3,16.4-27.8,88.6-32.3,107.3c-4.7,19.5-8.8,39.1-11.1,59.1c-2.2,19.4-4.5,38.8-6.7,58.1c-1.9,16.3-0.6,36-10.1,50
			c-15.2,22.3-44.4,26.6-68,35.2c-8.8,3.2-17.6,7-25.2,12.6c-14.9,11-12.1,32.1-13.4,48.8c-0.5,6.5-1,12.3-4.5,17.9
			c-4.1,6.5-6.4,12.1-0.9,18.8c6.1,7.4,13.3,14,18.2,22.4c7.3,12.6,3.8,25.1,3.7,38.5c-0.3,10.5-5.4,22.4-3.3,32.9
			c3.6,17.7,29.5,27.6,45.5,22.7c11.2-3.4,21.7-4.8,31.6-3.4c3.3,0.5,6.6,1.2,9.8,2.3c10.4,2.8,21.5,8.3,32.8,8.5
			c3.9,0.6,7.8,1.1,11.7,1.5c2.9,0.3,5.8,0.6,8.7,1c2.3,8.4,11.1,15.9,16,22.6c7.3,9.7,15.4,18.7,24.3,27.1
			c5.3,5.1,10.8,10,16.4,14.7c40,33.9,86,59.5,135.1,77.9c8,3,16.1,5.8,24.3,8.5c8.1,2.7,16.3,5.3,24.5,7.7
			c8.2,2.4,16.4,4.6,24.6,6.7c131.8,32.4,272,35.2,407,37.3c4,0.1,16,16.9,18.5,19.7c5.7,6.5,11.7,14.5,19.1,19.9
			c9.9,7.4,20.4,5.9,32.3,5.8c24.7-0.2,49.1-6,72.4-13.7c9.8-4.5,20.4-12.6,15.7-25.1c-1.1-3-25.9-38-23.2-38.7
			c58.5-16.2,115-40.3,166.6-72.4c48.5-30.2,105.3-70.7,133.7-121.6c6.8-12.3,12.2-25.4,15.4-39.1c0.6-2.6,1.2-5.3,1.6-7.9
			c5.3-26-0.2-51.8-13.8-73.3c-1.5-2.1-3.1-4.2-4.6-6.3c-3.3-4.6-9.8-12.1-11.5-17.4c-0.6-1.8-0.5-3.5-0.2-5.1
			c8.5-5,17.5-8.7,26.1-13.5c6.9-3.9,14.5-3.7,21.9-6.7C1464.5,1107.5,1474.8,1096.7,1469.7,1086.9L1469.7,1086.9z M424.9,541.2
			c3.4-15.6,7-31.2,10.6-46.8c7.3-31,15.4-62,20.9-93.4c5.4-31,10.6-62,17.1-92.7c3.2-15.2,6.8-30.4,11-45.4
			c2.1-7.6,4.5-15.1,7.1-22.5c2.5-7.4,5.2-14.5,9-21.3c9.6-17,21.8-32.4,33.7-47.9c-8.4,20.2-14.8,41.4-20.4,62.3
			c-12,44.6-20.6,90.1-31.9,135c-2.9,11.4-5.9,22.8-9.2,34.1c-3.8,13.2-7.2,26.3-10.8,39.6c-8.4,30.9-19.8,60.9-32.6,90.2
			c-1.7,3.9-3.4,7.8-5.1,11.6C424.5,543,424.7,542.1,424.9,541.2L424.9,541.2z M332.2,800c16.1-62.2,44.5-120.5,72.3-178.1
			c27.7-57.4,56.2-115.1,73.5-176.6c3.7-13.2,6.8-26.5,10.7-39.6c3.3-11.1,6.3-22.2,9.2-33.4c5.7-22.3,10.8-44.8,15.8-67.3
			c9.4-41.9,18.3-84.5,33.8-124.7c13-33.8,31.4-67.4,61-89.2c33.7-24.7,76.3-29.7,117.9-26.4c14.5,1.2,28.9,3.2,43.2,6
			c13,2.5,25.8,5.5,37.9,11.2c22.2,10.5,40.6,27.3,55.8,46.4c32.6,41,52,91,70.5,139.5c23.2,60.9,48.6,120.8,82.2,176.8
			c19.1,31.8,40.7,61.9,65.1,89.8c23.6,27,49.3,52.1,75.1,77.1c25.8,24.9,51.8,49.7,76.1,76c24.9,27,47.5,55.9,67.9,86.4
			c38.3,57.3,71,122.9,75.1,192.9c1.8,30.1-2.4,61.1-14.1,89c-12.5,29.6-32.9,54.5-58.2,74.1c-52.4,40.7-118.2,59.9-182.7,71.1
			c-52.9,9.2-106.6,14.9-160.1,18.3c-53.3,3.5-106.9,4.1-160.2,1c-53.7-3.1-107.3-10-159.7-22.7c-50.4-12.2-99.7-29.8-145.2-55.2
			c-44.2-24.6-84.1-56.5-116.2-95.7c-16.3-19.9-30.5-41.4-42.4-64.2C315,923.2,316.5,860.5,332.2,800L332.2,800z M1096.5,1317
			c-1.3-1.9-2.7-3.9-4-5.8c-3.5-5-6.6-10.1-10.8-14.5c-4.5-4.6-9.3-8.9-14.6-12.6c-0.1,0,4.5-6.7,4.9-7.3c1.3-2.4,1.7-5,1.7-7.7
			c1.2,0.9,2.4,1.8,3.6,2.8C1091.2,1283.2,1098.2,1300,1096.5,1317L1096.5,1317z M299,1256.4c0,8.7,0,17.3,0,26
			c-2.7,0.1-5.5,0.2-8.2,0.2c-4.4,0.1-8.8,0-13.1-0.6c-4.3-0.6-8.5-1.9-12.7-3.1c-8.3-2.4-16.7-5.6-25.5-5.5c-1.9,0-5,0.5-6.9,1
			c-10.4,2.9-26.6,4-35.1-3.1c-4.3-3.6-4.4-11.6-5-16.5c-1.7-15.6,1.3-31.3-1-46.9c-2-13.5-9.5-23.8-17.2-34.5
			c-1.9-2.6-6.7-6-7.6-8.9c-0.1-0.3-0.2-0.6-0.2-0.9c-0.3-2.1-0.1-4.5,0-6.6c0.2-4.9,0.6-9.7,1-14.6c0.5-6.5,1.2-12.9,2-19.3
			c9.5,12.9,15.7,28.2,18.5,44.1c1.6,9.2,3.9,18.4,4.7,27.8c0.7,8.4-0.9,17.5,0.3,25.8c1.1,8,6.3,16.3,14.9,16.8
			c7.6,0.4,16-1.7,23.5-2.4c8.1-0.8,16.3-0.6,24.5-1c15.6-0.8,29.9,0.7,44.6,4.1C298.3,1243.7,299,1250.7,299,1256.4L299,1256.4z
			 M336.4,1214.8c-3.2,3.7-9.7,5.8-13.8,8.2c-5.5,3.2-11.8,5.1-17.2,8.7c-0.3,0.2-0.5,0.4-0.8,0.6c-24.2-5.8-48.4-6.4-73.3-3.9
			c-6.2,0.6-12.7,2.2-19,2.2c-12.7-0.1-12.6-10.3-12.6-20.7c0-13.5-2-25.9-4.4-39c-2.1-11.4-4.8-21.4-9.2-32.1
			c-2.2-5.5-4.7-11.1-8.1-15.9c-1.6-2.3-4.4-4.4-5.6-6.9c-2.4-4.8,0.8-13.6,4.7-17.2c9.8-9.3,25.7-13.5,38.2-17.2
			c11.9-3.5,23.5-7.2,34.3-13.4c1.2-0.2,2.4-0.3,3.6-0.4c3.1-0.6,6.2-1,9.2-1c7.4,0.4,17.1,2.2,23.2,7c5.3,4.2,7,12.1,9.2,18.2
			c0.5,1.3,1.1,2.6,1.8,3.8c2.1,3.9,3.7,7.9,5.3,12c4.7,11.6,9.2,23.2,13.7,34.8c5.1,13.3,10.3,26.5,15.5,39.8
			c2.9,7.3,6.9,14.5,7.6,22.5C339,1209.8,338.2,1212.7,336.4,1214.8L336.4,1214.8z M913.1,1432.3c-2.8,0.1-5.5,0.2-8.3,0.3
			c-1-0.1-2.1-0.3-3.1-0.1c-0.3,0-0.6,0.1-0.9,0.2c-63.3,1.6-125.9-2.4-188.9-8.8c-101.2-10.3-201.3-34.3-288.3-88.8
			c-18.1-11.3-37-25.7-48.1-44.8c-12.2-21-12.1-42.9-16.1-65.8c-3.6-20.6-17.2-43.8-24.8-63.3c-4.5-11.7-9-23.3-13.6-35
			c-4.6-11.6-10-21.8-13.9-33.8c-7.6-23.4-12.1-47.8-13.2-72.4c-1-25.2,0.9-50.5,4.9-75.3c1.3-8.2,3.2-16.4,5.2-24.6
			c2.3,22.9,7.3,45.4,15.1,67.2c24.8,47.4,58.6,88.7,100,122.4c40.5,32.9,87.2,57.5,136,75.8c51.2,19.1,104.8,31.1,158.8,38.5
			c39.3,5.4,78.9,8.3,118.6,9.2c15.2,0.4,30,5.6,41.7,15.3c0.6,0.5,1.1,0.9,1.7,1.4c4.5,4,8.6,8.6,13.5,12.2c4.9,3.6,11,6.1,17,5.1
			c5.6-0.9,16.4-9.7,20.3-2c0.9,1.8,1,3.8,0.5,5.8c-2.5,10-10.1,18.2-14.4,27.5c-4.3,9.4-7.3,19.4-8.7,29.6
			c-2.8,20.3,0.7,41.6,11.8,59c0.4,0.7,0.9,1.3,1.3,1.9c-0.1-0.1-0.3-0.2-0.3-0.3c2.8,4.6,5.6,9.2,7.4,14.3
			C927.7,1413,924.1,1429,913.1,1432.3L913.1,1432.3z M936.8,1404.5c-23.7-17.3-29.3-49.5-24.3-76.9c2.6-14.3,7.2-27.9,16-39.4
			c10.3-13.5,23.2-25.1,37.6-34c9.5-5.8,19.2-11.3,29.6-15.4c13.2-5.1,27.5-8,41.6-8c2.4,0,6.5,0.2,7.9,2.5c2.2,3.4,1,11.3-2.1,13.8
			c-3.7,3-9,2.2-13.4,3c-5.5,1-11,2.2-16.4,3.8c-10.7,3.1-21.1,7.2-30.9,12.6c-27.4,14.9-49.6,39.2-56.8,70.1
			c-3.6,15.4-4.3,32.4,1.1,47.5c2.7,7.7,7,14.7,12.4,20.9C938.3,1404.9,937.5,1404.7,936.8,1404.5z M945.4,1386.1
			c-16.7-25-8-60.5,8.2-83.6c13.1-18.9,33.7-31.5,55.1-38.9c8.8-3,18-4.9,27.3-5.5c7.7-0.5,16.8-1.7,23.1,4.1c2.2,2,3.6,4.8,4,7.8
			c0.4,3.4-1.1,7.4-4.3,8.6c-1.3,0.5-2.7,0.5-4.1,0.4c-13.1-0.3-25.8-1-38.3,3.9c-15.8,6.1-30.3,16.5-40.6,30
			c-11.4,14.8-17,33.1-16.3,51.8c0.3,9.3,2.1,18.5,5.2,27.3c1.5,4.2,3.3,7.9,5.4,11.8c1.1,1.9,3.2,8.5,4.6,9.5
			C963.2,1405.4,952.5,1396.9,945.4,1386.1L945.4,1386.1z M1048.6,1333c-16.6,3.2-32.7,19.2-41,33c-9.6,15.9-13.3,35.2-10.2,53.5
			c-9.9-11.1-17.8-21.8-21.9-36.4c-3.9-13.8-4-28-1.2-42c6-30.1,37.2-55.1,67.1-56.7c10.7-0.6,19.9,2.3,28,9.1
			c3.7,3.1,6.9,6.6,9.7,10.6c4.5,6.3,21,33.9,25.5,41.1c-1.9-3.1-8.6-5.7-11.7-7.2c-4.6-2.2-9.4-3.8-14.3-4.9
			c-9.4-2-19-1.6-28.4-0.3C1049.8,1332.8,1049.2,1332.9,1048.6,1333L1048.6,1333z M1120.1,1403.1c-3.7,14.8-14.7,33.2-31.1,31.6
			l0.4-0.5c17.9-16.3,23.4-44,19.7-68C1118.3,1377.3,1122,1390.2,1120.1,1403.1z M1121.6,1305.5c-0.9,2.6-1.9,5.1-3.1,7.5
			c-1.8,3.6-4.1,7-6.7,10c-1.7,2-6.8,5-7.7,7.2c10.3-25.8,3.5-55.1-18.5-72.4c-1.5-1.2,6.7-6.2,7.4-6.6c7.5-4.6,14.3,0.9,18.9,6.4
			c7.6,9,12.7,20.9,12.4,32.7C1124.2,1295.5,1123.3,1300.6,1121.6,1305.5z M1379.7,1114.4c-4.1,18.7-10.8,36.9-9.8,56.4
			c1,17.9,4.3,34.4-1.1,52.4c-1.5,4.4-3.2,8.7-5,13c-32.1,72.8-119.6,119.4-196.3,141c-6.4-0.6-13.8,2.1-18.7-4.7
			c-2.5-3.4-3-7.9-1.9-11.9c2.6-9.4,10.9-14.7,17.9-20.8c12.4-10.8,9.4-26,3.1-39.2c-3-6.3-8.2-10.9-14.2-14.2
			c-6.2-3.4-13.4-2.4-19.2-5.9c-4.4-2.7-6.8-7.7-8.9-12.5c-2.4-5.4-4.8-11-4.3-16.8c0.8-9.1,8-18.1,16-22
			c12.8-6.3,27.5-6.9,41.7-8.5c25.4-2.9,50.9-9.7,71.8-24.5c12.6-8.9,23.1-20.5,33.5-31.9c3.5-3.9,6.9-8.2,10.8-11.8
			c15.1-14,32.1-25.6,46.3-40.7c14.5-15.4,26.6-33.1,35.1-52.5c1.3-2.9,2.4-5.8,3.5-8.7C1379.9,1071.9,1380.9,1093.2,1379.7,1114.4z
			 M1389.8,1067c-4.3-5.3-1.5-17.1-1.6-23.6c-0.1-9.8-0.2-19.6,1.5-29.2c1.9-11.1,2.9-22.3,3-33.5c1.2-0.2,2.5-0.3,3.6-0.1
			c2.9,0.6,5.5,3.6,7.2,5.9c1.7,2.3,2.2,5.2,3.3,7.9c1.1,2.7,2.5,5.3,4.2,7.7c6,9,15.6,16.4,25,21.6c4.9,2.7,10.5,5.2,14,9.9
			c2.5,3.4,1.8,8.5,0.2,12.2c-0.7,1.5-1.6,3.1-3,4.2c-0.6,0.5-1.2,0.8-2,1c-1.6,0.4-3.2,0.9-4.8,1.5c-6.1,2.1-12.2,3.7-18.1,6.2
			c-6,2.6-11,6.2-16.6,9.5c-4.2,2.5-6.4,2.3-11.4,1.4C1392.3,1069.2,1390.8,1068.3,1389.8,1067L1389.8,1067z M1454.9,1090.1
			c-1.4,2.3-3.2,4.2-6.8,5.2c-3,0.8-5.9,1.2-8.9,1.6c-3,0.4-5.9,1-8.7,2.2c-9.3,4.1-16.9,10.5-26.7,13.9c-0.6-3.6-1.2-7.2-1.4-10.8
			c-0.6-10.6,0.1-23.3,8.7-30.8c4.7-4.1,10.5-6.8,16.3-9.1c3.4-1.4,6.9-2.5,10.4-3.5c1.6-0.5,4.2-1.3,5.8-1.9
			c0.2-0.1,0.5-0.2,0.7-0.3c0.6-0.2,0.9-0.3,0.9-0.3c0.3-0.1,0.6-0.1,0.8-0.2c2.8-0.6,5.3-1.9,7.4-3.7c0.3,11.9,1.1,23.8,2.5,35.6
			C1455.7,1088.7,1455.4,1089.4,1454.9,1090.1L1454.9,1090.1z"/>
		<g id="g40">
			<path id="path28" inkscape:connector-curvature="0" class="st3" d="M459.7,1229.5c2.1-0.3,3.9-1.2,5.9-2.1
				c9.4-4.5,11.2-13,11.2-23.9c0-2.7,0.7-5.8,0.3-8.4c-1.4-8.9-8.9-17.6-15.6-21.7c-4.6-2.8-9-5.7-13.3-5.7
				c-8.3-1-12.7,8.7-15.9,15.6c-2,4.3-3.3,8.7-4.8,13.2c-2.2,6.2-5.3,12.4-7.2,18.8c-1.5,4.8-3.8,9-5.8,13.7
				c-2.1,4.8-3.3,9.7-5.6,14.4c-2.1,4.3-4.9,7.7-6.9,12.1c-2.5,5.7-3.8,14.5,5,16.2c6,1.1,9.7-10.5,11.6-15c1.3-3.1,3.1-5.7,4.9-8.3
				c3.3-5.1,5.4-11.6,7.7-17.4c1.6-3.9,3.3-3.1,6.4-0.9c-1.1,5.2-0.8,8.6-0.4,13.9c0.3,3.4-0.6,6.7-1.4,9.9c-0.8,3-1.2,6-2.1,9
				c-1.4,4.8-3.4,11.8-2.6,16.9c0.6,3.7,5.3,8,9.1,7.2c2.5-0.5,3.6-3,4.5-5.5c2.9-7.8,5.3-15.8,8.3-23.6c1.9-4.8,3.9-9.4,3.7-14.8
				c-0.1-3.1-3.2-11.5-0.2-13.5C457.3,1229.1,458.7,1229.7,459.7,1229.5L459.7,1229.5z M455.9,1210.5c-3.3-0.7-6.2-6.2-8-9
				c-1.7-2.7-4.4-6.4-2.5-9.6c0.3-0.5,0.6-0.8,0.9-1.1c3.6-3.3,7.6-0.4,11.2,1.7c3.7,2.2,6.5,4.6,6.2,9.6
				C463.4,1206.1,459.9,1211.3,455.9,1210.5L455.9,1210.5z"/>
			<path id="path30" inkscape:connector-curvature="0" class="st3" d="M465,1276.9c-2.6,3.7-7.3,5.5-5.1,11.8
				c0.6,1.8,1.8,4.1,2.9,5.7c0.7,1.2,1.6,1.8,2.5,2.9c0.6,0.7,1,1.7,1.5,2.3c8.1,8.6,11.3-11.1,11-16.7
				C477.4,1277.3,469.6,1273.8,465,1276.9z"/>
			<path id="path32" inkscape:connector-curvature="0" class="st3" d="M516.8,1224.8c-3.6,4.5-6.3,7.3-8.3,13.4
				c-1.4,4.1-2.9,8.2-4,12.3c-0.9,3.3-1.9,6.8-3.1,10.1c-1.1,3.3-2.9,5.4-4.1,8.5c-2.9,7.3-5.6,14.7-8.3,22.2
				c-1.5,4.2-3.3,6.8-5.5,10.3c-2.7,4.4-3.3,9-3,14.3c0.2,3.4,3.7,5.5,6.7,7.4c6.5,4,10.2-3.7,13.2-8.2c5.7-8.4,10.1-17.7,15.3-26.4
				c3.4,2.1,1.6,12.4,2,16.3c0.5,5.1,0.2,10.2,4.8,13.5c11,7.8,15.7-7.4,22.6-13.2c2.7-2.3,9.7-11.6,13.5-10.1
				c3.5,1.4,2.9,13.2,3,16.1c0.3,5.2,0.9,9.4,2,14.5c0.7,3.2,0.7,6.5,1.9,9.6c1.2,3.2,3.7,5.9,5,9c2.2,5.2,3.4,10.2,7.8,14.1
				c2,1.9,5.2,4.6,8,3.7c3.7-1.3,3.4-4.9,3.1-8c-0.5-4.9-1-10-1.6-14.9c-0.5-3.9-2-7.7-2.6-11.6c-0.8-5.4,0.4-10.7,0.4-16.1
				c-0.2-16,0.3-32.4,2.8-48.1c0.8-5.4,5-14.9,1.5-20c-10-14.6-33.6,16.7-40.6,22.6c-1.8,1.5-6.4,5.4-8.8,5.5
				c-5.4,0.2-5.3-10.7-5.7-14.6c-0.3-3.2-1.3-5.7-2.2-8.7C530.3,1241.2,523.7,1216.1,516.8,1224.8L516.8,1224.8z"/>
			<path id="path34" inkscape:connector-curvature="0" class="st3" d="M627.2,1310c-0.9-0.6-2-0.6-3.5,0.2c-2.8,1.6-5.1,5.4-6.7,8.1
				c-2.4,4.2-6.4,7.9-8.7,12.3c-2.1,4-4.7,8.3-5.2,13c-0.7,6,0.9,13.2,6,16.8c2.7,2,5,4.7,8,6.3c3.4,1.8,7.6,2.6,11.3,3.6
				c7.1,2,12.9,0.1,19.3-2.3c3.2-1.2,5.6-2.2,7.9-4.9c2.9-3.4,4.1-7.7,5.8-11.7c2.8-6.9,4.3-14.1,5.4-21.5c0.5-3.3,2.4-8.1,1.8-11.4
				c-0.5-2.9-2.6-3.5-4.9-4.8c-1.7-1-1.4-0.8-2.6-2.4c-0.9-1.2-0.6-1.7-2.1-2.7c-5-3.6-6.6-1.6-8.3,3.3c-1.3,3.8-2.2,7.7-3.2,11.5
				c-2,7.6-3.2,24.9-14.1,24.7c-9.5-0.2-11.3-8.4-9.8-16.3c1-5.3,3.8-9.9,5.1-15C629.4,1314.6,628.9,1311.2,627.2,1310L627.2,1310z"
				/>
			<path id="path36" inkscape:connector-curvature="0" class="st3" d="M704.5,1280c-7.6-1.3-17.5-0.4-20.8,8.2
				c-3.2,8.5,0.8,15.5,6.8,21.6c3.5,3.6,5,5.9,10,7.2c2.7,0.7,5.9,0.8,8.3,2.1c-0.6,2.3-1.6,4.5-2.3,6.7c-1.3,4.3-1.8,9-3.8,13
				c-1.7,3.2-1.9,5.9-2.9,9.3c-0.8,2.4-2.4,4.7-3.5,7c-2,4.3-3.8,10.2-3,14.8c1.2,7.4,9.1,10.9,15.9,8.3c7.5-2.8,11.1-8.5,12.7-16.4
				c0.8-3.9-0.7-7.4-0.8-11.2c0-1.5,0.5-3.2,0.7-4.8c0.3-2.9,0.5-5.7,1-8.7c0.5-3.4,0.6-8.8,3.1-11.5c3.3-3.6,9.4,1.2,13,2.4
				c2.4,0.8,3.2,0.1,4.3,2.8c0.9,2.3-0.1,6.4,2.7,7.4c2.8,1.1,9.6-3.3,11.9-5c5.7-4.3,9.9-12.7,9.4-19.8c-0.4-5.9-4.6-8-9.8-9.3
				c-5.2-1.3-10.3-2.9-15.6-3.5c-2.2-0.3-5,0-7.1-0.8c-1.3-0.5-2.3-1.7-3.6-2.3c-2.4-1-5.2-1-7.7-2.2c-5.5-2.6-8.6-7.2-13.3-10.9
				C707.4,1282.3,705.5,1280.7,704.5,1280L704.5,1280z"/>
			<path id="path38" inkscape:connector-curvature="0" class="st3" d="M787.1,1285.2c-4.3,0.5-8.6,8.7-9.1,12.6
				c-0.6,4.3,1.6,7.6,4,10.9c4.1,5.6,10.9,10.7,17.1,13.9c3.5,1.8,8,2.4,8.4,6.5c0.4,3.4-1.1,7.1-2,10.2c-1,3.8-1.1,7.5-1.5,11.4
				c-0.5,3.9-1.9,6.3-3.4,9.7c-1.2,2.6-1,5.7-1.3,8.6c-0.4,4.1-5.3,8.8-4.2,12.5c1.5,5.2,8.9,2.4,12.1,0.4
				c11.4-7.5,13.4-19.6,19.8-30.4c1.7-2.9,3.2-6.1,4.9-8.9c2-3.3,2.4-6.2,3.6-9.9c5.9,1.8,12.3,3,18.3,4.8c2.8,0.8,5.9,0.1,8.6,0.7
				c1,0.2,2.5,1.6,3.9,1.8c2.6,0.5,8.2,1.6,9.7-1.7c1.5-3.4-3.4-5.4-5.5-6.3c-6-2.5-11.2-4.7-16.3-8.5c-3.2-2.4-7.1-3.1-10.3-5.2
				c-2.1-1.4-3.9-3.7-5.4-5.7c-3.3-4.3-6.9-6.2-11.2-9.4c-4.1-3-7.6-6.6-12-9.2c-6-3.6-12-6.9-18.7-8.6
				C792.1,1284.3,789.3,1284.5,787.1,1285.2L787.1,1285.2z"/>
		</g>
	</g>
</g>
</svg>
