<?xml version="1.0" encoding="UTF-8" standalone="no"?>
<!-- Generator: Adobe Illustrator 25.4.1, SVG Export Plug-In . SVG Version: 6.00 Build 0)  -->

<svg
   xmlns:dc="http://purl.org/dc/elements/1.1/"
   xmlns:cc="http://creativecommons.org/ns#"
   xmlns:rdf="http://www.w3.org/1999/02/22-rdf-syntax-ns#"
   xmlns:svg="http://www.w3.org/2000/svg"
   xmlns="http://www.w3.org/2000/svg"
   xmlns:sodipodi="http://sodipodi.sourceforge.net/DTD/sodipodi-0.dtd"
   xmlns:inkscape="http://www.inkscape.org/namespaces/inkscape"
   version="1.1"
   id="Layer_1"
   x="0px"
   y="0px"
   viewBox="0 0 635.00003 230"
   xml:space="preserve"
   sodipodi:docname="sm.svg"
   width="635"
   height="230"
   inkscape:version="0.92.5 (2060ec1f9f, 2020-04-08)"><metadata
   id="metadata102"><rdf:RDF><cc:Work
       rdf:about=""><dc:format>image/svg+xml</dc:format><dc:type
         rdf:resource="http://purl.org/dc/dcmitype/StillImage" /><dc:title></dc:title></cc:Work></rdf:RDF></metadata><defs
   id="defs100" /><sodipodi:namedview
   pagecolor="#ffffff"
   bordercolor="#666666"
   borderopacity="1"
   objecttolerance="10"
   gridtolerance="10"
   guidetolerance="10"
   inkscape:pageopacity="0"
   inkscape:pageshadow="2"
   inkscape:window-width="1848"
   inkscape:window-height="1016"
   id="namedview98"
   showgrid="false"
   inkscape:zoom="0.99106478"
   inkscape:cx="422.69125"
   inkscape:cy="95.242705"
   inkscape:window-x="72"
   inkscape:window-y="27"
   inkscape:window-maximized="1"
   inkscape:current-layer="Layer_1" />
<style
   type="text/css"
   id="style2">
	.st0{fill:#E2761B;}
	.st1{fill:#E2761B;stroke:#E2761B;stroke-width:3;stroke-miterlimit:10;}
	.st2{fill:#763D16;stroke:#763D16;stroke-width:2;stroke-miterlimit:10;}
	.st3{fill:#C0AD9E;}
	.st4{fill:#CD6116;stroke:#CD6116;stroke-miterlimit:10;}
	.st5{fill:#E4751F;stroke:#E4751F;stroke-width:2;stroke-miterlimit:10;}
	.st6{fill:#233447;}
	.st7{fill:#E4761B;stroke:#E4761B;stroke-width:2;stroke-miterlimit:10;}
	.st8{fill:#E4761B;stroke:#E4761B;stroke-width:3;stroke-miterlimit:10;}
	.st9{fill:#D7C1B3;stroke:#D7C1B3;stroke-width:2;stroke-miterlimit:10;}
	.st10{fill:#F6851B;}
	.st11{fill:#CD6116;stroke:#CD6116;stroke-width:3;stroke-miterlimit:10;}
	.st12{fill:#E4751F;stroke:#E4751F;stroke-miterlimit:10;}
	.st13{fill:#F6851B;stroke:#F6851B;stroke-miterlimit:10;}
	.st14{fill:#F6851B;stroke:#F6851B;stroke-width:3;stroke-miterlimit:10;}
	.st15{fill:#C0AD9E;stroke:#C0AD9E;stroke-width:2;stroke-miterlimit:10;}
	.st16{fill:#161616;stroke:#161616;stroke-miterlimit:10;}
	.st17{fill:#F0EFEC;}
	.st18{fill:#1D5195;}
	.st19{fill:#DA1F27;}
	.st20{fill:#F9CA14;}
	.st21{fill:#221F1F;}
	.st22{fill:#231F20;}
	.st23{fill:#F8EB6C;stroke:#231F20;stroke-width:2;stroke-miterlimit:10;}
</style>




<g
   id="g921"
   transform="translate(2.5189775,2.6216432)"><g
     id="g86">
	<path
   id="path74"
   d="M 579.1,0.2 511.4,100.1 443.9,0 h -52.8 v 224.9 h 53.3 V 82.8 l 41.5,61.9 h 50.8 L 578.2,82.8 V 225 h 53.3 V 0.2 Z"
   class="st17"
   inkscape:connector-curvature="0"
   style="fill:#f0efec" />
	<g
   id="g84">
		<polygon
   id="polygon76"
   points="394.9,4.2 439.5,65.6 439.5,170 394.9,170 "
   class="st18"
   style="fill:#1d5195" />
		<rect
   id="rect78"
   height="52"
   width="44.599998"
   class="st19"
   y="170"
   x="582.79999"
   style="fill:#da1f27" />
		<polygon
   id="polygon80"
   points="624.9,5.8 583.9,5.8 514.1,108.4 532.9,138.4 "
   class="st20"
   style="fill:#f9ca14" />
		<path
   id="path82"
   d="M 579.1,0.2 511.4,100.1 443.9,0 h -52.8 v 224.9 h 53.3 V 82.8 l 41.5,61.9 h 50.8 L 578.2,82.8 V 225 h 53.3 V 0.2 Z m 43.6,16.5 v 148.6 h -35.2 v -96 z m -5.6,-7.3 -33.6,49.7 -50.2,74 -16.6,-24.5 66.6,-99.2 c 0,0 33.8,0 33.8,0 z m -29.6,205.8 v -40.5 h 35.2 v 40.5 z m -152,-40.6 v 41.1 H 400.3 V 174.6 Z M 490.8,135.5 444.1,66.2 439.5,59.3 405.6,9.4 h 34.1 l 69.9,104.3 14.7,21.8 z M 435.5,69.2 v 96 H 400.3 V 16.7 Z"
   class="st21"
   inkscape:connector-curvature="0"
   style="fill:#221f1f" />
	</g>
</g><g
     id="g93">
	<path
   d="m 180.7,45.9 c -1.3,-2.2 -3.5,-3.9 -4.4,-6.4 -0.1,-0.5 -0.3,-0.9 -0.6,-1.3 -0.9,-1.6 -2,-3.1 -3.1,-4.5 -0.6,-0.8 -1.1,-1.6 -1.5,-2.6 -0.4,-1.2 -1.1,-2.2 -2,-3 -0.4,-0.4 -0.7,-0.7 -1,-1.1 -0.3,-0.5 -0.6,-0.9 -0.9,-1.3 -0.2,-0.4 -0.5,-0.8 -0.9,-1.1 -0.5,-0.7 -1.1,-1.3 -1.8,-1.8 -0.6,-0.4 -1.1,-0.8 -1.6,-1.3 -0.3,-0.3 -0.6,-0.7 -0.9,-1 -0.7,-0.9 -1.7,-1.6 -2.5,-2.5 -0.6,-0.7 -1.1,-1.5 -1.7,-2.1 -0.8,-1 -1.6,-1.9 -2.5,-2.7 -0.7,-0.6 -1.3,-1.2 -1.8,-2 -1.4,-2.1 -2.9,-4.1 -4.6,-5.9 -1.6,-1.9 -3.4,-3.5 -5.3,-5.1 -1.4,2.4 -3,4.7 -4.9,6.7 -1.7,1.9 -3.6,3.7 -5.7,5.2 -1,0.5 -1.9,1.3 -2.6,2.1 -0.8,0.8 -1.7,1.4 -2.7,1.8 -0.5,0.2 -1.1,0.4 -1.7,0.5 -0.5,0.1 -0.8,0 -1.2,0.1 -0.3,0.1 -0.5,0.2 -0.8,0.3 -0.6,0.2 -1.2,0.3 -1.8,0.2 -0.4,0 -0.8,0.1 -1.2,0.2 -0.7,0.1 -1.4,0.2 -2.1,0.2 -1.7,-0.1 -3.4,0 -4.9,0 -1.5,0 -6.9,-0.6 -11.6,-1 -8.7,-1 -18.2,-2.8 -27.2,-1.9 -4.6,0.8 -9.1,1.8 -13.5,3 -6.1,1.4 -12,3.8 -17.2,7.3 -12.1,7.2 -21.3,18.5 -26,31.8 -3.4,7.9 -5.3,16.4 -5.6,25 -0.3,10 2.4,18.6 7,23.2 1.7,1.7 3.3,3.6 4.8,5.5 1,1.5 2.2,2.4 2.6,2.2 0.3,-0.1 0.7,0.3 0.7,1 0,0.7 3.8,3.6 8.5,6.6 8.9,5.6 13.6,7.2 38.1,14 9.4,2.6 13.8,4.5 18.4,7.6 2.8,2 5.6,4.2 8.2,6.5 3.7,3.5 6.1,8 1.8,13.6 -3.3,4.3 -9.2,5.1 -13.8,4.5 -1,-0.1 -5.1,-0.8 -9.1,-1.6 -2.8,-0.3 -5.5,-1 -8.1,-2.2 -0.4,-0.6 -1.2,-0.9 -1.9,-0.8 -1.6,0.3 -17,-9.7 -17,-11.1 0,-1.8 -4.2,-4.8 -5.1,-6.4 -1.8,-3.2 -3.2,-6.5 -4.3,-10 -2.2,0.1 -6.5,2.7 -8.8,3.7 -2.8,1.2 -5.3,3 -8,4.5 -4.9,2.8 -9.7,5.8 -14.3,9.1 -3.5,2.4 -8.1,4.2 -10.9,7.3 -0.8,0.9 -1.1,1.3 -1.9,2.2 0.8,0.9 1.2,1.5 2,2.4 2.6,3.6 4.8,7.5 6.6,11.6 0.4,0.8 0.9,1.6 1.3,2.4 3,4.4 5.5,9.2 7.3,14.3 0.1,1.1 0.5,2.2 1.2,3 0.7,0.5 5.5,18.2 6.2,23.5 0.3,2.1 0.8,3.9 1.3,3.8 0.5,-0.1 0.9,0.6 0.9,1.6 0,1.5 0.5,1.7 1.8,1 10.1,-4.9 13.6,-6.3 18.9,-7.3 3.5,-0.6 8.4,-1.2 11.1,-1.3 2.7,-0.1 6.7,-0.5 9.2,-0.6 7.1,-0.6 11.1,-0.8 12.1,-0.1 1.6,0.8 21.1,3 26.3,3.1 4.7,-0.1 9.5,-0.5 14.2,-1.2 4.3,-0.6 8.2,-0.2 12.5,-1.6 l -0.3,-0.1 c 4,-1.3 8.2,-2 12.2,-3.4 11.4,-4 21.7,-10.4 30.3,-18.8 5.2,-5.2 9.5,-11.1 12.9,-17.6 1.5,-2.5 2.6,-5.2 3.3,-8 0,-0.7 0.6,-2.9 0.9,-4.9 1.2,-5.2 1.4,-10.6 0.5,-15.8 -0.9,-4.5 -2.5,-8.6 -3.6,-12.9 -0.6,-3 -1.5,-6 -2.9,-8.8 -5.4,-7.5 -13.7,-12.6 -20.6,-19 -4.7,-4.4 -9.1,-8.9 -16,-11.3 -8.3,-2.8 -17.4,-4 -26,-6.5 -13.7,-3.9 -19.9,-6.1 -24.3,-8.9 -2.2,-1.3 -4.1,-3 -5.6,-5.1 -0.7,-1.1 -1,-1.6 -1.7,-2.7 0.7,-1 1,-1.6 1.6,-2.6 1.4,-2.1 3.6,-3.5 6.1,-3.8 3.4,-0.9 7,-1.3 10.6,-1.2 6.8,0 13.6,1.6 19.7,4.7 1.6,1 5.3,3.5 8.4,5.3 5.2,3.1 10.1,6.6 14.6,10.7 1.2,1.2 2.6,2.3 4,3.3 0.6,0.5 2.8,-0.9 5.2,-2.6 2.4,-1.8 4.8,-3.6 5.7,-4.2 0.7,-0.6 2.8,-2.1 4.5,-3.4 1.6,-1.2 21.2,-15.4 21.9,-14.5 -2.3,-3.4 -4.8,-6.6 -7.5,-9.5 -1.9,-2.5 -4,-5.3 -5.9,-8.2 z"
   class="st23"
   id="Path_3"
   inkscape:connector-curvature="0"
   style="fill:#f8eb6c;stroke:#231f20;stroke-width:2;stroke-miterlimit:10" />
	<path
   d="m 180.7,45.9 c -1.3,-2.2 -3.5,-3.9 -4.4,-6.4 -0.1,-0.5 -0.3,-0.9 -0.6,-1.3 -0.9,-1.6 -2,-3.1 -3.1,-4.5 -0.6,-0.8 -1.1,-1.6 -1.5,-2.6 -0.4,-1.2 -1.1,-2.2 -2,-3 -0.4,-0.4 -0.7,-0.7 -1,-1.1 -0.3,-0.5 -0.6,-0.9 -0.9,-1.3 -0.2,-0.4 -0.5,-0.8 -0.9,-1.1 -0.5,-0.7 -1.1,-1.3 -1.8,-1.8 -0.6,-0.4 -1.1,-0.8 -1.6,-1.3 -0.3,-0.3 -0.6,-0.7 -0.9,-1 -0.7,-0.9 -1.7,-1.6 -2.5,-2.5 -0.6,-0.7 -1.1,-1.5 -1.7,-2.1 -0.8,-1 -1.6,-1.9 -2.5,-2.7 -0.7,-0.6 -1.3,-1.2 -1.8,-2 -1.4,-2.1 -2.9,-4.1 -4.6,-5.9 -1.6,-1.9 -3.4,-3.5 -5.3,-5.1 -1.4,2.4 -3,4.7 -4.9,6.7 -1.7,1.9 -3.6,3.7 -5.7,5.2 -1,0.5 -1.9,1.3 -2.6,2.1 -0.8,0.8 -1.7,1.4 -2.7,1.8 -0.5,0.2 -1.1,0.4 -1.7,0.5 -0.5,0.1 -0.8,0 -1.2,0.1 -0.3,0.1 -0.5,0.2 -0.8,0.3 -0.6,0.2 -1.2,0.3 -1.8,0.2 -0.4,0 -0.8,0.1 -1.2,0.2 -0.7,0.1 -1.4,0.2 -2.1,0.2 -1.7,-0.1 -3.4,0 -4.9,0 -1.5,0 -6.9,-0.6 -11.6,-1 -8.7,-1 -18.2,-2.8 -27.2,-1.9 -4.6,0.8 -9.1,1.8 -13.5,3 -6.1,1.4 -12,3.8 -17.2,7.3 -12.1,7.2 -21.3,18.5 -26,31.8 -3.4,7.9 -5.3,16.4 -5.6,25 -0.3,10 2.4,18.6 7,23.2 1.7,1.7 3.3,3.6 4.8,5.5 1,1.5 2.2,2.4 2.6,2.2 0.3,-0.1 0.7,0.3 0.7,1 0,0.7 3.8,3.6 8.5,6.6 8.9,5.6 13.6,7.2 38.1,14 9.4,2.6 13.8,4.5 18.4,7.6 2.8,2 5.6,4.2 8.2,6.5 3.7,3.5 6.1,8 1.8,13.6 -3.3,4.3 -9.2,5.1 -13.8,4.5 -1,-0.1 -5.1,-0.8 -9.1,-1.6 -2.8,-0.3 -5.5,-1 -8.1,-2.2 -0.4,-0.6 -1.2,-0.9 -1.9,-0.8 -1.6,0.3 -17,-9.7 -17,-11.1 0,-1.8 -4.2,-4.8 -5.1,-6.4 -1.8,-3.2 -3.2,-6.5 -4.3,-10 -2.2,0.1 -6.5,2.7 -8.8,3.7 -2.8,1.2 -5.3,3 -8,4.5 -4.9,2.8 -9.7,5.8 -14.3,9.1 -3.5,2.4 -8.1,4.2 -10.9,7.3 -0.8,0.9 -1.1,1.3 -1.9,2.2 0.8,0.9 1.2,1.5 2,2.4 2.6,3.6 4.8,7.5 6.6,11.6 0.4,0.8 0.9,1.6 1.3,2.4 3,4.4 5.5,9.2 7.3,14.3 0.1,1.1 0.5,2.2 1.2,3 0.7,0.5 5.5,18.2 6.2,23.5 0.3,2.1 0.8,3.9 1.3,3.8 0.6,-0.1 0.9,0.6 0.9,1.6 0,1.5 0.5,1.7 1.8,1 10.1,-4.9 13.6,-6.3 18.9,-7.3 3.5,-0.6 8.4,-1.2 11.1,-1.3 2.7,-0.1 6.7,-0.5 9.2,-0.6 7.1,-0.6 11.1,-0.8 12.1,-0.1 1.6,0.8 21.1,3 26.3,3.1 4.7,-0.1 9.5,-0.5 14.2,-1.2 4.3,-0.6 8.2,-0.2 12.5,-1.6 l -0.3,-0.1 c 4,-1.3 8.2,-2 12.2,-3.4 11.4,-4 21.7,-10.4 30.3,-18.8 5.2,-5.2 9.5,-11.1 12.9,-17.6 1.5,-2.5 2.6,-5.2 3.3,-8 0,-0.7 0.6,-2.9 0.9,-4.9 1.2,-5.2 1.4,-10.6 0.5,-15.8 -0.9,-4.5 -2.5,-8.6 -3.6,-12.9 -0.6,-3 -1.5,-6 -2.9,-8.8 -5.4,-7.5 -13.7,-12.6 -20.6,-19 -4.7,-4.4 -9.1,-8.9 -16,-11.3 -8.3,-2.8 -17.4,-4 -26,-6.5 -13.7,-3.9 -19.9,-6.1 -24.3,-8.9 -2.2,-1.3 -4.1,-3 -5.6,-5.1 -0.7,-1.1 -1,-1.6 -1.7,-2.7 0.7,-1 1,-1.6 1.6,-2.6 1.4,-2.1 3.6,-3.5 6.1,-3.8 3.4,-0.9 7,-1.3 10.6,-1.2 6.8,0 13.6,1.6 19.7,4.7 1.6,1 5.3,3.5 8.4,5.3 5.2,3.1 10.1,6.6 14.6,10.7 1.2,1.2 2.6,2.3 4,3.3 0.6,0.5 2.8,-0.9 5.2,-2.6 2.4,-1.8 4.8,-3.6 5.7,-4.2 0.7,-0.6 2.8,-2.1 4.5,-3.4 1.6,-1.2 21.2,-15.4 21.9,-14.5 -2.3,-3.4 -4.8,-6.6 -7.5,-9.5 -1.9,-2.5 -4,-5.3 -5.9,-8.2 z m -6,17.8 c -1.2,2.2 -4.6,2.9 -6.7,4.2 -2.7,1.7 -5.4,3.5 -7.9,5.5 -1.5,1 -2.1,1.5 -3.6,2.5 -3.8,-2.9 -5.8,-4.4 -9.7,-7.3 -8,-5.9 -17.2,-10.1 -26.9,-12.3 -3.5,-0.7 -7,-1.1 -10.6,-1.2 -4.9,-0.6 -12.4,-0.7 -17.1,2.8 -4.1,3.3 -6.8,8 -7.8,13.2 -0.6,3.5 -0.1,10.2 4.5,10.7 1,0.1 1.9,0.8 1.9,1.3 0,0.7 4.2,3 9.4,5.4 5.3,2.4 10.3,4.5 11.3,4.9 15.8,5.6 31.1,12.3 46.1,19.9 3.1,1.9 6.1,3.9 9,6.2 2.4,2.1 4.4,4.6 6,7.3 5.1,9 6.9,12.5 7.9,15.6 2,7.2 1.8,14.8 -0.3,21.9 -1.8,5.4 -2.9,11.9 -7.1,16.5 -2.4,3 -5,5.8 -7.8,8.4 -2.8,2.2 -5.8,4 -9,5.5 -2.4,1.1 -8.4,3.8 -13.7,5.9 v 0 c -10.5,4.3 -21.9,6 -33.1,5.1 -8.1,-0.7 -17.3,1 -24.6,-1.7 -6.2,-2.4 -13.3,-2.4 -20.2,-2.9 -1.8,-0.3 -8.1,1 -14.8,2.7 -4.6,1.2 -7,1.8 -11.7,3.1 -0.6,-1.2 -0.9,-1.9 -1.6,-3.1 -1.9,-4.6 -3.6,-9.3 -5.1,-14 -1.5,-2.9 -3.1,-5.8 -4.9,-8.5 -1.9,-3.1 -2.7,-6.6 -4.4,-9.7 -0.6,-1.1 -4.2,-5.5 -3,-7.2 3,-5.1 14.4,-9.5 19.7,-11.3 1.1,-0.3 1.7,-0.6 2.8,-0.9 1.7,1.7 2.6,2.5 4.4,4.2 7.2,7.1 16.2,12.2 26.1,14.8 3.7,1.2 8.1,2.5 9.7,2.9 9.5,2.4 19.5,1.3 28.3,-3 5.2,-2.7 10.6,-8.2 11.2,-13.5 1.1,-8.6 -4.6,-16.3 -11.1,-20.8 -2.7,-1.6 -5.6,-3 -8.7,-4 -3.5,-1.4 -7,-3 -10.3,-4.8 -2.3,-1.3 -4.8,-2.4 -7.4,-3 -1.8,-0.4 -3.6,-1 -5.3,-1.7 -1.2,-0.6 -5.4,-2.2 -9.1,-3.8 -3.6,-1.4 -7,-3 -10.3,-4.9 -1.3,-1 -2.8,-1.7 -4.4,-2.1 -1.2,0.2 -14.5,-9.2 -18.4,-13.1 -2.3,-2.4 -4.1,-5.3 -5.2,-8.4 -1,-4.2 -1.7,-8.5 -1.9,-12.8 -0.2,-3.3 -0.3,-4.8 -0.6,-8 0.9,-2.5 1.3,-3.6 2.1,-6.1 2.8,-7.7 7.1,-14.8 12.5,-20.9 2.8,-2.7 6,-5.1 9.3,-7.1 9,-6.6 23.9,-8.4 33.3,-7.3 3.3,0.4 6.6,0.6 9.9,0.6 4.3,-0.1 8.1,0.6 12.4,0.3 2.7,-0.1 5.5,-0.7 8.1,-0.9 2.6,-0.1 5.2,-0.6 7.8,-1.3 2.7,-0.8 5.5,-1.9 8.1,-2.7 4.3,-1.6 8.2,-3.9 11.6,-7 2.2,1.9 3.5,6.3 4.8,9 1.4,2.4 3,4.8 4.7,7 1.6,2.1 4.4,6.2 6.1,8.8 2.4,3.9 5,7.7 7.9,11.3 0.9,0.9 7.9,9 7.4,9.8 z"
   class="st22"
   id="Path_5"
   inkscape:connector-curvature="0"
   style="fill:#231f20" />
	<path
   d="m 147.1,44 c -1.8,-1.5 -3.5,-3.1 -5.1,-4.9 -1.2,-1.3 -0.9,-1.6 -2.6,-2 -1.9,0 -3.8,0.1 -5.6,0.3 -4,0 -8.1,-0.6 -12,-0.7 -8.7,-0.2 -17.4,-1.8 -26.2,-0.9 -9.7,0.8 -21.1,-0.3 -30.6,4.4 -4.6,2.5 -8.9,5.7 -12.7,9.3 -7.6,6.5 -9.7,14.4 -9.8,22.5 0,10.8 5.5,17.3 11,25.2 2.6,3.6 5.9,6.5 9.8,8.6 3.8,3 8,5.6 12.4,7.7 1.9,0.6 3.7,1.6 5.3,2.9 0,1.2 9.8,3.3 11.2,3.8 2.8,0.9 5.3,2.4 8.1,3.3 7.8,2.4 15.4,5.4 22.7,9.1 3.7,2.1 6.9,4.8 9.7,8 1.6,1.9 2.8,4.1 3.5,6.5 1.2,4.6 -0.3,14.9 -2.8,18.6 -3.3,5.2 -7.8,9.5 -13,12.7 -3.7,2.3 -7.9,3.8 -12.2,4.4 -11.7,1.3 -23.5,0.1 -34.6,-3.7 -3,-1 -5.9,-2.1 -8.8,-3.4 -2.5,-1.4 -5.1,-2.6 -7.8,-3.6 -3.3,-1.2 -6.3,-3 -8.9,-5.3 -1,-1.3 -2.2,-2.2 -2.9,-2.1 -1.6,0.9 -3.1,2.1 -4.3,3.5 -1.2,1.2 -1.8,1.9 -3,3.3 0.6,1.8 0.8,2.7 1.3,4.5 0.9,3.1 1.4,6.2 1.5,9.4 0,2 0.1,2.9 0.1,4.9 1.8,-0.2 2.6,-0.2 4.4,-0.5 2.5,-0.2 6.9,-0.7 9.9,-1.1 8,-1.1 16.2,-0.8 24.2,0.9 10.8,2.3 21.8,3.6 32.8,4.1 v 0 c 3.7,0 9.8,-0.8 13.2,-0.7 8.9,-2 17.4,-4.8 21,-7.1 6.9,-4.3 12.5,-10.5 16.2,-17.8 2.9,-6.6 5.6,-15.8 3.4,-22.1 -3.1,-10.1 -10,-18.6 -19.1,-23.9 -2.7,-1.3 -5.5,-2.3 -8.4,-3.1 -3.8,-1.4 -7.4,-3.2 -10.8,-5.3 -7.4,-3.7 -14.9,-6.9 -22.7,-9.7 -4.6,-1.6 -8.8,-3.7 -13.2,-5.4 C 88,97.2 84.6,95.4 81.4,93.1 78.4,90.8 75.8,88 73.8,84.9 69.9,78.1 68.2,68.3 74.6,60 80,53 89,49.6 96.8,48.1 c 5.7,-1.3 11.6,-1.7 17.4,-1.3 5.8,0.6 12.5,0.2 18.3,1.5 3.8,1 13.4,2.6 14.9,6.4 1.9,-0.9 3.9,-2.7 5.8,-3.8 C 150.4,50 149,46 147.1,44 Z"
   class="st22"
   id="Path_6"
   inkscape:connector-curvature="0"
   style="fill:#231f20" />
</g><polygon
     id="polygon95"
     points="235.3,137.5 267.8,137.5 267.8,170 317.8,170 317.8,137.5 350.3,137.5 350.3,87.5 317.8,87.5 317.8,55 267.8,55 267.8,87.5 235.3,87.5 "
     class="st22"
     style="fill:#231f20" /></g>
</svg>