<?xml version="1.0" encoding="utf-8"?>
<!-- Generator: Adobe Illustrator 25.4.1, SVG Export Plug-In . SVG Version: 6.00 Build 0)  -->
<svg version="1.1" id="Layer_1" xmlns="http://www.w3.org/2000/svg" xmlns:xlink="http://www.w3.org/1999/xlink" x="0px" y="0px"
	 viewBox="0 0 1043.7 225" style="enable-background:new 0 0 1043.7 225;" xml:space="preserve">
<style type="text/css">
	.st0{fill:#E2761B;}
	.st1{fill:#E2761B;stroke:#E2761B;stroke-width:3;stroke-miterlimit:10;}
	.st2{fill:#763D16;stroke:#763D16;stroke-width:2;stroke-miterlimit:10;}
	.st3{fill:#C0AD9E;}
	.st4{fill:#CD6116;stroke:#CD6116;stroke-miterlimit:10;}
	.st5{fill:#E4751F;stroke:#E4751F;stroke-width:2;stroke-miterlimit:10;}
	.st6{fill:#233447;}
	.st7{fill:#E4761B;stroke:#E4761B;stroke-width:2;stroke-miterlimit:10;}
	.st8{fill:#E4761B;stroke:#E4761B;stroke-width:3;stroke-miterlimit:10;}
	.st9{fill:#D7C1B3;stroke:#D7C1B3;stroke-width:2;stroke-miterlimit:10;}
	.st10{fill:#F6851B;}
	.st11{fill:#CD6116;stroke:#CD6116;stroke-width:3;stroke-miterlimit:10;}
	.st12{fill:#E4751F;stroke:#E4751F;stroke-miterlimit:10;}
	.st13{fill:#F6851B;stroke:#F6851B;stroke-miterlimit:10;}
	.st14{fill:#F6851B;stroke:#F6851B;stroke-width:3;stroke-miterlimit:10;}
	.st15{fill:#C0AD9E;stroke:#C0AD9E;stroke-width:2;stroke-miterlimit:10;}
	.st16{fill:#161616;stroke:#161616;stroke-miterlimit:10;}
	.st17{fill:#F0EFEC;}
	.st18{fill:#1D5195;}
	.st19{fill:#DA1F27;}
	.st20{fill:#F9CA14;}
	.st21{fill:#221F1F;}
	.st22{fill:#231F20;}
	.st23{fill:#F8EB6C;stroke:#231F20;stroke-width:2;stroke-miterlimit:10;}
</style>
<g>
	<path class="st0" d="M966.2,182.3l8.9,2.8l18.8,8L966.2,182.3z"/>
	<path class="st1" d="M1042,20.8l-74.4,54.1l-1-36.7L1042,20.8z"/>
	<g>
		<polygon class="st2" points="1033.3,82.5 1031.5,90.5 1037.5,85.9 		"/>
		<polygon class="st2" points="1043.7,51 1042,20.8 967.6,74.9 969.1,76.8 988.8,101.6 1025.8,113.8 1034.3,103.1 1030.4,100.1 
			1036.3,94.5 1031.5,90.5 1033.3,82.5 		"/>
	</g>
	<path class="st3" d="M911.8,192.3l17.6,18.3l-23.9-21.8L911.8,192.3z"/>
	<path class="st4" d="M993.8,193.1l8.3-31.7l16.5-2.4L993.8,193.1z"/>
	<path class="st5" d="M1013.4,122.4l-11.2,39.1l-0.9-19.1L1013.4,122.4z"/>
	<path class="st6" d="M984.9,150.9l2.8-15.4l13.5,6.8L984.9,150.9z"/>
	<g>
		<polygon class="st7" points="988.8,101.6 967.6,74.9 978.8,126.2 1013.4,122.4 		"/>
		<polygon class="st7" points="899,101.8 901.5,125.9 955.3,127 938,74 		"/>
	</g>
	<path class="st4" d="M911.2,203.5l-15.9-34.2l33.1-1.6L911.2,203.5z"/>
	<g>
		<polygon class="st7" points="1018.7,159.1 993.8,193.1 1019.6,200.2 1032.7,155.8 		"/>
		<polygon class="st8" points="911.3,33.8 858.1,0 938,74 		"/>
		<polygon class="st7" points="827.9,172.1 841.8,225 911.2,203.5 895.3,169.3 		"/>
		<polygon class="st7" points="911.2,203.5 984.7,187 928.4,167.6 		"/>
	</g>
	<polygon class="st9" points="911.2,203.5 974.2,214.1 981.4,206.2 984.7,187 	"/>
	<path class="st10" d="M1011.7,183.9l-3.3-2.4L984.9,151L1011.7,183.9z"/>
	<g>
		<polygon class="st11" points="1013.4,122.4 978.8,126.2 984.9,150.9 987.7,135.6 1001.2,142.4 		"/>
		<polygon class="st11" points="925.8,146.7 943.3,137.7 953.6,153 955.3,127 901.5,125.9 		"/>
	</g>
	<path class="st6" d="M953.6,153l-27.8-6.3l17.5-9.1L953.6,153z"/>
	<polygon class="st2" points="858.1,0 836.8,36.4 839.2,77.8 834.9,81.9 842.1,88 837.3,93 844.3,100.1 840.5,104.1 850.8,117.3 
		899,101.8 938,74 	"/>
	<path class="st5" d="M901.5,125.9l24.3,20.9l2.6,20.9L901.5,125.9z"/>
	<polygon class="st12" points="962,143.5 955.3,127 953.6,153 988.4,183.7 	"/>
	<g>
		<polygon class="st13" points="1032.7,155.8 1025.8,113.8 988.8,101.6 1013.4,122.4 1002.2,161.5 1018.7,159.1 		"/>
		<polygon class="st14" points="987.8,149.4 983.2,142.2 978.8,126.2 967.6,74.9 966.6,38.2 911.3,33.8 938,74 955.3,127 962,143.5 
			988.4,183.7 1008.4,181.5 1008.4,181.5 1003.5,173.8 1011.7,183.9 1002.2,161.5 1001.2,142.4 		"/>
		<polygon class="st13" points="899,101.8 850.8,117.3 827.9,172.1 895.3,169.3 928.4,167.6 901.5,125.9 		"/>
		<polygon class="st13" points="953.6,153 953.6,153 925.8,146.7 928.4,167.6 984.7,187 988.4,183.7 		"/>
	</g>
	<polygon class="st15" points="986.6,204.1 985.9,204.4 989.2,197.6 981.4,206.2 981.4,206.2 981.4,206.2 974.2,214.1 911.2,203.5 
		929.3,210.6 977.2,222.2 977.2,222.2 977.2,222.2 977.2,222.2 977.2,222.2 977.2,222.2 1005.1,217.6 1013.7,200.4 	"/>
	<polyline class="st16" points="984.7,187 981.4,206.2 986.6,204.1 1013.7,200.4 1017.1,188.1 1015,185.5 1008.4,181.5 988.4,183.7 
		984.7,187 	"/>
</g>
<g>
	<path class="st17" d="M579.1,0.2l-67.7,99.9L443.9,0h-52.8v224.9h53.3V82.8l41.5,61.9h50.8l41.5-61.9V225h53.3V0.2H579.1z"/>
	<g>
		<polygon class="st18" points="439.5,170 394.9,170 394.9,4.2 439.5,65.6 		"/>
		<rect x="582.8" y="170" class="st19" width="44.6" height="52"/>
		<polygon class="st20" points="514.1,108.4 532.9,138.4 624.9,5.8 583.9,5.8 		"/>
		<path class="st21" d="M579.1,0.2l-67.7,99.9L443.9,0h-52.8v224.9h53.3V82.8l41.5,61.9h50.8l41.5-61.9V225h53.3V0.2H579.1z
			 M622.7,16.7v148.6h-35.2v-96L622.7,16.7z M617.1,9.4l-33.6,49.7l-50.2,74l-16.6-24.5l66.6-99.2C583.3,9.4,617.1,9.4,617.1,9.4z
			 M587.5,215.2v-40.5h35.2v40.5H587.5z M435.5,174.6v41.1h-35.2v-41.1H435.5z M490.8,135.5l-46.7-69.3l-4.6-6.9L405.6,9.4h34.1
			l69.9,104.3l14.7,21.8H490.8z M435.5,69.2v96h-35.2V16.7L435.5,69.2z"/>
	</g>
</g>
<polygon class="st22" points="787.3,87.5 754.8,87.5 754.8,55 704.8,55 704.8,87.5 672.3,87.5 672.3,137.5 704.8,137.5 704.8,170 
	754.8,170 754.8,137.5 787.3,137.5 "/>
<g>
	<path id="Path_3" class="st23" d="M180.7,45.9c-1.3-2.2-3.5-3.9-4.4-6.4c-0.1-0.5-0.3-0.9-0.6-1.3c-0.9-1.6-2-3.1-3.1-4.5
		c-0.6-0.8-1.1-1.6-1.5-2.6c-0.4-1.2-1.1-2.2-2-3c-0.4-0.4-0.7-0.7-1-1.1c-0.3-0.5-0.6-0.9-0.9-1.3c-0.2-0.4-0.5-0.8-0.9-1.1
		c-0.5-0.7-1.1-1.3-1.8-1.8c-0.6-0.4-1.1-0.8-1.6-1.3c-0.3-0.3-0.6-0.7-0.9-1c-0.7-0.9-1.7-1.6-2.5-2.5c-0.6-0.7-1.1-1.5-1.7-2.1
		c-0.8-1-1.6-1.9-2.5-2.7c-0.7-0.6-1.3-1.2-1.8-2c-1.4-2.1-2.9-4.1-4.6-5.9c-1.6-1.9-3.4-3.5-5.3-5.1c-1.4,2.4-3,4.7-4.9,6.7
		c-1.7,1.9-3.6,3.7-5.7,5.2c-1,0.5-1.9,1.3-2.6,2.1c-0.8,0.8-1.7,1.4-2.7,1.8c-0.5,0.2-1.1,0.4-1.7,0.5c-0.5,0.1-0.8,0-1.2,0.1
		c-0.3,0.1-0.5,0.2-0.8,0.3c-0.6,0.2-1.2,0.3-1.8,0.2c-0.4,0-0.8,0.1-1.2,0.2c-0.7,0.1-1.4,0.2-2.1,0.2c-1.7-0.1-3.4,0-4.9,0
		s-6.9-0.6-11.6-1c-8.7-1-18.2-2.8-27.2-1.9c-4.6,0.8-9.1,1.8-13.5,3c-6.1,1.4-12,3.8-17.2,7.3c-12.1,7.2-21.3,18.5-26,31.8
		c-3.4,7.9-5.3,16.4-5.6,25c-0.3,10,2.4,18.6,7,23.2c1.7,1.7,3.3,3.6,4.8,5.5c1,1.5,2.2,2.4,2.6,2.2c0.3-0.1,0.7,0.3,0.7,1
		s3.8,3.6,8.5,6.6c8.9,5.6,13.6,7.2,38.1,14c9.4,2.6,13.8,4.5,18.4,7.6c2.8,2,5.6,4.2,8.2,6.5c3.7,3.5,6.1,8,1.8,13.6
		c-3.3,4.3-9.2,5.1-13.8,4.5c-1-0.1-5.1-0.8-9.1-1.6c-2.8-0.3-5.5-1-8.1-2.2c-0.4-0.6-1.2-0.9-1.9-0.8c-1.6,0.3-17-9.7-17-11.1
		c0-1.8-4.2-4.8-5.1-6.4c-1.8-3.2-3.2-6.5-4.3-10c-2.2,0.1-6.5,2.7-8.8,3.7c-2.8,1.2-5.3,3-8,4.5c-4.9,2.8-9.7,5.8-14.3,9.1
		c-3.5,2.4-8.1,4.2-10.9,7.3c-0.8,0.9-1.1,1.3-1.9,2.2c0.8,0.9,1.2,1.5,2,2.4c2.6,3.6,4.8,7.5,6.6,11.6c0.4,0.8,0.9,1.6,1.3,2.4
		c3,4.4,5.5,9.2,7.3,14.3c0.1,1.1,0.5,2.2,1.2,3c0.7,0.5,5.5,18.2,6.2,23.5c0.3,2.1,0.8,3.9,1.3,3.8s0.9,0.6,0.9,1.6
		c0,1.5,0.5,1.7,1.8,1c10.1-4.9,13.6-6.3,18.9-7.3c3.5-0.6,8.4-1.2,11.1-1.3c2.7-0.1,6.7-0.5,9.2-0.6c7.1-0.6,11.1-0.8,12.1-0.1
		c1.6,0.8,21.1,3,26.3,3.1c4.7-0.1,9.5-0.5,14.2-1.2c4.3-0.6,8.2-0.2,12.5-1.6l-0.3-0.1c4-1.3,8.2-2,12.2-3.4
		c11.4-4,21.7-10.4,30.3-18.8c5.2-5.2,9.5-11.1,12.9-17.6c1.5-2.5,2.6-5.2,3.3-8c0-0.7,0.6-2.9,0.9-4.9c1.2-5.2,1.4-10.6,0.5-15.8
		c-0.9-4.5-2.5-8.6-3.6-12.9c-0.6-3-1.5-6-2.9-8.8c-5.4-7.5-13.7-12.6-20.6-19c-4.7-4.4-9.1-8.9-16-11.3c-8.3-2.8-17.4-4-26-6.5
		c-13.7-3.9-19.9-6.1-24.3-8.9c-2.2-1.3-4.1-3-5.6-5.1c-0.7-1.1-1-1.6-1.7-2.7c0.7-1,1-1.6,1.6-2.6c1.4-2.1,3.6-3.5,6.1-3.8
		c3.4-0.9,7-1.3,10.6-1.2c6.8,0,13.6,1.6,19.7,4.7c1.6,1,5.3,3.5,8.4,5.3c5.2,3.1,10.1,6.6,14.6,10.7c1.2,1.2,2.6,2.3,4,3.3
		c0.6,0.5,2.8-0.9,5.2-2.6c2.4-1.8,4.8-3.6,5.7-4.2c0.7-0.6,2.8-2.1,4.5-3.4c1.6-1.2,21.2-15.4,21.9-14.5c-2.3-3.4-4.8-6.6-7.5-9.5
		C184.7,51.6,182.6,48.8,180.7,45.9z"/>
	<path id="Path_5" class="st22" d="M180.7,45.9c-1.3-2.2-3.5-3.9-4.4-6.4c-0.1-0.5-0.3-0.9-0.6-1.3c-0.9-1.6-2-3.1-3.1-4.5
		c-0.6-0.8-1.1-1.6-1.5-2.6c-0.4-1.2-1.1-2.2-2-3c-0.4-0.4-0.7-0.7-1-1.1c-0.3-0.5-0.6-0.9-0.9-1.3c-0.2-0.4-0.5-0.8-0.9-1.1
		c-0.5-0.7-1.1-1.3-1.8-1.8c-0.6-0.4-1.1-0.8-1.6-1.3c-0.3-0.3-0.6-0.7-0.9-1c-0.7-0.9-1.7-1.6-2.5-2.5c-0.6-0.7-1.1-1.5-1.7-2.1
		c-0.8-1-1.6-1.9-2.5-2.7c-0.7-0.6-1.3-1.2-1.8-2c-1.4-2.1-2.9-4.1-4.6-5.9c-1.6-1.9-3.4-3.5-5.3-5.1c-1.4,2.4-3,4.7-4.9,6.7
		c-1.7,1.9-3.6,3.7-5.7,5.2c-1,0.5-1.9,1.3-2.6,2.1c-0.8,0.8-1.7,1.4-2.7,1.8c-0.5,0.2-1.1,0.4-1.7,0.5c-0.5,0.1-0.8,0-1.2,0.1
		c-0.3,0.1-0.5,0.2-0.8,0.3c-0.6,0.2-1.2,0.3-1.8,0.2c-0.4,0-0.8,0.1-1.2,0.2c-0.7,0.1-1.4,0.2-2.1,0.2c-1.7-0.1-3.4,0-4.9,0
		s-6.9-0.6-11.6-1c-8.7-1-18.2-2.8-27.2-1.9c-4.6,0.8-9.1,1.8-13.5,3c-6.1,1.4-12,3.8-17.2,7.3c-12.1,7.2-21.3,18.5-26,31.8
		c-3.4,7.9-5.3,16.4-5.6,25c-0.3,10,2.4,18.6,7,23.2c1.7,1.7,3.3,3.6,4.8,5.5c1,1.5,2.2,2.4,2.6,2.2c0.3-0.1,0.7,0.3,0.7,1
		c0,0.7,3.8,3.6,8.5,6.6c8.9,5.6,13.6,7.2,38.1,14c9.4,2.6,13.8,4.5,18.4,7.6c2.8,2,5.6,4.2,8.2,6.5c3.7,3.5,6.1,8,1.8,13.6
		c-3.3,4.3-9.2,5.1-13.8,4.5c-1-0.1-5.1-0.8-9.1-1.6c-2.8-0.3-5.5-1-8.1-2.2c-0.4-0.6-1.2-0.9-1.9-0.8c-1.6,0.3-17-9.7-17-11.1
		c0-1.8-4.2-4.8-5.1-6.4c-1.8-3.2-3.2-6.5-4.3-10c-2.2,0.1-6.5,2.7-8.8,3.7c-2.8,1.2-5.3,3-8,4.5c-4.9,2.8-9.7,5.8-14.3,9.1
		c-3.5,2.4-8.1,4.2-10.9,7.3c-0.8,0.9-1.1,1.3-1.9,2.2c0.8,0.9,1.2,1.5,2,2.4c2.6,3.6,4.8,7.5,6.6,11.6c0.4,0.8,0.9,1.6,1.3,2.4
		c3,4.4,5.5,9.2,7.3,14.3c0.1,1.1,0.5,2.2,1.2,3c0.7,0.5,5.5,18.2,6.2,23.5c0.3,2.1,0.8,3.9,1.3,3.8c0.6-0.1,0.9,0.6,0.9,1.6
		c0,1.5,0.5,1.7,1.8,1c10.1-4.9,13.6-6.3,18.9-7.3c3.5-0.6,8.4-1.2,11.1-1.3c2.7-0.1,6.7-0.5,9.2-0.6c7.1-0.6,11.1-0.8,12.1-0.1
		c1.6,0.8,21.1,3,26.3,3.1c4.7-0.1,9.5-0.5,14.2-1.2c4.3-0.6,8.2-0.2,12.5-1.6l-0.3-0.1c4-1.3,8.2-2,12.2-3.4
		c11.4-4,21.7-10.4,30.3-18.8c5.2-5.2,9.5-11.1,12.9-17.6c1.5-2.5,2.6-5.2,3.3-8c0-0.7,0.6-2.9,0.9-4.9c1.2-5.2,1.4-10.6,0.5-15.8
		c-0.9-4.5-2.5-8.6-3.6-12.9c-0.6-3-1.5-6-2.9-8.8c-5.4-7.5-13.7-12.6-20.6-19c-4.7-4.4-9.1-8.9-16-11.3c-8.3-2.8-17.4-4-26-6.5
		c-13.7-3.9-19.9-6.1-24.3-8.9c-2.2-1.3-4.1-3-5.6-5.1c-0.7-1.1-1-1.6-1.7-2.7c0.7-1,1-1.6,1.6-2.6c1.4-2.1,3.6-3.5,6.1-3.8
		c3.4-0.9,7-1.3,10.6-1.2c6.8,0,13.6,1.6,19.7,4.7c1.6,1,5.3,3.5,8.4,5.3c5.2,3.1,10.1,6.6,14.6,10.7c1.2,1.2,2.6,2.3,4,3.3
		c0.6,0.5,2.8-0.9,5.2-2.6c2.4-1.8,4.8-3.6,5.7-4.2c0.7-0.6,2.8-2.1,4.5-3.4c1.6-1.2,21.2-15.4,21.9-14.5c-2.3-3.4-4.8-6.6-7.5-9.5
		C184.7,51.6,182.6,48.8,180.7,45.9z M174.7,63.7c-1.2,2.2-4.6,2.9-6.7,4.2c-2.7,1.7-5.4,3.5-7.9,5.5c-1.5,1-2.1,1.5-3.6,2.5
		c-3.8-2.9-5.8-4.4-9.7-7.3c-8-5.9-17.2-10.1-26.9-12.3c-3.5-0.7-7-1.1-10.6-1.2c-4.9-0.6-12.4-0.7-17.1,2.8
		c-4.1,3.3-6.8,8-7.8,13.2c-0.6,3.5-0.1,10.2,4.5,10.7c1,0.1,1.9,0.8,1.9,1.3c0,0.7,4.2,3,9.4,5.4c5.3,2.4,10.3,4.5,11.3,4.9
		c15.8,5.6,31.1,12.3,46.1,19.9c3.1,1.9,6.1,3.9,9,6.2c2.4,2.1,4.4,4.6,6,7.3c5.1,9,6.9,12.5,7.9,15.6c2,7.2,1.8,14.8-0.3,21.9
		c-1.8,5.4-2.9,11.9-7.1,16.5c-2.4,3-5,5.8-7.8,8.4c-2.8,2.2-5.8,4-9,5.5c-2.4,1.1-8.4,3.8-13.7,5.9l0,0c-10.5,4.3-21.9,6-33.1,5.1
		c-8.1-0.7-17.3,1-24.6-1.7c-6.2-2.4-13.3-2.4-20.2-2.9c-1.8-0.3-8.1,1-14.8,2.7c-4.6,1.2-7,1.8-11.7,3.1c-0.6-1.2-0.9-1.9-1.6-3.1
		c-1.9-4.6-3.6-9.3-5.1-14c-1.5-2.9-3.1-5.8-4.9-8.5c-1.9-3.1-2.7-6.6-4.4-9.7c-0.6-1.1-4.2-5.5-3-7.2c3-5.1,14.4-9.5,19.7-11.3
		c1.1-0.3,1.7-0.6,2.8-0.9c1.7,1.7,2.6,2.5,4.4,4.2c7.2,7.1,16.2,12.2,26.1,14.8c3.7,1.2,8.1,2.5,9.7,2.9c9.5,2.4,19.5,1.3,28.3-3
		c5.2-2.7,10.6-8.2,11.2-13.5c1.1-8.6-4.6-16.3-11.1-20.8c-2.7-1.6-5.6-3-8.7-4c-3.5-1.4-7-3-10.3-4.8c-2.3-1.3-4.8-2.4-7.4-3
		c-1.8-0.4-3.6-1-5.3-1.7c-1.2-0.6-5.4-2.2-9.1-3.8c-3.6-1.4-7-3-10.3-4.9c-1.3-1-2.8-1.7-4.4-2.1c-1.2,0.2-14.5-9.2-18.4-13.1
		c-2.3-2.4-4.1-5.3-5.2-8.4c-1-4.2-1.7-8.5-1.9-12.8c-0.2-3.3-0.3-4.8-0.6-8c0.9-2.5,1.3-3.6,2.1-6.1c2.8-7.7,7.1-14.8,12.5-20.9
		c2.8-2.7,6-5.1,9.3-7.1c9-6.6,23.9-8.4,33.3-7.3c3.3,0.4,6.6,0.6,9.9,0.6c4.3-0.1,8.1,0.6,12.4,0.3c2.7-0.1,5.5-0.7,8.1-0.9
		c2.6-0.1,5.2-0.6,7.8-1.3c2.7-0.8,5.5-1.9,8.1-2.7c4.3-1.6,8.2-3.9,11.6-7c2.2,1.9,3.5,6.3,4.8,9c1.4,2.4,3,4.8,4.7,7
		c1.6,2.1,4.4,6.2,6.1,8.8c2.4,3.9,5,7.7,7.9,11.3C168.2,54.8,175.2,62.9,174.7,63.7z"/>
	<path id="Path_6" class="st22" d="M147.1,44c-1.8-1.5-3.5-3.1-5.1-4.9c-1.2-1.3-0.9-1.6-2.6-2c-1.9,0-3.8,0.1-5.6,0.3
		c-4,0-8.1-0.6-12-0.7c-8.7-0.2-17.4-1.8-26.2-0.9c-9.7,0.8-21.1-0.3-30.6,4.4c-4.6,2.5-8.9,5.7-12.7,9.3
		c-7.6,6.5-9.7,14.4-9.8,22.5C42.5,82.8,48,89.3,53.5,97.2c2.6,3.6,5.9,6.5,9.8,8.6c3.8,3,8,5.6,12.4,7.7c1.9,0.6,3.7,1.6,5.3,2.9
		c0,1.2,9.8,3.3,11.2,3.8c2.8,0.9,5.3,2.4,8.1,3.3c7.8,2.4,15.4,5.4,22.7,9.1c3.7,2.1,6.9,4.8,9.7,8c1.6,1.9,2.8,4.1,3.5,6.5
		c1.2,4.6-0.3,14.9-2.8,18.6c-3.3,5.2-7.8,9.5-13,12.7c-3.7,2.3-7.9,3.8-12.2,4.4c-11.7,1.3-23.5,0.1-34.6-3.7c-3-1-5.9-2.1-8.8-3.4
		c-2.5-1.4-5.1-2.6-7.8-3.6c-3.3-1.2-6.3-3-8.9-5.3c-1-1.3-2.2-2.2-2.9-2.1c-1.6,0.9-3.1,2.1-4.3,3.5c-1.2,1.2-1.8,1.9-3,3.3
		c0.6,1.8,0.8,2.7,1.3,4.5c0.9,3.1,1.4,6.2,1.5,9.4c0,2,0.1,2.9,0.1,4.9c1.8-0.2,2.6-0.2,4.4-0.5c2.5-0.2,6.9-0.7,9.9-1.1
		c8-1.1,16.2-0.8,24.2,0.9c10.8,2.3,21.8,3.6,32.8,4.1l0,0c3.7,0,9.8-0.8,13.2-0.7c8.9-2,17.4-4.8,21-7.1
		c6.9-4.3,12.5-10.5,16.2-17.8c2.9-6.6,5.6-15.8,3.4-22.1c-3.1-10.1-10-18.6-19.1-23.9c-2.7-1.3-5.5-2.3-8.4-3.1
		c-3.8-1.4-7.4-3.2-10.8-5.3c-7.4-3.7-14.9-6.9-22.7-9.7c-4.6-1.6-8.8-3.7-13.2-5.4c-3.7-1.4-7.1-3.2-10.3-5.5
		c-3-2.3-5.6-5.1-7.6-8.2c-3.9-6.8-5.6-16.6,0.8-24.9c5.4-7,14.4-10.4,22.2-11.9c5.7-1.3,11.6-1.7,17.4-1.3
		c5.8,0.6,12.5,0.2,18.3,1.5c3.8,1,13.4,2.6,14.9,6.4c1.9-0.9,3.9-2.7,5.8-3.8C150.4,50,149,46,147.1,44z"/>
</g>
<polygon class="st22" points="350.3,87.5 317.8,87.5 317.8,55 267.8,55 267.8,87.5 235.3,87.5 235.3,137.5 267.8,137.5 267.8,170 
	317.8,170 317.8,137.5 350.3,137.5 "/>
</svg>
